<svg id="svg" version="1.1" width="400" height="400" viewBox="0 0 400 400" xmlns="http://www.w3.org/2000/svg">
    <g id="svgg">
        <path id="path0"
              d="M288.000 44.420 C 289.387 45.361,290.178 45.635,289.200 44.836 C 288.650 44.386,288.020 44.017,287.800 44.015 C 287.580 44.013,287.670 44.196,288.000 44.420 M86.621 65.416 C 85.991 65.957,85.639 66.394,85.838 66.387 C 86.332 66.369,88.156 64.823,87.939 64.606 C 87.844 64.510,87.250 64.875,86.621 65.416 M78.370 73.100 L 77.400 74.200 78.600 73.200 C 79.260 72.650,79.875 72.155,79.967 72.100 C 80.058 72.045,79.955 72.000,79.736 72.000 C 79.518 72.000,78.903 72.495,78.370 73.100 M329.200 74.948 C 329.200 75.107,329.650 75.686,330.200 76.236 C 330.750 76.786,331.200 77.080,331.200 76.888 C 331.200 76.696,330.750 76.117,330.200 75.600 C 329.650 75.083,329.200 74.790,329.200 74.948 M72.801 78.598 C 72.286 79.148,71.939 79.664,72.032 79.746 C 72.124 79.828,72.619 79.378,73.130 78.747 C 74.276 77.335,74.074 77.244,72.801 78.598 M65.800 86.146 C 64.678 87.450,64.335 87.999,64.651 87.987 C 65.041 87.973,66.558 86.020,66.339 85.813 C 66.263 85.740,66.020 85.890,65.800 86.146 M382.456 202.984 C 382.471 204.201,382.637 205.101,382.826 204.984 C 383.264 204.713,383.210 201.253,382.764 200.978 C 382.580 200.864,382.442 201.767,382.456 202.984 M44.015 287.800 C 44.017 288.020,44.386 288.650,44.836 289.200 C 45.379 289.864,45.515 289.931,45.240 289.400 C 44.566 288.095,44.012 287.372,44.015 287.800 M75.600 330.200 C 76.117 330.750,76.696 331.200,76.888 331.200 C 77.080 331.200,76.786 330.750,76.236 330.200 C 75.686 329.650,75.107 329.200,74.948 329.200 C 74.790 329.200,75.083 329.650,75.600 330.200 M200.978 382.764 C 201.253 383.210,204.713 383.264,204.984 382.826 C 205.101 382.637,204.201 382.471,202.984 382.456 C 201.767 382.442,200.864 382.580,200.978 382.764 "
              stroke="none" fill="#000000" fill-rule="evenodd"></path>
        <path id="path1"
              d="M221.600 105.997 C 221.050 106.175,218.341 106.338,215.580 106.360 C 212.819 106.382,210.389 106.563,210.180 106.761 C 209.971 106.960,208.990 107.222,208.000 107.343 C 204.765 107.739,203.196 108.082,202.973 108.444 C 202.852 108.640,202.401 108.800,201.971 108.800 C 201.541 108.800,200.877 108.964,200.495 109.165 C 200.113 109.365,198.420 110.183,196.734 110.982 C 195.048 111.782,193.451 112.698,193.185 113.018 C 192.919 113.338,192.523 113.600,192.303 113.600 C 191.493 113.600,185.946 119.430,184.711 121.579 C 182.534 125.365,181.600 127.307,181.600 128.044 C 181.600 128.434,181.441 128.851,181.246 128.971 C 181.051 129.092,180.793 129.687,180.671 130.295 C 180.549 130.903,180.244 132.210,179.994 133.200 C 178.896 137.544,178.685 140.651,178.538 154.656 L 178.381 169.512 177.491 169.750 C 177.001 169.882,172.413 169.992,167.295 169.995 L 157.991 170.000 158.095 186.100 L 158.200 202.200 167.800 202.400 C 173.080 202.510,177.625 202.746,177.900 202.924 C 178.295 203.180,178.400 213.362,178.400 251.624 L 178.400 300.000 198.000 300.000 L 217.600 300.000 217.600 251.833 C 217.600 225.341,217.709 203.381,217.843 203.033 C 218.057 202.474,219.614 202.400,231.243 202.400 L 244.400 202.400 244.400 201.024 C 244.400 200.267,244.580 199.536,244.800 199.400 C 245.021 199.264,245.200 197.470,245.200 195.400 C 245.200 193.330,245.379 191.536,245.600 191.400 C 245.820 191.264,246.000 189.669,246.000 187.856 C 246.000 186.043,246.167 184.389,246.372 184.180 C 246.576 183.971,246.846 182.225,246.972 180.300 C 247.097 178.375,247.303 175.270,247.429 173.400 L 247.659 170.000 233.262 170.000 C 225.344 170.000,218.581 169.891,218.233 169.757 C 217.155 169.344,217.301 147.629,218.401 144.689 C 219.429 141.941,221.991 139.600,223.971 139.600 C 224.401 139.600,224.864 139.420,225.000 139.200 C 225.155 138.949,229.406 138.800,236.428 138.800 L 247.609 138.800 247.504 122.300 L 247.400 105.800 235.000 105.737 C 228.180 105.702,222.150 105.819,221.600 105.997 "
              stroke="none" fill="#ffffff" fill-rule="evenodd"></path>
        <path id="path2"
              d="M192.800 23.600 C 192.800 23.843,191.008 24.000,188.224 24.000 C 185.604 24.000,183.542 24.171,183.400 24.400 C 183.264 24.620,181.813 24.800,180.176 24.800 C 178.459 24.800,177.200 24.969,177.200 25.200 C 177.200 25.422,176.133 25.600,174.800 25.600 C 173.467 25.600,172.400 25.778,172.400 26.000 C 172.400 26.220,171.421 26.400,170.224 26.400 C 169.027 26.400,167.936 26.580,167.800 26.800 C 167.664 27.020,166.905 27.200,166.112 27.200 C 164.565 27.200,156.253 29.041,155.105 29.639 C 154.723 29.837,153.969 30.000,153.429 30.000 C 152.889 30.000,152.336 30.180,152.200 30.400 C 152.064 30.620,151.459 30.800,150.856 30.800 C 150.253 30.800,149.589 30.947,149.380 31.128 C 149.171 31.308,147.110 32.069,144.800 32.819 C 142.490 33.569,140.540 34.321,140.467 34.491 C 140.393 34.661,139.808 34.800,139.167 34.800 C 138.525 34.800,138.000 34.980,138.000 35.200 C 138.000 35.420,137.640 35.600,137.200 35.600 C 136.760 35.600,136.400 35.780,136.400 36.000 C 136.400 36.220,135.860 36.400,135.200 36.400 C 134.540 36.400,134.000 36.580,134.000 36.800 C 134.000 37.020,133.640 37.200,133.200 37.200 C 132.760 37.200,132.400 37.380,132.400 37.600 C 132.400 37.820,132.051 38.000,131.624 38.000 C 131.197 38.000,130.736 38.180,130.600 38.400 C 130.464 38.620,130.003 38.800,129.576 38.800 C 129.149 38.800,128.800 38.980,128.800 39.200 C 128.800 39.420,128.440 39.600,128.000 39.600 C 127.560 39.600,127.200 39.780,127.200 40.000 C 127.200 40.220,126.840 40.400,126.400 40.400 C 125.960 40.400,125.600 40.580,125.600 40.800 C 125.600 41.020,125.240 41.200,124.800 41.200 C 124.360 41.200,124.000 41.380,124.000 41.600 C 124.000 41.820,123.640 42.000,123.200 42.000 C 122.760 42.000,122.400 42.180,122.400 42.400 C 122.400 42.620,122.040 42.800,121.600 42.800 C 121.160 42.800,120.800 42.980,120.800 43.200 C 120.800 43.420,120.511 43.600,120.158 43.600 C 119.804 43.600,118.075 44.410,116.315 45.400 C 114.554 46.390,112.968 47.200,112.790 47.200 C 112.612 47.200,112.407 47.335,112.333 47.500 C 112.260 47.665,111.345 48.233,110.300 48.763 C 109.255 49.292,108.400 49.877,108.400 50.063 C 108.400 50.248,108.164 50.400,107.875 50.400 C 107.587 50.400,107.002 50.715,106.575 51.100 C 106.149 51.485,105.305 52.055,104.700 52.368 C 104.095 52.680,103.600 53.085,103.600 53.268 C 103.600 53.450,103.364 53.600,103.075 53.600 C 102.787 53.600,102.164 53.960,101.692 54.400 C 101.220 54.840,100.646 55.200,100.417 55.200 C 100.188 55.200,100.000 55.380,100.000 55.600 C 100.000 55.820,99.745 56.000,99.433 56.000 C 99.122 56.000,98.807 56.135,98.733 56.300 C 98.564 56.682,95.327 59.200,95.007 59.200 C 94.748 59.200,94.271 59.585,92.404 61.300 C 91.746 61.905,91.071 62.401,90.904 62.402 C 90.737 62.402,89.610 63.302,88.400 64.400 C 87.190 65.498,86.084 66.398,85.942 66.398 C 85.800 66.399,84.496 67.570,83.045 69.000 C 81.594 70.430,80.214 71.600,79.979 71.600 C 79.745 71.600,79.664 71.780,79.800 72.000 C 79.936 72.220,79.875 72.400,79.664 72.400 C 79.163 72.400,72.400 79.163,72.400 79.664 C 72.400 79.875,72.220 79.936,72.000 79.800 C 71.780 79.664,71.600 79.745,71.600 79.979 C 71.600 80.214,70.430 81.594,69.000 83.045 C 67.570 84.496,66.399 85.800,66.398 85.942 C 66.398 86.084,65.498 87.190,64.400 88.400 C 63.302 89.610,62.402 90.737,62.402 90.904 C 62.401 91.071,61.905 91.746,61.300 92.404 C 59.585 94.271,59.200 94.748,59.200 95.007 C 59.200 95.327,56.682 98.564,56.300 98.733 C 56.135 98.807,56.000 99.122,56.000 99.433 C 56.000 99.745,55.820 100.000,55.600 100.000 C 55.380 100.000,55.200 100.270,55.200 100.600 C 55.200 100.930,55.050 101.200,54.868 101.200 C 54.685 101.200,54.281 101.695,53.970 102.300 C 53.660 102.905,53.089 103.691,52.703 104.047 C 52.316 104.403,52.000 104.905,52.000 105.164 C 52.000 105.422,51.640 106.020,51.200 106.492 C 50.760 106.964,50.400 107.587,50.400 107.875 C 50.400 108.164,50.248 108.400,50.063 108.400 C 49.877 108.400,49.292 109.255,48.763 110.300 C 48.233 111.345,47.665 112.260,47.500 112.333 C 47.335 112.407,47.200 112.612,47.200 112.790 C 47.200 112.968,46.390 114.554,45.400 116.315 C 44.410 118.075,43.600 119.804,43.600 120.158 C 43.600 120.511,43.420 120.800,43.200 120.800 C 42.980 120.800,42.800 121.160,42.800 121.600 C 42.800 122.040,42.620 122.400,42.400 122.400 C 42.180 122.400,42.000 122.760,42.000 123.200 C 42.000 123.640,41.820 124.000,41.600 124.000 C 41.380 124.000,41.200 124.360,41.200 124.800 C 41.200 125.240,41.020 125.600,40.800 125.600 C 40.580 125.600,40.400 125.960,40.400 126.400 C 40.400 126.840,40.220 127.200,40.000 127.200 C 39.780 127.200,39.600 127.560,39.600 128.000 C 39.600 128.440,39.420 128.800,39.200 128.800 C 38.980 128.800,38.800 129.149,38.800 129.576 C 38.800 130.003,38.620 130.464,38.400 130.600 C 38.180 130.736,38.000 131.197,38.000 131.624 C 38.000 132.051,37.820 132.400,37.600 132.400 C 37.380 132.400,37.200 132.760,37.200 133.200 C 37.200 133.640,37.020 134.000,36.800 134.000 C 36.580 134.000,36.400 134.540,36.400 135.200 C 36.400 135.860,36.220 136.400,36.000 136.400 C 35.780 136.400,35.600 136.749,35.600 137.176 C 35.600 137.603,35.420 138.064,35.200 138.200 C 34.980 138.336,34.800 138.872,34.800 139.390 C 34.800 139.909,34.661 140.393,34.491 140.467 C 34.321 140.540,33.569 142.490,32.819 144.800 C 32.069 147.110,31.308 149.171,31.128 149.380 C 30.947 149.589,30.800 150.253,30.800 150.856 C 30.800 151.459,30.620 152.064,30.400 152.200 C 30.180 152.336,30.000 152.889,30.000 153.429 C 30.000 153.969,29.837 154.723,29.639 155.105 C 29.041 156.253,27.200 164.565,27.200 166.112 C 27.200 166.905,27.020 167.664,26.800 167.800 C 26.580 167.936,26.400 169.027,26.400 170.224 C 26.400 171.421,26.220 172.400,26.000 172.400 C 25.778 172.400,25.600 173.467,25.600 174.800 C 25.600 176.133,25.422 177.200,25.200 177.200 C 24.969 177.200,24.800 178.459,24.800 180.176 C 24.800 181.813,24.620 183.264,24.400 183.400 C 24.171 183.542,24.000 185.604,24.000 188.224 C 24.000 191.008,23.843 192.800,23.600 192.800 C 23.054 192.800,23.054 213.063,23.600 213.400 C 23.829 213.542,24.000 215.604,24.000 218.224 C 24.000 221.008,24.157 222.800,24.400 222.800 C 24.631 222.800,24.800 224.059,24.800 225.776 C 24.800 227.413,24.980 228.864,25.200 229.000 C 25.420 229.136,25.600 230.227,25.600 231.424 C 25.600 232.621,25.780 233.600,26.000 233.600 C 26.220 233.600,26.400 234.579,26.400 235.776 C 26.400 236.973,26.554 238.048,26.743 238.165 C 26.931 238.281,27.190 239.386,27.317 240.620 C 27.543 242.808,28.996 249.403,29.604 251.000 C 29.772 251.440,30.127 252.610,30.393 253.600 C 30.660 254.590,31.040 255.713,31.239 256.095 C 31.438 256.477,31.600 257.242,31.600 257.795 C 31.600 258.348,31.780 258.800,32.000 258.800 C 32.220 258.800,32.400 259.239,32.400 259.776 C 32.400 260.313,32.580 260.864,32.800 261.000 C 33.020 261.136,33.200 261.777,33.200 262.424 C 33.200 263.071,33.380 263.600,33.600 263.600 C 33.820 263.600,34.000 264.140,34.000 264.800 C 34.000 265.460,34.180 266.000,34.400 266.000 C 34.620 266.000,34.800 266.272,34.800 266.605 C 34.800 266.938,34.959 267.523,35.153 267.905 C 35.348 268.287,35.729 269.140,36.000 269.800 C 36.271 270.460,36.652 271.313,36.847 271.695 C 37.041 272.077,37.200 272.662,37.200 272.995 C 37.200 273.328,37.380 273.600,37.600 273.600 C 37.820 273.600,38.000 273.960,38.000 274.400 C 38.000 274.840,38.180 275.200,38.400 275.200 C 38.620 275.200,38.800 275.560,38.800 276.000 C 38.800 276.440,38.980 276.800,39.200 276.800 C 39.420 276.800,39.600 277.239,39.600 277.776 C 39.600 278.313,39.780 278.864,40.000 279.000 C 40.220 279.136,40.400 279.597,40.400 280.024 C 40.400 280.451,40.580 280.800,40.800 280.800 C 41.020 280.800,41.200 281.145,41.200 281.567 C 41.200 281.988,41.335 282.393,41.500 282.467 C 41.665 282.540,42.698 284.400,43.795 286.600 C 44.893 288.800,45.928 290.660,46.095 290.733 C 46.263 290.807,46.400 291.212,46.400 291.633 C 46.400 292.055,46.558 292.400,46.751 292.400 C 46.945 292.400,47.327 292.940,47.600 293.600 C 47.873 294.260,48.255 294.800,48.449 294.800 C 48.642 294.800,48.800 295.160,48.800 295.600 C 48.800 296.040,48.958 296.400,49.151 296.400 C 49.345 296.400,49.727 296.940,50.000 297.600 C 50.273 298.260,50.655 298.800,50.849 298.800 C 51.042 298.800,51.200 299.036,51.200 299.325 C 51.200 299.613,51.560 300.236,52.000 300.708 C 52.440 301.180,52.800 301.778,52.800 302.036 C 52.800 302.295,53.116 302.797,53.503 303.153 C 53.889 303.509,54.460 304.295,54.770 304.900 C 55.081 305.505,55.485 306.000,55.668 306.000 C 55.850 306.000,56.000 306.230,56.000 306.512 C 56.000 306.793,56.360 307.283,56.800 307.600 C 57.240 307.917,57.600 308.380,57.600 308.629 C 57.600 308.878,58.124 309.629,58.764 310.299 C 59.404 310.969,60.146 311.925,60.413 312.425 C 60.914 313.360,63.136 316.173,66.362 319.955 C 67.373 321.141,70.450 324.386,73.200 327.167 C 75.950 329.947,78.659 332.758,79.219 333.411 C 80.437 334.832,84.138 338.204,86.011 339.600 C 86.749 340.150,87.760 341.005,88.258 341.500 C 88.756 341.995,89.330 342.400,89.534 342.400 C 89.737 342.400,90.645 343.120,91.552 344.000 C 92.459 344.880,93.354 345.600,93.541 345.600 C 93.728 345.600,94.446 346.140,95.137 346.800 C 95.828 347.460,96.535 348.000,96.708 348.000 C 96.881 348.000,97.283 348.360,97.600 348.800 C 97.917 349.240,98.362 349.600,98.588 349.601 C 98.815 349.601,99.630 350.141,100.400 350.800 C 101.170 351.459,101.943 351.999,102.117 351.999 C 102.291 352.000,102.651 352.186,102.917 352.414 C 103.569 352.973,109.855 356.969,111.600 357.934 C 112.370 358.360,113.810 359.134,114.800 359.654 C 115.790 360.174,116.660 360.735,116.733 360.900 C 116.807 361.065,117.212 361.200,117.633 361.200 C 118.055 361.200,118.400 361.380,118.400 361.600 C 118.400 361.820,118.760 362.000,119.200 362.000 C 119.640 362.000,120.000 362.180,120.000 362.400 C 120.000 362.620,120.360 362.800,120.800 362.800 C 121.240 362.800,121.600 362.980,121.600 363.200 C 121.600 363.420,121.971 363.600,122.424 363.600 C 122.877 363.600,123.136 363.780,123.000 364.000 C 122.864 364.220,123.113 364.400,123.553 364.400 C 123.993 364.400,124.464 364.580,124.600 364.800 C 124.736 365.020,125.197 365.200,125.624 365.200 C 126.051 365.200,126.400 365.380,126.400 365.600 C 126.400 365.820,126.760 366.000,127.200 366.000 C 127.640 366.000,128.000 366.136,128.000 366.302 C 128.000 366.469,128.585 366.844,129.300 367.137 C 130.882 367.784,133.946 369.157,134.895 369.644 C 135.277 369.840,135.952 370.000,136.395 370.000 C 136.838 370.000,137.200 370.141,137.200 370.313 C 137.200 370.485,138.055 370.875,139.100 371.180 C 140.145 371.485,141.270 371.872,141.600 372.041 C 141.930 372.209,143.055 372.578,144.100 372.861 C 145.145 373.143,146.000 373.495,146.000 373.642 C 146.000 373.789,146.495 374.012,147.100 374.138 C 150.514 374.849,152.781 375.447,153.040 375.706 C 153.201 375.868,153.933 376.000,154.667 376.000 C 155.400 376.000,156.000 376.180,156.000 376.400 C 156.000 376.620,156.529 376.800,157.176 376.800 C 157.823 376.800,158.464 376.980,158.600 377.200 C 158.736 377.420,159.647 377.600,160.624 377.600 C 161.601 377.600,162.400 377.780,162.400 378.000 C 162.400 378.220,163.019 378.400,163.776 378.400 C 164.533 378.400,165.264 378.580,165.400 378.800 C 165.536 379.020,166.436 379.200,167.400 379.200 C 168.364 379.200,169.264 379.380,169.400 379.600 C 169.536 379.820,170.627 380.000,171.824 380.000 C 173.021 380.000,174.000 380.180,174.000 380.400 C 174.000 380.629,175.200 380.800,176.800 380.800 C 178.400 380.800,179.600 380.971,179.600 381.200 C 179.600 381.435,180.973 381.600,182.920 381.600 C 184.746 381.600,186.422 381.782,186.645 382.005 C 187.199 382.559,218.800 382.560,219.355 382.005 C 219.578 381.782,221.153 381.600,222.856 381.600 C 224.559 381.600,226.064 381.420,226.200 381.200 C 226.336 380.980,227.686 380.800,229.200 380.800 C 230.714 380.800,232.064 380.620,232.200 380.400 C 232.336 380.180,233.236 380.000,234.200 380.000 C 235.164 380.000,236.064 379.820,236.200 379.600 C 236.336 379.380,237.326 379.200,238.400 379.200 C 239.474 379.200,240.464 379.020,240.600 378.800 C 240.736 378.580,241.557 378.400,242.424 378.400 C 243.291 378.400,244.000 378.220,244.000 378.000 C 244.000 377.780,244.720 377.600,245.600 377.600 C 246.480 377.600,247.200 377.420,247.200 377.200 C 247.200 376.980,247.819 376.800,248.576 376.800 C 249.333 376.800,250.064 376.620,250.200 376.400 C 250.336 376.180,250.966 376.000,251.600 376.000 C 252.234 376.000,252.864 375.820,253.000 375.600 C 253.136 375.380,253.666 375.200,254.178 375.200 C 255.212 375.200,258.714 374.200,260.668 373.347 C 261.366 373.042,262.536 372.674,263.268 372.529 C 264.001 372.385,265.190 371.936,265.912 371.533 C 266.634 371.130,267.491 370.800,267.818 370.800 C 268.144 370.800,268.768 370.620,269.205 370.400 C 269.642 370.180,270.358 369.820,270.795 369.600 C 271.232 369.380,271.862 369.200,272.195 369.200 C 272.528 369.200,272.800 369.020,272.800 368.800 C 272.800 368.580,273.160 368.400,273.600 368.400 C 274.040 368.400,274.400 368.220,274.400 368.000 C 274.400 367.780,274.672 367.600,275.005 367.600 C 275.593 367.600,276.018 367.433,277.895 366.462 C 278.387 366.208,279.062 366.000,279.395 366.000 C 279.728 366.000,280.000 365.820,280.000 365.600 C 280.000 365.380,280.360 365.200,280.800 365.200 C 281.240 365.200,281.600 365.020,281.600 364.800 C 281.600 364.580,281.960 364.400,282.400 364.400 C 282.840 364.400,283.201 364.265,283.203 364.100 C 283.207 363.741,285.144 362.800,285.880 362.800 C 286.166 362.800,286.400 362.620,286.400 362.400 C 286.400 362.180,286.670 362.000,287.000 362.000 C 287.330 362.000,287.600 361.820,287.600 361.600 C 287.600 361.380,287.960 361.200,288.400 361.200 C 288.840 361.200,289.200 361.020,289.200 360.800 C 289.200 360.580,289.470 360.400,289.800 360.400 C 290.130 360.400,290.400 360.220,290.400 360.000 C 290.400 359.780,290.670 359.600,291.000 359.600 C 291.330 359.600,291.600 359.420,291.600 359.200 C 291.600 358.980,291.933 358.800,292.339 358.800 C 292.745 358.800,294.594 357.855,296.447 356.700 C 298.300 355.545,300.308 354.345,300.908 354.032 C 301.509 353.720,302.000 353.315,302.000 353.132 C 302.000 352.950,302.242 352.800,302.538 352.800 C 302.834 352.800,303.402 352.440,303.800 352.000 C 304.198 351.560,304.765 351.200,305.059 351.200 C 305.353 351.200,305.818 350.840,306.093 350.400 C 306.368 349.960,306.792 349.600,307.037 349.600 C 307.281 349.600,308.046 349.060,308.737 348.400 C 309.428 347.740,310.148 347.200,310.337 347.200 C 310.526 347.200,311.246 346.660,311.937 346.000 C 312.628 345.340,313.353 344.800,313.548 344.800 C 313.744 344.800,314.613 344.112,315.480 343.270 C 316.346 342.429,317.313 341.638,317.628 341.513 C 320.068 340.541,340.792 319.773,341.551 317.540 C 341.633 317.296,342.398 316.378,343.251 315.500 C 344.103 314.622,344.800 313.744,344.800 313.548 C 344.800 313.353,345.340 312.628,346.000 311.937 C 346.660 311.246,347.200 310.526,347.200 310.337 C 347.200 310.148,347.740 309.428,348.400 308.737 C 349.060 308.046,349.600 307.238,349.600 306.941 C 349.600 306.643,349.762 306.400,349.960 306.400 C 350.159 306.400,350.695 305.815,351.151 305.100 C 352.710 302.659,353.000 302.243,353.700 301.446 C 354.085 301.008,354.400 300.523,354.400 300.368 C 354.400 300.213,355.390 298.509,356.600 296.582 C 357.810 294.655,358.800 292.745,358.800 292.339 C 358.800 291.933,358.980 291.600,359.200 291.600 C 359.420 291.600,359.600 291.330,359.600 291.000 C 359.600 290.670,359.780 290.400,360.000 290.400 C 360.220 290.400,360.400 290.130,360.400 289.800 C 360.400 289.470,360.580 289.200,360.800 289.200 C 361.020 289.200,361.200 288.840,361.200 288.400 C 361.200 287.960,361.380 287.600,361.600 287.600 C 361.820 287.600,362.000 287.330,362.000 287.000 C 362.000 286.670,362.180 286.400,362.400 286.400 C 362.620 286.400,362.800 286.166,362.800 285.880 C 362.800 285.144,363.741 283.207,364.100 283.203 C 364.265 283.201,364.400 282.840,364.400 282.400 C 364.400 281.960,364.580 281.600,364.800 281.600 C 365.020 281.600,365.200 281.240,365.200 280.800 C 365.200 280.360,365.380 280.000,365.600 280.000 C 365.820 280.000,366.000 279.728,366.000 279.395 C 366.000 278.807,366.167 278.382,367.138 276.505 C 367.392 276.013,367.600 275.338,367.600 275.005 C 367.600 274.672,367.780 274.400,368.000 274.400 C 368.220 274.400,368.400 274.040,368.400 273.600 C 368.400 273.160,368.580 272.800,368.800 272.800 C 369.020 272.800,369.200 272.528,369.200 272.195 C 369.200 271.862,369.380 271.232,369.600 270.795 C 369.820 270.358,370.180 269.642,370.400 269.205 C 370.620 268.768,370.800 268.144,370.800 267.818 C 370.800 267.491,371.130 266.634,371.533 265.912 C 371.936 265.190,372.385 264.001,372.529 263.268 C 372.674 262.536,373.042 261.366,373.347 260.668 C 374.200 258.714,375.200 255.212,375.200 254.178 C 375.200 253.666,375.380 253.136,375.600 253.000 C 375.820 252.864,376.000 252.234,376.000 251.600 C 376.000 250.966,376.180 250.336,376.400 250.200 C 376.620 250.064,376.800 249.333,376.800 248.576 C 376.800 247.819,376.980 247.200,377.200 247.200 C 377.420 247.200,377.600 246.480,377.600 245.600 C 377.600 244.720,377.780 244.000,378.000 244.000 C 378.220 244.000,378.400 243.291,378.400 242.424 C 378.400 241.557,378.580 240.736,378.800 240.600 C 379.020 240.464,379.200 239.474,379.200 238.400 C 379.200 237.326,379.380 236.336,379.600 236.200 C 379.820 236.064,380.000 235.164,380.000 234.200 C 380.000 233.236,380.180 232.336,380.400 232.200 C 380.620 232.064,380.800 230.714,380.800 229.200 C 380.800 227.686,380.980 226.336,381.200 226.200 C 381.420 226.064,381.600 224.559,381.600 222.856 C 381.600 221.153,381.782 219.578,382.005 219.355 C 382.560 218.800,382.559 187.199,382.005 186.645 C 381.782 186.422,381.600 184.746,381.600 182.920 C 381.600 180.973,381.435 179.600,381.200 179.600 C 380.971 179.600,380.800 178.400,380.800 176.800 C 380.800 175.200,380.629 174.000,380.400 174.000 C 380.180 174.000,380.000 173.021,380.000 171.824 C 380.000 170.627,379.820 169.536,379.600 169.400 C 379.380 169.264,379.200 168.364,379.200 167.400 C 379.200 166.436,379.020 165.536,378.800 165.400 C 378.580 165.264,378.400 164.533,378.400 163.776 C 378.400 163.019,378.220 162.400,378.000 162.400 C 377.780 162.400,377.600 161.601,377.600 160.624 C 377.600 159.647,377.420 158.736,377.200 158.600 C 376.980 158.464,376.800 157.823,376.800 157.176 C 376.800 156.529,376.620 156.000,376.400 156.000 C 376.180 156.000,376.000 155.400,376.000 154.667 C 376.000 153.933,375.868 153.201,375.706 153.040 C 375.447 152.781,374.849 150.514,374.138 147.100 C 374.012 146.495,373.789 146.000,373.642 146.000 C 373.495 146.000,373.143 145.145,372.861 144.100 C 372.578 143.055,372.209 141.930,372.041 141.600 C 371.872 141.270,371.485 140.145,371.180 139.100 C 370.875 138.055,370.485 137.200,370.313 137.200 C 370.141 137.200,370.000 136.838,370.000 136.395 C 370.000 135.952,369.840 135.277,369.644 134.895 C 369.157 133.946,367.784 130.882,367.137 129.300 C 366.844 128.585,366.469 128.000,366.302 128.000 C 366.136 128.000,366.000 127.640,366.000 127.200 C 366.000 126.760,365.820 126.400,365.600 126.400 C 365.380 126.400,365.200 126.051,365.200 125.624 C 365.200 125.197,365.020 124.736,364.800 124.600 C 364.580 124.464,364.400 123.993,364.400 123.553 C 364.400 123.113,364.220 122.864,364.000 123.000 C 363.780 123.136,363.600 122.877,363.600 122.424 C 363.600 121.971,363.420 121.600,363.200 121.600 C 362.980 121.600,362.800 121.240,362.800 120.800 C 362.800 120.360,362.620 120.000,362.400 120.000 C 362.180 120.000,362.000 119.640,362.000 119.200 C 362.000 118.760,361.820 118.400,361.600 118.400 C 361.380 118.400,361.200 118.055,361.200 117.633 C 361.200 117.212,361.065 116.807,360.900 116.733 C 360.735 116.660,360.174 115.790,359.654 114.800 C 359.134 113.810,358.360 112.370,357.934 111.600 C 356.969 109.855,352.973 103.569,352.414 102.917 C 352.186 102.651,352.000 102.291,351.999 102.117 C 351.999 101.943,351.459 101.170,350.800 100.400 C 350.141 99.630,349.601 98.815,349.601 98.588 C 349.600 98.362,349.240 97.917,348.800 97.600 C 348.360 97.283,348.000 96.881,348.000 96.708 C 348.000 96.535,347.460 95.828,346.800 95.137 C 346.140 94.446,345.600 93.728,345.600 93.541 C 345.600 93.354,344.880 92.459,344.000 91.552 C 343.120 90.645,342.400 89.737,342.400 89.534 C 342.400 89.330,341.995 88.756,341.500 88.258 C 341.005 87.760,340.150 86.749,339.600 86.011 C 338.204 84.138,334.832 80.437,333.411 79.219 C 332.758 78.659,329.947 75.950,327.167 73.200 C 324.386 70.450,321.141 67.373,319.955 66.362 C 316.173 63.136,313.360 60.914,312.425 60.413 C 311.925 60.146,310.969 59.404,310.299 58.764 C 309.629 58.124,308.878 57.600,308.629 57.600 C 308.380 57.600,307.917 57.240,307.600 56.800 C 307.283 56.360,306.793 56.000,306.512 56.000 C 306.230 56.000,306.000 55.850,306.000 55.668 C 306.000 55.485,305.505 55.081,304.900 54.770 C 304.295 54.460,303.509 53.889,303.153 53.503 C 302.797 53.116,302.295 52.800,302.036 52.800 C 301.778 52.800,301.180 52.440,300.708 52.000 C 300.236 51.560,299.613 51.200,299.325 51.200 C 299.036 51.200,298.800 51.042,298.800 50.849 C 298.800 50.655,298.260 50.273,297.600 50.000 C 296.940 49.727,296.400 49.345,296.400 49.151 C 296.400 48.958,296.040 48.800,295.600 48.800 C 295.160 48.800,294.800 48.642,294.800 48.449 C 294.800 48.255,294.260 47.873,293.600 47.600 C 292.940 47.327,292.400 46.945,292.400 46.751 C 292.400 46.558,292.055 46.400,291.633 46.400 C 291.212 46.400,290.807 46.263,290.733 46.095 C 290.660 45.928,288.800 44.893,286.600 43.795 C 284.400 42.698,282.540 41.665,282.467 41.500 C 282.393 41.335,281.988 41.200,281.567 41.200 C 281.145 41.200,280.800 41.020,280.800 40.800 C 280.800 40.580,280.451 40.400,280.024 40.400 C 279.597 40.400,279.136 40.220,279.000 40.000 C 278.864 39.780,278.313 39.600,277.776 39.600 C 277.239 39.600,276.800 39.420,276.800 39.200 C 276.800 38.980,276.440 38.800,276.000 38.800 C 275.560 38.800,275.200 38.620,275.200 38.400 C 275.200 38.180,274.840 38.000,274.400 38.000 C 273.960 38.000,273.600 37.820,273.600 37.600 C 273.600 37.380,273.328 37.200,272.995 37.200 C 272.662 37.200,272.077 37.041,271.695 36.847 C 271.313 36.652,270.460 36.271,269.800 36.000 C 269.140 35.729,268.287 35.348,267.905 35.153 C 267.523 34.959,266.938 34.800,266.605 34.800 C 266.272 34.800,266.000 34.620,266.000 34.400 C 266.000 34.180,265.460 34.000,264.800 34.000 C 264.140 34.000,263.600 33.820,263.600 33.600 C 263.600 33.380,263.071 33.200,262.424 33.200 C 261.777 33.200,261.136 33.020,261.000 32.800 C 260.864 32.580,260.313 32.400,259.776 32.400 C 259.239 32.400,258.800 32.220,258.800 32.000 C 258.800 31.780,258.348 31.600,257.795 31.600 C 257.242 31.600,256.477 31.438,256.095 31.239 C 255.713 31.040,254.590 30.660,253.600 30.393 C 252.610 30.127,251.440 29.772,251.000 29.604 C 249.403 28.996,242.808 27.543,240.620 27.317 C 239.386 27.190,238.281 26.931,238.165 26.743 C 238.048 26.554,236.973 26.400,235.776 26.400 C 234.579 26.400,233.600 26.220,233.600 26.000 C 233.600 25.780,232.621 25.600,231.424 25.600 C 230.227 25.600,229.136 25.420,229.000 25.200 C 228.864 24.980,227.413 24.800,225.776 24.800 C 224.059 24.800,222.800 24.631,222.800 24.400 C 222.800 24.157,221.008 24.000,218.224 24.000 C 215.604 24.000,213.542 23.829,213.400 23.600 C 213.246 23.350,209.329 23.200,202.976 23.200 C 196.459 23.200,192.800 23.344,192.800 23.600 M248.000 122.200 L 248.000 139.200 239.300 139.203 C 224.376 139.209,219.200 140.540,219.200 144.373 C 219.200 144.802,219.020 145.264,218.800 145.400 C 218.548 145.556,218.400 150.004,218.400 157.424 L 218.400 169.200 233.200 169.200 L 248.000 169.200 248.000 173.176 C 248.000 175.396,247.823 177.262,247.600 177.400 C 247.380 177.536,247.200 179.156,247.200 181.000 C 247.200 182.844,247.020 184.464,246.800 184.600 C 246.580 184.736,246.400 186.367,246.400 188.224 C 246.400 190.208,246.235 191.600,246.000 191.600 C 245.760 191.600,245.600 193.200,245.600 195.600 C 245.600 198.000,245.440 199.600,245.200 199.600 C 244.980 199.600,244.800 200.320,244.800 201.200 L 244.800 202.800 231.602 202.800 L 218.403 202.800 218.302 251.500 L 218.200 300.200 198.100 300.304 L 178.000 300.407 178.000 252.175 C 178.000 210.907,177.917 203.860,177.429 203.371 C 176.965 202.908,175.040 202.800,167.229 202.800 L 157.600 202.800 157.600 186.000 L 157.600 169.200 167.786 169.200 L 177.972 169.200 178.129 154.100 C 178.278 139.740,178.570 135.432,179.637 131.800 C 180.953 127.321,182.541 123.407,183.212 122.993 C 183.426 122.860,183.947 121.997,184.368 121.076 C 185.120 119.428,191.491 112.800,192.323 112.800 C 192.554 112.800,192.981 112.575,193.271 112.300 C 194.126 111.492,198.846 109.200,199.656 109.200 C 200.065 109.200,200.400 109.020,200.400 108.800 C 200.400 108.580,200.940 108.400,201.600 108.400 C 202.260 108.400,202.800 108.220,202.800 108.000 C 202.800 107.780,203.329 107.600,203.976 107.600 C 204.623 107.600,205.264 107.420,205.400 107.200 C 205.536 106.980,206.627 106.800,207.824 106.800 C 209.021 106.800,210.000 106.620,210.000 106.400 C 210.000 106.154,211.992 106.000,215.176 106.000 C 218.196 106.000,220.456 105.833,220.600 105.600 C 220.757 105.346,225.804 105.200,234.424 105.200 L 248.000 105.200 248.000 122.200 "
              stroke="none" fill="#3a589b" fill-rule="evenodd"></path>
        <path id="path3"
              d="M220.662 105.500 C 220.560 105.665,226.669 105.800,234.238 105.800 C 241.807 105.800,248.000 105.665,248.000 105.500 C 248.000 105.335,241.891 105.200,234.424 105.200 C 226.957 105.200,220.764 105.335,220.662 105.500 M210.905 106.287 C 211.514 106.379,212.414 106.377,212.905 106.282 C 213.397 106.187,212.900 106.111,211.800 106.114 C 210.700 106.117,210.297 106.195,210.905 106.287 M188.188 116.500 C 185.165 119.622,183.746 121.479,184.105 121.838 C 184.193 121.927,184.510 121.504,184.810 120.899 C 185.109 120.295,186.800 118.315,188.568 116.500 C 190.336 114.685,191.692 113.200,191.582 113.200 C 191.472 113.200,189.945 114.685,188.188 116.500 M182.917 123.300 C 182.351 124.044,181.110 126.843,181.274 127.007 C 181.352 127.086,181.884 126.171,182.456 124.975 C 183.505 122.779,183.613 122.386,182.917 123.300 M179.260 133.267 C 179.227 133.854,179.096 134.664,178.970 135.067 C 178.752 135.760,178.765 135.761,179.195 135.090 C 179.446 134.699,179.577 133.889,179.486 133.290 L 179.320 132.200 179.260 133.267 M225.057 139.507 C 224.953 139.676,225.617 139.757,226.534 139.686 C 229.225 139.479,229.553 139.296,227.324 139.246 C 226.182 139.221,225.162 139.338,225.057 139.507 M220.401 141.798 C 219.886 142.348,219.539 142.864,219.632 142.946 C 219.724 143.028,220.219 142.578,220.730 141.947 C 221.876 140.535,221.674 140.444,220.401 141.798 M218.191 157.700 L 218.200 169.400 233.000 169.407 L 247.800 169.415 233.106 169.302 L 218.412 169.190 218.297 157.595 L 218.182 146.000 218.191 157.700 M157.599 169.500 C 157.599 169.665,160.614 169.754,164.299 169.697 C 176.698 169.507,177.863 169.365,167.700 169.282 C 162.145 169.237,157.600 169.335,157.599 169.500 M247.594 175.281 C 247.487 176.536,247.546 177.416,247.724 177.237 C 247.903 177.058,247.990 176.031,247.918 174.956 L 247.787 173.000 247.594 175.281 M246.793 182.681 C 246.687 183.825,246.747 184.615,246.926 184.435 C 247.105 184.256,247.191 183.319,247.118 182.354 L 246.985 180.600 246.793 182.681 M246.114 189.800 C 246.117 190.900,246.195 191.303,246.287 190.695 C 246.379 190.086,246.377 189.186,246.282 188.695 C 246.187 188.203,246.111 188.700,246.114 189.800 M245.301 198.200 C 245.305 199.080,245.387 199.393,245.483 198.895 C 245.579 198.398,245.575 197.678,245.475 197.295 C 245.375 196.913,245.296 197.320,245.301 198.200 M218.098 251.296 L 218.000 299.993 197.900 300.100 L 177.800 300.208 197.913 300.304 C 213.706 300.379,218.066 300.293,218.215 299.900 C 218.320 299.625,218.359 277.620,218.301 251.000 L 218.197 202.600 218.098 251.296 "
              stroke="none" fill="#6b81b4" fill-rule="evenodd"></path>
        <path id="path4"
              d="M217.200 106.000 L 213.400 106.247 217.000 106.284 C 218.980 106.304,221.050 106.176,221.600 106.000 C 222.744 105.634,222.841 105.634,217.200 106.000 M247.509 122.220 L 247.617 138.800 236.432 138.800 C 229.407 138.800,225.155 138.949,225.000 139.200 C 224.864 139.420,224.401 139.600,223.971 139.600 C 222.568 139.600,219.878 141.490,219.131 143.000 C 218.913 143.440,219.204 143.226,219.777 142.524 C 220.865 141.193,222.852 140.000,223.981 140.000 C 224.344 140.000,224.817 139.823,225.034 139.606 C 225.267 139.373,229.963 139.170,236.614 139.106 L 247.800 139.000 247.905 122.625 C 247.962 113.618,247.872 106.112,247.705 105.944 C 247.537 105.777,247.449 113.101,247.509 122.220 M208.600 106.800 L 207.000 107.086 208.476 107.143 C 209.288 107.174,210.064 107.020,210.200 106.800 C 210.336 106.580,210.392 106.426,210.324 106.457 C 210.256 106.488,209.480 106.642,208.600 106.800 M204.800 107.600 C 203.976 107.864,203.941 107.926,204.600 107.954 C 205.040 107.973,205.670 107.813,206.000 107.600 C 206.701 107.147,206.214 107.147,204.800 107.600 M200.000 109.068 C 198.384 109.618,193.611 112.105,193.185 112.618 C 192.919 112.938,192.495 113.200,192.242 113.200 C 191.790 113.200,185.200 119.603,185.200 120.042 C 185.200 120.166,186.685 118.769,188.500 116.938 C 190.315 115.107,192.003 113.606,192.251 113.604 C 192.499 113.602,192.919 113.338,193.185 113.018 C 193.726 112.366,199.144 109.600,199.880 109.600 C 200.140 109.600,200.464 109.420,200.600 109.200 C 200.736 108.980,200.792 108.814,200.724 108.832 C 200.656 108.849,200.330 108.955,200.000 109.068 M184.254 121.774 C 182.766 124.045,181.422 126.800,181.803 126.800 C 181.900 126.800,182.339 126.035,182.778 125.100 C 183.218 124.165,183.960 122.815,184.428 122.100 C 184.896 121.385,185.192 120.800,185.085 120.800 C 184.979 120.800,184.605 121.239,184.254 121.774 M181.232 127.705 C 181.214 128.093,181.042 128.723,180.849 129.105 C 180.200 130.389,179.600 132.649,179.646 133.628 C 179.684 134.420,179.723 134.452,179.857 133.800 C 180.181 132.215,180.899 129.783,181.292 128.939 C 181.513 128.466,181.596 127.836,181.478 127.539 C 181.332 127.172,181.253 127.225,181.232 127.705 M178.914 137.400 C 178.917 138.500,178.995 138.903,179.087 138.295 C 179.179 137.686,179.177 136.786,179.082 136.295 C 178.987 135.803,178.911 136.300,178.914 137.400 M178.191 140.100 C 177.879 140.947,177.781 169.600,178.091 169.600 C 178.250 169.600,178.430 162.850,178.491 154.600 C 178.551 146.350,178.549 139.600,178.487 139.600 C 178.426 139.600,178.292 139.825,178.191 140.100 M217.691 157.857 C 217.610 168.172,217.673 169.542,218.233 169.757 C 218.581 169.891,225.320 170.000,233.210 170.000 L 247.554 170.000 247.707 171.700 L 247.860 173.400 247.930 171.505 L 248.000 169.610 233.100 169.505 L 218.200 169.400 217.991 157.800 L 217.782 146.200 217.691 157.857 M157.867 169.867 C 157.352 170.382,157.558 201.798,158.080 202.320 C 158.425 202.665,161.149 202.802,167.780 202.806 C 172.851 202.809,177.224 202.955,177.498 203.129 C 177.891 203.378,178.019 213.731,178.100 251.823 L 178.203 300.200 178.302 251.724 C 178.380 213.295,178.296 203.180,177.900 202.924 C 177.625 202.746,173.080 202.510,167.800 202.400 L 158.200 202.200 158.095 186.107 L 157.991 170.014 167.695 169.900 L 177.400 169.785 167.767 169.693 C 162.468 169.642,158.013 169.720,157.867 169.867 M247.049 177.015 C 246.912 177.373,246.825 178.416,246.856 179.333 C 246.909 180.901,246.929 180.870,247.192 178.800 C 247.490 176.455,247.451 175.968,247.049 177.015 M246.161 184.558 C 246.043 184.865,246.008 185.810,246.083 186.658 C 246.210 188.087,246.234 188.046,246.410 186.100 C 246.604 183.956,246.541 183.567,246.161 184.558 M245.366 191.745 C 245.251 192.044,245.214 193.349,245.284 194.645 L 245.412 197.000 245.606 194.099 C 245.801 191.188,245.754 190.733,245.366 191.745 M244.556 199.771 C 244.435 200.085,244.404 200.760,244.486 201.271 C 244.595 201.954,244.688 201.804,244.837 200.700 C 245.047 199.147,244.936 198.781,244.556 199.771 M224.525 202.699 C 228.224 202.766,234.164 202.765,237.725 202.699 C 241.286 202.633,238.260 202.579,231.000 202.579 C 223.740 202.579,220.826 202.633,224.525 202.699 M217.794 251.600 C 217.794 278.330,217.842 289.265,217.900 275.900 C 217.958 262.535,217.958 240.665,217.900 227.300 C 217.842 213.935,217.794 224.870,217.794 251.600 "
              stroke="none" fill="#cbd2e6" fill-rule="evenodd"></path>
    </g>
</svg>