<svg id="svg" version="1.1" width="400" height="400" viewBox="0 0 400 400" xmlns="http://www.w3.org/2000/svg">
    <g id="svgg">
        <path id="path0" d="" stroke="none" fill="#000000" fill-rule="evenodd"></path>
        <path id="path1"
              d="M169.600 88.428 C 162.925 88.809,155.409 89.749,150.400 90.830 C 148.310 91.282,145.831 91.753,144.891 91.878 C 143.951 92.004,143.085 92.262,142.967 92.453 C 142.849 92.644,142.371 92.800,141.905 92.800 C 141.119 92.800,139.318 93.286,137.400 94.015 C 136.960 94.182,135.970 94.536,135.200 94.800 C 134.430 95.064,133.350 95.467,132.800 95.694 C 132.250 95.921,131.440 96.242,131.000 96.407 C 125.708 98.393,111.225 106.642,109.606 108.593 C 109.329 108.927,108.892 109.200,108.636 109.200 C 108.380 109.200,107.283 110.100,106.200 111.200 C 105.117 112.300,104.084 113.200,103.905 113.200 C 103.476 113.200,100.000 116.682,100.000 117.111 C 100.000 117.294,99.354 118.063,98.563 118.822 C 96.943 120.376,93.600 124.634,93.600 125.142 C 93.600 125.326,93.219 125.819,92.754 126.238 C 92.289 126.657,91.746 127.360,91.548 127.800 C 91.350 128.240,90.837 129.140,90.407 129.800 C 89.237 131.597,85.444 139.464,84.427 142.200 C 83.937 143.520,83.370 144.913,83.168 145.295 C 82.966 145.677,82.800 146.431,82.800 146.971 C 82.800 147.511,82.640 148.052,82.444 148.173 C 82.249 148.294,81.987 148.979,81.863 149.696 C 81.739 150.413,81.527 151.630,81.392 152.400 C 81.256 153.170,80.985 154.160,80.789 154.600 C 79.603 157.265,79.639 177.747,80.832 178.980 C 81.035 179.189,81.200 179.943,81.200 180.656 C 81.200 181.369,81.380 182.064,81.600 182.200 C 81.820 182.336,82.000 183.056,82.000 183.800 C 82.000 184.544,82.180 185.264,82.400 185.400 C 82.620 185.536,82.800 186.076,82.800 186.600 C 82.800 187.124,82.980 187.664,83.200 187.800 C 83.420 187.936,83.600 188.380,83.600 188.786 C 83.600 189.192,83.942 190.216,84.361 191.062 C 84.779 191.908,85.773 193.950,86.568 195.600 C 88.769 200.164,91.697 204.918,92.946 205.955 C 93.306 206.254,93.600 206.704,93.600 206.955 C 93.600 207.518,102.799 216.616,104.998 218.228 C 107.724 220.226,109.222 221.200,109.569 221.200 C 109.752 221.200,110.122 221.465,110.390 221.788 C 111.819 223.509,122.995 228.246,129.223 229.770 C 136.955 231.661,150.167 232.458,159.600 231.600 L 161.800 231.400 161.670 232.595 C 161.598 233.253,161.394 233.973,161.215 234.195 C 159.060 236.880,157.088 253.542,158.800 254.600 C 159.020 254.736,159.200 255.456,159.200 256.200 C 159.200 256.944,159.380 257.664,159.600 257.800 C 159.820 257.936,160.000 258.350,160.000 258.721 C 160.000 259.602,163.477 266.600,164.223 267.219 C 164.540 267.482,164.800 267.861,164.800 268.060 C 164.800 268.260,165.700 269.583,166.800 271.000 C 167.900 272.417,168.800 273.722,168.800 273.900 C 168.800 274.078,169.160 274.483,169.600 274.800 C 171.163 275.926,170.569 276.396,167.500 276.461 C 163.829 276.538,163.717 276.550,163.362 276.905 C 163.199 277.067,161.063 277.200,158.613 277.200 C 156.164 277.200,153.989 277.367,153.780 277.571 C 153.571 277.775,151.960 278.042,150.200 278.164 C 142.832 278.675,140.980 278.881,140.620 279.231 C 140.411 279.434,139.297 279.600,138.144 279.600 C 136.991 279.600,135.936 279.780,135.800 280.000 C 135.664 280.220,134.764 280.400,133.800 280.400 C 132.836 280.400,131.936 280.580,131.800 280.800 C 131.664 281.020,130.764 281.200,129.800 281.200 C 128.836 281.200,127.936 281.380,127.800 281.600 C 127.664 281.820,126.854 282.000,126.000 282.000 C 125.146 282.000,124.336 282.180,124.200 282.400 C 124.064 282.620,123.421 282.800,122.771 282.800 C 122.121 282.800,121.277 282.958,120.895 283.151 C 119.829 283.689,117.423 284.400,116.666 284.400 C 116.294 284.400,115.677 284.562,115.295 284.761 C 114.913 284.960,113.790 285.351,112.800 285.631 C 111.810 285.910,110.829 286.288,110.620 286.470 C 110.411 286.651,109.837 286.800,109.344 286.800 C 108.851 286.800,108.348 286.960,108.227 287.156 C 108.106 287.351,107.517 287.634,106.918 287.785 C 106.318 287.935,105.066 288.405,104.136 288.829 C 103.205 289.253,102.362 289.600,102.263 289.600 C 101.815 289.600,94.388 293.296,94.189 293.618 C 94.066 293.816,93.299 294.286,92.483 294.663 C 91.667 295.039,90.248 295.854,89.328 296.473 C 88.408 297.093,87.555 297.600,87.432 297.600 C 87.309 297.600,86.114 298.455,84.776 299.500 C 83.439 300.545,81.907 301.670,81.373 302.000 C 79.727 303.017,71.894 311.255,69.996 313.965 C 69.008 315.375,67.885 316.860,67.500 317.265 C 66.462 318.355,66.581 318.629,69.200 321.200 C 70.520 322.496,71.600 323.659,71.600 323.784 C 71.600 323.910,72.905 325.345,74.500 326.973 C 76.095 328.601,78.646 331.208,80.170 332.767 C 81.693 334.325,83.092 335.600,83.277 335.600 C 83.463 335.600,84.770 336.725,86.183 338.100 C 89.361 341.194,89.851 341.600,90.414 341.600 C 90.661 341.600,91.530 342.275,92.346 343.100 C 95.509 346.298,95.963 346.184,95.507 342.309 C 94.606 334.642,96.752 322.716,99.870 318.060 C 100.261 317.477,100.918 316.370,101.331 315.600 C 101.744 314.830,102.513 313.740,103.041 313.178 C 103.568 312.616,104.000 311.974,104.000 311.751 C 104.000 311.248,109.764 305.600,110.277 305.600 C 110.482 305.600,111.168 305.060,111.800 304.400 C 112.432 303.740,113.158 303.200,113.413 303.200 C 113.668 303.200,114.202 302.840,114.600 302.400 C 114.998 301.960,115.507 301.600,115.730 301.600 C 115.954 301.600,116.421 301.346,116.769 301.036 C 118.838 299.190,133.072 293.200,135.391 293.200 C 135.920 293.200,136.452 293.040,136.573 292.844 C 136.780 292.508,137.793 292.272,141.303 291.742 C 142.129 291.618,142.905 291.355,143.026 291.158 C 143.148 290.961,144.191 290.800,145.344 290.800 C 146.497 290.800,147.611 290.637,147.820 290.437 C 148.213 290.062,150.549 289.728,155.400 289.354 C 156.940 289.235,158.371 288.972,158.580 288.769 C 158.789 288.566,160.803 288.400,163.056 288.400 C 165.356 288.400,167.261 288.225,167.400 288.000 C 167.551 287.755,170.717 287.600,175.562 287.600 C 183.719 287.600,185.097 287.830,186.407 289.408 C 186.677 289.734,187.124 290.000,187.400 290.000 C 187.676 290.000,188.141 290.288,188.433 290.639 C 188.725 290.991,190.142 292.074,191.582 293.045 C 193.022 294.017,195.010 295.438,196.000 296.204 C 196.990 296.970,198.430 298.052,199.200 298.610 C 199.970 299.167,201.230 300.079,202.000 300.635 C 202.770 301.192,203.949 302.177,204.619 302.824 C 205.290 303.471,205.983 304.000,206.160 304.000 C 207.013 304.000,219.479 315.718,221.053 318.000 C 221.585 318.770,222.558 320.120,223.216 321.000 C 224.650 322.916,228.000 329.566,228.000 330.495 C 228.000 330.857,228.159 331.251,228.352 331.370 C 229.796 332.263,230.667 345.054,229.662 350.600 C 229.422 351.920,229.111 353.677,228.969 354.504 C 228.827 355.331,228.551 356.106,228.356 356.227 C 228.160 356.348,228.000 356.743,228.000 357.105 C 228.000 358.369,224.427 365.094,222.087 368.234 C 219.464 371.755,213.646 377.200,212.507 377.200 C 212.296 377.200,211.798 377.560,211.400 378.000 C 211.002 378.440,210.520 378.800,210.330 378.800 C 209.726 378.800,206.800 380.793,206.800 381.205 C 206.800 381.741,220.268 381.737,220.600 381.200 C 220.736 380.980,222.367 380.800,224.224 380.800 C 226.208 380.800,227.600 380.635,227.600 380.400 C 227.600 380.180,228.569 380.000,229.753 380.000 C 233.565 380.000,244.583 367.835,250.040 357.600 C 250.568 356.610,251.135 355.740,251.300 355.667 C 251.465 355.593,251.600 355.276,251.600 354.961 C 251.600 354.647,251.757 354.077,251.950 353.695 C 253.508 350.602,254.000 349.424,254.000 348.786 C 254.000 348.380,254.180 347.936,254.400 347.800 C 254.620 347.664,254.800 347.124,254.800 346.600 C 254.800 346.076,254.959 345.549,255.154 345.429 C 255.349 345.308,255.610 344.713,255.736 344.105 C 255.861 343.497,256.163 342.100,256.406 341.000 C 257.491 336.088,257.704 333.754,257.688 327.000 C 257.670 319.247,257.351 314.826,256.766 314.220 C 256.565 314.011,256.400 313.257,256.400 312.544 C 256.400 311.831,256.220 311.136,256.000 311.000 C 255.780 310.864,255.600 310.324,255.600 309.800 C 255.600 309.276,255.420 308.736,255.200 308.600 C 254.980 308.464,254.800 307.924,254.800 307.400 C 254.800 306.876,254.620 306.336,254.400 306.200 C 254.180 306.064,254.001 305.648,254.003 305.276 C 254.006 304.423,250.050 296.464,249.105 295.425 C 248.717 294.998,248.400 294.413,248.400 294.125 C 248.400 293.836,248.265 293.599,248.100 293.597 C 247.935 293.596,247.354 292.921,246.810 292.097 C 244.547 288.676,238.890 282.660,232.990 277.400 C 231.015 275.640,229.310 274.110,229.200 274.000 C 229.090 273.890,228.124 273.095,227.052 272.234 C 225.981 271.373,224.684 270.248,224.171 269.734 C 223.657 269.220,223.093 268.799,222.918 268.797 C 222.743 268.796,221.880 268.084,221.000 267.217 C 220.120 266.349,219.220 265.630,219.000 265.618 C 218.780 265.606,218.025 265.057,217.322 264.398 C 216.619 263.739,215.876 263.200,215.671 263.200 C 215.466 263.200,215.051 262.903,214.749 262.539 C 214.183 261.857,210.711 259.129,208.854 257.907 C 198.206 250.900,194.086 237.776,199.814 229.109 C 200.356 228.288,200.800 227.433,200.800 227.209 C 200.800 226.984,200.941 226.800,201.114 226.800 C 201.286 226.800,201.720 226.305,202.078 225.700 C 202.436 225.095,203.960 223.340,205.465 221.800 C 208.038 219.166,209.155 218.192,216.471 212.201 C 226.011 204.389,233.365 195.698,237.625 187.200 C 238.955 184.548,240.000 182.007,240.000 181.428 C 240.000 181.109,240.180 180.736,240.400 180.600 C 240.620 180.464,240.800 179.924,240.800 179.400 C 240.800 178.876,240.980 178.336,241.200 178.200 C 241.420 178.064,241.600 177.344,241.600 176.600 C 241.600 175.856,241.761 175.148,241.958 175.026 C 242.689 174.574,243.550 166.130,243.550 159.400 C 243.550 152.670,242.689 144.226,241.958 143.774 C 241.761 143.652,241.600 142.944,241.600 142.200 C 241.600 141.456,241.420 140.736,241.200 140.600 C 240.980 140.464,240.800 139.924,240.800 139.400 C 240.800 138.876,240.620 138.336,240.400 138.200 C 240.180 138.064,240.000 137.524,240.000 137.000 C 240.000 136.476,239.820 135.936,239.600 135.800 C 239.380 135.664,239.200 135.232,239.200 134.841 C 239.200 133.289,233.986 124.003,230.797 119.873 C 229.809 118.594,228.520 116.884,227.934 116.073 C 226.775 114.471,219.664 107.529,216.665 105.072 C 213.360 102.364,213.211 102.400,227.788 102.400 C 242.022 102.400,240.406 102.625,245.000 100.000 C 245.770 99.560,247.075 98.818,247.900 98.351 C 248.725 97.884,250.840 96.679,252.600 95.674 C 254.360 94.668,256.935 93.269,258.322 92.565 C 259.709 91.860,261.149 91.021,261.522 90.700 C 261.895 90.379,262.785 89.866,263.501 89.560 C 264.216 89.254,264.741 88.823,264.667 88.602 C 264.506 88.117,177.837 87.958,169.600 88.428 M313.474 88.260 C 313.323 88.410,313.200 98.853,313.200 111.467 C 313.200 124.080,313.155 134.441,313.100 134.492 C 313.045 134.542,302.560 134.677,289.800 134.792 L 266.600 135.000 266.493 144.500 L 266.386 154.000 289.793 154.000 L 313.200 154.000 313.200 177.400 L 313.200 200.800 323.000 200.800 L 332.800 200.800 332.800 177.400 L 332.800 154.000 354.045 154.000 L 375.291 154.000 375.013 152.100 C 374.859 151.055,374.569 150.029,374.367 149.820 C 374.165 149.611,374.000 149.037,374.000 148.544 C 374.000 148.051,373.820 147.536,373.600 147.400 C 373.380 147.264,373.200 146.724,373.200 146.200 C 373.200 145.676,373.020 145.136,372.800 145.000 C 372.580 144.864,372.400 144.313,372.400 143.776 C 372.400 143.239,372.220 142.800,372.000 142.800 C 371.780 142.800,371.600 142.260,371.600 141.600 C 371.600 140.940,371.420 140.400,371.200 140.400 C 370.980 140.400,370.800 139.961,370.800 139.424 C 370.800 138.887,370.620 138.336,370.400 138.200 C 370.180 138.064,370.000 137.603,370.000 137.176 C 370.000 136.749,369.833 136.400,369.628 136.400 C 369.423 136.400,369.198 136.033,369.128 135.585 C 369.002 134.781,368.768 134.769,351.000 134.685 L 333.000 134.600 332.800 111.400 L 332.600 88.200 323.174 88.093 C 317.989 88.034,313.624 88.109,313.474 88.260 M162.703 102.213 C 163.639 102.362,164.505 102.645,164.626 102.842 C 164.748 103.039,165.199 103.200,165.629 103.200 C 166.059 103.200,166.723 103.359,167.105 103.553 C 167.487 103.748,168.250 104.089,168.800 104.313 C 171.448 105.387,172.787 106.056,173.007 106.412 C 173.140 106.626,174.003 107.146,174.924 107.567 C 175.846 107.987,177.036 108.797,177.570 109.366 C 178.103 109.935,178.737 110.400,178.978 110.400 C 179.519 110.400,186.390 117.281,187.765 119.200 C 190.154 122.532,192.645 126.289,193.203 127.400 C 193.534 128.060,194.260 129.320,194.815 130.200 C 195.789 131.743,197.382 134.944,198.000 136.600 C 198.164 137.040,198.704 138.300,199.200 139.400 C 200.530 142.352,200.678 142.741,201.632 145.800 C 202.112 147.340,202.641 148.960,202.807 149.400 C 205.138 155.576,207.246 169.232,207.283 178.400 C 207.319 187.098,205.240 197.414,202.672 201.286 C 202.192 202.009,201.530 203.140,201.200 203.800 C 200.466 205.269,193.669 212.400,193.003 212.400 C 192.740 212.400,192.198 212.760,191.800 213.200 C 191.402 213.640,190.856 214.000,190.587 214.000 C 190.318 214.000,189.871 214.274,189.593 214.608 C 189.071 215.238,183.543 218.000,182.806 218.000 C 182.577 218.000,182.077 218.162,181.695 218.361 C 181.313 218.560,180.190 218.934,179.200 219.194 C 178.210 219.454,176.680 219.876,175.800 220.133 C 171.448 221.403,156.840 220.167,155.020 218.374 C 154.811 218.168,154.363 218.000,154.024 218.000 C 153.180 218.000,147.783 215.303,147.185 214.582 C 146.919 214.262,146.488 214.000,146.226 214.000 C 145.964 214.000,145.232 213.460,144.600 212.800 C 143.968 212.140,143.247 211.600,142.998 211.600 C 142.123 211.600,135.030 203.851,132.600 200.241 C 130.859 197.654,130.386 196.890,128.736 194.000 C 126.022 189.246,122.000 180.296,122.000 179.011 C 122.000 178.701,121.820 178.336,121.600 178.200 C 121.380 178.064,121.200 177.601,121.200 177.171 C 121.200 176.741,121.042 176.077,120.849 175.695 C 120.265 174.539,119.600 172.196,119.600 171.295 C 119.600 170.829,119.444 170.351,119.253 170.233 C 119.062 170.115,118.795 169.249,118.659 168.309 C 118.524 167.369,118.228 165.700,118.003 164.600 C 115.901 154.352,115.593 142.205,117.218 133.600 C 117.446 132.390,117.736 130.813,117.861 130.096 C 117.986 129.379,118.249 128.694,118.444 128.573 C 118.640 128.452,118.800 127.986,118.800 127.537 C 118.800 126.807,121.826 120.095,122.378 119.600 C 122.501 119.490,122.866 118.888,123.189 118.261 C 126.498 111.850,140.655 102.427,147.028 102.394 C 147.673 102.391,148.470 102.206,148.800 101.984 C 149.435 101.557,159.646 101.725,162.703 102.213 "
              stroke="none" fill="#ffffff" fill-rule="evenodd"></path>
        <path id="path2"
              d="M239.541 28.501 C 239.743 28.703,240.333 28.801,240.854 28.719 C 241.655 28.593,241.598 28.537,240.487 28.352 C 239.693 28.221,239.319 28.279,239.541 28.501 M325.802 74.002 C 326.202 74.444,326.611 74.722,326.712 74.621 C 326.928 74.405,325.788 73.200,325.367 73.200 C 325.207 73.200,325.403 73.561,325.802 74.002 M327.200 75.097 C 327.200 75.280,328.143 76.323,329.295 77.415 C 330.448 78.507,330.853 78.782,330.195 78.027 C 328.162 75.691,327.200 74.750,327.200 75.097 M44.862 120.062 C 44.377 120.970,44.042 121.776,44.118 121.852 C 44.195 121.928,44.654 121.247,45.138 120.338 C 45.623 119.430,45.958 118.624,45.882 118.548 C 45.805 118.472,45.346 119.153,44.862 120.062 M373.879 257.100 C 373.569 257.653,373.132 259.802,373.380 259.554 C 373.677 259.256,374.405 256.800,374.196 256.800 C 374.114 256.800,373.971 256.935,373.879 257.100 M327.239 331.612 C 326.491 332.272,325.963 332.896,326.066 333.000 C 326.170 333.103,326.863 332.561,327.606 331.794 C 329.261 330.086,329.075 329.994,327.239 331.612 M314.229 343.029 C 313.805 343.338,313.536 343.669,313.630 343.763 C 313.724 343.857,314.148 343.681,314.571 343.371 C 314.995 343.062,315.264 342.731,315.170 342.637 C 315.076 342.543,314.652 342.719,314.229 343.029 "
              stroke="none" fill="#b62400" fill-rule="evenodd"></path>
        <path id="path3"
              d="M186.000 26.000 C 186.000 26.238,184.475 26.400,182.224 26.400 C 180.147 26.400,178.351 26.555,178.234 26.745 C 178.117 26.935,176.351 27.192,174.310 27.316 C 172.270 27.440,170.150 27.640,169.600 27.760 C 166.864 28.357,162.848 29.277,161.600 29.594 C 160.830 29.790,159.300 30.152,158.200 30.400 C 155.452 31.019,153.153 31.632,152.200 32.000 C 151.760 32.170,150.590 32.541,149.600 32.824 C 148.610 33.107,147.629 33.488,147.420 33.670 C 147.211 33.851,146.547 34.000,145.944 34.000 C 145.341 34.000,144.736 34.180,144.600 34.400 C 144.464 34.620,143.924 34.800,143.400 34.800 C 142.876 34.800,142.336 34.980,142.200 35.200 C 142.064 35.420,141.603 35.600,141.176 35.600 C 140.749 35.600,140.400 35.780,140.400 36.000 C 140.400 36.220,140.038 36.400,139.595 36.400 C 139.152 36.400,138.432 36.580,137.995 36.800 C 137.558 37.020,136.842 37.380,136.405 37.600 C 135.968 37.820,135.338 38.000,135.005 38.000 C 134.672 38.000,134.400 38.180,134.400 38.400 C 134.400 38.620,134.051 38.800,133.624 38.800 C 133.197 38.800,132.736 38.980,132.600 39.200 C 132.464 39.420,132.003 39.600,131.576 39.600 C 131.149 39.600,130.800 39.780,130.800 40.000 C 130.800 40.220,130.451 40.400,130.024 40.400 C 129.597 40.400,129.136 40.580,129.000 40.800 C 128.864 41.020,128.403 41.200,127.976 41.200 C 127.549 41.200,127.200 41.380,127.200 41.600 C 127.200 41.820,126.840 42.000,126.400 42.000 C 125.960 42.000,125.600 42.180,125.600 42.400 C 125.600 42.620,125.240 42.800,124.800 42.800 C 124.360 42.800,124.000 42.980,124.000 43.200 C 124.000 43.420,123.676 43.600,123.280 43.600 C 122.884 43.600,122.389 43.770,122.180 43.978 C 121.971 44.185,120.270 45.144,118.400 46.108 C 116.530 47.072,114.350 48.235,113.555 48.693 C 112.760 49.150,111.682 49.767,111.159 50.062 C 110.636 50.358,109.916 50.915,109.557 51.300 C 109.199 51.685,108.612 52.000,108.253 52.000 C 107.894 52.000,107.600 52.180,107.600 52.400 C 107.600 52.620,107.357 52.800,107.059 52.800 C 106.762 52.800,105.954 53.340,105.263 54.000 C 104.572 54.660,103.871 55.200,103.704 55.201 C 103.537 55.201,102.770 55.741,102.000 56.400 C 101.230 57.059,100.447 57.599,100.260 57.599 C 100.074 57.600,99.417 58.140,98.800 58.800 C 98.183 59.460,97.573 60.000,97.444 60.000 C 97.109 60.000,92.826 63.298,91.397 64.656 C 90.736 65.285,89.393 66.430,88.413 67.200 C 86.400 68.782,80.871 74.034,76.874 78.161 C 66.382 88.994,66.000 89.400,66.000 89.727 C 66.000 89.869,65.190 90.831,64.200 91.865 C 63.210 92.898,62.400 93.863,62.400 94.010 C 62.400 94.157,62.029 94.710,61.576 95.239 C 61.122 95.767,60.402 96.606,59.976 97.103 C 59.549 97.600,59.200 98.170,59.200 98.370 C 59.200 98.570,59.065 98.793,58.900 98.867 C 58.433 99.074,55.200 103.428,55.200 103.849 C 55.200 104.055,54.840 104.483,54.400 104.800 C 53.960 105.117,53.600 105.657,53.600 106.000 C 53.600 106.343,53.240 106.883,52.800 107.200 C 52.360 107.517,52.000 108.031,52.000 108.341 C 52.000 108.652,51.685 109.199,51.300 109.557 C 50.915 109.916,50.344 110.657,50.031 111.204 C 48.268 114.289,46.608 117.387,45.101 120.400 C 44.165 122.270,43.265 123.860,43.100 123.933 C 42.935 124.007,42.800 124.412,42.800 124.833 C 42.800 125.255,42.620 125.600,42.400 125.600 C 42.180 125.600,42.000 125.960,42.000 126.400 C 42.000 126.840,41.820 127.200,41.600 127.200 C 41.380 127.200,41.200 127.453,41.200 127.762 C 41.200 128.071,40.854 129.016,40.430 129.862 C 40.007 130.708,39.423 131.985,39.133 132.700 C 38.842 133.415,38.469 134.000,38.302 134.000 C 38.136 134.000,38.000 134.362,38.000 134.805 C 38.000 135.583,37.858 135.969,36.862 137.895 C 36.608 138.387,36.400 139.152,36.400 139.595 C 36.400 140.038,36.220 140.400,36.000 140.400 C 35.780 140.400,35.600 140.749,35.600 141.176 C 35.600 141.603,35.420 142.064,35.200 142.200 C 34.980 142.336,34.800 142.876,34.800 143.400 C 34.800 143.924,34.620 144.464,34.400 144.600 C 34.180 144.736,34.000 145.287,34.000 145.824 C 34.000 146.361,33.820 146.800,33.600 146.800 C 33.380 146.800,33.200 147.430,33.200 148.200 C 33.200 148.970,33.020 149.600,32.800 149.600 C 32.580 149.600,32.400 150.129,32.400 150.776 C 32.400 151.423,32.241 152.051,32.046 152.171 C 31.851 152.292,31.593 152.887,31.471 153.495 C 31.256 154.565,30.798 156.477,29.960 159.800 C 29.412 161.970,29.115 163.395,27.791 170.200 C 27.662 170.860,27.451 172.890,27.321 174.712 C 27.192 176.533,26.931 178.119,26.743 178.235 C 26.554 178.352,26.400 180.136,26.400 182.200 C 26.400 184.270,26.221 186.064,26.000 186.200 C 25.452 186.539,25.452 220.661,26.000 221.000 C 26.220 221.136,26.400 222.857,26.400 224.824 C 26.400 226.791,26.555 228.400,26.745 228.400 C 26.934 228.400,27.195 229.975,27.325 231.900 C 27.586 235.783,27.697 236.554,28.577 240.600 C 28.912 242.140,29.189 243.884,29.193 244.476 C 29.197 245.068,29.360 245.652,29.556 245.773 C 29.751 245.894,30.005 246.579,30.119 247.296 C 30.232 248.013,30.539 249.320,30.800 250.200 C 31.061 251.080,31.368 252.387,31.481 253.104 C 31.595 253.821,31.849 254.506,32.044 254.627 C 32.240 254.748,32.400 255.366,32.400 256.000 C 32.400 256.634,32.580 257.264,32.800 257.400 C 33.020 257.536,33.200 258.166,33.200 258.800 C 33.200 259.434,33.344 260.042,33.521 260.151 C 33.697 260.260,34.093 261.272,34.400 262.400 C 34.707 263.528,35.103 264.540,35.279 264.649 C 35.456 264.758,35.600 265.287,35.600 265.824 C 35.600 266.361,35.780 266.800,36.000 266.800 C 36.220 266.800,36.400 267.250,36.400 267.800 C 36.400 268.350,36.547 268.800,36.728 268.800 C 36.908 268.800,37.300 269.700,37.600 270.800 C 37.900 271.900,38.292 272.800,38.472 272.800 C 38.653 272.800,38.800 273.160,38.800 273.600 C 38.800 274.040,38.980 274.400,39.200 274.400 C 39.420 274.400,39.600 274.672,39.600 275.005 C 39.600 275.338,39.762 275.923,39.959 276.305 C 41.509 279.303,43.606 283.885,43.603 284.267 C 43.601 284.523,43.735 284.793,43.900 284.867 C 44.065 284.940,44.740 286.080,45.400 287.400 C 46.060 288.720,46.692 289.890,46.805 290.000 C 46.918 290.110,47.442 291.055,47.968 292.100 C 48.495 293.145,49.077 294.000,49.263 294.000 C 49.448 294.000,49.600 294.199,49.600 294.442 C 49.600 294.685,50.140 295.684,50.800 296.662 C 51.460 297.640,52.000 298.583,52.000 298.758 C 52.000 298.933,52.360 299.402,52.800 299.800 C 53.240 300.198,53.600 300.766,53.600 301.062 C 53.600 301.358,53.780 301.600,54.000 301.600 C 54.220 301.600,54.400 301.855,54.400 302.167 C 54.400 302.478,54.542 302.793,54.716 302.867 C 54.890 302.940,55.655 303.900,56.416 305.000 C 57.177 306.100,58.115 307.291,58.500 307.647 C 58.885 308.003,59.200 308.471,59.200 308.688 C 59.200 308.904,59.697 309.603,60.304 310.241 C 60.912 310.878,61.848 312.030,62.385 312.800 C 62.922 313.570,63.470 314.290,63.602 314.400 C 63.734 314.510,64.349 315.275,64.969 316.100 C 66.306 317.881,67.255 317.998,68.207 316.500 C 70.715 312.553,78.918 303.527,81.396 301.988 C 81.918 301.665,83.439 300.545,84.776 299.500 C 86.114 298.455,87.309 297.600,87.432 297.600 C 87.555 297.600,88.408 297.093,89.328 296.473 C 90.248 295.854,91.667 295.039,92.483 294.663 C 93.299 294.286,94.066 293.816,94.189 293.618 C 94.388 293.296,101.815 289.600,102.263 289.600 C 102.362 289.600,103.205 289.253,104.136 288.829 C 105.066 288.405,106.318 287.935,106.918 287.785 C 107.517 287.634,108.106 287.351,108.227 287.156 C 108.348 286.960,108.851 286.800,109.344 286.800 C 109.837 286.800,110.411 286.651,110.620 286.470 C 110.829 286.288,111.810 285.910,112.800 285.631 C 113.790 285.351,114.913 284.960,115.295 284.761 C 115.677 284.562,116.294 284.400,116.666 284.400 C 117.423 284.400,119.829 283.689,120.895 283.151 C 121.277 282.958,122.121 282.800,122.771 282.800 C 123.421 282.800,124.064 282.620,124.200 282.400 C 124.336 282.180,125.146 282.000,126.000 282.000 C 126.854 282.000,127.664 281.820,127.800 281.600 C 127.936 281.380,128.836 281.200,129.800 281.200 C 130.764 281.200,131.664 281.020,131.800 280.800 C 131.936 280.580,132.836 280.400,133.800 280.400 C 134.764 280.400,135.664 280.220,135.800 280.000 C 135.936 279.780,136.991 279.600,138.144 279.600 C 139.297 279.600,140.411 279.434,140.620 279.231 C 140.980 278.881,142.832 278.675,150.200 278.164 C 151.960 278.042,153.571 277.775,153.780 277.571 C 153.989 277.367,156.164 277.200,158.613 277.200 C 161.063 277.200,163.199 277.067,163.362 276.905 C 163.717 276.550,163.829 276.538,167.500 276.461 C 170.569 276.396,171.163 275.926,169.600 274.800 C 169.160 274.483,168.800 274.078,168.800 273.900 C 168.800 273.722,167.900 272.417,166.800 271.000 C 165.700 269.583,164.800 268.260,164.800 268.060 C 164.800 267.861,164.540 267.482,164.223 267.219 C 163.477 266.600,160.000 259.602,160.000 258.721 C 160.000 258.350,159.820 257.936,159.600 257.800 C 159.380 257.664,159.200 256.944,159.200 256.200 C 159.200 255.456,159.020 254.736,158.800 254.600 C 157.088 253.542,159.060 236.880,161.215 234.195 C 161.394 233.973,161.598 233.253,161.670 232.595 L 161.800 231.400 159.600 231.600 C 150.167 232.458,136.955 231.661,129.223 229.770 C 122.995 228.246,111.819 223.509,110.390 221.788 C 110.122 221.465,109.752 221.200,109.569 221.200 C 109.222 221.200,107.724 220.226,104.998 218.228 C 102.799 216.616,93.600 207.518,93.600 206.955 C 93.600 206.704,93.306 206.254,92.946 205.955 C 91.697 204.918,88.769 200.164,86.568 195.600 C 85.773 193.950,84.779 191.908,84.361 191.062 C 83.942 190.216,83.600 189.192,83.600 188.786 C 83.600 188.380,83.420 187.936,83.200 187.800 C 82.980 187.664,82.800 187.124,82.800 186.600 C 82.800 186.076,82.620 185.536,82.400 185.400 C 82.180 185.264,82.000 184.544,82.000 183.800 C 82.000 183.056,81.820 182.336,81.600 182.200 C 81.380 182.064,81.200 181.369,81.200 180.656 C 81.200 179.943,81.035 179.189,80.832 178.980 C 79.639 177.747,79.603 157.265,80.789 154.600 C 80.985 154.160,81.256 153.170,81.392 152.400 C 81.527 151.630,81.739 150.413,81.863 149.696 C 81.987 148.979,82.249 148.294,82.444 148.173 C 82.640 148.052,82.800 147.511,82.800 146.971 C 82.800 146.431,82.966 145.677,83.168 145.295 C 83.370 144.913,83.937 143.520,84.427 142.200 C 85.444 139.464,89.237 131.597,90.407 129.800 C 90.837 129.140,91.350 128.240,91.548 127.800 C 91.746 127.360,92.289 126.657,92.754 126.238 C 93.219 125.819,93.600 125.326,93.600 125.142 C 93.600 124.634,96.943 120.376,98.563 118.822 C 99.354 118.063,100.000 117.294,100.000 117.111 C 100.000 116.682,103.476 113.200,103.905 113.200 C 104.084 113.200,105.117 112.300,106.200 111.200 C 107.283 110.100,108.380 109.200,108.636 109.200 C 108.892 109.200,109.329 108.927,109.606 108.593 C 111.225 106.642,125.708 98.393,131.000 96.407 C 131.440 96.242,132.250 95.921,132.800 95.694 C 133.350 95.467,134.430 95.064,135.200 94.800 C 135.970 94.536,136.960 94.182,137.400 94.015 C 139.318 93.286,141.119 92.800,141.905 92.800 C 142.371 92.800,142.849 92.644,142.967 92.453 C 143.085 92.262,143.951 92.004,144.891 91.878 C 145.831 91.753,148.310 91.279,150.400 90.824 C 162.000 88.300,163.692 88.233,216.366 88.216 C 264.692 88.200,266.558 88.253,263.501 89.560 C 262.785 89.866,261.895 90.379,261.522 90.700 C 261.149 91.021,259.709 91.860,258.322 92.565 C 256.935 93.269,254.360 94.668,252.600 95.674 C 250.840 96.679,248.725 97.884,247.900 98.351 C 247.075 98.818,245.770 99.560,245.000 100.000 C 240.406 102.625,242.022 102.400,227.788 102.400 C 213.211 102.400,213.360 102.364,216.665 105.072 C 219.664 107.529,226.775 114.471,227.934 116.073 C 228.520 116.884,229.809 118.594,230.797 119.873 C 233.986 124.003,239.200 133.289,239.200 134.841 C 239.200 135.232,239.380 135.664,239.600 135.800 C 239.820 135.936,240.000 136.476,240.000 137.000 C 240.000 137.524,240.180 138.064,240.400 138.200 C 240.620 138.336,240.800 138.876,240.800 139.400 C 240.800 139.924,240.980 140.464,241.200 140.600 C 241.420 140.736,241.600 141.456,241.600 142.200 C 241.600 142.944,241.761 143.652,241.958 143.774 C 242.689 144.226,243.550 152.670,243.550 159.400 C 243.550 166.130,242.689 174.574,241.958 175.026 C 241.761 175.148,241.600 175.856,241.600 176.600 C 241.600 177.344,241.420 178.064,241.200 178.200 C 240.980 178.336,240.800 178.876,240.800 179.400 C 240.800 179.924,240.620 180.464,240.400 180.600 C 240.180 180.736,240.000 181.109,240.000 181.428 C 240.000 183.026,236.488 189.783,233.180 194.547 C 228.910 200.700,223.375 206.548,216.471 212.201 C 209.155 218.192,208.038 219.166,205.465 221.800 C 203.960 223.340,202.436 225.095,202.078 225.700 C 201.720 226.305,201.286 226.800,201.114 226.800 C 200.941 226.800,200.800 226.984,200.800 227.209 C 200.800 227.433,200.356 228.288,199.814 229.109 C 194.086 237.776,198.206 250.900,208.854 257.907 C 210.711 259.129,214.183 261.857,214.749 262.539 C 215.051 262.903,215.466 263.200,215.671 263.200 C 215.876 263.200,216.619 263.739,217.322 264.398 C 218.025 265.057,218.780 265.606,219.000 265.618 C 219.220 265.630,220.120 266.349,221.000 267.217 C 221.880 268.084,222.743 268.796,222.918 268.797 C 223.093 268.799,223.657 269.220,224.171 269.734 C 224.684 270.248,225.981 271.373,227.052 272.234 C 228.124 273.095,229.090 273.890,229.200 274.000 C 229.310 274.110,231.015 275.640,232.990 277.400 C 238.890 282.660,244.547 288.676,246.810 292.097 C 247.354 292.921,247.935 293.596,248.100 293.597 C 248.265 293.599,248.400 293.836,248.400 294.125 C 248.400 294.413,248.717 294.998,249.105 295.425 C 250.050 296.464,254.006 304.423,254.003 305.276 C 254.001 305.648,254.180 306.064,254.400 306.200 C 254.620 306.336,254.800 306.876,254.800 307.400 C 254.800 307.924,254.980 308.464,255.200 308.600 C 255.420 308.736,255.600 309.276,255.600 309.800 C 255.600 310.324,255.780 310.864,256.000 311.000 C 256.220 311.136,256.400 311.831,256.400 312.544 C 256.400 313.257,256.565 314.011,256.766 314.220 C 257.351 314.826,257.670 319.247,257.688 327.000 C 257.704 333.754,257.491 336.088,256.406 341.000 C 256.163 342.100,255.861 343.497,255.736 344.105 C 255.610 344.713,255.349 345.308,255.154 345.429 C 254.959 345.549,254.800 346.076,254.800 346.600 C 254.800 347.124,254.620 347.664,254.400 347.800 C 254.180 347.936,254.000 348.380,254.000 348.786 C 254.000 349.424,253.508 350.602,251.950 353.695 C 251.757 354.077,251.600 354.647,251.600 354.961 C 251.600 355.276,251.465 355.593,251.300 355.667 C 251.135 355.740,250.568 356.610,250.040 357.600 C 246.651 363.956,241.713 370.297,235.100 376.783 C 233.615 378.239,232.400 379.595,232.400 379.796 C 232.400 379.996,232.616 379.944,232.880 379.680 C 233.144 379.416,234.303 379.200,235.456 379.200 C 236.609 379.200,237.664 379.020,237.800 378.800 C 237.936 378.580,238.847 378.400,239.824 378.400 C 240.801 378.400,241.600 378.220,241.600 378.000 C 241.600 377.780,242.399 377.600,243.376 377.600 C 244.353 377.600,245.264 377.420,245.400 377.200 C 245.536 376.980,246.267 376.800,247.024 376.800 C 247.781 376.800,248.400 376.620,248.400 376.400 C 248.400 376.180,249.019 376.000,249.776 376.000 C 250.533 376.000,251.249 375.844,251.367 375.653 C 251.485 375.462,252.493 375.185,253.607 375.037 C 255.452 374.792,256.140 374.590,258.600 373.568 C 259.040 373.386,260.300 372.971,261.400 372.647 C 264.153 371.836,267.548 370.586,267.868 370.265 C 268.014 370.119,268.553 370.000,269.067 370.000 C 269.580 370.000,270.000 369.820,270.000 369.600 C 270.000 369.380,270.343 369.200,270.762 369.200 C 271.467 369.200,272.660 368.685,276.454 366.744 C 277.254 366.335,278.199 366.000,278.554 366.000 C 278.910 366.000,279.200 365.820,279.200 365.600 C 279.200 365.380,279.560 365.200,280.000 365.200 C 280.440 365.200,280.800 365.020,280.800 364.800 C 280.800 364.580,281.160 364.400,281.600 364.400 C 282.040 364.400,282.400 364.254,282.400 364.075 C 282.400 363.896,283.030 363.502,283.800 363.200 C 284.570 362.898,285.200 362.504,285.200 362.325 C 285.200 362.146,285.560 362.000,286.000 362.000 C 286.440 362.000,286.800 361.820,286.800 361.600 C 286.800 361.380,287.160 361.200,287.600 361.200 C 288.040 361.200,288.400 361.020,288.400 360.800 C 288.400 360.580,288.670 360.400,289.000 360.400 C 289.330 360.400,289.600 360.220,289.600 360.000 C 289.600 359.780,289.870 359.600,290.200 359.600 C 290.530 359.600,290.800 359.420,290.800 359.200 C 290.800 358.980,291.145 358.800,291.567 358.800 C 291.988 358.800,292.393 358.648,292.467 358.462 C 292.611 358.097,294.335 357.107,296.100 356.377 C 296.705 356.127,297.200 355.759,297.200 355.561 C 297.200 355.362,297.455 355.200,297.767 355.200 C 298.078 355.200,298.393 355.065,298.467 354.900 C 298.582 354.641,300.716 353.136,302.853 351.806 C 305.128 350.391,308.761 347.679,309.660 346.725 C 310.244 346.106,310.919 345.600,311.160 345.600 C 311.402 345.600,312.341 344.880,313.248 344.000 C 314.155 343.120,315.073 342.400,315.288 342.400 C 315.504 342.400,316.310 341.770,317.080 341.000 C 317.850 340.230,318.619 339.600,318.788 339.600 C 318.957 339.600,321.000 337.755,323.326 335.500 C 329.272 329.738,329.873 329.200,330.364 329.200 C 330.604 329.200,330.800 328.936,330.800 328.614 C 330.800 328.292,331.160 327.835,331.600 327.600 C 332.040 327.365,332.400 327.026,332.400 326.847 C 332.400 326.668,334.020 324.847,336.000 322.800 C 337.980 320.753,339.600 318.952,339.600 318.798 C 339.600 318.645,340.095 317.981,340.700 317.323 C 342.191 315.702,343.200 314.434,343.200 314.182 C 343.200 314.067,343.830 313.343,344.600 312.573 C 345.370 311.803,346.000 311.022,346.000 310.837 C 346.000 310.652,346.630 309.813,347.400 308.972 C 348.170 308.131,348.800 307.224,348.800 306.955 C 348.800 306.686,348.950 306.407,349.134 306.333 C 349.318 306.260,350.443 304.760,351.634 303.000 C 352.825 301.240,353.935 299.740,354.100 299.667 C 354.265 299.593,354.400 299.278,354.400 298.967 C 354.400 298.655,354.537 298.400,354.705 298.400 C 355.021 298.400,355.246 298.043,356.610 295.381 C 357.055 294.512,357.910 293.039,358.510 292.108 C 359.109 291.177,359.600 290.232,359.600 290.008 C 359.600 289.784,359.780 289.600,360.000 289.600 C 360.220 289.600,360.400 289.240,360.400 288.800 C 360.400 288.360,360.537 288.000,360.704 288.000 C 360.872 288.000,361.637 286.785,362.404 285.300 C 363.172 283.815,363.935 282.540,364.100 282.467 C 364.265 282.393,364.400 281.988,364.400 281.567 C 364.400 281.145,364.580 280.800,364.800 280.800 C 365.020 280.800,365.200 280.440,365.200 280.000 C 365.200 279.560,365.380 279.200,365.600 279.200 C 365.820 279.200,366.000 278.921,366.000 278.581 C 366.000 278.240,366.360 277.216,366.800 276.306 C 367.240 275.395,367.600 274.414,367.600 274.125 C 367.600 273.836,367.735 273.599,367.900 273.597 C 368.261 273.593,369.200 271.655,369.200 270.915 C 369.200 270.626,369.380 270.032,369.600 269.595 C 370.484 267.838,370.688 267.324,371.220 265.500 C 371.525 264.455,371.895 263.600,372.042 263.600 C 372.189 263.600,372.407 263.105,372.526 262.500 C 373.033 259.922,373.714 257.372,373.995 257.000 C 374.161 256.780,374.519 255.610,374.791 254.400 C 375.063 253.190,375.446 251.887,375.643 251.505 C 375.839 251.123,376.000 250.268,376.000 249.605 C 376.000 248.942,376.161 248.400,376.358 248.400 C 376.694 248.400,376.840 247.737,377.441 243.500 C 377.574 242.565,377.844 241.629,378.041 241.420 C 378.238 241.211,378.400 240.266,378.400 239.320 C 378.400 238.374,378.580 237.600,378.800 237.600 C 379.020 237.600,379.200 236.621,379.200 235.424 C 379.200 234.227,379.380 233.136,379.600 233.000 C 379.820 232.864,380.000 231.604,380.000 230.200 C 380.000 228.796,380.180 227.536,380.400 227.400 C 380.620 227.264,380.800 225.644,380.800 223.800 C 380.800 221.956,380.980 220.336,381.200 220.200 C 381.456 220.042,381.600 214.004,381.600 203.400 C 381.600 192.796,381.456 186.758,381.200 186.600 C 380.980 186.464,380.800 184.743,380.800 182.776 C 380.800 180.809,380.635 179.200,380.433 179.200 C 380.231 179.200,379.966 177.985,379.845 176.500 C 379.405 171.126,379.119 169.200,378.763 169.200 C 378.563 169.200,378.400 168.210,378.400 167.000 C 378.400 165.790,378.220 164.800,378.000 164.800 C 377.780 164.800,377.600 164.080,377.600 163.200 C 377.600 162.320,377.420 161.600,377.200 161.600 C 376.980 161.600,376.800 160.880,376.800 160.000 C 376.800 159.120,376.620 158.400,376.400 158.400 C 376.180 158.400,376.000 157.680,376.000 156.800 C 376.000 155.920,375.820 155.200,375.600 155.200 C 375.380 155.200,375.200 154.930,375.200 154.600 C 375.200 154.074,372.578 154.000,354.000 154.000 L 332.800 154.000 332.800 177.400 L 332.800 200.800 323.000 200.800 L 313.200 200.800 313.200 177.400 L 313.200 154.000 289.793 154.000 L 266.386 154.000 266.493 144.500 L 266.600 135.000 289.800 134.792 C 302.560 134.677,313.044 134.542,313.097 134.492 C 313.150 134.441,313.240 124.005,313.297 111.300 L 313.400 88.200 323.000 88.200 L 332.600 88.200 332.800 111.400 L 333.000 134.600 350.700 134.704 C 370.308 134.820,369.166 134.989,367.600 132.200 C 367.160 131.417,366.800 130.511,366.800 130.188 C 366.800 129.865,366.620 129.600,366.400 129.600 C 366.180 129.600,366.000 129.240,366.000 128.800 C 366.000 128.360,365.820 128.000,365.600 128.000 C 365.380 128.000,365.200 127.640,365.200 127.200 C 365.200 126.760,365.020 126.400,364.800 126.400 C 364.580 126.400,364.400 126.040,364.400 125.600 C 364.400 125.160,364.220 124.800,364.000 124.800 C 363.780 124.800,363.600 124.440,363.600 124.000 C 363.600 123.560,363.420 123.200,363.200 123.200 C 362.980 123.200,362.800 122.840,362.800 122.400 C 362.800 121.960,362.620 121.600,362.400 121.600 C 362.180 121.600,362.000 121.255,362.000 120.833 C 362.000 120.412,361.865 120.007,361.700 119.933 C 361.535 119.860,360.967 118.945,360.437 117.900 C 359.908 116.855,359.323 116.000,359.137 116.000 C 358.952 116.000,358.800 115.640,358.800 115.200 C 358.800 114.760,358.620 114.400,358.400 114.400 C 358.180 114.400,358.000 114.211,358.000 113.981 C 358.000 113.750,357.370 112.577,356.600 111.373 C 355.830 110.169,355.200 109.090,355.200 108.975 C 355.200 108.860,355.015 108.549,354.789 108.283 C 354.564 108.017,353.805 106.900,353.104 105.800 C 352.403 104.700,351.733 103.710,351.615 103.600 C 351.497 103.490,350.777 102.500,350.016 101.400 C 349.255 100.300,348.490 99.340,348.316 99.267 C 348.142 99.193,348.000 98.970,348.000 98.771 C 348.000 98.404,347.402 97.615,345.600 95.604 C 345.050 94.990,344.330 94.090,344.000 93.602 C 343.670 93.115,342.545 91.797,341.500 90.673 C 340.455 89.550,339.600 88.488,339.600 88.313 C 339.600 87.644,334.793 82.713,322.913 71.194 C 319.577 67.960,313.110 62.400,312.684 62.400 C 312.574 62.400,311.907 61.860,311.200 61.200 C 310.493 60.540,309.731 60.000,309.505 60.000 C 309.279 60.000,308.803 59.676,308.447 59.281 C 308.091 58.886,307.170 58.129,306.400 57.600 C 305.630 57.071,304.910 56.528,304.800 56.393 C 304.690 56.258,303.700 55.537,302.600 54.790 C 301.500 54.044,300.251 53.111,299.825 52.717 C 299.398 52.322,298.813 52.000,298.525 52.000 C 298.236 52.000,298.000 51.820,298.000 51.600 C 298.000 51.380,297.655 51.200,297.233 51.200 C 296.812 51.200,296.407 51.065,296.333 50.900 C 296.163 50.516,292.498 48.242,289.400 46.597 C 288.080 45.896,286.370 44.936,285.600 44.463 C 284.830 43.990,283.885 43.602,283.500 43.601 C 283.115 43.601,282.800 43.420,282.800 43.200 C 282.800 42.980,282.530 42.800,282.200 42.800 C 281.870 42.800,281.600 42.620,281.600 42.400 C 281.600 42.180,281.335 42.000,281.012 42.000 C 280.689 42.000,279.783 41.640,279.000 41.200 C 278.217 40.760,277.221 40.400,276.788 40.400 C 276.355 40.400,276.000 40.220,276.000 40.000 C 276.000 39.780,275.770 39.600,275.490 39.600 C 275.209 39.600,273.904 39.066,272.590 38.413 C 271.275 37.759,269.885 37.219,269.500 37.213 C 269.115 37.206,268.800 37.020,268.800 36.800 C 268.800 36.580,268.350 36.400,267.800 36.400 C 267.250 36.400,266.800 36.220,266.800 36.000 C 266.800 35.780,266.386 35.600,265.880 35.600 C 265.374 35.600,264.789 35.451,264.580 35.270 C 264.371 35.088,263.390 34.710,262.400 34.431 C 261.410 34.151,260.287 33.760,259.905 33.561 C 259.523 33.362,258.859 33.200,258.429 33.200 C 257.999 33.200,257.536 33.020,257.400 32.800 C 257.264 32.580,256.771 32.400,256.305 32.400 C 255.521 32.400,253.739 31.920,251.800 31.186 C 251.360 31.020,249.920 30.668,248.600 30.404 C 247.280 30.140,245.822 29.777,245.361 29.598 C 244.900 29.419,243.460 29.144,242.161 28.987 C 240.862 28.830,239.614 28.554,239.386 28.373 C 238.743 27.864,234.090 27.206,231.100 27.203 C 229.569 27.201,228.400 27.027,228.400 26.800 C 228.400 26.563,226.941 26.400,224.824 26.400 C 222.857 26.400,221.136 26.220,221.000 26.000 C 220.841 25.743,214.529 25.600,203.376 25.600 C 192.059 25.600,186.000 25.739,186.000 26.000 M148.800 101.984 C 148.470 102.206,147.673 102.391,147.028 102.394 C 140.655 102.427,126.498 111.850,123.189 118.261 C 122.866 118.888,122.501 119.490,122.378 119.600 C 121.826 120.095,118.800 126.807,118.800 127.537 C 118.800 127.986,118.640 128.452,118.444 128.573 C 118.249 128.694,117.986 129.379,117.861 130.096 C 117.736 130.813,117.446 132.390,117.218 133.600 C 115.593 142.205,115.901 154.352,118.003 164.600 C 118.228 165.700,118.524 167.369,118.659 168.309 C 118.795 169.249,119.062 170.115,119.253 170.233 C 119.444 170.351,119.600 170.829,119.600 171.295 C 119.600 172.196,120.265 174.539,120.849 175.695 C 121.042 176.077,121.200 176.741,121.200 177.171 C 121.200 177.601,121.380 178.064,121.600 178.200 C 121.820 178.336,122.000 178.701,122.000 179.011 C 122.000 180.296,126.022 189.246,128.736 194.000 C 130.386 196.890,130.859 197.654,132.600 200.241 C 135.030 203.851,142.123 211.600,142.998 211.600 C 143.247 211.600,143.968 212.140,144.600 212.800 C 145.232 213.460,145.964 214.000,146.226 214.000 C 146.488 214.000,146.919 214.262,147.185 214.582 C 147.783 215.303,153.180 218.000,154.024 218.000 C 154.363 218.000,154.811 218.168,155.020 218.374 C 156.840 220.167,171.448 221.403,175.800 220.133 C 176.680 219.876,178.210 219.454,179.200 219.194 C 180.190 218.934,181.313 218.560,181.695 218.361 C 182.077 218.162,182.577 218.000,182.806 218.000 C 183.543 218.000,189.071 215.238,189.593 214.608 C 189.871 214.274,190.318 214.000,190.587 214.000 C 190.856 214.000,191.402 213.640,191.800 213.200 C 192.198 212.760,192.740 212.400,193.003 212.400 C 193.669 212.400,200.466 205.269,201.200 203.800 C 201.530 203.140,202.192 202.009,202.672 201.286 C 205.240 197.414,207.319 187.098,207.283 178.400 C 207.246 169.232,205.138 155.576,202.807 149.400 C 202.641 148.960,202.112 147.340,201.632 145.800 C 200.678 142.741,200.530 142.352,199.200 139.400 C 198.704 138.300,198.164 137.040,198.000 136.600 C 197.382 134.944,195.789 131.743,194.815 130.200 C 194.260 129.320,193.534 128.060,193.203 127.400 C 192.645 126.289,190.154 122.532,187.765 119.200 C 186.390 117.281,179.519 110.400,178.978 110.400 C 178.737 110.400,178.103 109.935,177.570 109.366 C 177.036 108.797,175.846 107.987,174.924 107.567 C 174.003 107.146,173.140 106.626,173.007 106.412 C 172.787 106.056,171.448 105.387,168.800 104.313 C 168.250 104.089,167.487 103.748,167.105 103.553 C 166.723 103.359,166.059 103.200,165.629 103.200 C 165.199 103.200,164.748 103.039,164.626 102.842 C 164.092 101.978,149.949 101.211,148.800 101.984 M167.400 288.000 C 167.261 288.225,165.356 288.400,163.056 288.400 C 160.803 288.400,158.789 288.566,158.580 288.769 C 158.371 288.972,156.940 289.235,155.400 289.354 C 150.549 289.728,148.213 290.062,147.820 290.437 C 147.611 290.637,146.497 290.800,145.344 290.800 C 144.191 290.800,143.148 290.961,143.026 291.158 C 142.905 291.355,142.129 291.618,141.303 291.742 C 137.793 292.272,136.780 292.508,136.573 292.844 C 136.452 293.040,135.920 293.200,135.391 293.200 C 133.072 293.200,118.838 299.190,116.769 301.036 C 116.421 301.346,115.954 301.600,115.730 301.600 C 115.507 301.600,114.998 301.960,114.600 302.400 C 114.202 302.840,113.668 303.200,113.413 303.200 C 113.158 303.200,112.432 303.740,111.800 304.400 C 111.168 305.060,110.482 305.600,110.277 305.600 C 109.764 305.600,104.000 311.248,104.000 311.751 C 104.000 311.974,103.568 312.616,103.041 313.178 C 102.513 313.740,101.744 314.830,101.331 315.600 C 100.918 316.370,100.261 317.477,99.870 318.060 C 95.447 324.664,93.492 347.200,97.342 347.200 C 97.587 347.200,98.780 348.116,99.816 349.100 C 100.106 349.375,100.521 349.600,100.738 349.600 C 100.955 349.600,101.193 349.756,101.267 349.946 C 101.340 350.136,103.740 351.816,106.600 353.680 C 111.388 356.801,113.953 358.321,118.200 360.558 C 119.080 361.021,119.860 361.535,119.933 361.700 C 120.007 361.865,120.412 362.000,120.833 362.000 C 121.255 362.000,121.600 362.180,121.600 362.400 C 121.600 362.620,121.883 362.800,122.229 362.800 C 122.574 362.800,123.127 363.070,123.457 363.399 C 123.786 363.729,124.538 364.117,125.128 364.261 C 125.718 364.405,126.290 364.634,126.400 364.770 C 126.613 365.032,130.741 367.058,133.400 368.205 C 136.565 369.570,137.436 369.922,139.800 370.793 C 141.120 371.280,142.560 371.819,143.000 371.991 C 145.658 373.029,153.171 375.209,154.076 375.205 C 154.668 375.202,155.264 375.380,155.400 375.600 C 155.536 375.820,156.267 376.000,157.024 376.000 C 157.781 376.000,158.400 376.180,158.400 376.400 C 158.400 376.620,158.929 376.800,159.576 376.800 C 160.223 376.800,160.864 376.980,161.000 377.200 C 161.136 377.420,161.946 377.600,162.800 377.600 C 163.654 377.600,164.464 377.780,164.600 378.000 C 164.736 378.220,165.611 378.400,166.544 378.400 C 167.477 378.400,168.411 378.564,168.620 378.765 C 168.975 379.106,170.150 379.273,176.200 379.842 C 177.520 379.966,178.771 380.232,178.980 380.434 C 179.189 380.635,180.663 380.800,182.256 380.800 C 183.849 380.800,185.264 380.980,185.400 381.200 C 185.895 382.000,206.536 381.714,207.045 380.900 C 207.285 380.515,208.299 379.792,209.297 379.294 C 210.295 378.795,211.334 378.120,211.605 377.794 C 211.876 377.467,212.276 377.200,212.494 377.200 C 213.645 377.200,219.448 371.777,222.087 368.234 C 224.427 365.094,228.000 358.369,228.000 357.105 C 228.000 356.743,228.160 356.348,228.356 356.227 C 228.551 356.106,228.827 355.331,228.969 354.504 C 229.111 353.677,229.422 351.920,229.662 350.600 C 230.667 345.054,229.796 332.263,228.352 331.370 C 228.159 331.251,228.000 330.857,228.000 330.495 C 228.000 329.566,224.650 322.916,223.216 321.000 C 222.558 320.120,221.585 318.770,221.053 318.000 C 219.479 315.718,207.013 304.000,206.160 304.000 C 205.983 304.000,205.290 303.471,204.619 302.824 C 203.949 302.177,202.770 301.192,202.000 300.635 C 201.230 300.079,199.970 299.167,199.200 298.610 C 198.430 298.052,196.990 296.970,196.000 296.204 C 195.010 295.438,193.022 294.017,191.582 293.045 C 190.142 292.074,188.725 290.991,188.433 290.639 C 188.141 290.288,187.676 290.000,187.400 290.000 C 187.124 290.000,186.677 289.734,186.407 289.408 C 185.097 287.830,183.719 287.600,175.562 287.600 C 170.717 287.600,167.551 287.755,167.400 288.000 "
              stroke="none" fill="#d6492f" fill-rule="evenodd"></path>
        <path id="path4"
              d="M74.575 80.100 L 73.400 81.400 74.700 80.225 C 75.912 79.130,76.184 78.800,75.875 78.800 C 75.806 78.800,75.221 79.385,74.575 80.100 M332.783 80.500 C 333.764 81.545,334.619 82.400,334.683 82.400 C 334.984 82.400,334.666 82.041,332.900 80.383 L 331.000 78.600 332.783 80.500 "
              stroke="none" fill="#ff0000" fill-rule="evenodd"></path>
    </g>
</svg>