<svg id="svg" version="1.1" width="400" height="400" viewBox="0 0 400 400" xmlns="http://www.w3.org/2000/svg">
    <g id="svgg">
        <path id="path0"
              d="M329.200 74.948 C 329.200 75.107,329.650 75.686,330.200 76.236 C 330.750 76.786,331.200 77.080,331.200 76.888 C 331.200 76.696,330.750 76.117,330.200 75.600 C 329.650 75.083,329.200 74.790,329.200 74.948 M75.600 330.200 C 76.117 330.750,76.696 331.200,76.888 331.200 C 77.080 331.200,76.786 330.750,76.236 330.200 C 75.686 329.650,75.107 329.200,74.948 329.200 C 74.790 329.200,75.083 329.650,75.600 330.200 "
              stroke="none" fill="#000000" fill-rule="evenodd"></path>
        <path id="path1"
              d="M128.000 112.670 C 125.996 113.005,122.437 114.490,120.600 115.756 C 117.012 118.231,115.220 120.694,113.147 126.000 C 112.337 128.072,112.331 277.902,113.140 280.000 C 115.594 286.362,122.226 292.800,126.326 292.800 C 126.781 292.800,127.264 292.980,127.400 293.200 C 127.563 293.464,153.196 293.600,203.000 293.600 C 252.804 293.600,278.437 293.464,278.600 293.200 C 278.736 292.980,279.256 292.800,279.756 292.800 C 281.398 292.800,286.628 289.751,288.427 287.745 C 290.403 285.543,292.800 281.193,292.800 279.812 C 292.800 279.343,292.981 278.779,293.202 278.558 C 293.695 278.065,293.511 128.499,293.015 126.421 C 292.445 124.033,290.386 120.688,287.940 118.179 C 285.835 116.020,284.321 115.036,280.200 113.149 C 279.057 112.626,131.052 112.160,128.000 112.670 M269.400 126.800 C 269.536 127.020,269.939 127.200,270.296 127.200 C 272.035 127.200,274.322 130.696,274.613 133.800 C 275.096 138.952,274.656 153.650,273.984 154.800 C 271.689 158.730,271.415 158.800,258.300 158.800 C 241.860 158.800,242.000 158.939,242.000 142.649 C 242.000 130.384,242.315 129.283,246.474 126.989 C 247.640 126.346,269.011 126.170,269.400 126.800 M207.020 165.965 C 207.229 166.165,208.390 166.413,209.600 166.515 C 214.133 166.898,220.620 169.621,225.198 173.062 C 227.764 174.991,233.600 181.092,233.600 181.846 C 233.600 182.097,233.868 182.524,234.195 182.796 C 235.435 183.825,238.395 190.543,239.307 194.400 C 240.156 197.986,239.727 212.827,238.758 213.426 C 238.561 213.548,238.400 213.999,238.400 214.429 C 238.400 214.859,238.248 215.523,238.063 215.905 C 237.878 216.287,237.300 217.500,236.779 218.600 C 233.135 226.300,226.745 232.785,219.200 236.441 C 217.770 237.135,216.287 237.859,215.905 238.051 C 215.523 238.243,214.859 238.400,214.429 238.400 C 213.999 238.400,213.536 238.580,213.400 238.800 C 213.264 239.020,212.569 239.200,211.856 239.200 C 211.143 239.200,210.372 239.388,210.141 239.619 C 209.613 240.147,196.951 239.890,194.400 239.299 C 190.591 238.416,183.832 235.443,182.796 234.195 C 182.524 233.868,182.097 233.600,181.846 233.600 C 179.320 233.600,170.764 222.813,168.362 216.600 C 167.097 213.327,166.400 210.683,166.400 209.153 C 166.400 208.167,166.208 207.168,165.972 206.932 C 165.530 206.490,165.666 199.889,166.174 197.200 C 166.611 194.884,167.255 192.250,167.590 191.400 C 169.886 185.593,170.005 185.364,173.252 180.557 C 176.456 175.814,187.193 168.000,190.507 168.000 C 190.815 168.000,191.195 167.871,191.353 167.714 C 191.774 167.293,195.213 166.439,196.600 166.412 C 197.260 166.398,198.070 166.213,198.400 166.000 C 199.162 165.508,206.512 165.478,207.020 165.965 M149.014 185.623 C 149.250 186.004,148.929 187.756,147.514 193.800 C 146.853 196.623,146.888 210.008,147.564 212.800 C 149.327 220.084,150.336 223.088,152.536 227.600 C 153.876 230.350,155.294 232.949,155.687 233.375 C 156.079 233.802,156.400 234.295,156.400 234.471 C 156.400 234.834,156.428 234.871,160.597 239.900 C 162.284 241.935,163.784 243.602,163.932 243.604 C 164.079 243.607,164.920 244.289,165.800 245.121 C 166.680 245.952,168.030 247.069,168.800 247.603 C 169.570 248.137,170.437 248.804,170.726 249.085 C 174.233 252.489,186.166 257.189,195.000 258.646 C 199.692 259.420,210.959 258.871,215.900 257.628 C 216.835 257.393,218.275 257.043,219.100 256.850 C 221.404 256.313,222.078 256.050,226.800 253.847 C 239.003 248.153,248.200 238.954,253.839 226.800 C 254.604 225.150,255.404 223.487,255.615 223.105 C 255.827 222.723,256.000 222.059,256.000 221.629 C 256.000 221.199,256.160 220.748,256.356 220.627 C 256.551 220.506,256.808 219.821,256.927 219.104 C 257.045 218.387,257.348 216.990,257.599 216.000 C 259.451 208.699,259.443 197.083,257.579 189.600 C 257.333 188.610,257.102 187.260,257.066 186.600 L 257.000 185.400 265.445 185.292 C 272.305 185.205,273.977 185.290,274.355 185.746 C 275.139 186.691,274.794 269.077,274.000 270.400 C 272.945 272.159,271.849 273.234,270.406 273.926 C 268.371 274.902,137.644 274.974,135.761 274.000 C 134.121 273.152,133.001 272.036,132.035 270.288 C 131.005 268.423,130.679 185.877,131.700 185.465 C 132.730 185.049,148.750 185.195,149.014 185.623 "
              stroke="none" fill="#ffffff" fill-rule="evenodd"></path>
        <path id="path2"
              d="M337.964 84.333 C 338.180 84.736,338.671 85.321,339.055 85.633 C 339.487 85.984,339.390 85.704,338.801 84.900 C 337.751 83.465,337.357 83.198,337.964 84.333 M382.406 203.076 C 382.411 204.207,382.512 204.445,382.800 204.000 C 383.306 203.218,383.306 202.112,382.800 201.800 C 382.560 201.652,382.402 202.161,382.406 203.076 M83.600 337.711 C 83.600 337.787,84.185 338.278,84.900 338.801 C 85.704 339.390,85.984 339.487,85.633 339.055 C 85.100 338.399,83.600 337.407,83.600 337.711 M201.800 382.800 C 202.112 383.306,203.218 383.306,204.000 382.800 C 204.445 382.512,204.207 382.411,203.076 382.406 C 202.161 382.402,201.652 382.560,201.800 382.800 "
              stroke="none" fill="#005555" fill-rule="evenodd"></path>
        <path id="path3"
              d="M192.800 23.587 C 192.800 23.847,191.107 24.000,188.224 24.000 C 185.604 24.000,183.542 24.171,183.400 24.400 C 183.264 24.620,181.914 24.800,180.400 24.800 C 178.886 24.800,177.536 24.980,177.400 25.200 C 177.264 25.420,176.083 25.600,174.776 25.600 C 173.459 25.600,172.400 25.778,172.400 26.000 C 172.400 26.220,171.410 26.400,170.200 26.400 C 168.990 26.400,168.000 26.555,168.000 26.744 C 168.000 26.934,166.932 27.186,165.627 27.304 C 163.087 27.534,156.254 29.054,155.105 29.643 C 154.723 29.840,153.969 30.000,153.429 30.000 C 152.889 30.000,152.336 30.180,152.200 30.400 C 152.064 30.620,151.434 30.800,150.800 30.800 C 150.166 30.800,149.536 30.980,149.400 31.200 C 149.264 31.420,148.801 31.600,148.371 31.600 C 147.941 31.600,147.232 31.780,146.795 32.000 C 146.358 32.220,145.642 32.580,145.205 32.800 C 144.768 33.020,144.059 33.200,143.629 33.200 C 143.199 33.200,142.736 33.380,142.600 33.600 C 142.464 33.820,141.913 34.000,141.376 34.000 C 140.839 34.000,140.400 34.180,140.400 34.400 C 140.400 34.620,139.961 34.800,139.424 34.800 C 138.887 34.800,138.336 34.980,138.200 35.200 C 138.064 35.420,137.603 35.600,137.176 35.600 C 136.749 35.600,136.400 35.780,136.400 36.000 C 136.400 36.220,135.961 36.400,135.424 36.400 C 134.887 36.400,134.336 36.580,134.200 36.800 C 134.064 37.020,133.603 37.200,133.176 37.200 C 132.749 37.200,132.400 37.380,132.400 37.600 C 132.400 37.820,132.040 38.000,131.600 38.000 C 131.160 38.000,130.800 38.180,130.800 38.400 C 130.800 38.620,130.451 38.800,130.024 38.800 C 129.597 38.800,129.136 38.980,129.000 39.200 C 128.864 39.420,128.403 39.600,127.976 39.600 C 127.549 39.600,127.200 39.780,127.200 40.000 C 127.200 40.220,126.840 40.400,126.400 40.400 C 125.960 40.400,125.600 40.580,125.600 40.800 C 125.600 41.020,125.240 41.200,124.800 41.200 C 124.360 41.200,124.000 41.380,124.000 41.600 C 124.000 41.820,123.640 42.000,123.200 42.000 C 122.760 42.000,122.400 42.180,122.400 42.400 C 122.400 42.620,122.040 42.800,121.600 42.800 C 121.160 42.800,120.800 42.980,120.800 43.200 C 120.800 43.420,120.514 43.600,120.165 43.600 C 119.450 43.600,114.273 46.384,114.067 46.880 C 113.993 47.056,113.588 47.200,113.167 47.200 C 112.745 47.200,112.400 47.380,112.400 47.600 C 112.400 47.820,112.080 48.000,111.688 48.000 C 111.297 48.000,110.717 48.360,110.400 48.800 C 110.083 49.240,109.503 49.600,109.112 49.600 C 108.720 49.600,108.400 49.780,108.400 50.000 C 108.400 50.220,108.164 50.400,107.875 50.400 C 107.587 50.400,106.964 50.760,106.492 51.200 C 106.020 51.640,105.422 52.000,105.164 52.000 C 104.905 52.000,104.403 52.316,104.047 52.703 C 103.691 53.089,102.905 53.660,102.300 53.970 C 101.695 54.281,101.200 54.685,101.200 54.868 C 101.200 55.050,100.930 55.200,100.600 55.200 C 100.270 55.200,100.000 55.380,100.000 55.600 C 100.000 55.820,99.770 56.000,99.488 56.000 C 99.207 56.000,98.717 56.360,98.400 56.800 C 98.083 57.240,97.595 57.600,97.315 57.600 C 97.036 57.600,96.582 57.960,96.307 58.400 C 96.032 58.840,95.623 59.200,95.396 59.200 C 95.170 59.200,94.114 59.920,93.049 60.800 C 91.984 61.680,90.997 62.402,90.856 62.403 C 90.715 62.405,89.970 62.992,89.200 63.708 C 88.430 64.423,87.170 65.512,86.400 66.127 C 84.434 67.697,78.366 73.354,75.666 76.133 C 74.420 77.416,72.320 79.579,71.000 80.940 C 69.680 82.301,67.792 84.401,66.804 85.607 C 65.816 86.813,64.422 88.430,63.707 89.200 C 62.992 89.970,62.405 90.715,62.403 90.856 C 62.402 90.997,61.680 91.984,60.800 93.049 C 59.920 94.114,59.200 95.170,59.200 95.396 C 59.200 95.623,58.840 96.032,58.400 96.307 C 57.960 96.582,57.600 97.036,57.600 97.315 C 57.600 97.595,57.240 98.083,56.800 98.400 C 56.360 98.717,56.000 99.207,56.000 99.488 C 56.000 99.770,55.820 100.000,55.600 100.000 C 55.380 100.000,55.200 100.270,55.200 100.600 C 55.200 100.930,55.050 101.200,54.868 101.200 C 54.685 101.200,54.281 101.695,53.970 102.300 C 53.660 102.905,53.089 103.691,52.703 104.047 C 52.316 104.403,52.000 104.905,52.000 105.164 C 52.000 105.422,51.640 106.020,51.200 106.492 C 50.760 106.964,50.400 107.587,50.400 107.875 C 50.400 108.164,50.220 108.400,50.000 108.400 C 49.780 108.400,49.600 108.720,49.600 109.112 C 49.600 109.503,49.240 110.083,48.800 110.400 C 48.360 110.717,48.000 111.209,48.000 111.494 C 48.000 112.001,47.216 113.606,46.776 114.000 C 46.230 114.489,43.600 119.594,43.600 120.165 C 43.600 120.514,43.420 120.800,43.200 120.800 C 42.980 120.800,42.800 121.160,42.800 121.600 C 42.800 122.040,42.620 122.400,42.400 122.400 C 42.180 122.400,42.000 122.760,42.000 123.200 C 42.000 123.640,41.820 124.000,41.600 124.000 C 41.380 124.000,41.200 124.360,41.200 124.800 C 41.200 125.240,41.020 125.600,40.800 125.600 C 40.580 125.600,40.400 125.960,40.400 126.400 C 40.400 126.840,40.220 127.200,40.000 127.200 C 39.780 127.200,39.600 127.549,39.600 127.976 C 39.600 128.403,39.420 128.864,39.200 129.000 C 38.980 129.136,38.800 129.607,38.800 130.047 C 38.800 130.487,38.620 130.736,38.400 130.600 C 38.180 130.464,38.000 130.718,38.000 131.164 C 38.000 131.611,37.640 132.617,37.200 133.400 C 36.760 134.183,36.400 135.179,36.400 135.612 C 36.400 136.045,36.220 136.400,36.000 136.400 C 35.780 136.400,35.600 136.749,35.600 137.176 C 35.600 137.603,35.420 138.064,35.200 138.200 C 34.980 138.336,34.800 138.887,34.800 139.424 C 34.800 139.961,34.620 140.400,34.400 140.400 C 34.180 140.400,34.000 140.839,34.000 141.376 C 34.000 141.913,33.820 142.464,33.600 142.600 C 33.380 142.736,33.200 143.287,33.200 143.824 C 33.200 144.361,33.020 144.800,32.800 144.800 C 32.580 144.800,32.400 145.239,32.400 145.776 C 32.400 146.313,32.220 146.864,32.000 147.000 C 31.780 147.136,31.600 147.676,31.600 148.200 C 31.600 148.724,31.420 149.264,31.200 149.400 C 30.980 149.536,30.800 150.166,30.800 150.800 C 30.800 151.434,30.620 152.064,30.400 152.200 C 30.180 152.336,30.000 152.889,30.000 153.429 C 30.000 153.969,29.840 154.723,29.643 155.105 C 29.054 156.254,27.534 163.087,27.304 165.627 C 27.186 166.932,26.934 168.000,26.744 168.000 C 26.555 168.000,26.400 168.990,26.400 170.200 C 26.400 171.410,26.220 172.400,26.000 172.400 C 25.778 172.400,25.600 173.467,25.600 174.800 C 25.600 176.133,25.422 177.200,25.200 177.200 C 24.969 177.200,24.800 178.459,24.800 180.176 C 24.800 181.813,24.620 183.264,24.400 183.400 C 24.171 183.542,24.000 185.604,24.000 188.224 C 24.000 191.107,23.847 192.800,23.587 192.800 C 22.856 192.800,23.672 221.820,24.424 222.580 C 24.631 222.789,24.800 224.274,24.800 225.880 C 24.800 227.560,24.970 228.800,25.200 228.800 C 25.422 228.800,25.600 229.867,25.600 231.200 C 25.600 232.533,25.778 233.600,26.000 233.600 C 26.220 233.600,26.400 234.489,26.400 235.576 C 26.400 236.663,26.554 237.648,26.741 237.764 C 26.929 237.880,27.200 239.233,27.343 240.771 C 27.486 242.310,27.765 243.980,27.963 244.484 C 28.161 244.988,28.540 246.480,28.804 247.800 C 29.068 249.120,29.424 250.560,29.596 251.000 C 29.768 251.440,30.127 252.610,30.393 253.600 C 30.660 254.590,31.040 255.713,31.239 256.095 C 31.438 256.477,31.600 257.242,31.600 257.795 C 31.600 258.348,31.780 258.800,32.000 258.800 C 32.220 258.800,32.400 259.239,32.400 259.776 C 32.400 260.313,32.580 260.864,32.800 261.000 C 33.020 261.136,33.200 261.777,33.200 262.424 C 33.200 263.071,33.380 263.600,33.600 263.600 C 33.820 263.600,34.000 264.039,34.000 264.576 C 34.000 265.113,34.180 265.664,34.400 265.800 C 34.620 265.936,34.800 266.397,34.800 266.824 C 34.800 267.251,34.980 267.600,35.200 267.600 C 35.420 267.600,35.600 267.962,35.600 268.405 C 35.600 268.848,35.757 269.523,35.950 269.905 C 37.448 272.880,38.000 274.153,38.000 274.638 C 38.000 274.947,38.180 275.200,38.400 275.200 C 38.620 275.200,38.800 275.560,38.800 276.000 C 38.800 276.440,38.980 276.800,39.200 276.800 C 39.420 276.800,39.600 277.239,39.600 277.776 C 39.600 278.313,39.780 278.864,40.000 279.000 C 40.220 279.136,40.400 279.582,40.400 279.990 C 40.400 280.399,40.545 280.793,40.721 280.867 C 40.898 280.940,41.886 282.710,42.917 284.800 C 45.373 289.779,48.047 294.566,48.466 294.733 C 48.650 294.807,48.800 295.212,48.800 295.633 C 48.800 296.055,48.958 296.400,49.151 296.400 C 49.345 296.400,49.727 296.940,50.000 297.600 C 50.273 298.260,50.655 298.800,50.849 298.800 C 51.042 298.800,51.200 299.036,51.200 299.325 C 51.200 299.613,51.515 300.198,51.900 300.625 C 52.285 301.051,52.855 301.895,53.168 302.500 C 53.480 303.105,53.885 303.600,54.068 303.600 C 54.250 303.600,54.400 303.842,54.400 304.138 C 54.400 304.434,54.760 305.002,55.200 305.400 C 55.640 305.798,56.000 306.294,56.000 306.502 C 56.000 306.709,56.540 307.383,57.200 308.000 C 57.860 308.617,58.400 309.343,58.400 309.614 C 58.400 309.884,58.732 310.397,59.137 310.753 C 59.543 311.109,60.105 311.835,60.387 312.367 C 60.920 313.372,63.203 316.264,66.362 319.937 C 68.901 322.890,83.247 337.394,84.068 337.838 C 84.436 338.037,85.742 339.145,86.970 340.300 C 88.199 341.455,89.398 342.400,89.634 342.400 C 89.870 342.400,90.754 343.120,91.600 344.000 C 92.446 344.880,93.305 345.600,93.509 345.600 C 93.714 345.600,94.446 346.140,95.137 346.800 C 95.828 347.460,96.546 348.000,96.734 348.000 C 96.922 348.000,97.402 348.360,97.800 348.800 C 98.198 349.240,98.686 349.600,98.884 349.600 C 99.082 349.600,99.819 350.139,100.522 350.798 C 101.225 351.457,101.943 351.997,102.117 351.998 C 102.291 351.999,102.651 352.184,102.917 352.408 C 103.529 352.925,108.376 356.000,108.579 356.000 C 108.662 356.000,109.687 356.630,110.856 357.400 C 112.025 358.170,113.211 358.800,113.491 358.800 C 113.771 358.800,114.000 358.946,114.000 359.125 C 114.000 359.304,114.630 359.698,115.400 360.000 C 116.170 360.302,116.800 360.696,116.800 360.875 C 116.800 361.054,117.160 361.200,117.600 361.200 C 118.040 361.200,118.400 361.380,118.400 361.600 C 118.400 361.820,118.760 362.000,119.200 362.000 C 119.640 362.000,120.000 362.180,120.000 362.400 C 120.000 362.620,120.360 362.800,120.800 362.800 C 121.240 362.800,121.600 362.980,121.600 363.200 C 121.600 363.420,121.960 363.600,122.400 363.600 C 122.840 363.600,123.200 363.780,123.200 364.000 C 123.200 364.220,123.560 364.400,124.000 364.400 C 124.440 364.400,124.800 364.580,124.800 364.800 C 124.800 365.020,125.160 365.200,125.600 365.200 C 126.040 365.200,126.400 365.380,126.400 365.600 C 126.400 365.820,126.760 366.000,127.200 366.000 C 127.640 366.000,128.000 366.180,128.000 366.400 C 128.000 366.620,128.191 366.800,128.425 366.800 C 128.805 366.800,133.095 368.678,134.895 369.632 C 135.277 369.834,135.952 370.000,136.395 370.000 C 136.838 370.000,137.200 370.180,137.200 370.400 C 137.200 370.620,137.549 370.800,137.976 370.800 C 138.403 370.800,138.864 370.980,139.000 371.200 C 139.136 371.420,139.599 371.600,140.029 371.600 C 140.459 371.600,141.123 371.758,141.505 371.951 C 141.887 372.144,142.920 372.516,143.800 372.777 C 144.680 373.039,145.760 373.412,146.200 373.606 C 147.879 374.348,150.867 375.200,151.790 375.200 C 152.320 375.200,152.864 375.380,153.000 375.600 C 153.136 375.820,153.867 376.000,154.624 376.000 C 155.381 376.000,156.000 376.160,156.000 376.356 C 156.000 376.706,157.337 377.020,160.700 377.459 C 161.635 377.581,162.400 377.842,162.400 378.040 C 162.400 378.238,163.120 378.400,164.000 378.400 C 164.880 378.400,165.600 378.580,165.600 378.800 C 165.600 379.020,166.500 379.200,167.600 379.200 C 168.700 379.200,169.600 379.380,169.600 379.600 C 169.600 379.820,170.579 380.000,171.776 380.000 C 172.973 380.000,174.064 380.180,174.200 380.400 C 174.336 380.620,175.596 380.800,177.000 380.800 C 178.404 380.800,179.664 380.980,179.800 381.200 C 179.936 381.420,181.477 381.600,183.224 381.600 C 185.075 381.600,186.400 381.767,186.400 382.000 C 186.400 382.550,219.060 382.550,219.400 382.000 C 219.536 381.780,221.066 381.600,222.800 381.600 C 224.534 381.600,226.064 381.420,226.200 381.200 C 226.336 380.980,227.697 380.800,229.224 380.800 C 230.808 380.800,232.000 380.628,232.000 380.400 C 232.000 380.180,232.889 380.000,233.976 380.000 C 235.063 380.000,236.064 379.820,236.200 379.600 C 236.336 379.380,237.236 379.200,238.200 379.200 C 239.164 379.200,240.064 379.020,240.200 378.800 C 240.336 378.580,241.247 378.400,242.224 378.400 C 243.201 378.400,244.000 378.220,244.000 378.000 C 244.000 377.780,244.619 377.600,245.376 377.600 C 246.133 377.600,246.864 377.420,247.000 377.200 C 247.136 376.980,247.856 376.800,248.600 376.800 C 249.344 376.800,250.064 376.620,250.200 376.400 C 250.336 376.180,250.977 376.000,251.624 376.000 C 252.271 376.000,252.800 375.820,252.800 375.600 C 252.800 375.380,253.295 375.203,253.900 375.207 C 255.111 375.215,263.381 372.677,265.600 371.616 C 266.370 371.248,267.855 370.695,268.900 370.386 C 269.945 370.078,270.800 369.685,270.800 369.513 C 270.800 369.341,271.250 369.200,271.800 369.200 C 272.350 369.200,272.800 369.020,272.800 368.800 C 272.800 368.580,273.160 368.400,273.600 368.400 C 274.040 368.400,274.400 368.220,274.400 368.000 C 274.400 367.780,274.679 367.600,275.019 367.600 C 275.360 367.600,276.384 367.240,277.294 366.800 C 278.205 366.360,279.186 366.000,279.475 366.000 C 279.764 366.000,280.000 365.820,280.000 365.600 C 280.000 365.380,280.345 365.200,280.767 365.200 C 281.188 365.200,281.593 365.064,281.667 364.898 C 281.740 364.732,283.060 363.968,284.600 363.200 C 286.140 362.432,287.460 361.668,287.533 361.502 C 287.607 361.336,287.978 361.200,288.358 361.200 C 288.738 361.200,289.436 360.840,289.908 360.400 C 290.380 359.960,290.954 359.600,291.183 359.600 C 291.412 359.600,291.600 359.420,291.600 359.200 C 291.600 358.980,291.864 358.800,292.186 358.800 C 293.007 358.800,300.118 354.699,301.883 353.208 C 302.149 352.984,302.474 352.800,302.607 352.800 C 302.927 352.800,306.164 350.282,306.333 349.900 C 306.407 349.735,306.695 349.600,306.974 349.600 C 307.253 349.600,308.046 349.060,308.737 348.400 C 309.428 347.740,310.137 347.200,310.312 347.200 C 310.488 347.200,311.428 346.480,312.400 345.600 C 313.372 344.720,314.328 344.000,314.524 344.000 C 314.719 344.000,315.383 343.460,316.000 342.800 C 316.617 342.140,317.227 341.600,317.356 341.600 C 317.642 341.600,318.980 340.551,320.418 339.200 C 321.003 338.650,322.811 337.030,324.435 335.600 C 328.115 332.359,332.251 328.233,335.471 324.593 C 336.829 323.057,338.764 320.904,339.771 319.809 C 340.777 318.714,341.600 317.661,341.600 317.469 C 341.600 317.278,342.140 316.617,342.800 316.000 C 343.460 315.383,344.000 314.719,344.000 314.524 C 344.000 314.328,344.720 313.372,345.600 312.400 C 346.480 311.428,347.200 310.488,347.200 310.312 C 347.200 310.137,347.740 309.428,348.400 308.737 C 349.060 308.046,349.600 307.253,349.600 306.974 C 349.600 306.695,349.735 306.407,349.900 306.333 C 350.282 306.164,352.800 302.927,352.800 302.607 C 352.800 302.474,352.984 302.149,353.208 301.883 C 354.699 300.118,358.800 293.007,358.800 292.186 C 358.800 291.864,358.980 291.600,359.200 291.600 C 359.420 291.600,359.600 291.412,359.600 291.183 C 359.600 290.954,359.960 290.380,360.400 289.908 C 360.840 289.436,361.200 288.738,361.200 288.358 C 361.200 287.978,361.336 287.607,361.502 287.533 C 361.668 287.460,362.432 286.140,363.200 284.600 C 363.968 283.060,364.732 281.740,364.898 281.667 C 365.064 281.593,365.200 281.188,365.200 280.767 C 365.200 280.345,365.380 280.000,365.600 280.000 C 365.820 280.000,366.000 279.764,366.000 279.475 C 366.000 279.186,366.360 278.205,366.800 277.294 C 367.240 276.384,367.600 275.360,367.600 275.019 C 367.600 274.679,367.780 274.400,368.000 274.400 C 368.220 274.400,368.400 274.040,368.400 273.600 C 368.400 273.160,368.580 272.800,368.800 272.800 C 369.020 272.800,369.200 272.350,369.200 271.800 C 369.200 271.250,369.380 270.800,369.600 270.800 C 369.820 270.800,370.000 270.438,370.000 269.995 C 370.000 269.552,370.160 268.877,370.356 268.495 C 372.051 265.191,375.218 255.660,375.207 253.900 C 375.203 253.295,375.380 252.800,375.600 252.800 C 375.820 252.800,376.000 252.271,376.000 251.624 C 376.000 250.977,376.180 250.336,376.400 250.200 C 376.620 250.064,376.800 249.344,376.800 248.600 C 376.800 247.856,376.980 247.136,377.200 247.000 C 377.420 246.864,377.600 246.133,377.600 245.376 C 377.600 244.619,377.780 244.000,378.000 244.000 C 378.220 244.000,378.400 243.201,378.400 242.224 C 378.400 241.247,378.580 240.336,378.800 240.200 C 379.020 240.064,379.200 239.164,379.200 238.200 C 379.200 237.236,379.380 236.336,379.600 236.200 C 379.820 236.064,380.000 235.063,380.000 233.976 C 380.000 232.889,380.180 232.000,380.400 232.000 C 380.628 232.000,380.800 230.808,380.800 229.224 C 380.800 227.697,380.980 226.336,381.200 226.200 C 381.420 226.064,381.600 224.534,381.600 222.800 C 381.600 221.066,381.780 219.536,382.000 219.400 C 382.256 219.242,382.400 213.263,382.400 202.776 C 382.400 192.125,382.260 186.400,382.000 186.400 C 381.767 186.400,381.600 185.075,381.600 183.224 C 381.600 181.477,381.420 179.936,381.200 179.800 C 380.980 179.664,380.800 178.404,380.800 177.000 C 380.800 175.596,380.620 174.336,380.400 174.200 C 380.180 174.064,380.000 172.973,380.000 171.776 C 380.000 170.579,379.820 169.600,379.600 169.600 C 379.380 169.600,379.200 168.700,379.200 167.600 C 379.200 166.500,379.020 165.600,378.800 165.600 C 378.580 165.600,378.400 164.880,378.400 164.000 C 378.400 163.120,378.238 162.400,378.040 162.400 C 377.842 162.400,377.581 161.635,377.459 160.700 C 377.020 157.337,376.706 156.000,376.356 156.000 C 376.160 156.000,376.000 155.381,376.000 154.624 C 376.000 153.867,375.820 153.136,375.600 153.000 C 375.380 152.864,375.200 152.320,375.200 151.790 C 375.200 150.867,374.348 147.879,373.606 146.200 C 373.412 145.760,373.039 144.680,372.777 143.800 C 372.516 142.920,372.174 141.930,372.018 141.600 C 371.862 141.270,371.485 140.145,371.180 139.100 C 370.875 138.055,370.485 137.200,370.313 137.200 C 370.141 137.200,370.000 136.838,370.000 136.395 C 370.000 135.952,369.840 135.277,369.644 134.895 C 369.157 133.946,367.784 130.882,367.137 129.300 C 366.844 128.585,366.469 128.000,366.302 128.000 C 366.136 128.000,366.000 127.640,366.000 127.200 C 366.000 126.760,365.820 126.400,365.600 126.400 C 365.380 126.400,365.200 126.040,365.200 125.600 C 365.200 125.160,365.020 124.800,364.800 124.800 C 364.580 124.800,364.400 124.440,364.400 124.000 C 364.400 123.560,364.220 123.200,364.000 123.200 C 363.780 123.200,363.600 122.840,363.600 122.400 C 363.600 121.960,363.420 121.600,363.200 121.600 C 362.980 121.600,362.800 121.240,362.800 120.800 C 362.800 120.360,362.620 120.000,362.400 120.000 C 362.180 120.000,362.000 119.640,362.000 119.200 C 362.000 118.760,361.820 118.400,361.600 118.400 C 361.380 118.400,361.200 118.040,361.200 117.600 C 361.200 117.160,361.054 116.800,360.875 116.800 C 360.696 116.800,360.302 116.170,360.000 115.400 C 359.698 114.630,359.304 114.000,359.125 114.000 C 358.946 114.000,358.800 113.771,358.800 113.491 C 358.800 113.211,358.170 112.025,357.400 110.856 C 356.630 109.687,356.000 108.662,356.000 108.579 C 356.000 108.376,352.925 103.529,352.408 102.917 C 352.184 102.651,351.999 102.291,351.998 102.117 C 351.997 101.943,351.457 101.225,350.798 100.522 C 350.139 99.819,349.600 99.082,349.600 98.884 C 349.600 98.686,349.240 98.198,348.800 97.800 C 348.360 97.402,348.000 96.922,348.000 96.734 C 348.000 96.546,347.460 95.828,346.800 95.137 C 346.140 94.446,345.600 93.714,345.600 93.509 C 345.600 93.305,344.880 92.446,344.000 91.600 C 343.120 90.754,342.400 89.870,342.400 89.634 C 342.400 89.398,341.455 88.199,340.300 86.970 C 339.145 85.742,338.037 84.436,337.838 84.068 C 337.394 83.247,322.890 68.901,319.937 66.362 C 316.264 63.203,313.372 60.920,312.367 60.387 C 311.835 60.105,311.109 59.543,310.753 59.137 C 310.397 58.732,309.884 58.400,309.614 58.400 C 309.343 58.400,308.617 57.860,308.000 57.200 C 307.383 56.540,306.709 56.000,306.502 56.000 C 306.294 56.000,305.798 55.640,305.400 55.200 C 305.002 54.760,304.434 54.400,304.138 54.400 C 303.842 54.400,303.600 54.250,303.600 54.068 C 303.600 53.885,303.105 53.480,302.500 53.168 C 301.895 52.855,301.051 52.285,300.625 51.900 C 300.198 51.515,299.613 51.200,299.325 51.200 C 299.036 51.200,298.800 51.042,298.800 50.849 C 298.800 50.655,298.260 50.273,297.600 50.000 C 296.940 49.727,296.400 49.345,296.400 49.151 C 296.400 48.958,296.055 48.800,295.633 48.800 C 295.212 48.800,294.807 48.650,294.733 48.466 C 294.566 48.047,289.779 45.373,284.800 42.917 C 282.710 41.886,280.940 40.898,280.867 40.721 C 280.793 40.545,280.399 40.400,279.990 40.400 C 279.582 40.400,279.136 40.220,279.000 40.000 C 278.864 39.780,278.313 39.600,277.776 39.600 C 277.239 39.600,276.800 39.420,276.800 39.200 C 276.800 38.980,276.440 38.800,276.000 38.800 C 275.560 38.800,275.200 38.620,275.200 38.400 C 275.200 38.180,274.947 38.000,274.638 38.000 C 274.153 38.000,272.880 37.448,269.905 35.950 C 269.523 35.757,268.848 35.600,268.405 35.600 C 267.962 35.600,267.600 35.420,267.600 35.200 C 267.600 34.980,267.251 34.800,266.824 34.800 C 266.397 34.800,265.936 34.620,265.800 34.400 C 265.664 34.180,265.113 34.000,264.576 34.000 C 264.039 34.000,263.600 33.820,263.600 33.600 C 263.600 33.380,263.071 33.200,262.424 33.200 C 261.777 33.200,261.136 33.020,261.000 32.800 C 260.864 32.580,260.313 32.400,259.776 32.400 C 259.239 32.400,258.800 32.220,258.800 32.000 C 258.800 31.780,258.348 31.600,257.795 31.600 C 257.242 31.600,256.477 31.438,256.095 31.239 C 255.713 31.040,254.590 30.660,253.600 30.393 C 252.610 30.127,251.440 29.768,251.000 29.596 C 250.560 29.424,249.120 29.068,247.800 28.804 C 246.480 28.540,244.988 28.161,244.484 27.963 C 243.980 27.765,242.310 27.486,240.771 27.343 C 239.233 27.200,237.880 26.929,237.764 26.741 C 237.648 26.554,236.663 26.400,235.576 26.400 C 234.489 26.400,233.600 26.220,233.600 26.000 C 233.600 25.778,232.541 25.600,231.224 25.600 C 229.917 25.600,228.736 25.420,228.600 25.200 C 228.464 24.980,227.139 24.800,225.656 24.800 C 224.173 24.800,222.789 24.631,222.580 24.424 C 221.820 23.672,192.800 22.856,192.800 23.587 M280.000 112.800 C 280.000 113.020,280.329 113.200,280.732 113.200 C 282.869 113.200,290.800 119.399,290.800 121.070 C 290.800 121.361,290.980 121.600,291.200 121.600 C 291.420 121.600,291.600 121.960,291.600 122.400 C 291.600 122.840,291.780 123.200,292.000 123.200 C 292.220 123.200,292.400 123.560,292.400 124.000 C 292.400 124.440,292.560 124.800,292.756 124.800 C 293.779 124.800,294.619 277.141,293.602 278.158 C 293.381 278.379,293.200 279.029,293.200 279.601 C 293.200 280.771,291.471 284.477,290.581 285.216 C 290.261 285.481,290.000 285.894,290.000 286.134 C 290.000 286.725,286.752 290.000,286.166 290.000 C 285.908 290.000,285.481 290.261,285.216 290.581 C 284.461 291.490,280.760 293.200,279.545 293.200 C 278.941 293.200,278.336 293.380,278.200 293.600 C 278.037 293.864,252.639 294.000,203.305 294.000 C 129.222 294.000,127.524 293.973,125.105 292.751 C 124.723 292.558,124.138 292.400,123.805 292.400 C 123.472 292.400,123.200 292.220,123.200 292.000 C 123.200 291.780,122.840 291.600,122.400 291.600 C 121.960 291.600,121.600 291.420,121.600 291.200 C 121.600 290.980,121.361 290.800,121.070 290.800 C 119.399 290.800,113.200 282.869,113.200 280.732 C 113.200 280.329,113.020 280.000,112.800 280.000 C 112.246 280.000,112.246 126.543,112.800 126.200 C 113.020 126.064,113.200 125.620,113.200 125.214 C 113.200 123.161,116.898 118.097,120.221 115.600 C 121.592 114.570,124.442 113.200,125.214 113.200 C 125.620 113.200,126.064 113.020,126.200 112.800 C 126.543 112.246,280.000 112.246,280.000 112.800 M246.485 127.384 C 242.639 129.507,242.400 130.397,242.400 142.600 C 242.400 154.380,242.432 154.538,245.296 156.989 L 246.944 158.400 258.211 158.400 C 267.399 158.400,269.698 158.290,270.674 157.803 C 272.603 156.841,274.000 154.751,274.000 152.829 C 274.000 152.179,274.180 151.536,274.400 151.400 C 274.646 151.248,274.800 147.870,274.800 142.600 C 274.800 137.330,274.646 133.952,274.400 133.800 C 274.180 133.664,274.000 132.971,274.000 132.260 C 274.000 130.947,271.904 128.526,269.705 127.299 C 268.432 126.588,247.789 126.664,246.485 127.384 M198.400 166.400 C 198.070 166.613,197.260 166.798,196.600 166.812 C 195.213 166.839,191.774 167.693,191.353 168.114 C 191.195 168.271,190.719 168.400,190.294 168.400 C 189.341 168.400,183.483 171.414,181.984 172.675 C 181.379 173.184,180.763 173.600,180.614 173.600 C 180.244 173.600,173.600 180.268,173.600 180.640 C 173.600 180.803,173.301 181.267,172.936 181.671 C 172.139 182.552,171.843 183.045,169.900 186.733 C 169.075 188.299,168.400 189.934,168.400 190.366 C 168.400 190.799,168.244 191.249,168.054 191.367 C 167.864 191.484,167.576 192.260,167.416 193.090 C 167.255 193.921,166.942 195.500,166.719 196.600 C 166.099 199.667,165.871 206.431,166.372 206.932 C 166.608 207.168,166.800 208.142,166.800 209.098 C 166.800 212.009,170.410 221.768,171.697 222.333 C 171.863 222.407,172.000 222.695,172.000 222.974 C 172.000 223.253,172.540 224.046,173.200 224.737 C 173.860 225.428,174.400 226.161,174.400 226.366 C 174.400 226.827,177.315 229.730,179.200 231.145 C 179.970 231.723,180.690 232.293,180.800 232.412 C 181.352 233.008,185.707 235.585,188.000 236.673 C 190.401 237.811,191.841 238.299,195.000 239.046 C 197.075 239.536,209.680 239.680,210.141 239.219 C 210.372 238.988,211.118 238.800,211.800 238.800 C 212.482 238.800,213.211 238.657,213.420 238.482 C 213.629 238.307,214.520 237.934,215.400 237.654 C 217.685 236.927,220.305 235.618,222.496 234.107 C 223.539 233.388,224.557 232.800,224.760 232.800 C 225.241 232.800,232.800 225.241,232.800 224.760 C 232.800 224.557,233.388 223.539,234.107 222.496 C 235.618 220.305,236.927 217.685,237.654 215.400 C 237.934 214.520,238.307 213.629,238.482 213.420 C 238.657 213.211,238.800 212.482,238.800 211.800 C 238.800 211.118,238.988 210.372,239.219 210.141 C 240.043 209.317,239.269 193.183,238.359 192.220 C 238.162 192.011,238.000 191.537,238.000 191.166 C 238.000 190.063,233.678 182.066,232.398 180.800 C 232.286 180.690,231.715 179.970,231.128 179.200 C 229.397 176.930,226.927 174.400,226.443 174.400 C 226.195 174.400,225.428 173.860,224.737 173.200 C 224.046 172.540,223.253 172.000,222.974 172.000 C 222.695 172.000,222.407 171.863,222.333 171.697 C 221.762 170.396,212.001 166.800,209.042 166.800 C 208.055 166.800,207.136 166.620,207.000 166.400 C 206.682 165.886,199.196 165.886,198.400 166.400 M131.867 185.867 C 131.223 186.511,131.572 268.621,132.224 269.928 C 133.103 271.690,135.921 274.000,137.192 274.000 C 137.768 274.000,138.421 274.181,138.642 274.402 C 139.128 274.888,266.356 274.733,268.200 274.245 C 271.919 273.260,273.298 271.881,274.250 268.200 C 274.779 266.154,274.880 186.779,274.355 186.146 C 273.999 185.717,272.116 185.600,265.551 185.600 L 257.200 185.600 257.200 186.776 C 257.200 187.423,257.380 188.064,257.600 188.200 C 257.820 188.336,258.000 189.247,258.000 190.224 C 258.000 191.201,258.180 192.000,258.400 192.000 C 258.620 192.000,258.800 192.979,258.800 194.176 C 258.800 195.373,258.980 196.464,259.200 196.600 C 259.438 196.747,259.600 199.271,259.600 202.824 C 259.600 206.541,259.449 208.800,259.200 208.800 C 258.975 208.800,258.800 209.925,258.800 211.376 C 258.800 212.793,258.620 214.064,258.400 214.200 C 258.180 214.336,258.000 215.056,258.000 215.800 C 258.000 216.544,257.820 217.264,257.600 217.400 C 257.380 217.536,257.200 218.256,257.200 219.000 C 257.200 219.744,257.020 220.464,256.800 220.600 C 256.580 220.736,256.400 221.191,256.400 221.611 C 256.400 222.032,256.040 223.017,255.600 223.800 C 255.160 224.583,254.800 225.579,254.800 226.012 C 254.800 226.445,254.620 226.800,254.400 226.800 C 254.180 226.800,254.000 227.072,254.000 227.405 C 254.000 228.004,253.228 229.613,252.756 230.000 C 252.622 230.110,252.217 230.776,251.856 231.479 C 251.194 232.772,248.830 236.431,248.418 236.800 C 248.296 236.910,247.672 237.701,247.033 238.559 C 245.534 240.567,240.567 245.534,238.559 247.033 C 237.701 247.672,236.910 248.296,236.800 248.418 C 236.431 248.830,232.772 251.194,231.479 251.856 C 230.776 252.217,230.110 252.622,230.000 252.756 C 229.613 253.228,228.004 254.000,227.405 254.000 C 227.072 254.000,226.800 254.180,226.800 254.400 C 226.800 254.620,226.445 254.800,226.012 254.800 C 225.579 254.800,224.583 255.160,223.800 255.600 C 223.017 256.040,222.032 256.400,221.611 256.400 C 221.191 256.400,220.736 256.580,220.600 256.800 C 220.464 257.020,219.744 257.200,219.000 257.200 C 218.256 257.200,217.536 257.380,217.400 257.600 C 217.264 257.820,216.544 258.000,215.800 258.000 C 215.056 258.000,214.336 258.180,214.200 258.400 C 214.064 258.620,212.793 258.800,211.376 258.800 C 209.925 258.800,208.800 258.975,208.800 259.200 C 208.800 259.449,206.541 259.600,202.824 259.600 C 199.271 259.600,196.747 259.438,196.600 259.200 C 196.464 258.980,195.384 258.800,194.200 258.800 C 193.016 258.800,191.936 258.620,191.800 258.400 C 191.664 258.180,190.854 258.000,190.000 258.000 C 189.146 258.000,188.336 257.820,188.200 257.600 C 188.064 257.380,187.524 257.200,187.000 257.200 C 186.476 257.200,185.936 257.020,185.800 256.800 C 185.664 256.580,185.124 256.400,184.600 256.400 C 184.076 256.400,183.536 256.220,183.400 256.000 C 183.264 255.780,182.820 255.600,182.413 255.600 C 180.996 255.600,170.811 250.060,169.645 248.654 C 169.346 248.294,168.892 248.000,168.636 248.000 C 168.380 248.000,167.283 247.100,166.200 246.000 C 165.117 244.900,164.041 244.000,163.810 244.000 C 163.579 244.000,163.032 243.511,162.595 242.913 C 161.594 241.545,159.221 238.804,158.300 237.953 C 157.915 237.597,157.600 237.130,157.600 236.915 C 157.600 236.700,157.240 236.198,156.800 235.800 C 156.360 235.402,156.000 234.856,156.000 234.587 C 156.000 234.318,155.732 233.876,155.405 233.604 C 153.643 232.142,148.395 219.344,147.530 214.400 C 146.155 206.540,146.509 195.571,148.376 188.200 C 148.599 187.320,148.785 186.375,148.790 186.100 C 148.801 185.560,132.400 185.334,131.867 185.867 "
              stroke="none" fill="#517fa6" fill-rule="evenodd"></path>
        <path id="path4"
              d="M126.252 112.716 C 126.144 112.890,126.673 112.961,127.428 112.873 C 128.183 112.785,128.800 112.642,128.800 112.556 C 128.800 112.255,126.445 112.403,126.252 112.716 M277.200 112.556 C 277.200 112.642,277.830 112.786,278.600 112.876 C 279.370 112.966,280.000 112.896,280.000 112.720 C 280.000 112.544,279.370 112.400,278.600 112.400 C 277.830 112.400,277.200 112.470,277.200 112.556 M123.293 113.780 C 122.794 114.055,122.260 114.407,122.105 114.562 C 121.766 114.901,123.235 114.398,123.800 113.981 C 124.020 113.819,124.560 113.598,125.000 113.489 L 125.800 113.293 125.000 113.286 C 124.560 113.282,123.792 113.504,123.293 113.780 M280.800 113.461 C 283.127 114.226,286.024 116.175,288.231 118.461 C 289.644 119.925,290.800 120.991,290.800 120.831 C 290.800 119.384,282.613 113.143,280.832 113.232 C 280.296 113.258,280.291 113.293,280.800 113.461 M120.200 115.676 L 119.400 116.504 120.278 116.050 C 121.202 115.572,121.874 114.783,121.324 114.824 C 121.146 114.837,120.640 115.220,120.200 115.676 M117.578 117.900 L 116.200 119.400 117.700 118.022 C 118.525 117.263,119.200 116.588,119.200 116.522 C 119.200 116.216,118.862 116.504,117.578 117.900 M115.489 120.405 C 114.726 121.296,114.584 121.781,115.198 121.401 C 115.590 121.159,116.546 119.600,116.303 119.600 C 116.234 119.600,115.868 119.962,115.489 120.405 M113.780 123.385 C 113.419 124.147,113.216 125.002,113.330 125.285 C 113.444 125.568,113.551 125.406,113.568 124.924 C 113.586 124.442,113.758 123.949,113.952 123.830 C 114.301 123.614,114.856 122.000,114.581 122.000 C 114.502 122.000,114.142 122.623,113.780 123.385 M293.082 126.200 C 293.217 127.080,293.436 161.640,293.567 203.000 L 293.806 278.200 293.779 203.000 C 293.759 147.816,293.630 127.374,293.295 126.200 L 292.837 124.600 293.082 126.200 M112.558 126.566 C 112.438 126.878,112.405 127.643,112.484 128.266 C 112.602 129.191,112.664 129.087,112.825 127.700 C 113.027 125.951,112.938 125.575,112.558 126.566 M246.474 126.989 C 242.315 129.283,242.000 130.384,242.000 142.649 C 242.000 154.969,242.071 155.249,245.862 157.913 C 247.092 158.778,247.403 158.800,258.367 158.800 C 270.068 158.800,270.263 158.775,272.326 157.006 C 273.699 155.828,275.548 150.690,274.328 151.445 C 274.147 151.556,274.000 152.149,274.000 152.762 C 274.000 154.084,273.087 156.045,272.103 156.835 C 270.214 158.353,269.797 158.400,258.277 158.400 L 246.944 158.400 245.296 156.989 C 242.430 154.536,242.400 154.387,242.400 142.533 C 242.400 131.388,242.411 131.315,244.390 129.085 C 246.348 126.877,246.817 126.800,258.267 126.800 C 269.821 126.800,269.457 126.733,272.300 129.382 C 273.623 130.615,274.000 131.254,274.000 132.260 C 274.000 132.971,274.138 133.638,274.307 133.743 C 274.476 133.847,274.548 133.233,274.466 132.378 C 274.304 130.669,271.509 127.200,270.296 127.200 C 269.939 127.200,269.536 127.020,269.400 126.800 C 269.011 126.170,247.640 126.346,246.474 126.989 M198.400 166.000 C 198.070 166.213,197.281 166.391,196.646 166.394 C 195.490 166.400,192.897 167.003,191.400 167.615 C 190.960 167.794,190.330 168.030,190.000 168.139 C 189.621 168.264,189.723 168.348,190.276 168.368 C 190.758 168.386,191.249 168.244,191.367 168.054 C 191.484 167.864,192.260 167.576,193.090 167.416 C 193.921 167.255,195.500 166.942,196.600 166.720 C 199.627 166.109,206.023 165.882,206.972 166.352 C 207.427 166.577,208.700 166.830,209.800 166.913 C 210.900 166.997,212.924 167.437,214.297 167.890 C 215.671 168.343,216.715 168.585,216.617 168.428 C 216.520 168.270,215.666 167.911,214.720 167.629 C 213.774 167.347,212.587 166.955,212.081 166.758 C 211.576 166.561,210.281 166.400,209.205 166.400 C 208.128 166.400,207.136 166.220,207.000 166.000 C 206.682 165.486,199.196 165.486,198.400 166.000 M185.326 170.152 C 182.953 171.431,180.007 173.600,180.644 173.600 C 180.811 173.600,181.320 173.255,181.774 172.834 C 182.228 172.413,183.950 171.335,185.600 170.440 C 187.250 169.544,188.420 168.813,188.200 168.815 C 187.980 168.817,186.687 169.418,185.326 170.152 M219.564 170.007 C 220.754 170.663,221.879 171.200,222.064 171.200 C 222.249 171.200,222.400 171.380,222.400 171.600 C 222.400 171.820,222.643 172.000,222.941 172.000 C 223.238 172.000,224.046 172.540,224.737 173.200 C 225.428 173.860,226.200 174.400,226.453 174.400 C 227.232 174.400,223.619 171.755,220.767 170.238 C 219.280 169.447,217.914 168.803,217.732 168.807 C 217.549 168.811,218.374 169.351,219.564 170.007 M176.588 176.812 C 174.845 178.565,173.541 180.000,173.690 180.000 C 174.056 180.000,180.086 173.952,179.902 173.769 C 179.823 173.689,178.331 175.059,176.588 176.812 M230.200 177.997 C 232.303 180.586,232.576 180.957,234.030 183.200 C 234.814 184.410,235.951 186.435,236.557 187.700 C 237.163 188.965,237.746 190.000,237.853 190.000 C 237.960 190.000,237.978 189.865,237.893 189.700 C 237.808 189.535,237.069 188.020,236.251 186.334 C 235.434 184.648,234.502 183.051,234.182 182.785 C 233.862 182.519,233.597 182.099,233.593 181.851 C 233.590 181.603,232.555 180.302,231.293 178.960 C 230.032 177.618,229.540 177.185,230.200 177.997 M172.538 181.571 C 171.511 182.839,168.792 187.711,168.819 188.233 C 168.830 188.435,169.415 187.540,170.119 186.244 C 171.940 182.895,172.184 182.502,173.000 181.600 C 173.401 181.157,173.655 180.730,173.564 180.650 C 173.474 180.571,173.012 180.985,172.538 181.571 M131.700 185.465 C 131.305 185.624,131.200 194.352,131.200 227.221 C 131.200 273.400,131.015 270.083,133.735 272.600 C 135.140 273.899,139.195 275.362,138.564 274.342 C 138.448 274.154,137.856 274.000,137.248 274.000 C 135.896 274.000,133.066 271.681,132.205 269.867 C 131.670 268.740,131.609 263.558,131.698 227.192 L 131.800 185.800 140.337 185.692 L 148.873 185.584 148.647 187.292 C 148.427 188.949,148.432 188.960,148.834 187.651 C 149.594 185.174,149.671 185.197,140.513 185.232 C 135.941 185.249,131.975 185.354,131.700 185.465 M256.954 185.777 C 256.832 186.094,256.817 186.679,256.920 187.077 C 257.042 187.550,257.123 187.420,257.154 186.700 L 257.200 185.600 265.520 185.600 C 271.610 185.600,273.990 185.734,274.401 186.100 C 274.878 186.525,274.882 186.496,274.432 185.900 C 273.701 184.935,257.321 184.819,256.954 185.777 M257.568 189.500 C 257.759 190.881,257.787 190.909,257.919 189.851 C 257.998 189.219,257.905 188.545,257.712 188.352 C 257.510 188.150,257.449 188.640,257.568 189.500 M147.856 190.084 C 147.721 190.588,147.630 191.540,147.653 192.200 C 147.681 193.028,147.797 192.784,148.026 191.413 C 148.376 189.323,148.274 188.526,147.856 190.084 M168.032 190.276 C 168.014 190.758,167.844 191.249,167.654 191.367 C 167.464 191.484,167.176 192.260,167.016 193.090 C 166.855 193.921,166.542 195.500,166.319 196.600 C 165.699 199.667,165.471 206.431,165.972 206.932 C 166.208 207.168,166.400 208.145,166.400 209.105 C 166.400 210.766,167.520 215.013,167.867 214.667 C 167.957 214.576,167.757 213.714,167.421 212.751 C 167.086 211.788,166.809 210.181,166.806 209.180 C 166.803 208.179,166.608 207.168,166.372 206.932 C 165.930 206.490,166.066 199.889,166.574 197.200 C 167.084 194.497,167.678 192.192,168.084 191.339 C 168.309 190.866,168.396 190.236,168.278 189.939 C 168.154 189.629,168.050 189.772,168.032 190.276 M258.520 194.000 C 258.520 195.210,258.595 195.705,258.687 195.100 C 258.778 194.495,258.778 193.505,258.687 192.900 C 258.595 192.295,258.520 192.790,258.520 194.000 M239.062 194.400 C 239.180 195.390,239.406 199.260,239.566 203.000 L 239.856 209.800 239.780 203.000 C 239.738 199.260,239.512 195.390,239.276 194.400 L 238.849 192.600 239.062 194.400 M147.049 194.215 C 146.912 194.573,146.829 195.976,146.865 197.333 L 146.929 199.800 147.184 196.800 C 147.457 193.578,147.438 193.204,147.049 194.215 M259.199 202.719 L 259.397 209.000 259.510 203.031 C 259.572 199.748,259.482 196.922,259.311 196.750 C 259.140 196.578,259.089 199.264,259.199 202.719 M146.509 203.200 C 146.509 204.190,146.587 204.595,146.682 204.100 C 146.778 203.605,146.778 202.795,146.682 202.300 C 146.587 201.805,146.509 202.210,146.509 203.200 M146.838 209.400 C 146.824 210.720,146.956 212.027,147.132 212.304 C 147.308 212.580,147.382 211.680,147.297 210.304 C 147.087 206.910,146.869 206.480,146.838 209.400 M239.067 210.267 C 238.920 210.413,238.800 211.097,238.800 211.787 C 238.800 212.476,238.657 213.211,238.482 213.420 C 238.307 213.629,237.934 214.520,237.654 215.400 C 236.923 217.699,235.615 220.309,234.078 222.537 C 233.343 223.603,232.817 224.551,232.910 224.643 C 233.149 224.882,235.647 220.978,236.776 218.600 C 237.299 217.500,237.878 216.287,238.063 215.905 C 238.248 215.523,238.400 214.859,238.400 214.429 C 238.400 213.999,238.561 213.548,238.758 213.426 C 239.026 213.261,239.615 210.000,239.377 210.000 C 239.353 210.000,239.213 210.120,239.067 210.267 M258.394 212.081 C 258.287 213.336,258.346 214.216,258.524 214.037 C 258.703 213.858,258.790 212.831,258.718 211.756 L 258.587 209.800 258.394 212.081 M147.632 214.179 C 147.598 215.417,149.525 222.209,149.824 221.909 C 149.920 221.814,149.725 220.936,149.392 219.959 C 149.059 218.982,148.534 217.016,148.225 215.591 C 147.880 213.997,147.651 213.454,147.632 214.179 M257.568 216.100 C 257.449 216.960,257.510 217.450,257.712 217.248 C 257.905 217.055,257.998 216.381,257.919 215.749 C 257.787 214.691,257.759 214.719,257.568 216.100 M168.807 217.745 C 168.785 218.797,174.363 227.600,175.052 227.600 C 175.355 227.600,174.182 225.840,173.100 224.670 C 172.495 224.016,172.000 223.238,172.000 222.941 C 172.000 222.643,171.820 222.400,171.600 222.400 C 171.380 222.400,171.200 222.249,171.200 222.064 C 171.200 221.610,168.816 217.308,168.807 217.745 M256.860 219.076 C 256.827 219.778,256.620 220.464,256.400 220.600 C 256.180 220.736,256.000 221.276,256.000 221.800 C 256.000 222.324,255.842 222.851,255.648 222.970 C 255.307 223.181,254.741 224.800,255.008 224.800 C 255.284 224.800,256.400 222.250,256.400 221.619 C 256.400 221.256,256.594 220.766,256.831 220.529 C 257.068 220.292,257.185 219.581,257.091 218.949 L 256.920 217.800 256.860 219.076 M150.907 225.100 C 150.992 225.265,151.913 227.142,152.953 229.270 C 153.994 231.399,155.106 233.356,155.423 233.619 C 155.740 233.882,156.000 234.318,156.000 234.587 C 156.000 234.856,156.360 235.402,156.800 235.800 C 157.240 236.198,157.600 236.700,157.600 236.915 C 157.600 237.130,157.915 237.597,158.300 237.953 C 159.221 238.804,161.594 241.545,162.595 242.913 C 163.032 243.511,163.579 244.000,163.810 244.000 C 164.041 244.000,165.117 244.900,166.200 246.000 C 167.283 247.100,168.374 248.000,168.623 248.000 C 168.872 248.000,169.393 248.350,169.781 248.779 C 170.592 249.675,175.223 252.511,175.471 252.263 C 175.562 252.171,174.664 251.548,173.476 250.878 C 172.288 250.207,171.064 249.414,170.758 249.116 C 170.451 248.818,169.570 248.137,168.800 247.603 C 168.030 247.069,166.680 245.952,165.800 245.121 C 164.920 244.289,164.079 243.607,163.932 243.604 C 163.784 243.602,162.284 241.935,160.597 239.900 C 156.428 234.871,156.400 234.834,156.400 234.471 C 156.400 234.295,156.080 233.802,155.690 233.375 C 155.299 232.949,154.112 230.845,153.052 228.700 C 151.992 226.555,151.041 224.800,150.939 224.800 C 150.836 224.800,150.822 224.935,150.907 225.100 M228.862 229.058 C 227.906 230.048,227.197 230.930,227.286 231.019 C 227.375 231.109,228.331 230.286,229.409 229.191 C 230.488 228.096,231.197 227.213,230.985 227.229 C 230.773 227.245,229.818 228.068,228.862 229.058 M253.086 228.505 C 252.724 229.217,251.880 230.756,251.211 231.926 C 250.542 233.095,250.178 233.937,250.403 233.798 C 250.627 233.659,251.193 232.793,251.659 231.873 C 252.126 230.953,252.619 230.110,252.754 230.000 C 253.211 229.630,254.137 227.603,253.939 227.406 C 253.831 227.298,253.447 227.793,253.086 228.505 M178.960 231.293 C 180.302 232.555,181.603 233.590,181.851 233.593 C 182.099 233.597,182.519 233.862,182.785 234.182 C 183.051 234.502,184.648 235.434,186.334 236.251 C 188.020 237.069,189.535 237.808,189.700 237.893 C 189.865 237.978,190.000 237.960,190.000 237.853 C 190.000 237.746,188.965 237.163,187.700 236.557 C 186.435 235.951,184.410 234.814,183.200 234.030 C 180.957 232.576,180.586 232.303,177.997 230.200 C 177.185 229.540,177.618 230.032,178.960 231.293 M225.802 231.998 C 225.403 232.439,224.922 232.800,224.734 232.800 C 224.546 232.800,223.539 233.388,222.496 234.107 C 220.305 235.618,217.685 236.927,215.400 237.654 C 214.520 237.934,213.629 238.307,213.420 238.482 C 213.211 238.657,212.482 238.800,211.800 238.800 C 211.118 238.800,210.372 238.988,210.141 239.219 C 209.602 239.758,196.893 239.484,194.400 238.880 C 193.410 238.639,192.060 238.344,191.400 238.223 L 190.200 238.003 191.400 238.438 C 194.120 239.423,196.535 239.724,202.961 239.877 C 207.350 239.981,209.869 239.891,210.141 239.619 C 210.372 239.388,211.143 239.200,211.856 239.200 C 212.569 239.200,213.264 239.020,213.400 238.800 C 213.536 238.580,213.999 238.400,214.429 238.400 C 214.859 238.400,215.523 238.243,215.905 238.051 C 216.287 237.859,217.770 237.135,219.200 236.441 C 222.573 234.807,222.635 234.768,226.767 231.723 C 226.858 231.655,226.842 231.509,226.731 231.398 C 226.620 231.286,226.202 231.556,225.802 231.998 M247.880 236.900 C 245.739 239.803,239.540 245.965,236.500 248.212 C 235.345 249.066,234.400 249.824,234.400 249.896 C 234.400 250.110,235.891 249.249,236.469 248.703 C 236.761 248.426,237.701 247.676,238.559 247.035 C 239.416 246.394,241.412 244.576,242.994 242.994 C 244.576 241.412,246.394 239.416,247.035 238.559 C 247.676 237.701,248.426 236.761,248.703 236.469 C 249.275 235.864,250.105 234.400,249.876 234.400 C 249.792 234.400,248.894 235.525,247.880 236.900 M233.200 250.424 C 232.870 250.631,231.343 251.521,229.806 252.400 C 228.270 253.280,227.237 254.000,227.512 254.000 C 228.027 254.000,229.647 253.189,230.000 252.754 C 230.110 252.618,230.953 252.126,231.873 251.659 C 232.793 251.193,233.659 250.629,233.796 250.406 C 234.096 249.922,233.995 249.925,233.200 250.424 M176.000 252.596 C 176.000 252.870,178.449 254.084,178.632 253.901 C 178.719 253.814,178.162 253.444,177.395 253.078 C 176.628 252.712,176.000 252.495,176.000 252.596 M179.200 254.219 C 179.200 254.578,182.025 255.654,182.485 255.470 C 182.768 255.356,182.606 255.249,182.124 255.232 C 181.642 255.214,181.149 255.042,181.030 254.848 C 180.814 254.499,179.200 253.944,179.200 254.219 M223.454 255.402 C 222.824 255.731,222.014 256.014,221.654 256.032 C 221.216 256.053,221.170 256.132,221.515 256.270 C 222.002 256.466,224.800 255.368,224.800 254.981 C 224.800 254.718,224.717 254.744,223.454 255.402 M219.200 256.800 L 217.800 257.095 219.076 257.147 C 219.778 257.176,220.464 257.020,220.600 256.800 C 220.736 256.580,220.792 256.424,220.724 256.453 C 220.656 256.482,219.970 256.638,219.200 256.800 M188.352 257.712 C 188.545 257.905,189.219 257.998,189.851 257.919 C 190.909 257.787,190.881 257.759,189.500 257.568 C 188.640 257.449,188.150 257.510,188.352 257.712 M216.000 257.600 L 214.600 257.895 215.876 257.947 C 216.578 257.976,217.264 257.820,217.400 257.600 C 217.536 257.380,217.592 257.224,217.524 257.253 C 217.456 257.282,216.770 257.438,216.000 257.600 M191.963 258.524 C 192.142 258.703,193.169 258.790,194.244 258.718 L 196.200 258.587 193.919 258.394 C 192.664 258.287,191.784 258.346,191.963 258.524 M212.000 258.400 L 209.800 258.670 211.876 258.735 C 213.018 258.771,214.064 258.620,214.200 258.400 C 214.336 258.180,214.392 258.029,214.324 258.065 C 214.256 258.101,213.210 258.252,212.000 258.400 M196.750 259.311 C 196.922 259.482,199.748 259.572,203.031 259.510 L 209.000 259.397 202.719 259.199 C 199.264 259.089,196.578 259.140,196.750 259.311 M274.243 267.433 C 274.109 267.781,274.000 268.383,274.000 268.771 C 274.000 271.045,271.021 273.990,268.705 274.006 C 268.207 274.009,267.530 274.189,267.200 274.406 C 266.774 274.685,267.006 274.732,268.000 274.567 C 271.753 273.945,273.895 271.832,274.551 268.100 C 274.795 266.716,274.644 266.388,274.243 267.433 M112.400 278.600 C 112.400 279.370,112.544 280.000,112.720 280.000 C 112.896 280.000,112.966 279.370,112.876 278.600 C 112.786 277.830,112.642 277.200,112.556 277.200 C 112.470 277.200,112.400 277.830,112.400 278.600 M292.854 279.632 C 292.799 280.684,291.381 283.787,290.363 285.083 C 289.851 285.734,289.863 285.750,290.491 285.259 C 291.543 284.434,293.287 280.585,293.086 279.531 C 292.917 278.644,292.906 278.648,292.854 279.632 M113.232 280.832 C 113.143 282.613,119.384 290.800,120.831 290.800 C 120.991 290.800,119.925 289.644,118.461 288.231 C 116.175 286.024,114.226 283.127,113.461 280.800 C 113.293 280.291,113.258 280.296,113.232 280.832 M287.952 288.100 C 286.935 289.145,286.222 290.000,286.368 290.000 C 286.725 290.000,290.197 286.446,289.975 286.308 C 289.879 286.249,288.968 287.055,287.952 288.100 M285.016 290.374 C 284.696 290.893,280.819 292.716,279.600 292.922 L 278.600 293.091 279.621 293.146 C 280.741 293.205,284.449 291.505,285.216 290.581 C 285.481 290.261,285.597 290.000,285.473 290.000 C 285.349 290.000,285.143 290.168,285.016 290.374 M125.016 292.826 C 125.112 292.981,125.723 293.186,126.374 293.282 C 127.025 293.377,127.479 293.329,127.384 293.174 C 127.288 293.019,126.677 292.814,126.026 292.718 C 125.375 292.623,124.921 292.671,125.016 292.826 M165.532 293.900 C 186.284 293.957,220.124 293.957,240.732 293.900 C 261.339 293.843,244.360 293.796,203.000 293.796 C 161.640 293.796,144.779 293.843,165.532 293.900 "
              stroke="none" fill="#b1c5d7" fill-rule="evenodd"></path>
    </g>
</svg>