<svg id="svg" version="1.1" width="400" height="400" viewBox="0 0 400 400" xmlns="http://www.w3.org/2000/svg">
    <g id="svgg">
        <path id="path0"
              d="M329.200 74.948 C 329.200 75.107,329.650 75.686,330.200 76.236 C 330.750 76.786,331.200 77.080,331.200 76.888 C 331.200 76.696,330.750 76.117,330.200 75.600 C 329.650 75.083,329.200 74.790,329.200 74.948 M382.692 203.842 C 382.531 204.002,382.400 204.409,382.400 204.747 C 382.400 205.197,382.518 205.242,382.845 204.915 C 383.090 204.670,383.221 204.263,383.137 204.010 C 383.052 203.757,382.852 203.681,382.692 203.842 M75.600 330.200 C 76.117 330.750,76.696 331.200,76.888 331.200 C 77.080 331.200,76.786 330.750,76.236 330.200 C 75.686 329.650,75.107 329.200,74.948 329.200 C 74.790 329.200,75.083 329.650,75.600 330.200 M203.800 382.800 C 203.664 383.020,203.823 383.200,204.153 383.200 C 204.483 383.200,204.864 383.020,205.000 382.800 C 205.136 382.580,204.977 382.400,204.647 382.400 C 204.317 382.400,203.936 382.580,203.800 382.800 "
              stroke="none" fill="#000000" fill-rule="evenodd"></path>
        <path id="path1"
              d="M132.000 107.600 C 131.670 107.813,130.916 107.991,130.324 107.994 C 129.732 107.997,129.136 108.180,129.000 108.400 C 128.864 108.620,128.439 108.800,128.056 108.800 C 127.181 108.800,125.207 109.699,125.203 110.100 C 125.201 110.265,124.957 110.400,124.660 110.400 C 122.718 110.400,117.694 116.521,116.157 120.759 C 115.128 123.596,114.725 132.459,115.600 133.000 C 115.820 133.136,116.000 133.615,116.000 134.065 C 116.000 136.599,120.961 143.156,124.100 144.770 C 124.705 145.081,125.200 145.485,125.200 145.668 C 125.200 145.850,125.560 146.000,126.000 146.000 C 126.440 146.000,126.800 146.180,126.800 146.400 C 126.800 146.620,127.162 146.800,127.605 146.800 C 128.048 146.800,128.723 146.961,129.105 147.157 C 132.824 149.068,142.827 148.626,147.295 146.353 C 147.677 146.159,148.170 146.000,148.390 146.000 C 148.610 146.000,149.108 145.742,149.495 145.426 C 149.883 145.110,151.009 144.247,151.997 143.508 C 154.884 141.349,157.482 137.522,158.744 133.572 C 159.285 131.877,159.357 123.491,158.839 122.495 C 158.640 122.113,158.243 120.990,157.956 120.000 C 157.669 119.010,157.336 118.110,157.216 118.000 C 157.097 117.890,156.768 117.350,156.485 116.800 C 154.776 113.472,149.744 109.637,145.500 108.427 C 144.675 108.192,143.402 107.820,142.672 107.600 C 140.973 107.089,132.791 107.089,132.000 107.600 M252.000 163.262 C 250.130 163.469,247.970 163.799,247.200 163.994 C 246.430 164.190,244.900 164.569,243.800 164.838 C 240.433 165.661,236.642 167.428,232.600 170.057 C 230.084 171.694,222.800 179.025,222.800 179.921 C 222.800 180.116,222.440 180.602,222.000 181.000 C 221.560 181.398,221.200 181.981,221.200 182.295 C 221.200 182.610,220.975 182.792,220.700 182.700 C 220.326 182.576,220.173 180.446,220.092 174.267 L 219.984 166.000 200.292 166.000 L 180.600 166.001 180.514 226.400 L 180.427 286.800 200.214 286.800 L 220.000 286.800 220.018 250.100 C 220.035 213.923,220.143 210.523,221.314 209.353 C 221.471 209.195,221.600 208.836,221.600 208.555 C 221.600 206.614,229.022 197.600,230.620 197.600 C 230.939 197.600,231.200 197.464,231.200 197.298 C 231.200 197.131,231.785 196.760,232.500 196.471 C 233.215 196.183,234.113 195.779,234.495 195.574 C 234.877 195.368,235.541 195.200,235.971 195.200 C 236.401 195.200,236.864 195.020,237.000 194.800 C 237.145 194.566,239.463 194.400,242.600 194.400 C 245.737 194.400,248.055 194.566,248.200 194.800 C 248.336 195.020,248.799 195.200,249.229 195.200 C 249.659 195.200,250.323 195.359,250.705 195.553 C 251.087 195.748,251.919 196.151,252.552 196.449 C 255.053 197.626,260.400 203.577,260.400 205.183 C 260.400 205.419,260.559 205.923,260.753 206.305 C 261.825 208.411,262.109 209.411,262.884 213.800 C 263.153 215.322,263.365 229.116,263.463 251.500 L 263.617 286.800 283.218 286.800 L 302.819 286.800 302.671 246.700 C 302.519 205.412,302.500 204.918,300.805 197.737 C 299.272 191.245,296.455 184.941,292.878 180.000 C 291.216 177.704,284.774 171.200,284.162 171.200 C 283.907 171.200,283.471 170.927,283.194 170.593 C 282.537 169.801,275.511 166.317,273.200 165.638 C 272.210 165.347,271.040 164.960,270.600 164.779 C 269.708 164.412,268.035 164.138,263.600 163.632 C 257.742 162.965,255.359 162.889,252.000 163.262 M117.299 226.300 L 117.400 286.600 137.100 286.704 L 156.800 286.808 156.800 226.404 L 156.800 166.000 136.999 166.000 L 117.197 166.000 117.299 226.300 "
              stroke="none" fill="#ffffff" fill-rule="evenodd"></path>
        <path id="path2"
              d="M192.200 23.600 C 192.060 23.827,190.063 24.000,187.576 24.000 C 184.925 24.000,183.200 24.158,183.200 24.400 C 183.200 24.631,181.941 24.800,180.224 24.800 C 178.587 24.800,177.136 24.980,177.000 25.200 C 176.864 25.420,175.694 25.600,174.400 25.600 C 173.106 25.600,171.936 25.780,171.800 26.000 C 171.664 26.220,170.764 26.400,169.800 26.400 C 168.836 26.400,167.951 26.556,167.832 26.748 C 167.714 26.939,166.177 27.221,164.416 27.374 C 162.655 27.528,161.110 27.822,160.983 28.027 C 160.857 28.232,160.144 28.400,159.400 28.400 C 158.656 28.400,157.936 28.580,157.800 28.800 C 157.664 29.020,156.944 29.200,156.200 29.200 C 155.456 29.200,154.736 29.380,154.600 29.600 C 154.464 29.820,153.823 30.000,153.176 30.000 C 152.529 30.000,152.000 30.160,152.000 30.356 C 152.000 30.552,151.415 30.814,150.700 30.937 C 147.688 31.458,146.800 31.710,146.800 32.045 C 146.800 32.240,146.260 32.400,145.600 32.400 C 144.940 32.400,144.400 32.580,144.400 32.800 C 144.400 33.020,143.860 33.200,143.200 33.200 C 142.540 33.200,142.000 33.380,142.000 33.600 C 142.000 33.820,141.651 34.000,141.224 34.000 C 140.797 34.000,140.336 34.180,140.200 34.400 C 140.064 34.620,139.513 34.800,138.976 34.800 C 138.439 34.800,138.000 34.980,138.000 35.200 C 138.000 35.420,137.561 35.600,137.024 35.600 C 136.487 35.600,135.936 35.780,135.800 36.000 C 135.664 36.220,135.203 36.400,134.776 36.400 C 134.349 36.400,134.000 36.580,134.000 36.800 C 134.000 37.020,133.640 37.200,133.200 37.200 C 132.760 37.200,132.400 37.380,132.400 37.600 C 132.400 37.820,131.950 38.000,131.400 38.000 C 130.850 38.000,130.400 38.180,130.400 38.400 C 130.400 38.620,130.040 38.800,129.600 38.800 C 129.160 38.800,128.800 38.980,128.800 39.200 C 128.800 39.420,128.440 39.600,128.000 39.600 C 127.560 39.600,127.200 39.780,127.200 40.000 C 127.200 40.220,126.840 40.400,126.400 40.400 C 125.960 40.400,125.600 40.580,125.600 40.800 C 125.600 41.020,125.240 41.200,124.800 41.200 C 124.360 41.200,124.000 41.380,124.000 41.600 C 124.000 41.820,123.640 42.000,123.200 42.000 C 122.760 42.000,122.400 42.180,122.400 42.400 C 122.400 42.620,122.040 42.800,121.600 42.800 C 121.160 42.800,120.800 42.980,120.800 43.200 C 120.800 43.420,120.497 43.600,120.126 43.600 C 119.447 43.600,113.972 46.275,113.600 46.788 C 113.490 46.940,112.815 47.319,112.100 47.630 C 111.385 47.941,110.800 48.331,110.800 48.498 C 110.800 48.664,110.564 48.800,110.275 48.800 C 109.987 48.800,109.364 49.160,108.892 49.600 C 108.420 50.040,107.796 50.400,107.505 50.400 C 107.214 50.400,106.717 50.760,106.400 51.200 C 106.083 51.640,105.543 52.000,105.200 52.000 C 104.857 52.000,104.317 52.360,104.000 52.800 C 103.683 53.240,103.143 53.600,102.800 53.600 C 102.457 53.600,101.917 53.960,101.600 54.400 C 101.283 54.840,100.838 55.200,100.612 55.201 C 100.385 55.201,99.570 55.741,98.800 56.400 C 98.030 57.059,97.215 57.599,96.988 57.599 C 96.762 57.600,96.317 57.960,96.000 58.400 C 95.683 58.840,95.270 59.200,95.083 59.200 C 94.896 59.200,94.492 59.425,94.185 59.700 C 93.552 60.268,93.296 60.471,90.800 62.392 C 89.810 63.154,88.709 64.097,88.353 64.489 C 87.997 64.880,87.502 65.200,87.253 65.200 C 87.004 65.200,86.800 65.380,86.800 65.600 C 86.800 65.820,86.622 66.000,86.405 66.000 C 85.534 66.000,66.000 85.534,66.000 86.405 C 66.000 86.622,65.820 86.800,65.600 86.800 C 65.380 86.800,65.200 87.004,65.200 87.253 C 65.200 87.502,64.880 87.997,64.489 88.353 C 64.097 88.709,63.155 89.810,62.394 90.800 C 61.634 91.790,60.829 92.819,60.606 93.086 C 60.383 93.353,59.975 93.841,59.700 94.169 C 59.425 94.498,59.200 94.914,59.200 95.095 C 59.200 95.276,58.840 95.683,58.400 96.000 C 57.960 96.317,57.600 96.762,57.599 96.988 C 57.599 97.215,57.059 98.030,56.400 98.800 C 55.741 99.570,55.201 100.385,55.201 100.612 C 55.200 100.838,54.840 101.283,54.400 101.600 C 53.960 101.917,53.600 102.457,53.600 102.800 C 53.600 103.143,53.240 103.683,52.800 104.000 C 52.360 104.317,52.000 104.857,52.000 105.200 C 52.000 105.543,51.640 106.083,51.200 106.400 C 50.760 106.717,50.400 107.214,50.400 107.505 C 50.400 107.796,50.040 108.420,49.600 108.892 C 49.160 109.364,48.800 109.987,48.800 110.275 C 48.800 110.564,48.664 110.800,48.498 110.800 C 48.331 110.800,47.941 111.385,47.630 112.100 C 47.319 112.815,46.940 113.490,46.788 113.600 C 46.275 113.972,43.600 119.447,43.600 120.126 C 43.600 120.497,43.420 120.800,43.200 120.800 C 42.980 120.800,42.800 121.160,42.800 121.600 C 42.800 122.040,42.620 122.400,42.400 122.400 C 42.180 122.400,42.000 122.760,42.000 123.200 C 42.000 123.640,41.820 124.000,41.600 124.000 C 41.380 124.000,41.200 124.360,41.200 124.800 C 41.200 125.240,41.020 125.600,40.800 125.600 C 40.580 125.600,40.400 125.960,40.400 126.400 C 40.400 126.840,40.220 127.200,40.000 127.200 C 39.780 127.200,39.600 127.560,39.600 128.000 C 39.600 128.440,39.420 128.800,39.200 128.800 C 38.980 128.800,38.800 129.160,38.800 129.600 C 38.800 130.040,38.620 130.400,38.400 130.400 C 38.180 130.400,38.000 130.850,38.000 131.400 C 38.000 131.950,37.820 132.400,37.600 132.400 C 37.380 132.400,37.200 132.760,37.200 133.200 C 37.200 133.640,37.020 134.000,36.800 134.000 C 36.580 134.000,36.400 134.349,36.400 134.776 C 36.400 135.203,36.220 135.664,36.000 135.800 C 35.780 135.936,35.600 136.399,35.600 136.829 C 35.600 137.259,35.420 137.968,35.200 138.405 C 34.980 138.842,34.620 139.558,34.400 139.995 C 34.180 140.432,34.000 141.062,34.000 141.395 C 34.000 141.728,33.820 142.000,33.600 142.000 C 33.380 142.000,33.200 142.529,33.200 143.176 C 33.200 143.823,33.020 144.464,32.800 144.600 C 32.580 144.736,32.400 145.287,32.400 145.824 C 32.400 146.361,32.240 146.800,32.045 146.800 C 31.710 146.800,31.458 147.688,30.937 150.700 C 30.814 151.415,30.552 152.000,30.356 152.000 C 30.160 152.000,30.000 152.529,30.000 153.176 C 30.000 153.823,29.820 154.464,29.600 154.600 C 29.380 154.736,29.200 155.456,29.200 156.200 C 29.200 156.944,29.020 157.664,28.800 157.800 C 28.580 157.936,28.400 158.656,28.400 159.400 C 28.400 160.144,28.232 160.857,28.027 160.983 C 27.822 161.110,27.528 162.655,27.374 164.416 C 27.221 166.177,26.939 167.714,26.748 167.832 C 26.556 167.951,26.400 168.836,26.400 169.800 C 26.400 170.764,26.220 171.664,26.000 171.800 C 25.780 171.936,25.600 173.106,25.600 174.400 C 25.600 175.694,25.420 176.864,25.200 177.000 C 24.980 177.136,24.800 178.587,24.800 180.224 C 24.800 181.941,24.631 183.200,24.400 183.200 C 24.158 183.200,24.000 184.925,24.000 187.576 C 24.000 190.063,23.827 192.060,23.600 192.200 C 23.054 192.538,23.054 213.600,23.600 213.600 C 23.843 213.600,24.000 215.400,24.000 218.200 C 24.000 221.000,24.157 222.800,24.400 222.800 C 24.631 222.800,24.800 224.059,24.800 225.776 C 24.800 227.413,24.980 228.864,25.200 229.000 C 25.420 229.136,25.600 230.216,25.600 231.400 C 25.600 232.584,25.780 233.664,26.000 233.800 C 26.220 233.936,26.400 235.027,26.400 236.224 C 26.400 237.421,26.559 238.400,26.753 238.400 C 26.947 238.400,27.235 239.795,27.393 241.500 C 27.551 243.205,27.821 244.780,27.993 245.000 C 28.165 245.220,28.417 246.075,28.553 246.900 C 29.173 250.662,29.310 251.200,29.644 251.200 C 29.840 251.200,30.000 251.819,30.000 252.576 C 30.000 253.333,30.180 254.064,30.400 254.200 C 30.620 254.336,30.800 254.876,30.800 255.400 C 30.800 255.924,30.980 256.464,31.200 256.600 C 31.420 256.736,31.600 257.287,31.600 257.824 C 31.600 258.361,31.780 258.800,32.000 258.800 C 32.220 258.800,32.400 259.340,32.400 260.000 C 32.400 260.660,32.580 261.200,32.800 261.200 C 33.020 261.200,33.200 261.740,33.200 262.400 C 33.200 263.060,33.380 263.600,33.600 263.600 C 33.820 263.600,34.000 264.140,34.000 264.800 C 34.000 265.460,34.180 266.000,34.400 266.000 C 34.620 266.000,34.800 266.439,34.800 266.976 C 34.800 267.513,34.980 268.064,35.200 268.200 C 35.420 268.336,35.600 268.797,35.600 269.224 C 35.600 269.651,35.780 270.000,36.000 270.000 C 36.220 270.000,36.400 270.450,36.400 271.000 C 36.400 271.550,36.580 272.000,36.800 272.000 C 37.020 272.000,37.200 272.234,37.200 272.520 C 37.200 273.256,38.141 275.193,38.500 275.197 C 38.665 275.199,38.800 275.555,38.800 275.988 C 38.800 276.421,39.160 277.417,39.600 278.200 C 40.040 278.983,40.400 279.889,40.400 280.212 C 40.400 280.535,40.580 280.800,40.800 280.800 C 41.020 280.800,41.200 281.160,41.200 281.600 C 41.200 282.040,41.380 282.400,41.600 282.400 C 41.820 282.400,42.000 282.760,42.000 283.200 C 42.000 283.640,42.180 284.000,42.400 284.000 C 42.620 284.000,42.800 284.360,42.800 284.800 C 42.800 285.240,42.980 285.600,43.200 285.600 C 43.420 285.600,43.600 285.918,43.600 286.307 C 43.600 286.696,44.050 287.677,44.600 288.486 C 45.150 289.295,45.600 290.147,45.600 290.379 C 45.600 290.610,45.780 290.800,46.000 290.800 C 46.220 290.800,46.400 291.160,46.400 291.600 C 46.400 292.040,46.549 292.400,46.732 292.400 C 46.914 292.400,47.485 293.300,48.000 294.400 C 48.515 295.500,49.086 296.400,49.268 296.400 C 49.451 296.400,49.600 296.720,49.600 297.112 C 49.600 297.503,49.960 298.083,50.400 298.400 C 50.840 298.717,51.200 299.257,51.200 299.600 C 51.200 299.943,51.560 300.483,52.000 300.800 C 52.440 301.117,52.800 301.697,52.800 302.088 C 52.800 302.480,52.980 302.800,53.200 302.800 C 53.420 302.800,53.600 303.070,53.600 303.400 C 53.600 303.730,53.780 304.000,54.000 304.000 C 54.220 304.000,54.400 304.230,54.400 304.512 C 54.400 304.793,54.760 305.283,55.200 305.600 C 55.640 305.917,56.000 306.407,56.000 306.688 C 56.000 306.970,56.180 307.200,56.400 307.200 C 56.620 307.200,56.800 307.470,56.800 307.800 C 56.800 308.130,56.980 308.400,57.200 308.400 C 57.420 308.400,57.600 308.598,57.600 308.840 C 57.600 309.081,58.140 309.783,58.800 310.400 C 59.460 311.017,60.002 311.764,60.003 312.060 C 60.005 312.357,60.635 313.263,61.403 314.073 C 62.172 314.884,62.800 315.661,62.800 315.802 C 62.800 315.942,63.025 316.288,63.300 316.569 C 63.575 316.851,64.610 318.049,65.600 319.231 C 66.590 320.413,69.650 323.667,72.400 326.462 C 75.150 329.257,78.570 332.777,80.000 334.286 C 81.430 335.795,83.216 337.472,83.968 338.014 C 84.721 338.556,85.891 339.489,86.568 340.086 C 89.187 342.395,90.213 343.199,90.540 343.200 C 90.726 343.200,91.383 343.740,92.000 344.400 C 92.617 345.060,93.253 345.600,93.414 345.600 C 93.574 345.600,93.997 345.924,94.353 346.319 C 94.709 346.714,95.630 347.475,96.400 348.008 C 97.170 348.542,98.149 349.298,98.575 349.689 C 99.002 350.080,99.547 350.400,99.787 350.400 C 100.027 350.400,100.483 350.760,100.800 351.200 C 101.117 351.640,101.697 352.000,102.088 352.000 C 102.480 352.000,102.800 352.150,102.800 352.332 C 102.800 352.515,103.295 352.920,103.900 353.232 C 104.505 353.545,105.349 354.115,105.775 354.500 C 106.202 354.885,106.787 355.200,107.075 355.200 C 107.364 355.200,107.600 355.380,107.600 355.600 C 107.600 355.820,107.793 356.000,108.028 356.000 C 108.263 356.000,109.208 356.502,110.128 357.116 C 111.048 357.730,112.563 358.585,113.495 359.016 C 114.428 359.447,115.193 359.935,115.195 360.100 C 115.198 360.265,115.560 360.400,116.000 360.400 C 116.440 360.400,116.800 360.580,116.800 360.800 C 116.800 361.020,117.160 361.200,117.600 361.200 C 118.040 361.200,118.400 361.380,118.400 361.600 C 118.400 361.820,118.760 362.000,119.200 362.000 C 119.640 362.000,120.001 362.135,120.003 362.300 C 120.005 362.465,120.410 362.803,120.903 363.050 C 125.667 365.443,126.890 366.000,127.373 366.000 C 127.681 366.000,127.993 366.135,128.067 366.300 C 128.140 366.465,129.100 367.025,130.200 367.544 C 131.300 368.063,132.513 368.648,132.895 368.844 C 133.277 369.040,133.862 369.200,134.195 369.200 C 134.528 369.200,134.800 369.380,134.800 369.600 C 134.800 369.820,135.162 370.000,135.605 370.000 C 136.048 370.000,136.768 370.180,137.205 370.400 C 137.642 370.620,138.358 370.980,138.795 371.200 C 139.232 371.420,139.952 371.600,140.395 371.600 C 140.838 371.600,141.200 371.741,141.200 371.913 C 141.200 372.085,142.055 372.460,143.100 372.746 C 144.145 373.033,145.360 373.423,145.800 373.613 C 147.676 374.426,150.514 375.200,151.614 375.200 C 152.266 375.200,152.800 375.380,152.800 375.600 C 152.800 375.820,153.430 376.000,154.200 376.000 C 154.970 376.000,155.600 376.180,155.600 376.400 C 155.600 376.620,156.219 376.800,156.976 376.800 C 157.733 376.800,158.452 376.961,158.574 377.158 C 158.695 377.355,159.516 377.625,160.397 377.758 C 161.279 377.891,162.720 378.109,163.600 378.242 C 164.480 378.375,165.200 378.645,165.200 378.842 C 165.200 379.039,166.089 379.200,167.176 379.200 C 168.263 379.200,169.264 379.380,169.400 379.600 C 169.536 379.820,170.627 380.000,171.824 380.000 C 173.021 380.000,174.000 380.180,174.000 380.400 C 174.000 380.625,175.125 380.800,176.576 380.800 C 177.993 380.800,179.264 380.980,179.400 381.200 C 179.536 381.420,180.976 381.600,182.600 381.600 C 184.224 381.600,185.664 381.780,185.800 382.000 C 185.951 382.245,189.137 382.400,194.024 382.400 C 199.041 382.400,202.000 382.547,202.000 382.797 C 202.000 383.225,203.399 383.134,203.856 382.677 C 204.009 382.525,207.603 382.400,211.843 382.400 C 216.551 382.400,219.649 382.244,219.800 382.000 C 219.936 381.780,221.567 381.600,223.424 381.600 C 225.408 381.600,226.800 381.435,226.800 381.200 C 226.800 380.975,227.925 380.800,229.376 380.800 C 230.793 380.800,232.064 380.620,232.200 380.400 C 232.336 380.180,233.427 380.000,234.624 380.000 C 235.821 380.000,236.800 379.820,236.800 379.600 C 236.800 379.380,237.599 379.200,238.576 379.200 C 239.553 379.200,240.464 379.020,240.600 378.800 C 240.736 378.580,241.557 378.400,242.424 378.400 C 243.291 378.400,244.000 378.220,244.000 378.000 C 244.000 377.780,244.720 377.600,245.600 377.600 C 246.480 377.600,247.200 377.420,247.200 377.200 C 247.200 376.980,247.920 376.800,248.800 376.800 C 249.680 376.800,250.400 376.620,250.400 376.400 C 250.400 376.180,250.929 376.000,251.576 376.000 C 252.223 376.000,252.864 375.820,253.000 375.600 C 253.136 375.380,253.666 375.200,254.178 375.200 C 255.183 375.200,258.965 374.154,260.095 373.563 C 260.477 373.363,261.141 373.200,261.571 373.200 C 262.001 373.200,262.464 373.020,262.600 372.800 C 262.736 372.580,263.199 372.400,263.629 372.400 C 264.059 372.400,264.723 372.241,265.105 372.047 C 265.821 371.683,267.446 370.989,269.200 370.300 C 269.750 370.084,270.513 369.748,270.895 369.553 C 271.277 369.359,271.862 369.200,272.195 369.200 C 272.528 369.200,272.800 369.020,272.800 368.800 C 272.800 368.580,273.250 368.400,273.800 368.400 C 274.350 368.400,274.800 368.220,274.800 368.000 C 274.800 367.780,275.250 367.600,275.800 367.600 C 276.350 367.600,276.800 367.420,276.800 367.200 C 276.800 366.980,277.160 366.800,277.600 366.800 C 278.040 366.800,278.400 366.620,278.400 366.400 C 278.400 366.180,278.760 366.000,279.200 366.000 C 279.640 366.000,280.000 365.820,280.000 365.600 C 280.000 365.380,280.360 365.200,280.800 365.200 C 281.240 365.200,281.600 365.020,281.600 364.800 C 281.600 364.580,281.960 364.400,282.400 364.400 C 282.840 364.400,283.200 364.220,283.200 364.000 C 283.200 363.780,283.560 363.600,284.000 363.600 C 284.440 363.600,284.800 363.420,284.800 363.200 C 284.800 362.980,285.160 362.800,285.600 362.800 C 286.040 362.800,286.400 362.620,286.400 362.400 C 286.400 362.180,286.760 362.000,287.200 362.000 C 287.640 362.000,288.000 361.820,288.000 361.600 C 288.000 361.380,288.360 361.200,288.800 361.200 C 289.240 361.200,289.600 361.020,289.600 360.800 C 289.600 360.580,289.830 360.400,290.112 360.400 C 290.393 360.400,290.883 360.040,291.200 359.600 C 291.517 359.160,292.052 358.794,292.388 358.787 C 292.725 358.780,293.900 358.243,295.000 357.594 C 296.100 356.945,297.367 356.249,297.816 356.048 C 298.265 355.848,298.873 355.395,299.165 355.042 C 299.458 354.689,299.912 354.400,300.174 354.400 C 300.435 354.400,300.998 354.085,301.425 353.700 C 301.851 353.315,302.695 352.745,303.300 352.432 C 303.905 352.120,304.400 351.715,304.400 351.532 C 304.400 351.350,304.642 351.200,304.938 351.200 C 305.234 351.200,305.802 350.840,306.200 350.400 C 306.598 349.960,307.094 349.600,307.302 349.600 C 307.509 349.600,308.183 349.060,308.800 348.400 C 309.417 347.740,310.137 347.200,310.400 347.200 C 310.663 347.200,311.383 346.660,312.000 346.000 C 312.617 345.340,313.333 344.800,313.592 344.800 C 313.851 344.800,314.754 344.080,315.600 343.200 C 316.446 342.320,317.331 341.600,317.569 341.600 C 317.806 341.600,318.333 341.285,318.740 340.900 C 319.146 340.515,320.425 339.390,321.581 338.400 C 324.225 336.136,335.997 324.354,338.400 321.567 C 339.390 320.419,340.515 319.146,340.900 318.740 C 341.285 318.333,341.600 317.806,341.600 317.569 C 341.600 317.331,342.320 316.446,343.200 315.600 C 344.080 314.754,344.800 313.851,344.800 313.592 C 344.800 313.333,345.340 312.617,346.000 312.000 C 346.660 311.383,347.200 310.663,347.200 310.400 C 347.200 310.137,347.740 309.417,348.400 308.800 C 349.060 308.183,349.600 307.509,349.600 307.302 C 349.600 307.094,349.960 306.598,350.400 306.200 C 350.840 305.802,351.200 305.234,351.200 304.938 C 351.200 304.642,351.350 304.400,351.532 304.400 C 351.715 304.400,352.120 303.905,352.432 303.300 C 352.745 302.695,353.315 301.851,353.700 301.425 C 354.085 300.998,354.400 300.472,354.400 300.256 C 354.400 300.040,354.699 299.533,355.064 299.129 C 355.807 298.308,356.119 297.804,357.700 294.869 C 358.305 293.746,358.800 292.590,358.800 292.302 C 358.800 292.013,359.160 291.517,359.600 291.200 C 360.040 290.883,360.400 290.393,360.400 290.112 C 360.400 289.830,360.580 289.600,360.800 289.600 C 361.020 289.600,361.200 289.240,361.200 288.800 C 361.200 288.360,361.380 288.000,361.600 288.000 C 361.820 288.000,362.000 287.640,362.000 287.200 C 362.000 286.760,362.180 286.400,362.400 286.400 C 362.620 286.400,362.800 286.040,362.800 285.600 C 362.800 285.160,362.980 284.800,363.200 284.800 C 363.420 284.800,363.600 284.440,363.600 284.000 C 363.600 283.560,363.780 283.200,364.000 283.200 C 364.220 283.200,364.400 282.840,364.400 282.400 C 364.400 281.960,364.580 281.600,364.800 281.600 C 365.020 281.600,365.200 281.240,365.200 280.800 C 365.200 280.360,365.380 280.000,365.600 280.000 C 365.820 280.000,366.000 279.640,366.000 279.200 C 366.000 278.760,366.180 278.400,366.400 278.400 C 366.620 278.400,366.800 278.040,366.800 277.600 C 366.800 277.160,366.980 276.800,367.200 276.800 C 367.420 276.800,367.600 276.350,367.600 275.800 C 367.600 275.250,367.780 274.800,368.000 274.800 C 368.220 274.800,368.400 274.350,368.400 273.800 C 368.400 273.250,368.580 272.800,368.800 272.800 C 369.020 272.800,369.200 272.528,369.200 272.195 C 369.200 271.862,369.359 271.277,369.553 270.895 C 369.748 270.513,370.108 269.705,370.353 269.100 C 370.599 268.495,371.001 267.505,371.247 266.900 C 371.492 266.295,371.852 265.487,372.047 265.105 C 372.241 264.723,372.400 264.059,372.400 263.629 C 372.400 263.199,372.580 262.736,372.800 262.600 C 373.020 262.464,373.200 262.001,373.200 261.571 C 373.200 261.141,373.358 260.477,373.552 260.095 C 374.249 258.718,375.204 255.378,375.202 254.324 C 375.201 253.732,375.380 253.136,375.600 253.000 C 375.820 252.864,376.000 252.223,376.000 251.576 C 376.000 250.929,376.180 250.400,376.400 250.400 C 376.620 250.400,376.800 249.680,376.800 248.800 C 376.800 247.920,376.980 247.200,377.200 247.200 C 377.420 247.200,377.600 246.480,377.600 245.600 C 377.600 244.720,377.780 244.000,378.000 244.000 C 378.220 244.000,378.400 243.291,378.400 242.424 C 378.400 241.557,378.580 240.736,378.800 240.600 C 379.020 240.464,379.200 239.553,379.200 238.576 C 379.200 237.599,379.380 236.800,379.600 236.800 C 379.820 236.800,380.000 235.821,380.000 234.624 C 380.000 233.427,380.180 232.336,380.400 232.200 C 380.620 232.064,380.800 230.793,380.800 229.376 C 380.800 227.925,380.975 226.800,381.200 226.800 C 381.435 226.800,381.600 225.408,381.600 223.424 C 381.600 221.567,381.780 219.936,382.000 219.800 C 382.244 219.649,382.400 216.551,382.400 211.843 C 382.400 207.603,382.525 204.009,382.677 203.856 C 383.134 203.399,383.225 202.000,382.797 202.000 C 382.547 202.000,382.400 199.041,382.400 194.024 C 382.400 189.137,382.245 185.951,382.000 185.800 C 381.780 185.664,381.600 184.224,381.600 182.600 C 381.600 180.976,381.420 179.536,381.200 179.400 C 380.980 179.264,380.800 177.993,380.800 176.576 C 380.800 175.125,380.625 174.000,380.400 174.000 C 380.180 174.000,380.000 173.021,380.000 171.824 C 380.000 170.627,379.820 169.536,379.600 169.400 C 379.380 169.264,379.200 168.263,379.200 167.176 C 379.200 166.089,379.039 165.200,378.842 165.200 C 378.645 165.200,378.375 164.480,378.242 163.600 C 378.109 162.720,377.891 161.279,377.758 160.397 C 377.625 159.516,377.355 158.695,377.158 158.574 C 376.961 158.452,376.800 157.733,376.800 156.976 C 376.800 156.219,376.620 155.600,376.400 155.600 C 376.180 155.600,376.000 154.970,376.000 154.200 C 376.000 153.430,375.820 152.800,375.600 152.800 C 375.380 152.800,375.200 152.266,375.200 151.614 C 375.200 150.514,374.426 147.676,373.613 145.800 C 373.423 145.360,373.033 144.145,372.746 143.100 C 372.460 142.055,372.085 141.200,371.913 141.200 C 371.741 141.200,371.600 140.838,371.600 140.395 C 371.600 139.952,371.392 139.187,371.138 138.695 C 370.142 136.769,370.000 136.383,370.000 135.605 C 370.000 135.162,369.820 134.800,369.600 134.800 C 369.380 134.800,369.200 134.528,369.200 134.195 C 369.200 133.862,369.040 133.277,368.844 132.895 C 368.648 132.513,368.063 131.300,367.544 130.200 C 367.025 129.100,366.465 128.140,366.300 128.067 C 366.135 127.993,366.000 127.681,366.000 127.373 C 366.000 126.890,365.443 125.667,363.050 120.903 C 362.803 120.410,362.465 120.005,362.300 120.003 C 362.135 120.001,362.000 119.640,362.000 119.200 C 362.000 118.760,361.820 118.400,361.600 118.400 C 361.380 118.400,361.200 118.040,361.200 117.600 C 361.200 117.160,361.020 116.800,360.800 116.800 C 360.580 116.800,360.400 116.440,360.400 116.000 C 360.400 115.560,360.265 115.198,360.100 115.195 C 359.935 115.193,359.447 114.428,359.016 113.495 C 358.585 112.563,357.730 111.048,357.116 110.128 C 356.502 109.208,356.000 108.263,356.000 108.028 C 356.000 107.793,355.820 107.600,355.600 107.600 C 355.380 107.600,355.200 107.364,355.200 107.075 C 355.200 106.787,354.885 106.202,354.500 105.775 C 354.115 105.349,353.545 104.505,353.232 103.900 C 352.920 103.295,352.515 102.800,352.332 102.800 C 352.150 102.800,352.000 102.480,352.000 102.088 C 352.000 101.697,351.640 101.117,351.200 100.800 C 350.760 100.483,350.400 100.020,350.400 99.771 C 350.400 99.522,349.860 98.754,349.200 98.063 C 348.540 97.372,348.000 96.626,348.000 96.404 C 348.000 96.182,347.820 96.000,347.600 96.000 C 347.380 96.000,347.200 95.770,347.200 95.488 C 347.200 95.207,346.840 94.717,346.400 94.400 C 345.960 94.083,345.600 93.665,345.600 93.472 C 345.600 93.279,345.060 92.617,344.400 92.000 C 343.740 91.383,343.200 90.726,343.200 90.540 C 343.199 90.213,342.395 89.187,340.086 86.568 C 339.489 85.891,338.556 84.721,338.014 83.968 C 337.472 83.216,335.795 81.430,334.286 80.000 C 332.777 78.570,329.261 75.150,326.472 72.400 C 323.682 69.649,320.922 67.039,320.338 66.600 C 319.754 66.160,318.547 65.125,317.656 64.300 C 316.764 63.475,315.925 62.800,315.791 62.800 C 315.656 62.800,314.884 62.172,314.073 61.403 C 313.263 60.635,312.357 60.005,312.060 60.003 C 311.764 60.002,311.017 59.460,310.400 58.800 C 309.783 58.140,309.081 57.600,308.840 57.600 C 308.598 57.600,308.400 57.420,308.400 57.200 C 308.400 56.980,308.130 56.800,307.800 56.800 C 307.470 56.800,307.200 56.620,307.200 56.400 C 307.200 56.180,306.970 56.000,306.688 56.000 C 306.407 56.000,305.917 55.640,305.600 55.200 C 305.283 54.760,304.793 54.400,304.512 54.400 C 304.230 54.400,304.000 54.220,304.000 54.000 C 304.000 53.780,303.730 53.600,303.400 53.600 C 303.070 53.600,302.800 53.420,302.800 53.200 C 302.800 52.980,302.480 52.800,302.088 52.800 C 301.697 52.800,301.117 52.440,300.800 52.000 C 300.483 51.560,299.943 51.200,299.600 51.200 C 299.257 51.200,298.717 50.840,298.400 50.400 C 298.083 49.960,297.503 49.600,297.112 49.600 C 296.720 49.600,296.400 49.451,296.400 49.268 C 296.400 49.086,295.500 48.515,294.400 48.000 C 293.300 47.485,292.400 46.914,292.400 46.732 C 292.400 46.549,292.040 46.400,291.600 46.400 C 291.160 46.400,290.800 46.220,290.800 46.000 C 290.800 45.780,290.610 45.600,290.379 45.600 C 290.147 45.600,289.295 45.150,288.486 44.600 C 287.677 44.050,286.696 43.600,286.307 43.600 C 285.918 43.600,285.600 43.420,285.600 43.200 C 285.600 42.980,285.240 42.800,284.800 42.800 C 284.360 42.800,284.000 42.620,284.000 42.400 C 284.000 42.180,283.640 42.000,283.200 42.000 C 282.760 42.000,282.400 41.820,282.400 41.600 C 282.400 41.380,282.040 41.200,281.600 41.200 C 281.160 41.200,280.800 41.020,280.800 40.800 C 280.800 40.580,280.535 40.400,280.212 40.400 C 279.889 40.400,278.983 40.040,278.200 39.600 C 277.417 39.160,276.421 38.800,275.988 38.800 C 275.555 38.800,275.199 38.665,275.197 38.500 C 275.193 38.141,273.256 37.200,272.520 37.200 C 272.234 37.200,272.000 37.020,272.000 36.800 C 272.000 36.580,271.550 36.400,271.000 36.400 C 270.450 36.400,270.000 36.220,270.000 36.000 C 270.000 35.780,269.651 35.600,269.224 35.600 C 268.797 35.600,268.336 35.420,268.200 35.200 C 268.064 34.980,267.513 34.800,266.976 34.800 C 266.439 34.800,266.000 34.620,266.000 34.400 C 266.000 34.180,265.460 34.000,264.800 34.000 C 264.140 34.000,263.600 33.820,263.600 33.600 C 263.600 33.380,263.060 33.200,262.400 33.200 C 261.740 33.200,261.200 33.020,261.200 32.800 C 261.200 32.580,260.660 32.400,260.000 32.400 C 259.340 32.400,258.800 32.220,258.800 32.000 C 258.800 31.780,258.361 31.600,257.824 31.600 C 257.287 31.600,256.736 31.420,256.600 31.200 C 256.464 30.980,255.924 30.800,255.400 30.800 C 254.876 30.800,254.336 30.620,254.200 30.400 C 254.064 30.180,253.333 30.000,252.576 30.000 C 251.819 30.000,251.200 29.840,251.200 29.644 C 251.200 29.310,250.662 29.173,246.900 28.553 C 246.075 28.417,245.220 28.165,245.000 27.993 C 244.780 27.821,243.202 27.551,241.494 27.392 C 239.786 27.234,238.290 26.946,238.171 26.752 C 238.051 26.559,237.074 26.400,236.000 26.400 C 234.926 26.400,233.936 26.220,233.800 26.000 C 233.664 25.780,232.573 25.600,231.376 25.600 C 230.179 25.600,229.200 25.420,229.200 25.200 C 229.200 24.967,227.867 24.800,226.000 24.800 C 224.133 24.800,222.800 24.633,222.800 24.400 C 222.800 24.157,221.000 24.000,218.200 24.000 C 215.400 24.000,213.600 23.843,213.600 23.600 C 213.600 23.343,209.808 23.200,203.024 23.200 C 196.404 23.200,192.355 23.350,192.200 23.600 M142.600 107.200 C 142.736 107.420,143.467 107.600,144.224 107.600 C 144.981 107.600,145.600 107.780,145.600 108.000 C 145.600 108.220,146.140 108.400,146.800 108.400 C 147.460 108.400,148.000 108.580,148.000 108.800 C 148.000 109.020,148.360 109.200,148.800 109.200 C 149.240 109.200,149.600 109.380,149.600 109.600 C 149.600 109.820,149.855 110.000,150.166 110.000 C 150.477 110.000,151.242 110.540,151.865 111.200 C 152.488 111.860,153.223 112.400,153.499 112.400 C 153.774 112.400,154.000 112.546,154.000 112.725 C 154.000 112.903,154.322 113.398,154.717 113.825 C 156.007 115.221,158.000 118.331,158.000 118.948 C 158.000 119.281,158.180 119.664,158.400 119.800 C 158.620 119.936,158.800 120.577,158.800 121.224 C 158.800 121.871,158.980 122.400,159.200 122.400 C 159.447 122.400,159.600 124.467,159.600 127.800 C 159.600 131.133,159.447 133.200,159.200 133.200 C 158.980 133.200,158.800 133.719,158.800 134.354 C 158.800 138.128,150.032 147.200,146.386 147.200 C 145.980 147.200,145.536 147.380,145.400 147.600 C 145.264 147.820,144.544 148.000,143.800 148.000 C 143.056 148.000,142.336 148.180,142.200 148.400 C 142.057 148.632,139.870 148.800,137.000 148.800 C 134.130 148.800,131.943 148.632,131.800 148.400 C 131.664 148.180,130.933 148.000,130.176 148.000 C 129.419 148.000,128.800 147.820,128.800 147.600 C 128.800 147.380,128.260 147.200,127.600 147.200 C 126.940 147.200,126.400 147.020,126.400 146.800 C 126.400 146.580,126.164 146.400,125.875 146.400 C 125.587 146.400,124.964 146.040,124.492 145.600 C 124.020 145.160,123.454 144.800,123.234 144.800 C 122.378 144.800,118.001 139.846,116.772 137.487 C 111.862 128.060,115.281 114.703,123.700 110.424 C 124.305 110.116,124.800 109.715,124.800 109.532 C 124.800 109.350,125.160 109.200,125.600 109.200 C 126.040 109.200,126.400 109.020,126.400 108.800 C 126.400 108.580,126.940 108.400,127.600 108.400 C 128.260 108.400,128.800 108.220,128.800 108.000 C 128.800 107.780,129.419 107.600,130.176 107.600 C 130.933 107.600,131.664 107.420,131.800 107.200 C 131.944 106.967,134.196 106.800,137.200 106.800 C 140.204 106.800,142.456 106.967,142.600 107.200 M261.200 162.806 C 265.992 163.223,271.300 164.169,272.495 164.821 C 272.877 165.029,273.389 165.200,273.632 165.200 C 274.373 165.200,283.075 169.568,283.604 170.205 C 283.876 170.532,284.316 170.800,284.582 170.800 C 285.095 170.800,292.399 178.175,292.402 178.695 C 292.403 178.863,292.901 179.540,293.509 180.200 C 294.742 181.539,299.606 191.019,299.602 192.076 C 299.601 192.448,299.780 192.864,300.000 193.000 C 300.220 193.136,300.400 193.676,300.400 194.200 C 300.400 194.724,300.560 195.252,300.756 195.373 C 300.951 195.494,301.214 196.179,301.339 196.896 C 301.464 197.613,301.754 199.190,301.984 200.400 C 303.349 207.597,303.399 209.292,303.400 248.200 L 303.400 287.000 283.300 287.104 L 263.200 287.207 263.203 255.104 C 263.206 224.354,262.821 211.200,261.920 211.200 C 261.744 211.200,261.600 210.677,261.600 210.038 C 261.600 209.020,260.991 207.462,259.476 204.600 C 259.243 204.160,258.824 203.350,258.544 202.800 C 257.202 200.160,251.256 195.600,249.156 195.600 C 248.766 195.600,248.336 195.420,248.200 195.200 C 248.055 194.966,245.737 194.800,242.600 194.800 C 239.463 194.800,237.145 194.966,237.000 195.200 C 236.864 195.420,236.438 195.600,236.053 195.600 C 233.728 195.600,224.400 202.455,224.400 204.163 C 224.400 204.375,224.068 204.920,223.663 205.374 C 220.628 208.775,220.415 211.846,220.407 252.500 L 220.400 287.200 200.200 287.200 C 184.309 287.200,179.999 287.093,179.996 286.700 C 179.742 253.534,180.110 165.777,180.504 165.525 C 180.777 165.351,189.820 165.251,200.600 165.304 L 220.200 165.400 220.308 173.300 C 220.422 181.551,220.702 182.659,222.032 180.114 C 222.720 178.799,231.268 170.000,231.858 170.000 C 232.088 170.000,232.602 169.640,233.000 169.200 C 233.398 168.760,233.909 168.400,234.136 168.400 C 234.363 168.400,234.920 168.069,235.374 167.665 C 235.828 167.260,236.830 166.699,237.600 166.417 C 238.370 166.136,239.720 165.596,240.600 165.218 C 243.280 164.068,248.682 163.100,256.000 162.459 C 256.330 162.430,258.670 162.587,261.200 162.806 M157.101 226.304 L 157.203 287.207 137.101 287.104 L 117.000 287.000 116.899 226.424 C 116.818 178.229,116.900 165.783,117.299 165.528 C 117.574 165.352,126.620 165.251,137.400 165.304 L 157.000 165.400 157.101 226.304 "
              stroke="none" fill="#007ab9" fill-rule="evenodd"></path>
        <path id="path3"
              d="M131.857 107.107 C 131.753 107.276,132.372 107.348,133.234 107.265 C 134.095 107.183,134.800 107.045,134.800 106.958 C 134.800 106.660,132.047 106.800,131.857 107.107 M140.000 106.956 C 140.000 107.042,140.617 107.185,141.372 107.273 C 142.127 107.361,142.656 107.290,142.548 107.116 C 142.355 106.803,140.000 106.655,140.000 106.956 M119.606 113.794 C 118.863 114.561,118.332 115.250,118.427 115.325 C 118.522 115.400,119.206 114.773,119.946 113.931 C 121.629 112.018,121.412 111.931,119.606 113.794 M114.548 127.600 C 114.548 129.910,114.614 130.855,114.695 129.700 C 114.776 128.545,114.776 126.655,114.695 125.500 C 114.614 124.345,114.548 125.290,114.548 127.600 M115.044 133.400 C 115.373 134.871,115.602 135.190,115.594 134.167 C 115.591 133.745,115.405 133.130,115.182 132.800 C 114.885 132.362,114.848 132.524,115.044 133.400 M148.408 146.030 C 147.202 146.673,146.432 147.200,146.696 147.200 C 147.210 147.200,149.951 145.762,150.580 145.162 C 151.159 144.610,150.793 144.756,148.408 146.030 M131.951 148.513 C 132.124 148.685,134.501 148.774,137.233 148.711 L 142.200 148.597 136.919 148.398 C 134.014 148.289,131.779 148.341,131.951 148.513 M251.300 163.087 C 251.905 163.178,252.895 163.178,253.500 163.087 C 254.105 162.995,253.610 162.920,252.400 162.920 C 251.190 162.920,250.695 162.995,251.300 163.087 M259.900 163.089 C 260.615 163.178,261.785 163.178,262.500 163.089 C 263.215 163.001,262.630 162.928,261.200 162.928 C 259.770 162.928,259.185 163.001,259.900 163.089 M240.254 165.402 C 239.624 165.731,238.814 166.014,238.454 166.032 C 238.016 166.053,237.970 166.132,238.315 166.270 C 238.802 166.466,241.600 165.368,241.600 164.981 C 241.600 164.718,241.517 164.744,240.254 165.402 M124.400 165.489 C 142.342 165.768,157.107 165.773,156.938 165.500 C 156.836 165.335,147.898 165.241,137.076 165.290 C 126.254 165.340,120.550 165.429,124.400 165.489 M187.600 165.489 C 205.542 165.768,220.307 165.773,220.138 165.500 C 220.036 165.335,211.098 165.241,200.276 165.290 C 189.454 165.340,183.750 165.429,187.600 165.489 M116.897 226.076 C 116.843 259.448,116.935 286.836,117.100 286.938 C 117.371 287.106,117.370 244.955,117.096 187.200 C 117.039 175.210,116.950 192.704,116.897 226.076 M180.195 224.800 C 180.195 257.470,180.242 270.835,180.300 254.500 C 180.358 238.165,180.358 211.435,180.300 195.100 C 180.242 178.765,180.195 192.130,180.195 224.800 M236.586 166.781 C 236.138 166.962,235.531 167.401,235.237 167.755 C 234.943 168.110,234.482 168.400,234.213 168.400 C 233.944 168.400,233.381 168.805,232.962 169.300 C 232.201 170.199,232.201 170.199,233.031 169.500 C 233.489 169.115,234.046 168.800,234.270 168.800 C 234.493 168.800,235.002 168.440,235.400 168.000 C 235.798 167.560,236.355 167.200,236.638 167.200 C 236.921 167.200,237.264 167.020,237.400 166.800 C 237.684 166.340,237.674 166.340,236.586 166.781 M281.024 168.987 C 281.451 169.310,281.966 169.580,282.169 169.587 C 282.371 169.594,282.908 169.915,283.362 170.300 C 284.127 170.949,284.148 170.950,283.651 170.308 C 283.173 169.691,281.016 168.400,280.462 168.400 C 280.344 168.400,280.596 168.664,281.024 168.987 M228.800 172.600 C 227.828 173.590,227.123 174.400,227.233 174.400 C 227.343 174.400,228.228 173.590,229.200 172.600 C 230.172 171.610,230.877 170.800,230.767 170.800 C 230.657 170.800,229.772 171.610,228.800 172.600 M284.444 170.900 C 284.541 170.955,285.876 172.170,287.410 173.600 L 290.200 176.200 287.612 173.500 C 286.188 172.015,284.853 170.800,284.645 170.800 C 284.437 170.800,284.346 170.845,284.444 170.900 M298.286 189.606 C 298.402 190.050,298.655 190.510,298.848 190.630 C 299.042 190.749,299.214 191.242,299.232 191.724 C 299.249 192.206,299.356 192.368,299.470 192.085 C 299.584 191.802,299.381 190.947,299.020 190.185 C 298.285 188.638,297.967 188.386,298.286 189.606 M240.700 194.693 C 241.635 194.777,243.165 194.777,244.100 194.693 C 245.035 194.609,244.270 194.540,242.400 194.540 C 240.530 194.540,239.765 194.609,240.700 194.693 M233.289 196.265 C 232.568 196.620,232.043 196.977,232.124 197.057 C 232.295 197.228,234.800 196.024,234.800 195.771 C 234.800 195.529,234.747 195.546,233.289 196.265 M300.800 196.776 C 300.800 197.423,300.942 198.041,301.116 198.148 C 301.290 198.256,301.361 197.727,301.273 196.972 C 301.076 195.291,300.800 195.177,300.800 196.776 M256.000 199.800 C 257.195 201.010,258.263 202.000,258.373 202.000 C 258.483 202.000,257.595 201.010,256.400 199.800 C 255.205 198.590,254.137 197.600,254.027 197.600 C 253.917 197.600,254.805 198.590,256.000 199.800 M301.701 200.200 C 301.705 201.080,301.787 201.393,301.883 200.895 C 301.979 200.398,301.975 199.678,301.875 199.295 C 301.775 198.913,301.696 199.320,301.701 200.200 M226.800 201.000 C 225.828 201.990,225.123 202.800,225.233 202.800 C 225.343 202.800,226.228 201.990,227.200 201.000 C 228.172 200.010,228.877 199.200,228.767 199.200 C 228.657 199.200,227.772 200.010,226.800 201.000 M302.438 205.200 C 302.424 206.410,302.560 207.633,302.740 207.917 C 302.924 208.206,302.996 207.411,302.904 206.117 C 302.679 202.958,302.468 202.542,302.438 205.200 M303.200 248.280 C 303.090 269.664,303.136 287.024,303.302 286.858 C 303.468 286.692,303.558 269.196,303.502 247.978 L 303.400 209.400 303.200 248.280 M220.564 212.151 C 220.447 212.454,220.411 213.579,220.484 214.651 L 220.615 216.600 220.808 214.099 C 221.002 211.573,220.949 211.147,220.564 212.151 M262.794 218.118 L 262.989 220.600 263.117 218.443 C 263.188 217.256,263.100 216.140,262.923 215.961 C 262.745 215.783,262.687 216.754,262.794 218.118 "
              stroke="none" fill="#64acd4" fill-rule="evenodd"></path>
        <path id="path4"
              d="M135.891 107.089 C 136.601 107.177,137.861 107.179,138.691 107.092 C 139.521 107.005,138.940 106.933,137.400 106.931 C 135.860 106.929,135.181 107.000,135.891 107.089 M120.786 113.099 L 118.600 115.398 120.573 113.599 C 121.659 112.610,122.797 111.575,123.102 111.300 C 123.407 111.025,123.503 110.800,123.315 110.800 C 123.127 110.800,121.989 111.835,120.786 113.099 M152.200 112.000 C 153.031 112.660,153.813 113.200,153.940 113.200 C 154.309 113.200,151.436 110.834,151.045 110.816 C 150.850 110.807,151.369 111.340,152.200 112.000 M114.974 122.924 C 114.863 123.213,114.825 125.508,114.889 128.024 L 115.005 132.600 115.202 127.499 C 115.397 122.465,115.369 121.894,114.974 122.924 M159.353 127.800 C 159.353 130.440,159.418 131.468,159.497 130.084 C 159.575 128.701,159.574 126.541,159.495 125.284 C 159.416 124.028,159.352 125.160,159.353 127.800 M115.518 134.026 C 115.614 134.677,115.819 135.288,115.974 135.384 C 116.129 135.479,116.177 135.025,116.082 134.374 C 115.986 133.723,115.781 133.112,115.626 133.016 C 115.471 132.921,115.423 133.375,115.518 134.026 M157.440 136.840 C 156.972 137.778,156.955 137.970,157.367 137.627 C 157.859 137.219,158.518 135.600,158.192 135.600 C 158.119 135.600,157.780 136.158,157.440 136.840 M120.200 142.000 C 121.059 142.880,121.852 143.600,121.962 143.600 C 122.072 143.600,121.459 142.880,120.600 142.000 C 119.741 141.120,118.948 140.400,118.838 140.400 C 118.728 140.400,119.341 141.120,120.200 142.000 M124.056 145.166 C 124.575 145.587,125.077 145.855,125.171 145.761 C 125.376 145.557,123.944 144.431,123.456 144.413 C 123.266 144.406,123.536 144.745,124.056 145.166 M131.200 148.000 C 131.750 148.176,132.560 148.320,133.000 148.320 C 133.633 148.320,133.592 148.254,132.800 148.000 C 132.250 147.824,131.440 147.680,131.000 147.680 C 130.367 147.680,130.408 147.746,131.200 148.000 M141.400 148.000 C 140.311 148.277,140.293 148.307,141.200 148.325 C 141.750 148.335,142.560 148.189,143.000 148.000 C 143.986 147.576,143.066 147.576,141.400 148.000 M248.900 163.487 C 249.505 163.578,250.495 163.578,251.100 163.487 C 251.705 163.395,251.210 163.320,250.000 163.320 C 248.790 163.320,248.295 163.395,248.900 163.487 M262.200 163.438 C 264.074 163.739,266.709 163.777,266.538 163.500 C 266.436 163.335,265.238 163.225,263.876 163.254 C 262.514 163.284,261.760 163.367,262.200 163.438 M267.905 164.283 C 268.402 164.379,269.122 164.375,269.505 164.275 C 269.887 164.175,269.480 164.096,268.600 164.101 C 267.720 164.105,267.407 164.187,267.905 164.283 M270.616 164.826 C 270.712 164.981,271.323 165.186,271.974 165.282 C 272.625 165.377,273.079 165.329,272.984 165.174 C 272.888 165.019,272.277 164.814,271.626 164.718 C 270.975 164.623,270.521 164.671,270.616 164.826 M137.000 165.898 L 156.800 166.007 156.800 226.411 L 156.800 286.815 137.020 286.707 C 126.141 286.648,117.376 286.737,117.544 286.904 C 117.711 287.071,126.657 287.161,137.424 287.104 L 157.000 287.000 157.000 226.400 L 157.000 165.800 137.100 165.794 L 117.200 165.789 137.000 165.898 M200.192 165.898 L 219.984 166.007 220.092 174.271 C 220.173 180.447,220.326 182.576,220.700 182.700 C 220.975 182.792,221.200 182.661,221.200 182.410 C 221.200 182.158,221.024 182.062,220.808 182.195 C 220.558 182.349,220.377 179.420,220.308 174.119 L 220.200 165.800 200.300 165.794 L 180.400 165.789 200.192 165.898 M236.751 167.040 C 236.174 167.345,235.458 167.911,235.158 168.297 C 234.652 168.951,234.669 168.957,235.407 168.383 C 236.186 167.777,237.615 167.051,238.800 166.661 C 239.192 166.532,239.122 166.467,238.600 166.474 C 238.160 166.480,237.328 166.735,236.751 167.040 M230.175 171.700 L 229.000 173.000 230.300 171.825 C 231.015 171.179,231.600 170.594,231.600 170.525 C 231.600 170.216,231.270 170.488,230.175 171.700 M286.600 173.200 C 287.683 174.300,288.660 175.200,288.770 175.200 C 288.880 175.200,288.083 174.300,287.000 173.200 C 285.917 172.100,284.940 171.200,284.830 171.200 C 284.720 171.200,285.517 172.100,286.600 173.200 M290.622 177.225 C 291.490 178.229,292.281 178.988,292.380 178.912 C 292.480 178.835,291.770 178.014,290.803 177.086 L 289.044 175.400 290.622 177.225 M224.200 177.600 C 223.341 178.480,222.809 179.185,223.019 179.166 C 223.386 179.134,226.265 176.000,225.928 176.000 C 225.837 176.000,225.059 176.720,224.200 177.600 M180.591 208.200 C 180.591 225.800,180.640 232.942,180.700 224.070 C 180.760 215.199,180.760 200.799,180.700 192.070 C 180.640 183.342,180.591 190.600,180.591 208.200 M294.415 182.200 C 294.417 182.420,294.786 183.050,295.236 183.600 C 295.779 184.264,295.915 184.331,295.640 183.800 C 294.966 182.495,294.412 181.772,294.415 182.200 M246.100 194.676 C 246.485 194.776,247.115 194.776,247.500 194.676 C 247.885 194.575,247.570 194.493,246.800 194.493 C 246.030 194.493,245.715 194.575,246.100 194.676 M300.352 196.087 C 300.537 197.198,300.593 197.255,300.719 196.454 C 300.801 195.933,300.703 195.343,300.501 195.141 C 300.279 194.919,300.221 195.293,300.352 196.087 M255.983 199.300 C 256.964 200.345,257.819 201.200,257.883 201.200 C 258.184 201.200,257.866 200.841,256.100 199.183 L 254.200 197.400 255.983 199.300 M301.152 199.287 C 301.337 200.398,301.393 200.455,301.519 199.654 C 301.601 199.133,301.503 198.543,301.301 198.341 C 301.079 198.119,301.021 198.493,301.152 199.287 M301.876 203.446 C 302.140 206.155,302.332 206.533,302.362 204.400 C 302.376 203.410,302.230 202.351,302.037 202.046 C 301.821 201.705,301.759 202.242,301.876 203.446 M224.092 203.829 C 223.597 204.583,223.272 205.200,223.369 205.200 C 223.647 205.200,225.304 202.771,225.139 202.606 C 225.057 202.524,224.586 203.074,224.092 203.829 M261.600 209.576 C 261.600 210.223,261.742 210.841,261.916 210.948 C 262.090 211.056,262.161 210.527,262.073 209.772 C 261.876 208.091,261.600 207.977,261.600 209.576 M302.898 247.500 L 302.800 286.800 283.202 286.800 L 263.604 286.800 263.499 252.100 L 263.393 217.400 263.397 252.200 L 263.400 287.000 283.111 287.104 C 298.667 287.186,302.863 287.101,303.014 286.704 C 303.120 286.427,303.159 268.650,303.101 247.200 L 302.996 208.200 302.898 247.500 M221.023 209.700 C 220.608 211.067,220.507 211.981,220.791 211.805 C 220.965 211.698,221.187 211.068,221.285 210.405 C 221.463 209.193,221.306 208.770,221.023 209.700 M262.446 213.476 C 262.421 214.618,262.538 215.638,262.707 215.743 C 262.876 215.847,262.957 215.183,262.886 214.266 C 262.679 211.575,262.496 211.247,262.446 213.476 M220.098 249.696 L 220.000 286.792 200.300 286.900 L 180.600 287.008 200.313 287.104 C 215.786 287.179,220.066 287.092,220.216 286.700 C 220.321 286.425,220.359 269.640,220.301 249.400 L 220.196 212.600 220.098 249.696 M180.101 285.400 C 180.105 286.280,180.187 286.593,180.283 286.095 C 180.379 285.598,180.375 284.878,180.275 284.495 C 180.175 284.113,180.096 284.520,180.101 285.400 "
              stroke="none" fill="#add3e7" fill-rule="evenodd"></path>
    </g>
</svg>