<svg id="svg" version="1.1" width="400" height="400" viewBox="0 0 400 400" xmlns="http://www.w3.org/2000/svg">
    <g id="svgg">
        <path id="path0"
              d="M329.200 74.948 C 329.200 75.107,329.650 75.686,330.200 76.236 C 330.750 76.786,331.200 77.080,331.200 76.888 C 331.200 76.696,330.750 76.117,330.200 75.600 C 329.650 75.083,329.200 74.790,329.200 74.948 M75.600 330.200 C 76.117 330.750,76.696 331.200,76.888 331.200 C 77.080 331.200,76.786 330.750,76.236 330.200 C 75.686 329.650,75.107 329.200,74.948 329.200 C 74.790 329.200,75.083 329.650,75.600 330.200 "
              stroke="none" fill="#000000" fill-rule="evenodd"></path>
        <path id="path1"
              d="M235.600 132.020 C 229.778 132.513,226.502 133.573,221.114 136.704 C 217.373 138.878,210.400 145.415,210.400 146.748 C 210.400 146.943,210.140 147.318,209.823 147.581 C 209.077 148.200,205.600 155.198,205.600 156.079 C 205.600 156.450,205.420 156.864,205.200 157.000 C 204.980 157.136,204.800 157.856,204.800 158.600 C 204.800 159.344,204.620 160.064,204.400 160.200 C 204.155 160.351,204.000 163.489,204.000 168.280 L 204.000 176.112 201.700 175.815 C 200.435 175.652,198.230 175.359,196.800 175.163 C 195.370 174.967,193.252 174.693,192.093 174.553 C 190.934 174.414,189.888 174.142,189.769 173.950 C 189.650 173.757,188.854 173.600,188.000 173.600 C 187.146 173.600,186.336 173.420,186.200 173.200 C 186.064 172.980,185.344 172.800,184.600 172.800 C 183.856 172.800,183.136 172.620,183.000 172.400 C 182.864 172.180,182.324 172.000,181.800 172.000 C 181.276 172.000,180.736 171.820,180.600 171.600 C 180.464 171.380,179.924 171.200,179.400 171.200 C 178.876 171.200,178.336 171.020,178.200 170.800 C 178.064 170.580,177.524 170.400,177.000 170.400 C 176.476 170.400,175.936 170.220,175.800 170.000 C 175.664 169.780,175.209 169.600,174.789 169.600 C 174.368 169.600,173.383 169.240,172.600 168.800 C 171.817 168.360,170.989 168.000,170.761 168.000 C 170.115 168.000,162.884 164.443,160.059 162.736 C 158.662 161.891,157.439 161.200,157.341 161.200 C 157.111 161.200,151.063 157.143,150.800 156.813 C 150.690 156.675,149.970 156.129,149.200 155.600 C 148.430 155.071,147.710 154.529,147.600 154.396 C 147.490 154.263,147.023 153.894,146.561 153.577 C 144.840 152.393,140.042 148.062,135.119 143.247 L 130.039 138.278 129.576 139.439 C 129.322 140.077,128.953 140.913,128.757 141.295 C 128.561 141.677,128.400 142.341,128.400 142.771 C 128.400 143.201,128.241 143.651,128.046 143.771 C 127.694 143.989,127.537 144.599,126.754 148.800 C 126.134 152.119,125.872 159.973,126.327 161.583 C 126.547 162.363,126.939 163.990,127.198 165.200 C 127.458 166.410,128.014 168.163,128.435 169.096 C 128.856 170.028,129.200 170.946,129.200 171.135 C 129.200 171.653,133.526 178.438,134.321 179.165 C 140.430 184.758,139.560 187.587,132.600 184.765 C 131.034 184.130,128.154 183.265,126.688 182.990 L 125.200 182.711 125.200 184.732 C 125.200 185.843,125.380 186.864,125.600 187.000 C 125.820 187.136,126.000 187.779,126.000 188.429 C 126.000 189.079,126.162 189.923,126.361 190.305 C 126.560 190.687,126.957 191.810,127.244 192.800 C 130.065 202.522,136.817 210.192,146.988 215.228 C 151.140 217.283,152.400 218.059,152.400 218.562 C 152.400 218.682,149.475 218.830,145.900 218.890 L 139.400 219.000 139.270 220.359 C 138.641 226.949,151.300 237.923,164.858 242.541 C 167.932 243.588,169.800 244.430,169.800 244.768 C 169.800 245.605,156.371 253.200,154.892 253.200 C 154.615 253.200,154.077 253.359,153.695 253.553 C 152.451 254.186,151.031 254.738,149.400 255.223 C 148.520 255.484,147.487 255.856,147.105 256.049 C 146.723 256.242,145.879 256.400,145.229 256.400 C 144.579 256.400,143.936 256.580,143.800 256.800 C 143.664 257.020,142.789 257.200,141.856 257.200 C 140.923 257.200,139.989 257.366,139.780 257.570 C 139.364 257.975,136.157 258.242,127.000 258.633 C 120.636 258.904,119.623 259.255,121.734 260.458 C 123.801 261.636,133.801 266.400,134.206 266.400 C 134.318 266.400,135.172 266.747,136.104 267.171 C 138.775 268.386,144.618 270.245,149.200 271.339 C 153.335 272.326,155.796 272.777,161.477 273.589 C 165.086 274.105,181.678 274.128,184.954 273.622 C 186.299 273.414,188.840 273.046,190.600 272.803 C 195.055 272.189,205.567 269.616,208.600 268.398 C 209.040 268.221,210.930 267.481,212.800 266.754 C 220.047 263.935,227.029 259.916,235.000 253.975 C 236.905 252.555,250.000 239.576,250.000 239.108 C 250.000 238.929,250.683 238.021,251.517 237.091 C 252.352 236.161,253.297 235.020,253.617 234.556 C 258.091 228.078,261.161 223.402,262.120 221.606 C 263.783 218.494,266.421 213.185,266.894 212.000 C 267.114 211.450,267.452 210.687,267.647 210.305 C 267.841 209.923,268.000 209.336,268.000 209.000 C 268.000 208.664,268.164 208.077,268.364 207.695 C 270.183 204.225,274.140 187.067,275.176 178.155 C 275.409 176.150,275.600 173.260,275.600 171.733 C 275.600 168.221,276.491 166.717,281.685 161.459 C 288.773 154.284,292.443 149.910,291.862 149.328 C 291.618 149.085,285.962 150.784,285.420 151.263 C 285.211 151.449,284.714 151.600,284.315 151.600 C 283.916 151.600,283.277 151.758,282.895 151.951 C 277.925 154.461,274.440 152.732,278.063 149.553 C 278.468 149.197,278.802 148.747,278.803 148.553 C 278.805 148.359,279.698 147.300,280.787 146.200 C 281.875 145.100,282.774 144.067,282.783 143.903 C 282.792 143.740,283.412 142.805,284.160 141.825 C 284.908 140.846,286.019 138.999,286.628 137.722 C 287.238 136.445,287.791 135.291,287.856 135.158 C 288.139 134.583,285.660 135.432,282.888 136.857 C 281.239 137.706,279.678 138.400,279.420 138.400 C 279.162 138.400,278.205 138.760,277.294 139.200 C 276.384 139.640,275.281 140.000,274.843 140.000 C 274.405 140.000,273.936 140.180,273.800 140.400 C 273.664 140.620,273.034 140.800,272.400 140.800 C 271.766 140.800,271.136 140.980,271.000 141.200 C 270.864 141.420,270.324 141.600,269.800 141.600 C 269.276 141.600,268.736 141.780,268.600 142.000 C 268.464 142.220,267.733 142.400,266.976 142.400 C 266.219 142.400,265.600 142.220,265.600 142.000 C 265.600 141.780,265.364 141.600,265.075 141.600 C 264.787 141.600,264.164 141.240,263.692 140.800 C 263.220 140.360,262.674 140.000,262.479 140.000 C 262.284 140.000,261.798 139.640,261.400 139.200 C 261.002 138.760,260.456 138.400,260.187 138.400 C 259.918 138.400,259.476 138.132,259.204 137.805 C 256.128 134.099,244.551 131.261,235.600 132.020 "
              stroke="none" fill="#ffffff" fill-rule="evenodd"></path>
        <path id="path2"
              d="M192.800 23.600 C 192.800 23.844,190.933 24.000,188.000 24.000 C 185.067 24.000,183.200 24.156,183.200 24.400 C 183.200 24.631,181.941 24.800,180.224 24.800 C 178.587 24.800,177.136 24.980,177.000 25.200 C 176.864 25.420,175.784 25.600,174.600 25.600 C 173.416 25.600,172.336 25.780,172.200 26.000 C 172.064 26.220,170.973 26.400,169.776 26.400 C 168.579 26.400,167.600 26.555,167.600 26.745 C 167.600 26.934,166.210 27.216,164.511 27.370 C 162.812 27.524,161.237 27.796,161.011 27.974 C 160.595 28.304,159.031 28.665,156.297 29.065 C 155.471 29.186,154.695 29.445,154.574 29.642 C 154.452 29.839,153.823 30.000,153.176 30.000 C 152.529 30.000,152.000 30.180,152.000 30.400 C 152.000 30.620,151.471 30.800,150.824 30.800 C 150.177 30.800,149.536 30.980,149.400 31.200 C 149.264 31.420,148.623 31.600,147.976 31.600 C 147.329 31.600,146.800 31.780,146.800 32.000 C 146.800 32.220,146.361 32.400,145.824 32.400 C 145.287 32.400,144.736 32.580,144.600 32.800 C 144.464 33.020,144.001 33.200,143.571 33.200 C 143.141 33.200,142.432 33.380,141.995 33.600 C 141.558 33.820,140.842 34.180,140.405 34.400 C 139.968 34.620,139.248 34.800,138.805 34.800 C 138.362 34.800,138.000 34.980,138.000 35.200 C 138.000 35.420,137.651 35.600,137.224 35.600 C 136.797 35.600,136.336 35.780,136.200 36.000 C 136.064 36.220,135.513 36.400,134.976 36.400 C 134.439 36.400,134.000 36.580,134.000 36.800 C 134.000 37.020,133.640 37.200,133.200 37.200 C 132.760 37.200,132.400 37.380,132.400 37.600 C 132.400 37.820,131.950 38.000,131.400 38.000 C 130.850 38.000,130.400 38.180,130.400 38.400 C 130.400 38.620,130.040 38.800,129.600 38.800 C 129.160 38.800,128.800 38.980,128.800 39.200 C 128.800 39.420,128.440 39.600,128.000 39.600 C 127.560 39.600,127.200 39.780,127.200 40.000 C 127.200 40.220,126.840 40.400,126.400 40.400 C 125.960 40.400,125.600 40.580,125.600 40.800 C 125.600 41.020,125.240 41.200,124.800 41.200 C 124.360 41.200,124.000 41.380,124.000 41.600 C 124.000 41.820,123.640 42.000,123.200 42.000 C 122.760 42.000,122.400 42.180,122.400 42.400 C 122.400 42.620,122.040 42.800,121.600 42.800 C 121.160 42.800,120.800 42.980,120.800 43.200 C 120.800 43.420,120.521 43.600,120.179 43.600 C 119.448 43.600,113.861 46.414,113.667 46.880 C 113.593 47.056,113.278 47.200,112.967 47.200 C 112.655 47.200,112.400 47.380,112.400 47.600 C 112.400 47.820,112.040 48.000,111.600 48.000 C 111.160 48.000,110.800 48.158,110.800 48.351 C 110.800 48.545,110.260 48.927,109.600 49.200 C 108.940 49.473,108.400 49.855,108.400 50.049 C 108.400 50.242,108.164 50.400,107.875 50.400 C 107.587 50.400,106.964 50.760,106.492 51.200 C 106.020 51.640,105.396 52.000,105.105 52.000 C 104.814 52.000,104.317 52.360,104.000 52.800 C 103.683 53.240,103.143 53.600,102.800 53.600 C 102.457 53.600,101.917 53.960,101.600 54.400 C 101.283 54.840,100.838 55.200,100.612 55.200 C 100.385 55.201,99.660 55.666,99.000 56.235 C 98.340 56.804,97.305 57.563,96.700 57.921 C 96.095 58.279,95.600 58.714,95.600 58.886 C 95.600 59.059,95.412 59.200,95.183 59.200 C 94.954 59.200,94.384 59.556,93.917 59.992 C 93.449 60.427,92.332 61.281,91.434 61.888 C 90.535 62.496,89.530 63.270,89.200 63.608 C 88.870 63.946,87.799 64.846,86.820 65.609 C 82.340 69.095,69.095 82.340,65.609 86.820 C 64.846 87.799,63.946 88.870,63.608 89.200 C 63.270 89.530,62.496 90.535,61.888 91.434 C 61.281 92.332,60.427 93.449,59.992 93.917 C 59.556 94.384,59.200 94.954,59.200 95.183 C 59.200 95.412,59.059 95.600,58.886 95.600 C 58.714 95.600,58.279 96.095,57.921 96.700 C 57.563 97.305,56.804 98.340,56.235 99.000 C 55.666 99.660,55.201 100.385,55.200 100.612 C 55.200 100.838,54.840 101.283,54.400 101.600 C 53.960 101.917,53.600 102.457,53.600 102.800 C 53.600 103.143,53.240 103.683,52.800 104.000 C 52.360 104.317,52.000 104.814,52.000 105.105 C 52.000 105.396,51.640 106.020,51.200 106.492 C 50.760 106.964,50.400 107.587,50.400 107.875 C 50.400 108.164,50.242 108.400,50.049 108.400 C 49.855 108.400,49.473 108.940,49.200 109.600 C 48.927 110.260,48.545 110.800,48.351 110.800 C 48.158 110.800,48.000 111.160,48.000 111.600 C 48.000 112.040,47.820 112.400,47.600 112.400 C 47.380 112.400,47.200 112.655,47.200 112.967 C 47.200 113.278,47.056 113.593,46.880 113.667 C 46.414 113.861,43.600 119.448,43.600 120.179 C 43.600 120.521,43.420 120.800,43.200 120.800 C 42.980 120.800,42.800 121.160,42.800 121.600 C 42.800 122.040,42.620 122.400,42.400 122.400 C 42.180 122.400,42.000 122.760,42.000 123.200 C 42.000 123.640,41.820 124.000,41.600 124.000 C 41.380 124.000,41.200 124.360,41.200 124.800 C 41.200 125.240,41.020 125.600,40.800 125.600 C 40.580 125.600,40.400 125.960,40.400 126.400 C 40.400 126.840,40.220 127.200,40.000 127.200 C 39.780 127.200,39.600 127.560,39.600 128.000 C 39.600 128.440,39.420 128.800,39.200 128.800 C 38.980 128.800,38.800 129.160,38.800 129.600 C 38.800 130.040,38.620 130.400,38.400 130.400 C 38.180 130.400,38.000 130.749,38.000 131.176 C 38.000 131.603,37.820 132.064,37.600 132.200 C 37.380 132.336,37.200 132.797,37.200 133.224 C 37.200 133.651,37.020 134.000,36.800 134.000 C 36.580 134.000,36.400 134.349,36.400 134.776 C 36.400 135.203,36.220 135.664,36.000 135.800 C 35.780 135.936,35.600 136.487,35.600 137.024 C 35.600 137.561,35.420 138.000,35.200 138.000 C 34.980 138.000,34.800 138.362,34.800 138.805 C 34.800 139.248,34.620 139.968,34.400 140.405 C 34.180 140.842,33.820 141.558,33.600 141.995 C 33.380 142.432,33.200 143.141,33.200 143.571 C 33.200 144.001,33.020 144.464,32.800 144.600 C 32.580 144.736,32.400 145.287,32.400 145.824 C 32.400 146.361,32.220 146.800,32.000 146.800 C 31.780 146.800,31.600 147.329,31.600 147.976 C 31.600 148.623,31.420 149.264,31.200 149.400 C 30.980 149.536,30.800 150.177,30.800 150.824 C 30.800 151.471,30.620 152.000,30.400 152.000 C 30.180 152.000,30.000 152.529,30.000 153.176 C 30.000 153.823,29.839 154.452,29.642 154.574 C 29.445 154.695,29.190 155.471,29.075 156.297 C 28.960 157.124,28.679 158.520,28.451 159.400 C 27.585 162.743,27.234 164.650,27.217 166.100 C 27.208 166.925,27.020 167.600,26.800 167.600 C 26.580 167.600,26.400 168.579,26.400 169.776 C 26.400 170.973,26.220 172.064,26.000 172.200 C 25.780 172.336,25.600 173.416,25.600 174.600 C 25.600 175.784,25.420 176.864,25.200 177.000 C 24.980 177.136,24.800 178.587,24.800 180.224 C 24.800 181.941,24.631 183.200,24.400 183.200 C 24.156 183.200,24.000 185.067,24.000 188.000 C 24.000 190.933,23.844 192.800,23.600 192.800 C 23.054 192.800,23.054 213.063,23.600 213.400 C 23.829 213.542,24.000 215.604,24.000 218.224 C 24.000 221.008,24.157 222.800,24.400 222.800 C 24.633 222.800,24.800 224.133,24.800 226.000 C 24.800 227.867,24.967 229.200,25.200 229.200 C 25.422 229.200,25.600 230.267,25.600 231.600 C 25.600 232.933,25.778 234.000,26.000 234.000 C 26.220 234.000,26.400 234.990,26.400 236.200 C 26.400 237.410,26.559 238.400,26.753 238.400 C 26.947 238.400,27.235 239.782,27.394 241.471 C 27.552 243.160,27.822 244.825,27.993 245.171 C 28.416 246.023,29.200 249.424,29.200 250.406 C 29.200 250.843,29.380 251.200,29.600 251.200 C 29.820 251.200,30.000 251.819,30.000 252.576 C 30.000 253.333,30.180 254.064,30.400 254.200 C 30.620 254.336,30.800 254.876,30.800 255.400 C 30.800 255.924,30.980 256.464,31.200 256.600 C 31.420 256.736,31.600 257.287,31.600 257.824 C 31.600 258.361,31.780 258.800,32.000 258.800 C 32.220 258.800,32.400 259.340,32.400 260.000 C 32.400 260.660,32.580 261.200,32.800 261.200 C 33.020 261.200,33.200 261.740,33.200 262.400 C 33.200 263.060,33.380 263.600,33.600 263.600 C 33.820 263.600,34.000 264.140,34.000 264.800 C 34.000 265.460,34.180 266.000,34.400 266.000 C 34.620 266.000,34.800 266.272,34.800 266.605 C 34.800 266.938,34.959 267.523,35.153 267.905 C 35.348 268.287,35.729 269.140,36.000 269.800 C 36.271 270.460,36.652 271.313,36.847 271.695 C 37.041 272.077,37.200 272.662,37.200 272.995 C 37.200 273.328,37.380 273.600,37.600 273.600 C 37.820 273.600,38.000 273.960,38.000 274.400 C 38.000 274.840,38.180 275.200,38.400 275.200 C 38.620 275.200,38.800 275.549,38.800 275.976 C 38.800 276.403,38.980 276.864,39.200 277.000 C 39.420 277.136,39.600 277.687,39.600 278.224 C 39.600 278.761,39.780 279.200,40.000 279.200 C 40.220 279.200,40.400 279.560,40.400 280.000 C 40.400 280.440,40.580 280.800,40.800 280.800 C 41.020 280.800,41.200 281.160,41.200 281.600 C 41.200 282.040,41.380 282.400,41.600 282.400 C 41.820 282.400,42.000 282.760,42.000 283.200 C 42.000 283.640,42.180 284.000,42.400 284.000 C 42.620 284.000,42.800 284.360,42.800 284.800 C 42.800 285.240,42.960 285.600,43.157 285.600 C 43.353 285.600,43.627 286.055,43.767 286.611 C 43.906 287.167,44.556 288.492,45.210 289.555 C 45.865 290.618,46.400 291.694,46.400 291.944 C 46.400 292.195,46.559 292.400,46.753 292.400 C 46.948 292.400,47.207 292.715,47.329 293.100 C 47.546 293.787,48.805 296.006,49.201 296.400 C 49.311 296.510,49.656 297.095,49.968 297.700 C 50.280 298.305,50.685 298.800,50.868 298.800 C 51.050 298.800,51.200 298.990,51.200 299.222 C 51.200 299.454,51.920 300.704,52.800 302.000 C 53.680 303.296,54.400 304.506,54.400 304.690 C 54.400 304.873,54.760 305.283,55.200 305.600 C 55.640 305.917,56.000 306.407,56.000 306.688 C 56.000 306.970,56.141 307.200,56.314 307.200 C 56.486 307.200,56.949 307.745,57.343 308.411 C 57.736 309.077,58.495 310.059,59.029 310.593 C 59.563 311.127,60.000 311.750,60.000 311.979 C 60.000 312.345,60.951 313.616,62.226 314.953 C 62.460 315.199,62.833 315.725,63.054 316.121 C 63.728 317.331,67.148 321.090,72.400 326.393 C 75.150 329.170,77.850 331.973,78.400 332.621 C 79.576 334.007,83.387 337.538,86.149 339.802 C 87.221 340.681,88.571 341.805,89.149 342.300 C 89.727 342.794,90.353 343.199,90.540 343.200 C 90.726 343.200,91.383 343.740,92.000 344.400 C 92.617 345.060,93.227 345.600,93.356 345.600 C 93.589 345.600,94.800 346.535,95.816 347.500 C 96.106 347.775,96.454 348.000,96.590 348.000 C 96.725 348.000,97.286 348.450,97.836 349.000 C 98.386 349.550,98.980 350.000,99.156 350.000 C 99.332 350.000,99.999 350.450,100.638 351.000 C 101.277 351.549,102.025 351.999,102.300 352.000 C 102.575 352.000,102.800 352.150,102.800 352.332 C 102.800 352.515,103.295 352.920,103.900 353.232 C 104.505 353.545,105.349 354.115,105.775 354.500 C 106.202 354.885,106.787 355.200,107.075 355.200 C 107.364 355.200,107.600 355.335,107.600 355.501 C 107.600 355.666,108.995 356.521,110.700 357.401 C 112.405 358.280,113.860 359.135,113.933 359.300 C 114.007 359.465,114.322 359.600,114.633 359.600 C 114.945 359.600,115.200 359.780,115.200 360.000 C 115.200 360.220,115.560 360.400,116.000 360.400 C 116.440 360.400,116.800 360.580,116.800 360.800 C 116.800 361.020,117.160 361.200,117.600 361.200 C 118.040 361.200,118.400 361.380,118.400 361.600 C 118.400 361.820,118.760 362.000,119.200 362.000 C 119.640 362.000,120.000 362.138,120.000 362.306 C 120.000 362.474,120.675 362.918,121.500 363.294 C 122.325 363.669,123.450 364.230,124.000 364.542 C 126.206 365.791,130.144 367.600,130.656 367.600 C 130.955 367.600,131.200 367.780,131.200 368.000 C 131.200 368.220,131.472 368.400,131.805 368.400 C 132.138 368.400,132.723 368.559,133.105 368.753 C 133.821 369.117,135.446 369.811,137.200 370.500 C 137.750 370.716,138.513 371.052,138.895 371.247 C 139.277 371.441,139.952 371.600,140.395 371.600 C 140.838 371.600,141.200 371.780,141.200 372.000 C 141.200 372.220,141.552 372.400,141.981 372.400 C 142.411 372.400,143.266 372.602,143.881 372.850 C 144.497 373.097,145.360 373.435,145.800 373.600 C 146.240 373.765,147.088 374.096,147.684 374.334 C 148.280 374.573,149.675 374.889,150.784 375.036 C 151.893 375.183,152.800 375.460,152.800 375.652 C 152.800 375.843,153.520 376.000,154.400 376.000 C 155.280 376.000,156.000 376.180,156.000 376.400 C 156.000 376.620,156.540 376.800,157.200 376.800 C 157.860 376.800,158.400 376.980,158.400 377.200 C 158.400 377.420,159.210 377.600,160.200 377.600 C 161.190 377.600,162.000 377.780,162.000 378.000 C 162.000 378.220,162.709 378.400,163.576 378.400 C 164.443 378.400,165.264 378.580,165.400 378.800 C 165.536 379.020,166.436 379.200,167.400 379.200 C 168.364 379.200,169.264 379.380,169.400 379.600 C 169.536 379.820,170.627 380.000,171.824 380.000 C 173.021 380.000,174.000 380.180,174.000 380.400 C 174.000 380.625,175.125 380.800,176.576 380.800 C 177.993 380.800,179.264 380.980,179.400 381.200 C 179.536 381.420,181.066 381.600,182.800 381.600 C 184.534 381.600,186.064 381.780,186.200 382.000 C 186.351 382.244,189.471 382.400,194.224 382.400 C 198.501 382.400,202.000 382.535,202.000 382.700 C 202.000 382.865,202.450 383.000,203.000 383.000 C 203.550 383.000,204.000 382.865,204.000 382.700 C 204.000 382.535,207.510 382.400,211.800 382.400 C 216.733 382.400,219.600 382.253,219.600 382.000 C 219.600 381.765,220.992 381.600,222.976 381.600 C 224.833 381.600,226.464 381.420,226.600 381.200 C 226.736 380.980,227.996 380.800,229.400 380.800 C 230.804 380.800,232.064 380.620,232.200 380.400 C 232.336 380.180,233.326 380.000,234.400 380.000 C 235.474 380.000,236.464 379.820,236.600 379.600 C 236.736 379.380,237.636 379.200,238.600 379.200 C 239.564 379.200,240.464 379.020,240.600 378.800 C 240.736 378.580,241.557 378.400,242.424 378.400 C 243.291 378.400,244.000 378.220,244.000 378.000 C 244.000 377.780,244.720 377.600,245.600 377.600 C 246.480 377.600,247.200 377.420,247.200 377.200 C 247.200 376.980,247.920 376.800,248.800 376.800 C 249.680 376.800,250.400 376.620,250.400 376.400 C 250.400 376.180,251.030 376.000,251.800 376.000 C 252.570 376.000,253.200 375.843,253.200 375.652 C 253.200 375.460,254.141 375.178,255.290 375.026 C 256.440 374.873,257.565 374.614,257.790 374.449 C 258.016 374.284,259.550 373.734,261.200 373.227 C 264.047 372.352,264.629 372.148,267.000 371.200 C 269.447 370.221,270.245 369.884,270.895 369.553 C 271.277 369.359,271.862 369.200,272.195 369.200 C 272.528 369.200,272.800 369.020,272.800 368.800 C 272.800 368.580,273.079 368.400,273.419 368.400 C 273.760 368.400,274.784 368.040,275.694 367.600 C 276.605 367.160,277.586 366.800,277.875 366.800 C 278.164 366.800,278.400 366.620,278.400 366.400 C 278.400 366.180,278.760 366.000,279.200 366.000 C 279.640 366.000,280.000 365.820,280.000 365.600 C 280.000 365.380,280.360 365.200,280.800 365.200 C 281.240 365.200,281.600 365.020,281.600 364.800 C 281.600 364.580,281.960 364.400,282.400 364.400 C 282.840 364.400,283.200 364.220,283.200 364.000 C 283.200 363.780,283.560 363.600,284.000 363.600 C 284.440 363.600,284.800 363.420,284.800 363.200 C 284.800 362.980,285.160 362.800,285.600 362.800 C 286.040 362.800,286.400 362.620,286.400 362.400 C 286.400 362.180,286.760 362.000,287.200 362.000 C 287.640 362.000,288.000 361.864,288.000 361.698 C 288.000 361.531,288.585 361.140,289.300 360.828 C 290.015 360.516,290.891 359.932,291.247 359.530 C 291.603 359.129,292.153 358.800,292.470 358.800 C 292.788 358.800,294.030 358.215,295.232 357.500 C 296.434 356.785,297.908 355.945,298.508 355.632 C 299.109 355.320,299.600 354.915,299.600 354.732 C 299.600 354.550,299.836 354.400,300.125 354.400 C 300.413 354.400,300.998 354.085,301.425 353.700 C 301.851 353.315,302.695 352.745,303.300 352.432 C 303.905 352.120,304.400 351.715,304.400 351.532 C 304.400 351.350,304.670 351.200,305.000 351.200 C 305.330 351.200,305.600 351.059,305.600 350.886 C 305.600 350.714,306.145 350.251,306.811 349.857 C 307.477 349.464,308.459 348.705,308.993 348.171 C 309.527 347.637,310.170 347.200,310.421 347.200 C 310.673 347.200,311.383 346.660,312.000 346.000 C 312.617 345.340,313.297 344.800,313.512 344.800 C 313.727 344.800,314.615 344.125,315.485 343.300 C 316.354 342.475,317.501 341.548,318.033 341.240 C 321.183 339.418,339.418 321.183,341.240 318.033 C 341.548 317.501,342.475 316.354,343.300 315.485 C 344.125 314.615,344.800 313.727,344.800 313.512 C 344.800 313.297,345.340 312.617,346.000 312.000 C 346.660 311.383,347.200 310.673,347.200 310.421 C 347.200 310.170,347.637 309.527,348.171 308.993 C 348.705 308.459,349.464 307.477,349.857 306.811 C 350.251 306.145,350.714 305.600,350.886 305.600 C 351.059 305.600,351.200 305.330,351.200 305.000 C 351.200 304.670,351.350 304.400,351.532 304.400 C 351.715 304.400,352.120 303.905,352.432 303.300 C 352.745 302.695,353.315 301.851,353.700 301.425 C 354.085 300.998,354.400 300.413,354.400 300.125 C 354.400 299.836,354.550 299.600,354.732 299.600 C 354.915 299.600,355.320 299.109,355.632 298.508 C 355.945 297.908,356.785 296.434,357.500 295.232 C 358.215 294.030,358.800 292.788,358.800 292.470 C 358.800 292.153,359.129 291.603,359.530 291.247 C 359.932 290.891,360.516 290.015,360.828 289.300 C 361.140 288.585,361.531 288.000,361.698 288.000 C 361.864 288.000,362.000 287.640,362.000 287.200 C 362.000 286.760,362.180 286.400,362.400 286.400 C 362.620 286.400,362.800 286.040,362.800 285.600 C 362.800 285.160,362.980 284.800,363.200 284.800 C 363.420 284.800,363.600 284.440,363.600 284.000 C 363.600 283.560,363.780 283.200,364.000 283.200 C 364.220 283.200,364.400 282.840,364.400 282.400 C 364.400 281.960,364.580 281.600,364.800 281.600 C 365.020 281.600,365.200 281.240,365.200 280.800 C 365.200 280.360,365.380 280.000,365.600 280.000 C 365.820 280.000,366.000 279.640,366.000 279.200 C 366.000 278.760,366.180 278.400,366.400 278.400 C 366.620 278.400,366.800 278.128,366.800 277.795 C 366.800 277.462,366.980 276.832,367.200 276.395 C 367.420 275.958,367.780 275.242,368.000 274.805 C 368.220 274.368,368.400 273.738,368.400 273.405 C 368.400 273.072,368.580 272.800,368.800 272.800 C 369.020 272.800,369.200 272.528,369.200 272.195 C 369.200 271.862,369.359 271.277,369.553 270.895 C 369.953 270.108,370.763 268.194,371.200 267.000 C 371.361 266.560,371.676 265.750,371.899 265.200 C 372.122 264.650,372.720 262.850,373.227 261.200 C 373.734 259.550,374.284 258.016,374.449 257.790 C 374.614 257.565,374.873 256.440,375.026 255.290 C 375.178 254.141,375.460 253.200,375.652 253.200 C 375.843 253.200,376.000 252.570,376.000 251.800 C 376.000 251.030,376.180 250.400,376.400 250.400 C 376.620 250.400,376.800 249.680,376.800 248.800 C 376.800 247.920,376.980 247.200,377.200 247.200 C 377.420 247.200,377.600 246.480,377.600 245.600 C 377.600 244.720,377.780 244.000,378.000 244.000 C 378.220 244.000,378.400 243.291,378.400 242.424 C 378.400 241.557,378.580 240.736,378.800 240.600 C 379.020 240.464,379.200 239.564,379.200 238.600 C 379.200 237.636,379.380 236.736,379.600 236.600 C 379.820 236.464,380.000 235.474,380.000 234.400 C 380.000 233.326,380.180 232.336,380.400 232.200 C 380.620 232.064,380.800 230.804,380.800 229.400 C 380.800 227.996,380.980 226.736,381.200 226.600 C 381.420 226.464,381.600 224.833,381.600 222.976 C 381.600 220.992,381.765 219.600,382.000 219.600 C 382.253 219.600,382.400 216.733,382.400 211.800 C 382.400 207.510,382.535 204.000,382.700 204.000 C 382.865 204.000,383.000 203.550,383.000 203.000 C 383.000 202.450,382.865 202.000,382.700 202.000 C 382.535 202.000,382.400 198.501,382.400 194.224 C 382.400 189.471,382.244 186.351,382.000 186.200 C 381.780 186.064,381.600 184.534,381.600 182.800 C 381.600 181.066,381.420 179.536,381.200 179.400 C 380.980 179.264,380.800 177.993,380.800 176.576 C 380.800 175.125,380.625 174.000,380.400 174.000 C 380.180 174.000,380.000 173.021,380.000 171.824 C 380.000 170.627,379.820 169.536,379.600 169.400 C 379.380 169.264,379.200 168.364,379.200 167.400 C 379.200 166.436,379.020 165.536,378.800 165.400 C 378.580 165.264,378.400 164.443,378.400 163.576 C 378.400 162.709,378.220 162.000,378.000 162.000 C 377.780 162.000,377.600 161.190,377.600 160.200 C 377.600 159.210,377.420 158.400,377.200 158.400 C 376.980 158.400,376.800 157.860,376.800 157.200 C 376.800 156.540,376.620 156.000,376.400 156.000 C 376.180 156.000,376.000 155.280,376.000 154.400 C 376.000 153.520,375.843 152.800,375.652 152.800 C 375.460 152.800,375.183 151.893,375.036 150.784 C 374.889 149.675,374.573 148.280,374.334 147.684 C 374.096 147.088,373.765 146.240,373.600 145.800 C 373.435 145.360,373.097 144.497,372.850 143.881 C 372.602 143.266,372.400 142.411,372.400 141.981 C 372.400 141.552,372.220 141.200,372.000 141.200 C 371.780 141.200,371.600 140.838,371.600 140.395 C 371.600 139.952,371.441 139.277,371.247 138.895 C 370.897 138.208,370.327 136.849,369.654 135.100 C 369.463 134.605,369.125 133.750,368.901 133.200 C 368.259 131.615,365.175 125.101,364.547 124.000 C 364.233 123.450,363.669 122.325,363.294 121.500 C 362.918 120.675,362.474 120.000,362.306 120.000 C 362.138 120.000,362.000 119.640,362.000 119.200 C 362.000 118.760,361.820 118.400,361.600 118.400 C 361.380 118.400,361.200 118.040,361.200 117.600 C 361.200 117.160,361.020 116.800,360.800 116.800 C 360.580 116.800,360.400 116.440,360.400 116.000 C 360.400 115.560,360.220 115.200,360.000 115.200 C 359.780 115.200,359.600 114.945,359.600 114.633 C 359.600 114.322,359.465 114.007,359.300 113.933 C 359.135 113.860,358.280 112.405,357.401 110.700 C 356.521 108.995,355.666 107.600,355.501 107.600 C 355.335 107.600,355.200 107.364,355.200 107.075 C 355.200 106.787,354.885 106.202,354.500 105.775 C 354.115 105.349,353.545 104.505,353.232 103.900 C 352.920 103.295,352.515 102.800,352.332 102.800 C 352.150 102.800,352.000 102.575,352.000 102.300 C 351.999 102.025,351.549 101.277,351.000 100.638 C 350.450 99.999,350.000 99.332,350.000 99.156 C 350.000 98.980,349.550 98.386,349.000 97.836 C 348.450 97.286,348.000 96.740,348.000 96.623 C 348.000 96.408,347.033 95.167,346.100 94.184 C 345.825 93.894,345.600 93.537,345.600 93.389 C 345.600 93.242,345.060 92.617,344.400 92.000 C 343.740 91.383,343.200 90.726,343.200 90.540 C 343.199 90.353,342.794 89.727,342.300 89.149 C 341.805 88.571,340.681 87.221,339.802 86.149 C 337.538 83.387,334.007 79.576,332.621 78.400 C 331.973 77.850,329.170 75.150,326.393 72.400 C 321.163 67.221,317.336 63.732,316.166 63.077 C 315.506 62.707,314.017 61.505,312.975 60.500 C 312.690 60.225,312.256 60.000,312.010 60.000 C 311.765 60.000,311.127 59.563,310.593 59.029 C 310.059 58.495,309.077 57.736,308.411 57.343 C 307.745 56.949,307.200 56.486,307.200 56.314 C 307.200 56.141,306.970 56.000,306.688 56.000 C 306.407 56.000,305.917 55.640,305.600 55.200 C 305.283 54.760,304.873 54.400,304.690 54.400 C 304.506 54.400,303.296 53.680,302.000 52.800 C 300.704 51.920,299.454 51.200,299.222 51.200 C 298.990 51.200,298.800 51.050,298.800 50.868 C 298.800 50.685,298.305 50.280,297.700 49.968 C 297.095 49.656,296.510 49.311,296.400 49.201 C 296.006 48.805,293.787 47.546,293.100 47.329 C 292.715 47.207,292.400 46.948,292.400 46.753 C 292.400 46.559,292.195 46.400,291.944 46.400 C 291.694 46.400,290.618 45.865,289.555 45.210 C 288.492 44.556,287.167 43.906,286.611 43.767 C 286.055 43.627,285.600 43.353,285.600 43.157 C 285.600 42.960,285.240 42.800,284.800 42.800 C 284.360 42.800,284.000 42.620,284.000 42.400 C 284.000 42.180,283.640 42.000,283.200 42.000 C 282.760 42.000,282.400 41.820,282.400 41.600 C 282.400 41.380,282.040 41.200,281.600 41.200 C 281.160 41.200,280.800 41.020,280.800 40.800 C 280.800 40.580,280.440 40.400,280.000 40.400 C 279.560 40.400,279.200 40.220,279.200 40.000 C 279.200 39.780,278.761 39.600,278.224 39.600 C 277.687 39.600,277.136 39.420,277.000 39.200 C 276.864 38.980,276.403 38.800,275.976 38.800 C 275.549 38.800,275.200 38.620,275.200 38.400 C 275.200 38.180,274.840 38.000,274.400 38.000 C 273.960 38.000,273.600 37.820,273.600 37.600 C 273.600 37.380,273.328 37.200,272.995 37.200 C 272.662 37.200,272.077 37.041,271.695 36.847 C 271.313 36.652,270.460 36.271,269.800 36.000 C 269.140 35.729,268.287 35.348,267.905 35.153 C 267.523 34.959,266.938 34.800,266.605 34.800 C 266.272 34.800,266.000 34.620,266.000 34.400 C 266.000 34.180,265.460 34.000,264.800 34.000 C 264.140 34.000,263.600 33.820,263.600 33.600 C 263.600 33.380,263.060 33.200,262.400 33.200 C 261.740 33.200,261.200 33.020,261.200 32.800 C 261.200 32.580,260.660 32.400,260.000 32.400 C 259.340 32.400,258.800 32.220,258.800 32.000 C 258.800 31.780,258.361 31.600,257.824 31.600 C 257.287 31.600,256.736 31.420,256.600 31.200 C 256.464 30.980,255.823 30.800,255.176 30.800 C 254.529 30.800,254.000 30.620,254.000 30.400 C 254.000 30.180,253.370 30.000,252.600 30.000 C 251.830 30.000,251.200 29.820,251.200 29.600 C 251.200 29.380,250.843 29.200,250.406 29.200 C 249.424 29.200,246.023 28.416,245.171 27.993 C 244.825 27.822,243.160 27.552,241.471 27.394 C 239.782 27.235,238.400 26.947,238.400 26.753 C 238.400 26.559,237.410 26.400,236.200 26.400 C 234.990 26.400,234.000 26.220,234.000 26.000 C 234.000 25.778,232.933 25.600,231.600 25.600 C 230.267 25.600,229.200 25.422,229.200 25.200 C 229.200 24.967,227.867 24.800,226.000 24.800 C 224.133 24.800,222.800 24.633,222.800 24.400 C 222.800 24.157,221.008 24.000,218.224 24.000 C 215.604 24.000,213.542 23.829,213.400 23.600 C 213.246 23.350,209.329 23.200,202.976 23.200 C 196.459 23.200,192.800 23.344,192.800 23.600 M244.800 131.788 C 249.183 132.122,256.524 134.978,259.183 137.384 C 259.557 137.723,260.046 138.000,260.270 138.000 C 260.493 138.000,261.002 138.360,261.400 138.800 C 261.798 139.240,262.344 139.600,262.613 139.600 C 262.882 139.600,263.323 139.866,263.593 140.192 C 264.762 141.601,268.031 142.520,268.600 141.600 C 268.736 141.380,269.276 141.200,269.800 141.200 C 270.324 141.200,270.864 141.020,271.000 140.800 C 271.136 140.580,271.867 140.400,272.624 140.400 C 273.381 140.400,274.000 140.220,274.000 140.000 C 274.000 139.780,274.445 139.600,274.988 139.600 C 275.531 139.600,276.617 139.240,277.400 138.800 C 278.183 138.360,279.067 138.000,279.364 138.000 C 279.660 138.000,281.230 137.299,282.851 136.442 C 285.623 134.978,288.400 134.043,288.400 134.574 C 288.400 134.704,288.235 135.123,288.032 135.505 C 287.830 135.887,287.090 137.370,286.387 138.800 C 285.685 140.230,284.681 141.860,284.155 142.422 C 283.630 142.984,283.200 143.621,283.200 143.837 C 283.200 144.053,282.300 145.117,281.200 146.200 C 280.100 147.283,279.200 148.368,279.200 148.610 C 279.200 148.852,278.660 149.568,278.000 150.200 C 276.192 151.932,276.385 152.800,278.576 152.800 C 279.553 152.800,280.464 152.620,280.600 152.400 C 280.736 152.180,281.251 152.000,281.744 152.000 C 282.237 152.000,282.811 151.848,283.020 151.663 C 283.229 151.477,284.480 151.008,285.800 150.619 C 287.120 150.231,288.993 149.655,289.963 149.340 C 294.465 147.876,293.120 149.966,282.000 161.717 C 275.855 168.210,276.000 167.952,276.000 172.395 C 276.000 174.532,275.837 176.000,275.600 176.000 C 275.365 176.000,275.200 177.392,275.200 179.376 C 275.200 181.233,275.020 182.864,274.800 183.000 C 274.580 183.136,274.400 184.216,274.400 185.400 C 274.400 186.584,274.220 187.664,274.000 187.800 C 273.780 187.936,273.600 188.847,273.600 189.824 C 273.600 190.801,273.438 191.600,273.240 191.600 C 273.042 191.600,272.781 192.365,272.659 193.300 C 272.234 196.560,271.909 198.009,271.556 198.227 C 271.360 198.348,271.200 198.839,271.200 199.319 C 271.200 200.229,268.601 208.887,267.966 210.095 C 267.764 210.477,267.600 210.997,267.600 211.250 C 267.600 211.722,262.822 221.638,262.421 222.000 C 262.299 222.110,261.944 222.695,261.632 223.300 C 261.320 223.905,260.915 224.400,260.732 224.400 C 260.550 224.400,260.400 224.720,260.400 225.112 C 260.400 225.503,260.040 226.083,259.600 226.400 C 259.160 226.717,258.800 227.297,258.800 227.688 C 258.800 228.080,258.650 228.400,258.468 228.400 C 258.285 228.400,257.880 228.895,257.568 229.500 C 257.256 230.105,256.906 230.690,256.789 230.800 C 256.588 230.990,253.286 235.320,250.521 239.021 C 249.136 240.874,236.435 253.600,235.971 253.600 C 235.816 253.600,234.993 254.226,234.144 254.991 C 233.295 255.756,232.441 256.386,232.247 256.391 C 232.053 256.396,231.603 256.716,231.247 257.103 C 230.891 257.489,230.105 258.060,229.500 258.370 C 228.895 258.681,228.400 259.085,228.400 259.268 C 228.400 259.450,228.122 259.600,227.783 259.600 C 227.444 259.600,226.780 259.960,226.308 260.400 C 225.836 260.840,225.213 261.200,224.925 261.200 C 224.636 261.200,224.400 261.380,224.400 261.600 C 224.400 261.820,224.055 262.000,223.633 262.000 C 223.212 262.000,222.807 262.137,222.733 262.305 C 222.117 263.714,206.677 269.786,200.000 271.246 C 199.010 271.462,197.480 271.829,196.600 272.061 C 195.720 272.292,194.010 272.569,192.800 272.676 C 191.590 272.783,190.429 273.035,190.220 273.235 C 190.011 273.436,188.537 273.600,186.944 273.600 C 185.351 273.600,183.936 273.780,183.800 274.000 C 183.646 274.250,179.737 274.400,173.400 274.400 C 167.063 274.400,163.154 274.250,163.000 274.000 C 162.864 273.780,161.413 273.600,159.776 273.600 C 158.139 273.600,156.800 273.436,156.800 273.236 C 156.800 273.035,155.765 272.785,154.500 272.679 C 153.235 272.573,151.480 272.296,150.600 272.063 C 149.720 271.830,148.190 271.462,147.200 271.245 C 143.203 270.371,133.914 266.961,130.488 265.109 C 129.766 264.719,128.926 264.400,128.621 264.400 C 128.316 264.400,128.007 264.265,127.933 264.100 C 127.741 263.668,124.428 262.000,123.762 262.000 C 123.453 262.000,123.200 261.862,123.200 261.694 C 123.200 261.526,122.480 261.077,121.600 260.696 C 118.282 259.258,120.211 258.463,127.600 258.225 C 135.208 257.979,139.311 257.624,139.780 257.169 C 139.989 256.966,140.923 256.800,141.856 256.800 C 142.789 256.800,143.664 256.620,143.800 256.400 C 143.936 256.180,144.667 256.000,145.424 256.000 C 146.181 256.000,146.800 255.820,146.800 255.600 C 146.800 255.380,147.242 255.200,147.781 255.200 C 148.321 255.200,149.266 254.998,149.881 254.750 C 150.497 254.503,151.450 254.122,152.000 253.904 C 152.550 253.685,153.313 253.348,153.695 253.153 C 154.077 252.959,154.608 252.800,154.876 252.800 C 155.689 252.800,165.504 247.751,166.707 246.714 C 167.088 246.385,167.963 245.876,168.652 245.582 C 170.033 244.992,169.657 244.000,168.052 244.000 C 167.609 244.000,167.136 243.820,167.000 243.600 C 166.864 243.380,166.324 243.200,165.800 243.200 C 165.276 243.200,164.736 243.020,164.600 242.800 C 164.464 242.580,163.913 242.400,163.376 242.400 C 162.839 242.400,162.400 242.220,162.400 242.000 C 162.400 241.780,161.860 241.600,161.200 241.600 C 160.540 241.600,160.000 241.420,160.000 241.200 C 160.000 240.980,159.640 240.800,159.200 240.800 C 158.760 240.800,158.400 240.620,158.400 240.400 C 158.400 240.180,158.147 240.000,157.838 240.000 C 157.305 240.000,154.026 238.442,153.600 237.986 C 153.490 237.869,152.407 237.122,151.192 236.326 C 148.851 234.792,142.000 228.272,142.000 227.578 C 142.000 227.352,141.640 226.780,141.200 226.308 C 140.760 225.836,140.400 225.213,140.400 224.925 C 140.400 224.636,140.220 224.400,140.000 224.400 C 139.780 224.400,139.600 224.051,139.600 223.624 C 139.600 223.197,139.420 222.736,139.200 222.600 C 138.865 222.393,138.594 218.912,138.900 218.746 C 138.955 218.716,141.880 218.581,145.400 218.446 L 151.800 218.200 149.800 217.148 C 148.700 216.570,146.570 215.461,145.066 214.684 C 143.563 213.908,141.809 212.806,141.170 212.236 C 140.530 211.666,139.861 211.200,139.683 211.200 C 139.188 211.200,132.557 204.388,131.506 202.800 C 129.815 200.246,128.800 198.361,128.800 197.777 C 128.800 197.460,128.620 197.200,128.400 197.200 C 128.180 197.200,128.000 196.660,128.000 196.000 C 128.000 195.340,127.820 194.800,127.600 194.800 C 127.380 194.800,127.200 194.260,127.200 193.600 C 127.200 192.940,127.020 192.400,126.800 192.400 C 126.580 192.400,126.400 191.860,126.400 191.200 C 126.400 190.540,126.220 190.000,126.000 190.000 C 125.780 190.000,125.600 189.406,125.600 188.680 C 125.600 187.954,125.409 187.169,125.176 186.936 C 124.942 186.702,124.807 185.631,124.876 184.556 L 125.000 182.600 126.436 182.681 C 127.226 182.725,129.781 183.400,132.115 184.181 C 138.940 186.464,139.985 185.248,135.189 180.600 C 133.695 179.152,131.200 175.870,131.200 175.352 C 131.200 175.238,130.660 174.359,130.000 173.400 C 129.340 172.441,128.800 171.379,128.800 171.040 C 128.800 170.701,128.440 169.783,128.000 169.000 C 127.560 168.217,127.200 167.052,127.200 166.411 C 127.200 165.771,127.020 165.136,126.800 165.000 C 126.580 164.864,126.400 163.953,126.400 162.976 C 126.400 161.999,126.220 161.200,126.000 161.200 C 125.756 161.200,125.600 159.341,125.600 156.424 C 125.600 153.671,125.769 151.542,126.000 151.400 C 126.220 151.264,126.400 150.184,126.400 149.000 C 126.400 147.816,126.580 146.736,126.800 146.600 C 127.020 146.464,127.200 145.859,127.200 145.256 C 127.200 144.653,127.352 143.989,127.537 143.780 C 127.723 143.571,128.177 142.410,128.547 141.200 C 129.723 137.352,129.424 137.279,135.108 142.803 C 141.212 148.735,145.435 152.497,146.411 152.872 C 146.800 153.022,147.232 153.328,147.370 153.552 C 147.754 154.173,152.354 157.600,152.804 157.600 C 153.022 157.600,153.200 157.750,153.200 157.932 C 153.200 158.115,153.695 158.520,154.300 158.832 C 154.905 159.145,155.749 159.715,156.175 160.100 C 156.602 160.485,157.187 160.800,157.475 160.800 C 157.764 160.800,158.000 160.980,158.000 161.200 C 158.000 161.420,158.360 161.600,158.800 161.600 C 159.240 161.600,159.600 161.762,159.600 161.960 C 159.600 162.335,170.008 167.600,170.751 167.600 C 170.984 167.600,171.817 167.960,172.600 168.400 C 173.383 168.840,174.368 169.200,174.789 169.200 C 175.209 169.200,175.664 169.380,175.800 169.600 C 175.936 169.820,176.476 170.000,177.000 170.000 C 177.524 170.000,178.064 170.180,178.200 170.400 C 178.336 170.620,178.876 170.800,179.400 170.800 C 179.924 170.800,180.464 170.980,180.600 171.200 C 180.736 171.420,181.276 171.600,181.800 171.600 C 182.324 171.600,182.864 171.780,183.000 172.000 C 183.136 172.220,183.856 172.400,184.600 172.400 C 185.344 172.400,186.052 172.561,186.174 172.758 C 186.385 173.100,187.656 173.356,191.600 173.851 C 192.590 173.976,193.571 174.240,193.780 174.439 C 193.989 174.637,195.283 174.800,196.656 174.800 C 198.029 174.800,199.264 174.980,199.400 175.200 C 199.536 175.420,200.537 175.600,201.624 175.600 L 203.600 175.600 203.600 168.024 C 203.600 163.404,203.756 160.351,204.000 160.200 C 204.220 160.064,204.400 159.344,204.400 158.600 C 204.400 157.856,204.580 157.136,204.800 157.000 C 205.020 156.864,205.200 156.450,205.200 156.079 C 205.200 155.198,208.677 148.200,209.423 147.581 C 209.740 147.318,210.000 146.869,210.000 146.584 C 210.000 146.300,210.142 146.007,210.315 145.933 C 210.488 145.860,211.253 144.997,212.015 144.016 C 213.736 141.798,215.070 140.400,215.465 140.400 C 215.631 140.400,216.428 139.754,217.237 138.964 C 218.663 137.571,220.261 136.580,224.000 134.768 C 224.990 134.288,226.097 133.749,226.461 133.569 C 228.797 132.413,237.413 131.115,240.600 131.438 C 241.260 131.505,243.150 131.663,244.800 131.788 "
              stroke="none" fill="#598dca" fill-rule="evenodd"></path>
        <path id="path3"
              d="M234.691 131.889 C 235.401 131.977,236.661 131.979,237.491 131.892 C 238.321 131.805,237.740 131.733,236.200 131.731 C 234.660 131.729,233.981 131.800,234.691 131.889 M241.900 131.889 C 242.615 131.978,243.785 131.978,244.500 131.889 C 245.215 131.801,244.630 131.728,243.200 131.728 C 241.770 131.728,241.185 131.801,241.900 131.889 M230.400 132.400 C 229.056 132.831,230.508 132.831,232.200 132.400 C 233.278 132.126,233.298 132.094,232.400 132.087 C 231.850 132.083,230.950 132.224,230.400 132.400 M246.433 132.147 C 246.525 132.228,247.320 132.404,248.200 132.538 C 249.315 132.707,249.558 132.671,249.000 132.419 C 248.232 132.071,246.090 131.844,246.433 132.147 M226.800 133.443 C 221.782 135.682,218.887 137.353,217.237 138.964 C 216.428 139.754,215.631 140.400,215.465 140.400 C 214.904 140.400,210.800 145.176,210.800 145.829 C 210.800 145.980,211.514 145.207,212.388 144.111 C 213.261 143.014,214.836 141.416,215.888 140.559 C 216.939 139.702,218.120 138.731,218.512 138.401 C 220.140 137.026,225.373 134.320,228.800 133.080 C 229.333 132.887,229.333 132.861,228.800 132.841 C 228.470 132.828,227.570 133.099,226.800 133.443 M254.090 134.932 C 256.449 136.101,258.714 137.360,259.121 137.729 C 259.529 138.098,260.046 138.400,260.270 138.400 C 260.493 138.400,261.002 138.760,261.400 139.200 C 261.798 139.640,262.284 140.000,262.479 140.000 C 262.674 140.000,263.220 140.360,263.692 140.800 C 264.164 141.240,264.787 141.600,265.075 141.600 C 265.364 141.600,265.600 141.780,265.600 142.000 C 265.600 142.220,266.219 142.400,266.976 142.400 C 267.733 142.400,268.464 142.220,268.600 142.000 C 268.736 141.780,269.251 141.600,269.744 141.600 C 270.237 141.600,270.811 141.434,271.020 141.231 C 271.229 141.028,271.940 140.785,272.600 140.691 L 273.800 140.520 272.524 140.460 C 271.822 140.427,271.136 140.580,271.000 140.800 C 270.864 141.020,270.324 141.200,269.800 141.200 C 269.276 141.200,268.736 141.380,268.600 141.600 C 268.031 142.520,264.762 141.601,263.593 140.192 C 263.323 139.866,262.882 139.600,262.613 139.600 C 262.344 139.600,261.798 139.240,261.400 138.800 C 261.002 138.360,260.456 138.000,260.187 138.000 C 259.918 138.000,259.493 137.753,259.242 137.451 C 258.699 136.797,250.999 132.799,250.292 132.803 C 250.021 132.805,251.730 133.763,254.090 134.932 M286.000 134.939 C 285.230 135.216,283.554 136.018,282.275 136.721 C 280.997 137.425,279.719 138.000,279.437 138.000 C 278.911 138.000,276.400 139.151,276.400 139.392 C 276.400 139.659,278.019 139.093,278.230 138.752 C 278.349 138.558,278.772 138.400,279.168 138.400 C 279.565 138.400,281.304 137.672,283.033 136.783 C 284.805 135.871,286.603 135.217,287.153 135.283 C 287.691 135.347,288.206 135.175,288.298 134.900 C 288.508 134.277,287.807 134.289,286.000 134.939 M286.629 137.661 C 286.283 138.355,286.000 139.025,286.000 139.150 C 286.000 139.497,287.033 137.894,287.321 137.100 C 287.736 135.955,287.306 136.304,286.629 137.661 M129.286 139.100 C 128.495 141.216,128.406 141.644,128.805 141.397 C 129.022 141.263,129.200 140.882,129.200 140.550 C 129.200 137.812,129.845 138.154,136.069 144.201 C 139.379 147.416,142.191 149.942,142.319 149.815 C 142.447 149.687,142.022 149.181,141.376 148.691 C 140.729 148.201,137.941 145.595,135.181 142.900 C 129.566 137.418,129.847 137.599,129.286 139.100 M284.377 141.500 C 283.620 142.545,282.925 143.580,282.834 143.799 C 282.742 144.018,281.842 145.067,280.834 146.128 C 279.825 147.190,278.928 148.260,278.841 148.507 C 278.753 148.753,278.258 149.378,277.741 149.895 C 276.360 151.276,276.592 151.549,278.000 150.200 C 278.660 149.568,279.200 148.852,279.200 148.610 C 279.200 148.368,280.100 147.283,281.200 146.200 C 282.300 145.117,283.200 144.026,283.200 143.777 C 283.200 143.528,283.578 142.982,284.041 142.563 C 284.797 141.879,286.217 139.600,285.887 139.600 C 285.814 139.600,285.134 140.455,284.377 141.500 M128.032 142.676 C 128.014 143.158,127.820 143.664,127.600 143.800 C 127.380 143.936,127.221 144.532,127.246 145.124 C 127.281 145.924,127.338 145.995,127.467 145.400 C 127.563 144.960,127.833 144.213,128.067 143.739 C 128.301 143.266,128.396 142.636,128.278 142.339 C 128.154 142.029,128.050 142.172,128.032 142.676 M210.032 146.451 C 210.014 146.809,209.740 147.318,209.423 147.581 C 208.677 148.200,205.200 155.198,205.200 156.079 C 205.200 156.450,205.020 156.864,204.800 157.000 C 204.580 157.136,204.400 157.856,204.400 158.600 C 204.400 159.344,204.220 160.064,204.000 160.200 C 203.756 160.351,203.600 163.396,203.600 167.999 L 203.600 175.552 202.100 175.709 L 200.600 175.866 202.300 175.933 L 204.000 176.000 204.000 168.224 C 204.000 163.471,204.156 160.351,204.400 160.200 C 204.620 160.064,204.800 159.344,204.800 158.600 C 204.800 157.856,204.980 157.136,205.200 157.000 C 205.420 156.864,205.600 156.440,205.600 156.059 C 205.600 155.205,208.862 148.636,209.801 147.599 C 210.175 147.185,210.388 146.611,210.273 146.323 C 210.128 145.962,210.053 146.002,210.032 146.451 M126.561 146.958 C 126.443 147.265,126.408 148.210,126.483 149.058 C 126.610 150.487,126.634 150.446,126.810 148.500 C 127.004 146.356,126.941 145.967,126.561 146.958 M142.820 150.219 C 142.831 150.428,143.745 151.320,144.850 152.200 C 145.956 153.080,147.072 153.986,147.330 154.213 C 147.589 154.440,148.430 155.062,149.200 155.594 C 149.970 156.126,150.690 156.675,150.800 156.813 C 151.289 157.428,157.217 161.199,157.682 161.191 C 157.967 161.186,157.615 160.893,156.900 160.541 C 156.185 160.188,155.600 159.743,155.600 159.550 C 155.600 159.358,155.364 159.200,155.075 159.200 C 154.787 159.200,154.164 158.840,153.692 158.400 C 153.220 157.960,152.738 157.600,152.621 157.600 C 152.295 157.600,147.804 154.128,147.219 153.423 C 146.935 153.081,146.507 152.800,146.268 152.800 C 146.029 152.800,145.151 152.133,144.317 151.319 C 143.483 150.504,142.809 150.009,142.820 150.219 M285.329 150.730 C 284.191 151.103,283.126 151.541,282.963 151.704 C 282.800 151.867,282.257 152.000,281.757 152.000 C 281.257 152.000,280.756 152.147,280.645 152.328 C 280.533 152.508,280.975 152.577,281.626 152.482 C 282.277 152.386,282.908 152.149,283.029 151.954 C 283.149 151.759,283.599 151.600,284.029 151.600 C 284.459 151.600,285.123 151.439,285.505 151.241 C 285.887 151.044,286.650 150.696,287.200 150.468 C 288.764 149.821,287.619 149.981,285.329 150.730 M289.217 153.385 L 287.033 155.800 289.398 153.514 C 290.698 152.257,291.681 151.171,291.581 151.100 C 291.482 151.029,290.417 152.057,289.217 153.385 M125.774 151.724 C 125.663 152.013,125.625 154.308,125.689 156.824 L 125.805 161.400 126.002 156.299 C 126.197 151.265,126.169 150.694,125.774 151.724 M277.500 153.082 C 277.995 153.178,278.805 153.178,279.300 153.082 C 279.795 152.987,279.390 152.909,278.400 152.909 C 277.410 152.909,277.005 152.987,277.500 153.082 M282.600 160.539 C 276.536 166.762,276.077 167.552,281.752 162.000 C 285.699 158.138,287.653 155.956,287.114 156.012 C 287.051 156.018,285.020 158.056,282.600 160.539 M158.800 162.020 C 160.445 163.136,161.029 163.327,160.117 162.449 C 159.631 161.982,159.001 161.603,158.717 161.606 C 158.347 161.611,158.371 161.728,158.800 162.020 M126.400 163.376 C 126.400 164.133,126.538 164.838,126.707 164.943 C 126.876 165.047,126.948 164.428,126.865 163.566 C 126.681 161.632,126.400 161.518,126.400 163.376 M162.317 164.057 C 163.041 164.520,163.727 164.806,163.842 164.692 C 163.956 164.577,163.471 164.195,162.763 163.842 C 160.970 162.947,160.749 163.053,162.317 164.057 M127.254 166.639 C 127.204 167.411,128.253 170.000,128.617 170.000 C 128.821 170.000,128.365 168.720,127.976 168.200 C 127.811 167.980,127.594 167.350,127.493 166.800 C 127.342 165.978,127.299 165.949,127.254 166.639 M167.756 166.729 C 167.868 166.911,168.734 167.307,169.680 167.611 C 170.626 167.914,171.990 168.486,172.712 168.881 C 173.434 169.277,174.368 169.600,174.789 169.600 C 175.209 169.600,175.664 169.780,175.800 170.000 C 175.936 170.220,176.476 170.400,177.000 170.400 C 177.524 170.400,178.064 170.580,178.200 170.800 C 178.336 171.020,178.876 171.200,179.400 171.200 C 179.924 171.200,180.464 171.380,180.600 171.600 C 180.736 171.820,181.276 172.000,181.800 172.000 C 182.324 172.000,182.864 172.180,183.000 172.400 C 183.136 172.620,183.856 172.800,184.600 172.800 C 185.344 172.800,186.064 172.980,186.200 173.200 C 186.336 173.420,187.112 173.571,187.924 173.536 L 189.400 173.472 188.000 173.307 C 187.230 173.217,186.429 172.976,186.220 172.771 C 186.011 172.567,185.257 172.400,184.544 172.400 C 183.831 172.400,183.136 172.220,183.000 172.000 C 182.864 171.780,182.324 171.600,181.800 171.600 C 181.276 171.600,180.736 171.420,180.600 171.200 C 180.464 170.980,179.924 170.800,179.400 170.800 C 178.876 170.800,178.336 170.620,178.200 170.400 C 178.064 170.180,177.524 170.000,177.000 170.000 C 176.476 170.000,175.936 169.820,175.800 169.600 C 175.664 169.380,175.220 169.200,174.814 169.200 C 174.408 169.200,173.384 168.863,172.538 168.452 C 168.859 166.663,167.388 166.133,167.756 166.729 M275.744 172.400 C 275.744 174.490,275.812 175.345,275.894 174.300 C 275.976 173.255,275.976 171.545,275.894 170.500 C 275.812 169.455,275.744 170.310,275.744 172.400 M128.825 170.909 C 128.811 171.298,129.274 172.333,129.853 173.209 C 131.122 175.126,131.602 175.344,130.449 173.480 C 130.000 172.753,129.457 171.718,129.242 171.180 C 128.958 170.468,128.844 170.394,128.825 170.909 M189.919 174.060 C 190.073 174.204,191.047 174.386,192.081 174.463 C 193.116 174.540,193.836 174.485,193.681 174.340 C 193.527 174.196,192.553 174.014,191.519 173.937 C 190.484 173.860,189.764 173.915,189.919 174.060 M195.200 175.027 C 196.544 175.327,199.511 175.380,199.338 175.100 C 199.236 174.935,198.128 174.821,196.876 174.846 C 195.624 174.872,194.870 174.953,195.200 175.027 M131.200 175.380 C 131.200 175.874,133.735 179.190,135.189 180.600 C 139.985 185.248,138.940 186.464,132.115 184.181 C 125.897 182.100,125.034 182.124,124.873 184.376 C 124.804 185.353,124.932 186.523,125.159 186.976 C 125.386 187.429,125.641 188.340,125.726 189.000 C 125.864 190.076,125.886 190.047,125.940 188.724 C 125.973 187.912,125.820 187.136,125.600 187.000 C 125.380 186.864,125.200 185.843,125.200 184.732 L 125.200 182.711 126.688 182.990 C 128.154 183.265,131.034 184.130,132.600 184.765 C 139.801 187.685,140.423 185.356,134.156 178.940 C 133.692 178.464,132.912 177.429,132.423 176.638 C 131.614 175.329,131.200 174.903,131.200 175.380 M274.920 180.800 C 274.920 182.010,274.995 182.505,275.087 181.900 C 275.178 181.295,275.178 180.305,275.087 179.700 C 274.995 179.095,274.920 179.590,274.920 180.800 M273.990 186.081 C 273.884 187.116,273.945 187.815,274.126 187.634 C 274.307 187.453,274.393 186.607,274.319 185.753 L 274.183 184.200 273.990 186.081 M273.301 190.200 C 273.305 191.080,273.387 191.393,273.483 190.895 C 273.579 190.398,273.575 189.678,273.475 189.295 C 273.375 188.913,273.296 189.320,273.301 190.200 M272.454 193.467 C 272.425 193.944,272.296 194.664,272.170 195.067 C 271.952 195.761,271.964 195.762,272.396 195.088 C 272.647 194.697,272.775 193.977,272.681 193.488 C 272.509 192.601,272.509 192.601,272.454 193.467 M271.552 197.113 C 271.421 197.907,271.479 198.281,271.701 198.059 C 271.903 197.857,272.001 197.267,271.919 196.746 C 271.793 195.945,271.737 196.002,271.552 197.113 M270.650 200.450 C 270.317 202.117,270.640 202.440,271.000 200.800 C 271.152 200.109,271.193 199.459,271.091 199.358 C 270.989 199.256,270.791 199.747,270.650 200.450 M130.008 200.414 C 131.151 202.550,132.714 204.485,135.896 207.700 C 137.801 209.625,139.480 211.200,139.628 211.200 C 139.776 211.200,138.308 209.645,136.367 207.745 C 134.425 205.845,132.174 203.235,131.366 201.945 C 129.947 199.682,129.112 198.742,130.008 200.414 M269.451 204.360 C 269.093 205.455,268.811 206.586,268.825 206.875 C 268.839 207.164,269.200 206.336,269.627 205.035 C 270.054 203.734,270.336 202.603,270.253 202.520 C 270.170 202.437,269.809 203.265,269.451 204.360 M268.267 207.867 C 268.120 208.013,268.000 208.466,268.000 208.872 C 268.000 209.278,267.841 209.923,267.647 210.305 C 267.452 210.687,267.114 211.450,266.894 212.000 C 266.414 213.204,263.781 218.497,262.040 221.758 C 261.348 223.054,260.846 224.179,260.924 224.257 C 261.002 224.335,261.320 223.904,261.632 223.299 C 261.944 222.695,262.299 222.110,262.421 222.000 C 262.909 221.560,267.600 211.669,267.600 211.079 C 267.600 210.732,267.759 210.349,267.954 210.229 C 268.149 210.108,268.387 209.468,268.485 208.805 C 268.676 207.503,268.667 207.466,268.267 207.867 M141.471 212.500 C 142.940 213.668,144.431 214.502,144.653 214.280 C 144.750 214.184,144.217 213.814,143.469 213.460 C 142.722 213.105,141.883 212.541,141.606 212.207 C 141.329 211.873,140.930 211.600,140.720 211.600 C 140.510 211.600,140.848 212.005,141.471 212.500 M147.571 215.906 C 148.871 216.824,151.603 218.031,151.587 217.680 C 151.580 217.526,150.455 216.910,149.087 216.310 C 147.719 215.711,147.037 215.529,147.571 215.906 M146.000 218.400 L 140.200 218.634 146.300 218.717 C 150.155 218.769,152.400 218.653,152.400 218.400 C 152.400 218.180,152.265 218.037,152.100 218.083 C 151.935 218.129,149.190 218.272,146.000 218.400 M138.800 220.576 C 138.800 221.553,138.980 222.464,139.200 222.600 C 139.420 222.736,139.600 223.197,139.600 223.624 C 139.600 224.051,139.736 224.400,139.902 224.400 C 140.069 224.400,140.448 224.950,140.746 225.623 C 141.044 226.296,141.362 226.772,141.453 226.681 C 141.544 226.590,141.060 225.454,140.377 224.158 C 139.469 222.432,139.174 221.398,139.279 220.300 C 139.357 219.475,139.281 218.800,139.111 218.800 C 138.940 218.800,138.800 219.599,138.800 220.576 M259.699 225.591 C 259.012 226.690,259.074 226.983,259.832 226.225 C 260.180 225.877,260.404 225.413,260.331 225.192 C 260.257 224.972,259.973 225.151,259.699 225.591 M142.000 227.646 C 142.000 228.557,149.584 235.428,152.700 237.340 C 154.175 238.245,152.892 237.073,151.100 235.877 C 149.945 235.106,147.425 232.862,145.500 230.890 C 143.575 228.917,142.000 227.457,142.000 227.646 M256.400 230.489 C 253.067 235.385,253.004 235.489,254.144 234.200 C 254.728 233.540,255.513 232.505,255.889 231.900 C 256.265 231.295,256.714 230.800,256.886 230.800 C 257.059 230.800,257.200 230.564,257.200 230.275 C 257.200 229.987,257.573 229.351,258.029 228.861 C 258.484 228.372,258.799 227.811,258.729 227.615 C 258.658 227.419,257.610 228.712,256.400 230.489 M251.546 237.228 C 250.806 238.123,248.715 240.430,246.900 242.354 C 245.085 244.278,243.600 245.984,243.600 246.146 C 243.600 246.551,249.043 240.924,250.318 239.200 C 250.888 238.430,251.803 237.305,252.352 236.700 C 252.901 236.095,253.247 235.600,253.121 235.600 C 252.996 235.600,252.287 236.333,251.546 237.228 M153.607 237.893 C 153.615 238.239,157.554 240.184,157.775 239.950 C 157.853 239.868,156.945 239.302,155.758 238.693 C 154.571 238.084,153.603 237.724,153.607 237.893 M167.951 245.840 C 167.374 246.145,166.654 246.695,166.351 247.063 C 165.927 247.578,168.727 246.082,169.567 245.346 C 169.948 245.012,168.925 245.325,167.951 245.840 M238.269 251.071 C 236.548 252.723,235.403 253.922,235.726 253.737 C 236.572 253.252,241.702 248.369,241.538 248.206 C 241.462 248.130,239.991 249.420,238.269 251.071 M162.456 249.213 C 161.216 250.246,161.775 250.235,163.091 249.200 C 163.650 248.760,163.949 248.406,163.754 248.413 C 163.559 248.421,162.975 248.781,162.456 249.213 M158.223 251.401 C 156.696 252.171,155.208 252.800,154.918 252.800 C 154.627 252.800,154.077 252.959,153.695 253.153 C 153.313 253.348,152.550 253.685,152.000 253.904 C 151.450 254.122,150.497 254.503,149.881 254.750 C 149.266 254.998,148.321 255.200,147.781 255.200 C 147.242 255.200,146.800 255.380,146.800 255.600 C 146.800 255.820,146.181 256.000,145.424 256.000 C 144.667 256.000,143.936 256.180,143.800 256.400 C 143.664 256.620,142.789 256.800,141.856 256.800 C 140.923 256.800,139.989 256.971,139.780 257.180 C 139.571 257.388,138.140 257.623,136.600 257.701 L 133.800 257.843 136.676 257.922 C 138.258 257.965,139.664 257.820,139.800 257.600 C 139.936 257.380,140.836 257.200,141.800 257.200 C 142.764 257.200,143.664 257.020,143.800 256.800 C 143.936 256.580,144.579 256.400,145.229 256.400 C 145.879 256.400,146.723 256.242,147.105 256.049 C 147.487 255.856,148.520 255.484,149.400 255.223 C 151.031 254.738,152.451 254.186,153.695 253.553 C 154.077 253.359,154.615 253.200,154.891 253.200 C 155.443 253.200,161.200 250.431,161.200 250.165 C 161.200 249.906,161.156 249.924,158.223 251.401 M233.293 255.233 C 232.575 255.875,232.125 256.394,232.294 256.387 C 232.707 256.370,234.931 254.398,234.746 254.213 C 234.665 254.132,234.012 254.591,233.293 255.233 M229.232 258.063 C 228.039 258.908,227.364 259.600,227.732 259.600 C 228.099 259.600,228.400 259.450,228.400 259.268 C 228.400 259.085,228.895 258.680,229.500 258.368 C 230.693 257.752,231.784 256.833,231.548 256.644 C 231.466 256.579,230.424 257.218,229.232 258.063 M123.700 258.697 C 125.185 258.774,127.615 258.774,129.100 258.697 C 130.585 258.620,129.370 258.557,126.400 258.557 C 123.430 258.557,122.215 258.620,123.700 258.697 M120.000 259.571 C 120.000 259.972,122.428 261.305,122.688 261.045 C 122.775 260.959,122.309 260.650,121.652 260.359 C 120.995 260.068,120.545 259.688,120.652 259.515 C 120.760 259.342,120.657 259.200,120.424 259.200 C 120.191 259.200,120.000 259.367,120.000 259.571 M224.666 260.924 C 223.811 261.399,223.359 261.853,223.646 261.949 C 223.929 262.043,224.229 261.913,224.313 261.660 C 224.398 261.407,224.677 261.194,224.933 261.187 C 225.190 261.180,225.749 260.910,226.176 260.587 C 227.295 259.741,226.456 259.928,224.666 260.924 M219.000 263.954 C 215.992 265.542,210.104 268.006,209.324 268.002 C 209.062 268.001,208.743 268.168,208.616 268.374 C 208.360 268.788,209.446 268.504,212.585 267.338 C 215.215 266.360,223.166 262.391,222.400 262.438 C 222.070 262.458,220.540 263.140,219.000 263.954 M129.600 264.594 C 129.600 264.925,137.114 268.202,138.610 268.523 C 140.069 268.836,138.084 267.904,133.600 266.170 C 132.610 265.787,131.620 265.350,131.400 265.199 C 130.829 264.807,129.600 264.394,129.600 264.594 M141.000 269.351 C 142.399 269.956,144.400 270.487,144.400 270.254 C 144.400 270.067,140.611 268.792,140.125 268.816 C 139.946 268.824,140.340 269.065,141.000 269.351 M203.400 270.000 C 202.896 270.217,202.822 270.344,203.200 270.344 C 203.530 270.344,204.160 270.189,204.600 270.000 C 205.104 269.783,205.178 269.656,204.800 269.656 C 204.470 269.656,203.840 269.811,203.400 270.000 M145.400 270.781 C 146.168 271.129,148.310 271.356,147.967 271.053 C 147.875 270.972,147.080 270.796,146.200 270.662 C 145.085 270.493,144.842 270.529,145.400 270.781 M200.200 270.800 C 199.111 271.077,199.093 271.107,200.000 271.125 C 200.550 271.135,201.360 270.989,201.800 270.800 C 202.786 270.376,201.866 270.376,200.200 270.800 M148.800 271.594 C 149.130 271.811,149.835 271.991,150.367 271.994 C 151.651 272.002,151.325 271.775,149.600 271.458 C 148.615 271.277,148.378 271.318,148.800 271.594 M197.000 271.600 C 195.893 271.882,195.877 271.909,196.800 271.947 C 197.350 271.969,198.070 271.813,198.400 271.600 C 199.081 271.160,198.729 271.160,197.000 271.600 M152.021 272.421 C 152.555 272.760,155.542 272.981,155.167 272.655 C 155.075 272.575,154.199 272.408,153.221 272.282 C 152.070 272.135,151.646 272.184,152.021 272.421 M193.400 272.400 L 191.800 272.686 193.200 272.737 C 193.970 272.765,194.870 272.613,195.200 272.400 C 195.855 271.977,195.762 271.977,193.400 272.400 M187.800 273.200 L 185.400 273.466 187.676 273.533 C 188.928 273.570,190.064 273.420,190.200 273.200 C 190.336 272.980,190.392 272.830,190.324 272.867 C 190.256 272.904,189.120 273.054,187.800 273.200 M157.700 273.487 C 158.305 273.578,159.295 273.578,159.900 273.487 C 160.505 273.395,160.010 273.320,158.800 273.320 C 157.590 273.320,157.095 273.395,157.700 273.487 M163.062 274.100 C 163.164 274.265,167.816 274.400,173.400 274.400 C 178.984 274.400,183.636 274.265,183.738 274.100 C 183.840 273.935,179.188 273.800,173.400 273.800 C 167.612 273.800,162.960 273.935,163.062 274.100 "
              stroke="none" fill="#acc6e4" fill-rule="evenodd"></path>
        <path id="path4" d="" stroke="none" fill="#00ffff" fill-rule="evenodd"></path>
    </g>
</svg>