<svg id="svg" version="1.1" width="400" height="400" viewBox="0 0 400 400" xmlns="http://www.w3.org/2000/svg">
    <g id="svgg">
        <path id="path0"
              d="M138.400 97.176 C 138.400 97.823,138.580 98.464,138.800 98.600 C 139.020 98.736,139.200 99.276,139.200 99.800 C 139.200 100.324,139.380 100.864,139.600 101.000 C 139.820 101.136,140.000 101.676,140.000 102.200 C 140.000 102.724,140.180 103.264,140.400 103.400 C 140.620 103.536,140.800 103.999,140.800 104.429 C 140.800 104.859,140.958 105.523,141.151 105.905 C 141.344 106.287,141.716 107.320,141.977 108.200 C 142.239 109.080,142.610 110.160,142.802 110.600 C 142.994 111.040,144.348 115.180,145.811 119.800 C 147.275 124.420,148.636 128.513,148.836 128.895 C 149.036 129.277,149.200 129.941,149.200 130.371 C 149.200 130.801,149.380 131.264,149.600 131.400 C 149.820 131.536,150.000 131.999,150.000 132.429 C 150.000 132.859,150.174 133.523,150.386 133.905 C 150.598 134.287,151.363 136.310,152.086 138.400 L 153.400 142.200 153.600 158.200 L 153.800 174.200 160.000 174.200 L 166.200 174.200 166.304 157.216 C 166.369 146.697,166.559 140.081,166.804 139.836 C 167.022 139.618,167.200 139.114,167.200 138.715 C 167.200 138.316,167.359 137.677,167.553 137.295 C 168.272 135.883,168.791 134.370,172.186 123.800 C 174.094 117.860,175.811 112.640,176.001 112.200 C 176.191 111.760,176.561 110.680,176.823 109.800 C 177.084 108.920,177.456 107.887,177.649 107.505 C 177.842 107.123,178.000 106.459,178.000 106.029 C 178.000 105.599,178.180 105.136,178.400 105.000 C 178.620 104.864,178.800 104.324,178.800 103.800 C 178.800 103.276,178.980 102.736,179.200 102.600 C 179.420 102.464,179.600 101.924,179.600 101.400 C 179.600 100.876,179.780 100.336,180.000 100.200 C 180.220 100.064,180.400 99.524,180.400 99.000 C 180.400 98.476,180.580 97.936,180.800 97.800 C 181.020 97.664,181.200 97.203,181.200 96.776 C 181.200 96.041,180.871 96.000,175.014 96.000 C 168.245 96.000,168.000 96.089,168.000 98.550 C 168.000 99.102,167.820 99.664,167.600 99.800 C 167.380 99.936,167.200 100.568,167.200 101.205 C 167.200 101.841,167.039 102.776,166.842 103.281 C 166.645 103.787,166.267 105.010,166.003 106.000 C 165.738 106.990,165.360 108.113,165.161 108.495 C 164.962 108.877,164.800 109.543,164.800 109.975 C 164.800 110.407,164.516 111.805,164.169 113.080 C 163.823 114.356,162.879 118.053,162.072 121.295 C 160.031 129.495,159.624 129.436,157.293 120.600 C 156.539 117.740,155.771 114.860,155.588 114.200 C 154.589 110.598,153.510 106.477,153.337 105.600 C 153.228 105.050,152.987 104.240,152.800 103.800 C 152.613 103.360,152.348 102.460,152.211 101.800 C 151.630 99.004,151.499 98.537,150.945 97.300 L 150.362 96.000 144.381 96.000 L 138.400 96.000 138.400 97.176 M197.600 115.176 C 197.270 115.403,196.423 115.591,195.719 115.594 C 190.632 115.618,183.600 121.688,183.600 126.055 C 183.600 126.659,183.420 127.264,183.200 127.400 C 182.943 127.559,182.800 133.863,182.800 145.000 C 182.800 156.137,182.943 162.441,183.200 162.600 C 183.420 162.736,183.600 163.379,183.600 164.029 C 183.600 164.679,183.759 165.523,183.953 165.905 C 184.148 166.287,184.551 167.119,184.849 167.752 C 188.336 175.162,199.930 178.008,209.182 173.724 C 211.809 172.508,215.600 167.923,215.600 165.962 C 215.600 165.569,215.780 165.136,216.000 165.000 C 216.258 164.841,216.400 157.870,216.400 145.400 C 216.400 132.930,216.258 125.959,216.000 125.800 C 215.780 125.664,215.600 125.201,215.600 124.771 C 215.600 122.472,209.544 116.400,207.252 116.400 C 206.809 116.400,206.348 116.239,206.226 116.042 C 205.791 115.339,198.439 114.601,197.600 115.176 M226.889 143.088 L 227.000 169.800 228.000 171.580 C 231.090 177.078,239.723 176.026,246.702 169.300 C 248.134 167.920,248.356 168.169,248.482 171.300 L 248.600 174.200 254.000 174.200 L 259.400 174.200 259.400 145.400 L 259.400 116.600 253.700 116.489 L 248.000 116.378 248.000 138.575 L 248.000 160.772 246.757 162.188 C 244.874 164.333,241.726 165.532,239.852 164.820 C 237.796 164.038,237.814 164.241,237.600 139.600 L 237.400 116.600 232.089 116.488 L 226.778 116.377 226.889 143.088 M203.110 125.602 C 205.215 126.885,205.241 127.147,205.116 145.768 C 204.986 165.045,205.056 164.581,202.093 165.819 C 199.240 167.011,196.366 166.085,195.119 163.572 C 194.286 161.893,194.030 129.085,194.838 127.474 C 196.178 124.798,200.272 123.871,203.110 125.602 M184.200 197.633 C 166.094 198.111,158.624 198.447,157.800 198.820 C 157.360 199.018,155.110 199.265,152.800 199.367 C 150.490 199.470,147.070 199.748,145.200 199.985 C 143.330 200.222,140.810 200.511,139.600 200.626 C 138.390 200.741,137.040 200.998,136.600 201.195 C 136.160 201.393,134.990 201.659,134.000 201.787 C 130.267 202.269,129.189 202.495,128.974 202.842 C 128.852 203.039,128.324 203.200,127.800 203.200 C 127.276 203.200,126.736 203.380,126.600 203.600 C 126.464 203.820,126.029 204.000,125.633 204.000 C 123.560 204.000,118.800 210.387,118.800 213.168 C 118.800 213.599,118.620 214.064,118.400 214.200 C 118.180 214.336,118.000 214.941,118.000 215.544 C 118.000 216.147,117.837 216.811,117.639 217.020 C 117.305 217.371,117.164 218.190,116.571 223.200 C 116.454 224.190,116.195 225.360,115.995 225.800 C 115.795 226.240,115.540 227.770,115.428 229.200 C 115.316 230.630,115.003 234.680,114.731 238.200 C 113.775 250.587,114.193 272.965,115.589 284.200 C 115.807 285.960,116.096 288.390,116.230 289.600 C 116.364 290.810,116.637 291.971,116.837 292.180 C 117.037 292.389,117.200 293.323,117.200 294.256 C 117.200 295.189,117.380 296.064,117.600 296.200 C 117.820 296.336,118.000 297.056,118.000 297.800 C 118.000 298.544,118.180 299.264,118.400 299.400 C 118.620 299.536,118.800 299.971,118.800 300.367 C 118.800 301.250,121.109 305.853,122.181 307.107 C 123.138 308.226,126.314 309.752,129.000 310.382 C 130.100 310.639,131.630 311.006,132.400 311.195 C 134.485 311.709,137.964 312.357,140.000 312.610 C 163.315 315.515,195.091 316.681,222.800 315.650 C 245.391 314.810,253.852 314.182,266.600 312.399 C 268.140 312.183,270.348 311.893,271.507 311.753 C 272.666 311.614,273.712 311.342,273.831 311.150 C 273.950 310.957,274.520 310.800,275.097 310.800 C 276.287 310.800,280.367 309.425,282.188 308.410 C 283.639 307.602,285.310 305.270,286.208 302.800 C 286.568 301.810,287.019 300.640,287.210 300.200 C 288.430 297.397,290.321 285.741,291.265 275.200 C 293.094 254.795,290.656 220.498,286.753 211.704 C 286.339 210.772,286.000 209.765,286.000 209.466 C 286.000 209.168,285.640 208.598,285.200 208.200 C 284.760 207.802,284.400 207.326,284.400 207.143 C 284.400 204.908,275.360 201.655,267.200 200.953 C 265.990 200.849,264.640 200.598,264.200 200.396 C 263.760 200.193,261.960 199.930,260.200 199.812 C 258.440 199.693,255.020 199.418,252.600 199.200 C 235.512 197.661,207.438 197.018,184.200 197.633 M167.112 224.969 C 167.249 231.230,167.752 230.786,160.502 230.794 L 154.805 230.800 154.702 261.500 L 154.600 292.200 148.800 292.200 L 143.000 292.200 142.898 261.500 L 142.795 230.800 137.498 230.795 C 129.774 230.787,130.400 231.278,130.400 225.220 C 130.400 222.422,130.522 220.012,130.671 219.863 C 130.820 219.714,139.055 219.639,148.971 219.696 L 167.000 219.800 167.112 224.969 M219.506 230.900 C 219.614 242.167,219.687 242.654,221.038 241.155 C 226.018 235.630,238.400 238.525,238.400 245.214 C 238.400 245.620,238.580 246.064,238.800 246.200 C 239.534 246.654,239.324 284.072,238.574 286.364 C 236.456 292.840,227.401 295.015,221.951 290.357 C 220.164 288.829,219.673 288.899,219.524 290.700 L 219.400 292.200 215.000 292.316 C 212.580 292.380,210.195 292.332,209.700 292.209 L 208.800 291.985 208.800 255.781 L 208.800 219.577 214.100 219.688 L 219.400 219.800 219.506 230.900 M267.709 238.734 C 269.166 239.397,270.806 240.541,271.662 241.492 C 273.013 242.995,273.396 243.669,274.790 247.000 C 275.530 248.768,275.893 265.765,275.209 266.590 C 274.780 267.106,273.224 267.200,265.151 267.200 L 255.600 267.200 255.600 273.406 C 255.600 282.566,256.215 283.808,260.611 283.524 C 263.259 283.354,263.931 282.198,263.971 277.743 C 264.006 273.817,263.718 273.998,269.933 274.006 C 275.978 274.014,275.775 273.850,275.426 278.458 C 275.000 284.090,274.143 286.323,271.254 289.328 C 265.143 295.683,251.956 294.888,247.296 287.884 C 244.386 283.511,244.341 283.136,244.478 264.600 L 244.600 248.200 245.793 245.800 C 247.668 242.029,249.840 240.167,254.800 238.076 C 257.110 237.102,265.007 237.504,267.709 238.734 M182.000 259.614 C 182.000 283.097,181.969 282.800,184.451 282.800 C 185.837 282.800,186.848 282.260,188.880 280.436 L 190.400 279.071 190.406 259.236 C 190.409 248.326,190.559 239.169,190.737 238.888 C 190.981 238.504,192.365 238.403,196.231 238.488 L 201.400 238.600 201.503 265.253 L 201.606 291.905 200.703 292.147 C 200.206 292.280,197.968 292.392,195.729 292.395 C 190.770 292.401,190.400 292.157,190.400 288.886 L 190.400 286.630 188.500 288.482 C 183.859 293.005,177.039 294.243,173.754 291.157 C 171.240 288.795,171.200 288.345,171.200 262.185 L 171.200 238.400 176.600 238.400 L 182.000 238.400 182.000 259.614 M222.200 247.267 C 221.760 247.510,220.995 248.076,220.500 248.524 L 219.600 249.339 219.600 265.370 L 219.600 281.400 220.979 282.500 C 223.173 284.251,226.522 284.060,227.540 282.126 C 228.302 280.679,228.177 250.702,227.402 249.204 C 226.282 247.039,224.089 246.222,222.200 247.267 M257.744 247.596 C 256.231 248.207,255.600 250.170,255.600 254.261 L 255.600 258.000 259.800 258.000 L 264.000 258.000 264.000 254.180 C 264.000 248.152,261.884 245.925,257.744 247.596 "
              stroke="none" fill="#ffffff" fill-rule="evenodd"></path>
        <path id="path1" d="" stroke="none" fill="#550000" fill-rule="evenodd"></path>
        <path id="path2"
              d="M192.800 23.588 C 192.800 23.848,191.024 24.000,188.000 24.000 C 185.067 24.000,183.200 24.156,183.200 24.400 C 183.200 24.628,182.008 24.800,180.424 24.800 C 178.897 24.800,177.536 24.980,177.400 25.200 C 177.264 25.420,176.083 25.600,174.776 25.600 C 173.459 25.600,172.400 25.778,172.400 26.000 C 172.400 26.220,171.446 26.400,170.280 26.400 C 169.114 26.400,167.989 26.563,167.780 26.761 C 167.571 26.960,166.590 27.212,165.600 27.321 C 163.641 27.536,162.830 27.686,159.800 28.394 C 158.700 28.650,157.213 28.957,156.496 29.074 C 155.779 29.192,155.094 29.449,154.973 29.644 C 154.852 29.840,154.253 30.000,153.643 30.000 C 153.033 30.000,152.410 30.123,152.259 30.274 C 151.815 30.718,149.076 31.587,148.100 31.594 C 147.605 31.597,147.200 31.780,147.200 32.000 C 147.200 32.220,146.838 32.400,146.395 32.400 C 145.952 32.400,145.277 32.568,144.895 32.773 C 144.513 32.979,143.345 33.378,142.300 33.661 C 141.255 33.943,140.400 34.315,140.400 34.487 C 140.400 34.659,139.961 34.800,139.424 34.800 C 138.887 34.800,138.336 34.980,138.200 35.200 C 138.064 35.420,137.603 35.600,137.176 35.600 C 136.749 35.600,136.400 35.780,136.400 36.000 C 136.400 36.220,135.961 36.400,135.424 36.400 C 134.887 36.400,134.336 36.580,134.200 36.800 C 134.064 37.020,133.603 37.200,133.176 37.200 C 132.749 37.200,132.400 37.380,132.400 37.600 C 132.400 37.820,132.040 38.000,131.600 38.000 C 131.160 38.000,130.800 38.180,130.800 38.400 C 130.800 38.620,130.350 38.800,129.800 38.800 C 129.250 38.800,128.800 38.980,128.800 39.200 C 128.800 39.420,128.440 39.600,128.000 39.600 C 127.560 39.600,127.200 39.780,127.200 40.000 C 127.200 40.220,126.840 40.400,126.400 40.400 C 125.960 40.400,125.600 40.580,125.600 40.800 C 125.600 41.020,125.240 41.200,124.800 41.200 C 124.360 41.200,124.000 41.380,124.000 41.600 C 124.000 41.820,123.640 42.000,123.200 42.000 C 122.760 42.000,122.400 42.180,122.400 42.400 C 122.400 42.620,122.040 42.800,121.600 42.800 C 121.160 42.800,120.800 42.980,120.800 43.200 C 120.800 43.420,120.464 43.600,120.054 43.600 C 119.644 43.600,118.834 43.973,118.254 44.429 C 117.674 44.885,117.200 45.143,117.200 45.002 C 117.200 44.861,116.677 45.118,116.038 45.573 C 115.399 46.028,114.679 46.400,114.438 46.400 C 114.197 46.400,114.000 46.580,114.000 46.800 C 114.000 47.020,113.640 47.200,113.200 47.200 C 112.760 47.200,112.400 47.349,112.400 47.532 C 112.400 47.714,111.500 48.285,110.400 48.800 C 109.300 49.315,108.400 49.886,108.400 50.068 C 108.400 50.251,108.130 50.400,107.800 50.400 C 107.470 50.400,107.200 50.555,107.200 50.744 C 107.200 50.934,106.390 51.519,105.400 52.044 C 104.410 52.569,103.600 53.134,103.600 53.299 C 103.600 53.465,103.364 53.600,103.075 53.600 C 102.787 53.600,102.164 53.960,101.692 54.400 C 101.220 54.840,100.646 55.200,100.417 55.200 C 100.188 55.200,100.000 55.380,100.000 55.600 C 100.000 55.820,99.770 56.000,99.488 56.000 C 99.207 56.000,98.717 56.360,98.400 56.800 C 98.083 57.240,97.595 57.600,97.315 57.600 C 97.036 57.600,96.582 57.960,96.307 58.400 C 96.032 58.840,95.582 59.200,95.307 59.200 C 94.793 59.200,93.155 60.456,92.046 61.700 C 91.703 62.085,91.275 62.400,91.094 62.400 C 90.717 62.400,90.084 62.899,88.248 64.643 C 87.529 65.327,86.729 65.957,86.470 66.043 C 85.942 66.220,78.044 73.577,75.232 76.513 C 67.801 84.272,66.000 86.220,66.000 86.504 C 66.000 86.681,65.415 87.441,64.700 88.192 C 62.902 90.079,62.400 90.713,62.400 91.094 C 62.400 91.275,62.085 91.703,61.700 92.046 C 60.456 93.155,59.200 94.793,59.200 95.307 C 59.200 95.582,58.840 96.032,58.400 96.307 C 57.960 96.582,57.600 97.036,57.600 97.315 C 57.600 97.595,57.240 98.083,56.800 98.400 C 56.360 98.717,56.000 99.207,56.000 99.488 C 56.000 99.770,55.820 100.000,55.600 100.000 C 55.380 100.000,55.200 100.188,55.200 100.417 C 55.200 100.646,54.840 101.220,54.400 101.692 C 53.960 102.164,53.600 102.787,53.600 103.075 C 53.600 103.364,53.448 103.600,53.263 103.600 C 53.077 103.600,52.509 104.410,52.000 105.400 C 51.491 106.390,50.923 107.200,50.737 107.200 C 50.552 107.200,50.400 107.470,50.400 107.800 C 50.400 108.130,50.251 108.400,50.068 108.400 C 49.886 108.400,49.315 109.300,48.800 110.400 C 48.285 111.500,47.714 112.400,47.532 112.400 C 47.349 112.400,47.200 112.760,47.200 113.200 C 47.200 113.640,47.020 114.000,46.800 114.000 C 46.580 114.000,46.400 114.197,46.400 114.438 C 46.400 114.679,46.028 115.399,45.573 116.038 C 45.118 116.677,44.861 117.200,45.002 117.200 C 45.143 117.200,44.885 117.674,44.429 118.254 C 43.973 118.834,43.600 119.644,43.600 120.054 C 43.600 120.464,43.420 120.800,43.200 120.800 C 42.980 120.800,42.800 121.160,42.800 121.600 C 42.800 122.040,42.620 122.400,42.400 122.400 C 42.180 122.400,42.000 122.760,42.000 123.200 C 42.000 123.640,41.820 124.000,41.600 124.000 C 41.380 124.000,41.200 124.360,41.200 124.800 C 41.200 125.240,41.020 125.600,40.800 125.600 C 40.580 125.600,40.400 125.960,40.400 126.400 C 40.400 126.840,40.220 127.200,40.000 127.200 C 39.780 127.200,39.600 127.560,39.600 128.000 C 39.600 128.440,39.420 128.800,39.200 128.800 C 38.980 128.800,38.800 129.250,38.800 129.800 C 38.800 130.350,38.620 130.800,38.400 130.800 C 38.180 130.800,38.000 131.065,38.000 131.388 C 38.000 131.711,37.640 132.617,37.200 133.400 C 36.760 134.183,36.400 135.179,36.400 135.612 C 36.400 136.045,36.220 136.400,36.000 136.400 C 35.780 136.400,35.600 136.749,35.600 137.176 C 35.600 137.603,35.420 138.064,35.200 138.200 C 34.980 138.336,34.800 138.887,34.800 139.424 C 34.800 139.961,34.659 140.400,34.487 140.400 C 34.315 140.400,33.943 141.255,33.661 142.300 C 33.378 143.345,32.979 144.513,32.773 144.895 C 32.568 145.277,32.400 145.952,32.400 146.395 C 32.400 146.838,32.220 147.200,32.000 147.200 C 31.780 147.200,31.597 147.605,31.594 148.100 C 31.587 149.076,30.718 151.815,30.274 152.259 C 30.123 152.410,30.000 153.033,30.000 153.643 C 30.000 154.253,29.840 154.852,29.644 154.973 C 29.449 155.094,29.192 155.779,29.074 156.496 C 28.957 157.213,28.650 158.700,28.394 159.800 C 27.686 162.830,27.536 163.641,27.321 165.600 C 27.212 166.590,26.960 167.571,26.761 167.780 C 26.563 167.989,26.400 169.114,26.400 170.280 C 26.400 171.446,26.220 172.400,26.000 172.400 C 25.778 172.400,25.600 173.459,25.600 174.776 C 25.600 176.083,25.420 177.264,25.200 177.400 C 24.980 177.536,24.800 178.897,24.800 180.424 C 24.800 182.008,24.628 183.200,24.400 183.200 C 24.156 183.200,24.000 185.067,24.000 188.000 C 24.000 191.024,23.848 192.800,23.588 192.800 C 23.316 192.800,23.189 196.251,23.214 203.000 C 23.235 209.051,23.403 213.200,23.625 213.200 C 23.837 213.200,24.000 215.281,24.000 218.000 C 24.000 220.933,24.156 222.800,24.400 222.800 C 24.631 222.800,24.800 224.067,24.800 225.800 C 24.800 227.533,24.969 228.800,25.200 228.800 C 25.422 228.800,25.600 229.859,25.600 231.176 C 25.600 232.483,25.780 233.664,26.000 233.800 C 26.220 233.936,26.400 234.759,26.400 235.629 C 26.400 236.499,26.562 237.523,26.760 237.905 C 26.958 238.287,27.312 239.950,27.547 241.600 C 27.781 243.250,28.172 245.410,28.415 246.400 C 28.659 247.390,28.955 248.787,29.073 249.504 C 29.192 250.221,29.449 250.906,29.644 251.027 C 29.840 251.148,30.000 251.741,30.000 252.344 C 30.000 252.947,30.179 253.619,30.398 253.838 C 30.616 254.056,30.836 254.722,30.885 255.318 C 30.934 255.913,31.115 256.400,31.287 256.400 C 31.459 256.400,31.600 256.940,31.600 257.600 C 31.600 258.260,31.780 258.800,32.000 258.800 C 32.220 258.800,32.400 259.340,32.400 260.000 C 32.400 260.660,32.580 261.200,32.800 261.200 C 33.020 261.200,33.200 261.740,33.200 262.400 C 33.200 263.060,33.347 263.600,33.528 263.600 C 33.708 263.600,34.104 264.511,34.407 265.625 C 34.710 266.739,35.103 267.740,35.279 267.849 C 35.456 267.958,35.600 268.397,35.600 268.824 C 35.600 269.251,35.780 269.600,36.000 269.600 C 36.220 269.600,36.400 269.955,36.400 270.388 C 36.400 270.821,36.760 271.817,37.200 272.600 C 37.640 273.383,38.000 274.289,38.000 274.612 C 38.000 274.935,38.180 275.200,38.400 275.200 C 38.620 275.200,38.800 275.560,38.800 276.000 C 38.800 276.440,38.980 276.800,39.200 276.800 C 39.420 276.800,39.600 277.239,39.600 277.776 C 39.600 278.313,39.780 278.864,40.000 279.000 C 40.220 279.136,40.400 279.597,40.400 280.024 C 40.400 280.451,40.580 280.800,40.800 280.800 C 41.020 280.800,41.200 281.160,41.200 281.600 C 41.200 282.040,41.380 282.400,41.600 282.400 C 41.820 282.400,42.000 282.745,42.000 283.167 C 42.000 283.588,42.141 283.993,42.312 284.067 C 42.484 284.140,43.201 285.370,43.906 286.800 C 45.710 290.461,48.076 294.575,48.469 294.733 C 48.651 294.807,48.800 295.212,48.800 295.633 C 48.800 296.055,48.958 296.400,49.151 296.400 C 49.345 296.400,49.727 296.940,50.000 297.600 C 50.273 298.260,50.655 298.800,50.849 298.800 C 51.042 298.800,51.200 299.036,51.200 299.325 C 51.200 299.613,51.515 300.198,51.900 300.625 C 52.285 301.051,52.855 301.895,53.168 302.500 C 53.480 303.105,53.885 303.600,54.068 303.600 C 54.250 303.600,54.400 303.836,54.400 304.125 C 54.400 304.413,54.760 305.036,55.200 305.508 C 55.640 305.980,56.000 306.490,56.000 306.640 C 56.000 306.790,56.540 307.429,57.200 308.060 C 57.860 308.691,58.400 309.394,58.400 309.622 C 58.400 309.850,58.850 310.486,59.400 311.036 C 59.950 311.586,60.400 312.195,60.400 312.390 C 60.400 312.584,60.637 312.981,60.927 313.271 C 61.217 313.562,62.137 314.700,62.972 315.800 C 67.696 322.028,85.687 340.058,89.117 342.000 C 89.699 342.330,90.842 343.275,91.657 344.100 C 92.471 344.925,93.239 345.600,93.364 345.600 C 93.590 345.600,94.812 346.547,95.816 347.500 C 96.106 347.775,96.536 348.000,96.771 348.000 C 97.007 348.000,97.200 348.180,97.200 348.400 C 97.200 348.620,97.470 348.800,97.800 348.800 C 98.130 348.800,98.400 348.980,98.400 349.200 C 98.400 349.420,98.582 349.600,98.804 349.600 C 99.026 349.600,99.772 350.140,100.463 350.800 C 101.154 351.460,101.880 352.000,102.076 352.000 C 102.273 352.000,102.651 352.184,102.917 352.408 C 103.888 353.228,108.438 356.000,108.813 356.000 C 109.026 356.000,109.200 356.140,109.200 356.311 C 109.200 356.483,110.595 357.338,112.300 358.211 C 114.005 359.085,115.490 359.904,115.600 360.032 C 115.710 360.160,116.385 360.519,117.100 360.830 C 117.815 361.141,118.400 361.531,118.400 361.698 C 118.400 361.864,118.760 362.000,119.200 362.000 C 119.640 362.000,120.000 362.180,120.000 362.400 C 120.000 362.620,120.360 362.800,120.800 362.800 C 121.240 362.800,121.600 362.980,121.600 363.200 C 121.600 363.420,121.960 363.600,122.400 363.600 C 122.840 363.600,123.200 363.780,123.200 364.000 C 123.200 364.220,123.560 364.400,124.000 364.400 C 124.440 364.400,124.800 364.580,124.800 364.800 C 124.800 365.020,125.160 365.200,125.600 365.200 C 126.040 365.200,126.400 365.380,126.400 365.600 C 126.400 365.820,126.760 366.000,127.200 366.000 C 127.640 366.000,128.000 366.180,128.000 366.400 C 128.000 366.620,128.360 366.800,128.800 366.800 C 129.240 366.800,129.600 366.980,129.600 367.200 C 129.600 367.420,129.960 367.600,130.400 367.600 C 130.840 367.600,131.200 367.780,131.200 368.000 C 131.200 368.220,131.472 368.400,131.805 368.400 C 132.138 368.400,132.768 368.580,133.205 368.800 C 133.642 369.020,134.358 369.380,134.795 369.600 C 135.232 369.820,135.952 370.000,136.395 370.000 C 136.838 370.000,137.200 370.180,137.200 370.400 C 137.200 370.620,137.562 370.800,138.005 370.800 C 138.448 370.800,139.168 370.980,139.605 371.200 C 140.042 371.420,140.758 371.780,141.195 372.000 C 141.632 372.220,142.341 372.400,142.771 372.400 C 143.201 372.400,143.664 372.580,143.800 372.800 C 143.936 373.020,144.399 373.200,144.829 373.200 C 145.259 373.200,145.923 373.374,146.305 373.587 C 147.551 374.282,150.800 375.200,152.014 375.200 C 152.666 375.200,153.200 375.380,153.200 375.600 C 153.200 375.820,153.830 376.000,154.600 376.000 C 155.370 376.000,156.000 376.160,156.000 376.356 C 156.000 376.706,157.337 377.020,160.700 377.459 C 161.635 377.581,162.400 377.842,162.400 378.040 C 162.400 378.238,163.019 378.400,163.776 378.400 C 164.533 378.400,165.264 378.580,165.400 378.800 C 165.536 379.020,166.436 379.200,167.400 379.200 C 168.364 379.200,169.264 379.380,169.400 379.600 C 169.536 379.820,170.616 380.000,171.800 380.000 C 172.984 380.000,174.064 380.180,174.200 380.400 C 174.336 380.620,175.607 380.800,177.024 380.800 C 178.441 380.800,179.600 380.968,179.600 381.173 C 179.600 381.755,186.074 382.040,203.300 382.218 C 213.504 382.323,219.200 382.242,219.200 381.991 C 219.200 381.767,220.643 381.600,222.576 381.600 C 224.433 381.600,226.064 381.420,226.200 381.200 C 226.336 380.980,227.686 380.800,229.200 380.800 C 230.714 380.800,232.064 380.620,232.200 380.400 C 232.336 380.180,233.337 380.000,234.424 380.000 C 235.511 380.000,236.400 379.820,236.400 379.600 C 236.400 379.380,237.289 379.200,238.376 379.200 C 239.463 379.200,240.464 379.020,240.600 378.800 C 240.736 378.580,241.557 378.400,242.424 378.400 C 243.291 378.400,244.000 378.220,244.000 378.000 C 244.000 377.780,244.619 377.600,245.376 377.600 C 246.133 377.600,246.864 377.420,247.000 377.200 C 247.136 376.980,247.867 376.800,248.624 376.800 C 249.381 376.800,250.000 376.620,250.000 376.400 C 250.000 376.180,250.529 376.000,251.176 376.000 C 251.823 376.000,252.464 375.820,252.600 375.600 C 252.736 375.380,253.422 375.192,254.124 375.182 C 254.826 375.173,256.120 374.896,257.000 374.567 C 257.880 374.238,258.870 373.902,259.200 373.821 C 260.930 373.396,266.252 371.480,266.580 371.165 C 266.789 370.964,267.363 370.800,267.856 370.800 C 268.349 370.800,268.864 370.620,269.000 370.400 C 269.136 370.180,269.597 370.000,270.024 370.000 C 270.451 370.000,270.800 369.820,270.800 369.600 C 270.800 369.380,271.250 369.200,271.800 369.200 C 272.350 369.200,272.800 369.020,272.800 368.800 C 272.800 368.580,273.160 368.400,273.600 368.400 C 274.040 368.400,274.400 368.220,274.400 368.000 C 274.400 367.780,274.679 367.600,275.019 367.600 C 275.360 367.600,276.384 367.240,277.294 366.800 C 278.205 366.360,279.186 366.000,279.475 366.000 C 279.764 366.000,280.000 365.820,280.000 365.600 C 280.000 365.380,280.360 365.200,280.800 365.200 C 281.240 365.200,281.600 365.020,281.600 364.800 C 281.600 364.580,281.960 364.400,282.400 364.400 C 282.840 364.400,283.200 364.220,283.200 364.000 C 283.200 363.780,283.545 363.600,283.967 363.600 C 284.388 363.600,284.793 363.465,284.867 363.300 C 284.987 363.030,287.089 361.822,289.497 360.640 C 289.990 360.398,290.395 360.065,290.397 359.900 C 290.399 359.735,290.670 359.600,291.000 359.600 C 291.330 359.600,291.600 359.442,291.600 359.250 C 291.600 359.058,292.095 358.795,292.700 358.667 C 293.305 358.540,295.304 357.443,297.143 356.231 C 298.982 355.018,300.827 353.918,301.243 353.786 C 301.659 353.654,302.000 353.378,302.000 353.173 C 302.000 352.968,302.242 352.800,302.538 352.800 C 302.834 352.800,303.402 352.440,303.800 352.000 C 304.198 351.560,304.674 351.200,304.857 351.200 C 305.175 351.200,306.275 350.383,307.416 349.300 C 307.706 349.025,308.096 348.800,308.283 348.800 C 308.470 348.800,308.883 348.440,309.200 348.000 C 309.517 347.560,310.025 347.200,310.328 347.200 C 310.631 347.200,311.383 346.660,312.000 346.000 C 312.617 345.340,313.297 344.800,313.512 344.800 C 313.727 344.800,314.600 344.124,315.452 343.298 C 316.303 342.472,317.630 341.360,318.400 340.826 C 319.170 340.293,320.700 339.003,321.800 337.959 C 322.900 336.916,324.306 335.643,324.925 335.131 C 326.470 333.853,333.986 326.350,335.131 324.944 C 335.643 324.315,336.916 322.900,337.959 321.800 C 339.003 320.700,340.293 319.170,340.826 318.400 C 341.360 317.630,342.472 316.303,343.298 315.452 C 344.124 314.600,344.800 313.727,344.800 313.512 C 344.800 313.297,345.340 312.617,346.000 312.000 C 346.660 311.383,347.200 310.631,347.200 310.328 C 347.200 310.025,347.560 309.517,348.000 309.200 C 348.440 308.883,348.800 308.485,348.800 308.316 C 348.800 308.022,349.645 306.896,350.700 305.784 C 350.975 305.494,351.200 305.092,351.200 304.891 C 351.200 304.689,351.560 304.198,352.000 303.800 C 352.440 303.402,352.800 302.834,352.800 302.538 C 352.800 302.242,352.968 302.000,353.173 302.000 C 353.378 302.000,353.654 301.659,353.786 301.243 C 353.918 300.827,355.018 298.982,356.231 297.143 C 357.443 295.304,358.540 293.305,358.667 292.700 C 358.795 292.095,359.058 291.600,359.250 291.600 C 359.443 291.600,359.600 291.330,359.600 291.000 C 359.600 290.670,359.735 290.399,359.900 290.397 C 360.065 290.395,360.398 289.990,360.640 289.497 C 361.822 287.089,363.030 284.987,363.300 284.867 C 363.465 284.793,363.600 284.388,363.600 283.967 C 363.600 283.545,363.780 283.200,364.000 283.200 C 364.220 283.200,364.400 282.840,364.400 282.400 C 364.400 281.960,364.580 281.600,364.800 281.600 C 365.020 281.600,365.200 281.240,365.200 280.800 C 365.200 280.360,365.380 280.000,365.600 280.000 C 365.820 280.000,366.000 279.764,366.000 279.475 C 366.000 279.186,366.360 278.205,366.800 277.294 C 367.240 276.384,367.600 275.360,367.600 275.019 C 367.600 274.679,367.780 274.400,368.000 274.400 C 368.220 274.400,368.400 274.040,368.400 273.600 C 368.400 273.160,368.580 272.800,368.800 272.800 C 369.020 272.800,369.200 272.350,369.200 271.800 C 369.200 271.250,369.380 270.800,369.600 270.800 C 369.820 270.800,370.000 270.350,370.000 269.800 C 370.000 269.250,370.180 268.800,370.400 268.800 C 370.620 268.800,370.800 268.386,370.800 267.880 C 370.800 267.374,370.956 266.789,371.147 266.580 C 371.454 266.243,373.441 260.762,373.822 259.200 C 373.903 258.870,374.238 257.880,374.567 257.000 C 374.896 256.120,375.173 254.826,375.182 254.124 C 375.192 253.422,375.380 252.736,375.600 252.600 C 375.820 252.464,376.000 251.823,376.000 251.176 C 376.000 250.529,376.180 250.000,376.400 250.000 C 376.620 250.000,376.800 249.381,376.800 248.624 C 376.800 247.867,376.980 247.136,377.200 247.000 C 377.420 246.864,377.600 246.133,377.600 245.376 C 377.600 244.619,377.780 244.000,378.000 244.000 C 378.220 244.000,378.400 243.291,378.400 242.424 C 378.400 241.557,378.580 240.736,378.800 240.600 C 379.020 240.464,379.200 239.463,379.200 238.376 C 379.200 237.289,379.380 236.400,379.600 236.400 C 379.820 236.400,380.000 235.511,380.000 234.424 C 380.000 233.337,380.180 232.336,380.400 232.200 C 380.620 232.064,380.800 230.714,380.800 229.200 C 380.800 227.686,380.980 226.336,381.200 226.200 C 381.420 226.064,381.600 224.433,381.600 222.576 C 381.600 220.643,381.767 219.200,381.991 219.200 C 382.242 219.200,382.323 213.504,382.218 203.300 C 382.040 186.074,381.755 179.600,381.173 179.600 C 380.968 179.600,380.800 178.441,380.800 177.024 C 380.800 175.607,380.620 174.336,380.400 174.200 C 380.180 174.064,380.000 172.984,380.000 171.800 C 380.000 170.616,379.820 169.536,379.600 169.400 C 379.380 169.264,379.200 168.364,379.200 167.400 C 379.200 166.436,379.020 165.536,378.800 165.400 C 378.580 165.264,378.400 164.533,378.400 163.776 C 378.400 163.019,378.238 162.400,378.040 162.400 C 377.842 162.400,377.581 161.635,377.459 160.700 C 377.020 157.337,376.706 156.000,376.356 156.000 C 376.160 156.000,376.000 155.370,376.000 154.600 C 376.000 153.830,375.820 153.200,375.600 153.200 C 375.380 153.200,375.192 152.615,375.182 151.900 C 375.173 151.185,374.894 149.880,374.562 149.000 C 374.231 148.120,373.914 147.180,373.858 146.912 C 373.802 146.643,373.631 146.298,373.478 146.145 C 373.325 145.992,373.200 145.457,373.200 144.957 C 373.200 144.457,373.020 143.936,372.800 143.800 C 372.580 143.664,372.400 143.201,372.400 142.771 C 372.400 142.341,372.220 141.632,372.000 141.195 C 371.780 140.758,371.420 140.042,371.200 139.605 C 370.980 139.168,370.800 138.448,370.800 138.005 C 370.800 137.562,370.620 137.200,370.400 137.200 C 370.180 137.200,370.000 136.838,370.000 136.395 C 370.000 135.952,369.843 135.277,369.650 134.895 C 368.152 131.920,367.600 130.647,367.600 130.162 C 367.600 129.853,367.420 129.600,367.200 129.600 C 366.980 129.600,366.800 129.240,366.800 128.800 C 366.800 128.360,366.620 128.000,366.400 128.000 C 366.180 128.000,366.000 127.640,366.000 127.200 C 366.000 126.760,365.820 126.400,365.600 126.400 C 365.380 126.400,365.200 126.040,365.200 125.600 C 365.200 125.160,365.020 124.800,364.800 124.800 C 364.580 124.800,364.400 124.440,364.400 124.000 C 364.400 123.560,364.220 123.200,364.000 123.200 C 363.780 123.200,363.600 122.840,363.600 122.400 C 363.600 121.960,363.420 121.600,363.200 121.600 C 362.980 121.600,362.800 121.240,362.800 120.800 C 362.800 120.360,362.620 120.000,362.400 120.000 C 362.180 120.000,362.000 119.640,362.000 119.200 C 362.000 118.760,361.864 118.400,361.698 118.400 C 361.531 118.400,361.141 117.815,360.830 117.100 C 360.519 116.385,360.160 115.710,360.032 115.600 C 359.904 115.490,359.085 114.005,358.211 112.300 C 357.338 110.595,356.483 109.200,356.311 109.200 C 356.140 109.200,356.000 109.026,356.000 108.813 C 356.000 108.438,353.228 103.888,352.408 102.917 C 352.184 102.651,352.000 102.273,352.000 102.076 C 352.000 101.880,351.460 101.154,350.800 100.463 C 350.140 99.772,349.600 99.026,349.600 98.804 C 349.600 98.582,349.420 98.400,349.200 98.400 C 348.980 98.400,348.800 98.130,348.800 97.800 C 348.800 97.470,348.620 97.200,348.400 97.200 C 348.180 97.200,348.000 97.022,348.000 96.805 C 348.000 96.433,347.240 95.385,346.100 94.184 C 345.825 93.894,345.600 93.540,345.600 93.397 C 345.600 93.254,344.925 92.471,344.100 91.657 C 343.275 90.842,342.330 89.699,342.000 89.117 C 340.058 85.687,322.028 67.696,315.800 62.972 C 314.700 62.137,313.562 61.217,313.271 60.927 C 312.981 60.637,312.584 60.400,312.390 60.400 C 312.195 60.400,311.586 59.950,311.036 59.400 C 310.486 58.850,309.850 58.400,309.622 58.400 C 309.394 58.400,308.691 57.860,308.060 57.200 C 307.429 56.540,306.708 56.000,306.457 56.000 C 306.206 56.000,306.000 55.850,306.000 55.668 C 306.000 55.485,305.505 55.080,304.900 54.768 C 304.295 54.455,303.451 53.885,303.025 53.500 C 302.598 53.115,302.096 52.800,301.908 52.800 C 301.720 52.800,301.180 52.440,300.708 52.000 C 300.236 51.560,299.613 51.200,299.325 51.200 C 299.036 51.200,298.800 51.042,298.800 50.849 C 298.800 50.655,298.260 50.273,297.600 50.000 C 296.940 49.727,296.400 49.345,296.400 49.151 C 296.400 48.958,296.055 48.800,295.633 48.800 C 295.212 48.800,294.807 48.650,294.733 48.467 C 294.486 47.850,285.078 42.800,284.176 42.800 C 283.859 42.800,283.600 42.620,283.600 42.400 C 283.600 42.180,283.330 42.000,283.000 42.000 C 282.670 42.000,282.400 41.820,282.400 41.600 C 282.400 41.380,282.040 41.200,281.600 41.200 C 281.160 41.200,280.800 41.020,280.800 40.800 C 280.800 40.580,280.451 40.400,280.024 40.400 C 279.597 40.400,279.136 40.220,279.000 40.000 C 278.864 39.780,278.313 39.600,277.776 39.600 C 277.239 39.600,276.800 39.420,276.800 39.200 C 276.800 38.980,276.440 38.800,276.000 38.800 C 275.560 38.800,275.200 38.620,275.200 38.400 C 275.200 38.180,274.935 38.000,274.612 38.000 C 274.289 38.000,273.383 37.640,272.600 37.200 C 271.817 36.760,270.821 36.400,270.388 36.400 C 269.955 36.400,269.600 36.220,269.600 36.000 C 269.600 35.780,269.251 35.600,268.824 35.600 C 268.397 35.600,267.958 35.456,267.849 35.279 C 267.740 35.103,266.739 34.710,265.625 34.407 C 264.511 34.104,263.600 33.708,263.600 33.528 C 263.600 33.347,263.060 33.200,262.400 33.200 C 261.740 33.200,261.200 33.020,261.200 32.800 C 261.200 32.580,260.660 32.400,260.000 32.400 C 259.340 32.400,258.800 32.220,258.800 32.000 C 258.800 31.780,258.260 31.600,257.600 31.600 C 256.940 31.600,256.400 31.459,256.400 31.287 C 256.400 31.115,255.913 30.934,255.318 30.885 C 254.722 30.836,254.056 30.616,253.838 30.398 C 253.619 30.179,252.947 30.000,252.344 30.000 C 251.741 30.000,251.148 29.840,251.027 29.644 C 250.906 29.449,250.221 29.192,249.504 29.073 C 248.787 28.955,247.390 28.659,246.400 28.415 C 245.410 28.172,243.250 27.781,241.600 27.547 C 239.950 27.312,238.287 26.958,237.905 26.760 C 237.523 26.562,236.499 26.400,235.629 26.400 C 234.759 26.400,233.936 26.220,233.800 26.000 C 233.664 25.780,232.494 25.600,231.200 25.600 C 229.906 25.600,228.736 25.420,228.600 25.200 C 228.464 24.980,227.103 24.800,225.576 24.800 C 223.992 24.800,222.800 24.628,222.800 24.400 C 222.800 24.156,220.933 24.000,218.000 24.000 C 215.281 24.000,213.200 23.837,213.200 23.625 C 213.200 23.403,209.051 23.235,203.000 23.214 C 196.251 23.189,192.800 23.316,192.800 23.588 M150.567 95.843 C 150.915 95.976,151.200 96.426,151.200 96.843 C 151.200 97.259,151.361 97.600,151.558 97.600 C 151.755 97.600,152.010 98.275,152.126 99.100 C 152.411 101.136,152.795 102.839,153.186 103.800 C 153.587 104.783,155.575 112.629,156.151 115.500 C 156.382 116.655,156.713 117.600,156.886 117.600 C 157.059 117.600,157.200 118.219,157.200 118.976 C 157.200 119.733,157.380 120.464,157.600 120.600 C 157.820 120.736,158.000 121.456,158.000 122.200 C 158.000 122.944,158.180 123.664,158.400 123.800 C 158.620 123.936,158.800 124.499,158.800 125.052 C 158.800 126.395,159.920 127.571,160.430 126.765 C 160.627 126.454,160.791 125.716,160.794 125.124 C 160.797 124.532,160.980 123.936,161.200 123.800 C 161.420 123.664,161.600 122.944,161.600 122.200 C 161.600 121.456,161.780 120.736,162.000 120.600 C 162.220 120.464,162.400 119.913,162.400 119.375 C 162.400 118.837,162.850 116.705,163.400 114.638 C 163.950 112.571,164.400 110.422,164.400 109.863 C 164.400 109.305,164.546 108.757,164.724 108.647 C 164.902 108.537,165.296 107.256,165.600 105.800 C 165.904 104.344,166.298 103.063,166.476 102.953 C 166.654 102.843,166.800 102.144,166.800 101.400 C 166.800 100.656,166.980 99.936,167.200 99.800 C 167.420 99.664,167.600 98.944,167.600 98.199 C 167.600 95.929,168.518 95.600,174.856 95.600 C 177.869 95.600,180.619 95.709,180.967 95.843 C 181.670 96.112,181.824 97.414,181.200 97.800 C 180.980 97.936,180.800 98.476,180.800 99.000 C 180.800 99.524,180.620 100.064,180.400 100.200 C 180.180 100.336,180.000 100.876,180.000 101.400 C 180.000 101.924,179.820 102.464,179.600 102.600 C 179.380 102.736,179.200 103.276,179.200 103.800 C 179.200 104.324,179.020 104.864,178.800 105.000 C 178.580 105.136,178.400 105.687,178.400 106.224 C 178.400 106.761,178.220 107.200,178.000 107.200 C 177.780 107.200,177.600 107.740,177.600 108.400 C 177.600 109.060,177.420 109.600,177.200 109.600 C 176.980 109.600,176.800 110.140,176.800 110.800 C 176.800 111.460,176.620 112.000,176.400 112.000 C 176.180 112.000,176.000 112.540,176.000 113.200 C 176.000 113.860,175.820 114.400,175.600 114.400 C 175.380 114.400,175.200 114.940,175.200 115.600 C 175.200 116.260,175.020 116.800,174.800 116.800 C 174.580 116.800,174.400 117.239,174.400 117.776 C 174.400 118.313,174.220 118.864,174.000 119.000 C 173.780 119.136,173.600 119.676,173.600 120.200 C 173.600 120.724,173.420 121.264,173.200 121.400 C 172.980 121.536,172.800 121.946,172.800 122.312 C 172.800 122.677,171.791 126.132,170.558 129.988 C 168.346 136.909,167.847 138.332,167.153 139.695 C 166.959 140.077,166.800 148.042,166.800 157.395 L 166.800 174.400 160.209 174.400 L 153.618 174.400 153.466 159.100 C 153.319 144.295,153.107 140.800,152.356 140.800 C 152.160 140.800,152.000 140.361,152.000 139.824 C 152.000 139.287,151.820 138.736,151.600 138.600 C 151.380 138.464,151.200 138.001,151.200 137.571 C 151.200 137.141,151.038 136.477,150.839 136.095 C 150.640 135.713,150.249 134.590,149.969 133.600 C 149.690 132.610,149.312 131.629,149.130 131.420 C 148.949 131.211,148.800 130.714,148.800 130.315 C 148.800 129.916,148.640 129.277,148.445 128.895 C 148.250 128.513,147.599 126.490,147.000 124.400 C 146.401 122.310,145.750 120.287,145.555 119.905 C 145.360 119.523,145.200 118.848,145.200 118.405 C 145.200 117.962,145.020 117.600,144.800 117.600 C 144.580 117.600,144.400 117.060,144.400 116.400 C 144.400 115.740,144.220 115.200,144.000 115.200 C 143.780 115.200,143.600 114.660,143.600 114.000 C 143.600 113.340,143.420 112.800,143.200 112.800 C 142.980 112.800,142.800 112.260,142.800 111.600 C 142.800 110.940,142.620 110.400,142.400 110.400 C 142.180 110.400,142.000 109.860,142.000 109.200 C 142.000 108.540,141.820 108.000,141.600 108.000 C 141.380 108.000,141.200 107.561,141.200 107.024 C 141.200 106.487,141.020 105.936,140.800 105.800 C 140.580 105.664,140.400 105.124,140.400 104.600 C 140.400 104.076,140.220 103.536,140.000 103.400 C 139.780 103.264,139.600 102.724,139.600 102.200 C 139.600 101.676,139.420 101.136,139.200 101.000 C 138.980 100.864,138.800 100.324,138.800 99.800 C 138.800 99.276,138.620 98.736,138.400 98.600 C 137.827 98.246,137.905 96.105,138.500 95.865 C 139.222 95.574,149.815 95.554,150.567 95.843 M204.303 115.041 C 205.239 115.175,206.105 115.445,206.226 115.642 C 206.348 115.839,206.792 116.000,207.214 116.000 C 209.700 116.000,216.000 122.318,216.000 124.812 C 216.000 125.245,216.180 125.600,216.400 125.600 C 216.661 125.600,216.800 132.392,216.800 145.176 C 216.800 157.796,216.658 164.841,216.400 165.000 C 216.180 165.136,216.000 165.569,216.000 165.962 C 216.000 166.874,214.961 168.968,214.192 169.607 C 213.866 169.877,213.600 170.280,213.600 170.502 C 213.600 171.026,211.542 172.799,210.933 172.800 C 210.677 172.800,210.407 172.935,210.333 173.100 C 210.115 173.591,206.784 175.200,205.986 175.200 C 205.580 175.200,205.136 175.380,205.000 175.600 C 204.858 175.830,202.737 176.000,200.000 176.000 C 197.263 176.000,195.142 175.830,195.000 175.600 C 194.864 175.380,194.133 175.200,193.376 175.200 C 192.619 175.200,192.000 175.020,192.000 174.800 C 192.000 174.580,191.640 174.400,191.200 174.400 C 190.760 174.400,190.400 174.250,190.400 174.068 C 190.400 173.885,189.912 173.480,189.316 173.168 C 187.891 172.422,185.600 170.323,185.600 169.765 C 185.600 169.522,185.240 168.998,184.800 168.600 C 184.360 168.202,184.000 167.465,184.000 166.962 C 184.000 166.459,183.820 165.936,183.600 165.800 C 183.380 165.664,183.200 164.944,183.200 164.200 C 183.200 163.456,183.020 162.736,182.800 162.600 C 182.543 162.441,182.400 156.137,182.400 145.000 C 182.400 133.863,182.543 127.559,182.800 127.400 C 183.020 127.264,183.200 126.654,183.200 126.044 C 183.200 121.590,190.552 115.219,195.719 115.194 C 196.423 115.191,197.270 115.003,197.600 114.776 C 198.166 114.388,200.334 114.474,204.303 115.041 M237.520 116.480 C 237.882 116.842,238.000 122.492,238.000 139.454 C 238.000 152.441,238.158 162.364,238.374 162.932 C 238.813 164.087,240.788 165.195,241.621 164.754 C 241.940 164.585,242.736 164.333,243.391 164.193 C 244.046 164.054,245.259 163.227,246.088 162.356 L 247.593 160.773 247.697 138.487 L 247.800 116.200 253.600 116.200 L 259.400 116.200 259.503 145.311 L 259.605 174.422 253.903 174.311 L 248.200 174.200 248.000 171.454 L 247.800 168.708 247.009 169.586 C 245.817 170.909,240.437 174.400,239.590 174.400 C 239.182 174.400,238.736 174.580,238.600 174.800 C 238.203 175.442,231.900 175.289,230.526 174.603 C 228.776 173.730,227.200 171.563,227.200 170.029 C 227.200 169.599,227.020 169.136,226.800 169.000 C 226.349 168.722,226.218 116.715,226.667 116.267 C 227.162 115.771,237.005 115.965,237.520 116.480 M197.200 125.600 C 197.200 125.820,196.840 126.000,196.400 126.000 C 195.867 126.000,195.600 126.267,195.600 126.800 C 195.600 127.240,195.420 127.600,195.200 127.600 C 194.464 127.600,194.675 162.026,195.420 163.519 C 196.965 166.617,202.591 166.670,204.000 163.600 C 204.152 163.270,204.484 162.597,204.738 162.105 C 205.341 160.938,205.401 128.400,204.800 128.400 C 204.580 128.400,204.400 128.122,204.400 127.782 C 204.400 126.238,202.558 125.200,199.818 125.200 C 198.339 125.200,197.200 125.374,197.200 125.600 M219.800 197.227 C 226.840 197.451,236.200 197.817,240.600 198.040 C 245.000 198.263,250.400 198.537,252.600 198.649 C 254.800 198.760,256.771 199.020,256.980 199.226 C 257.189 199.432,258.843 199.600,260.656 199.600 C 262.469 199.600,264.064 199.780,264.200 200.000 C 264.336 200.220,265.596 200.400,267.000 200.400 C 268.404 200.400,269.664 200.580,269.800 200.800 C 269.936 201.020,270.746 201.200,271.600 201.200 C 272.454 201.200,273.264 201.380,273.400 201.600 C 273.536 201.820,274.357 202.000,275.224 202.000 C 276.091 202.000,276.800 202.180,276.800 202.400 C 276.800 202.620,277.340 202.800,278.000 202.800 C 278.660 202.800,279.200 202.980,279.200 203.200 C 279.200 203.420,279.562 203.600,280.005 203.600 C 281.416 203.600,284.800 206.009,284.800 207.013 C 284.800 207.268,285.160 207.802,285.600 208.200 C 286.040 208.598,286.400 209.310,286.400 209.782 C 286.400 210.254,286.572 210.812,286.782 211.022 C 287.401 211.641,289.613 220.716,290.043 224.400 C 290.261 226.270,290.616 229.330,290.831 231.200 C 291.047 233.070,291.323 237.615,291.445 241.300 C 291.567 244.985,291.832 248.000,292.034 248.000 C 292.244 248.000,292.400 251.661,292.400 256.600 C 292.400 261.539,292.244 265.200,292.034 265.200 C 291.832 265.200,291.562 268.215,291.433 271.900 C 291.102 281.378,290.799 285.342,290.371 285.780 C 290.167 285.989,289.998 287.069,289.996 288.180 C 289.984 295.320,284.922 308.800,282.253 308.800 C 281.894 308.800,281.600 308.980,281.600 309.200 C 281.600 309.420,281.060 309.600,280.400 309.600 C 279.740 309.600,279.200 309.780,279.200 310.000 C 279.200 310.220,278.660 310.400,278.000 310.400 C 277.340 310.400,276.800 310.580,276.800 310.800 C 276.800 311.020,276.080 311.200,275.200 311.200 C 274.320 311.200,273.600 311.380,273.600 311.600 C 273.600 311.820,272.621 312.000,271.424 312.000 C 270.227 312.000,269.136 312.180,269.000 312.400 C 268.864 312.620,267.593 312.800,266.176 312.800 C 264.725 312.800,263.600 312.975,263.600 313.200 C 263.600 313.435,262.208 313.600,260.224 313.600 C 258.367 313.600,256.736 313.780,256.600 314.000 C 256.461 314.225,254.537 314.400,252.200 314.400 C 249.863 314.400,247.939 314.575,247.800 314.800 C 247.652 315.039,245.004 315.200,241.200 315.200 C 237.396 315.200,234.748 315.361,234.600 315.600 C 234.444 315.852,229.956 316.000,222.456 316.000 C 214.711 316.000,210.414 316.146,210.142 316.418 C 209.715 316.845,208.669 316.829,183.400 316.002 C 159.815 315.229,158.400 315.160,158.400 314.781 C 158.400 314.562,156.455 314.400,153.824 314.400 C 151.204 314.400,149.142 314.229,149.000 314.000 C 148.864 313.780,147.233 313.600,145.376 313.600 C 143.392 313.600,142.000 313.435,142.000 313.200 C 142.000 312.975,140.875 312.800,139.424 312.800 C 138.007 312.800,136.736 312.620,136.600 312.400 C 136.464 312.180,135.564 312.000,134.600 312.000 C 133.636 312.000,132.736 311.820,132.600 311.600 C 132.464 311.380,131.744 311.200,131.000 311.200 C 130.256 311.200,129.536 311.020,129.400 310.800 C 129.264 310.580,128.533 310.400,127.776 310.400 C 127.019 310.400,126.400 310.220,126.400 310.000 C 126.400 309.780,126.040 309.600,125.600 309.600 C 125.160 309.600,124.800 309.420,124.800 309.200 C 124.800 308.980,124.524 308.800,124.187 308.800 C 122.726 308.800,118.400 302.496,118.400 300.367 C 118.400 299.971,118.220 299.536,118.000 299.400 C 117.780 299.264,117.600 298.544,117.600 297.800 C 117.600 297.056,117.420 296.336,117.200 296.200 C 116.980 296.064,116.800 295.189,116.800 294.256 C 116.800 293.323,116.637 292.389,116.437 292.180 C 116.064 291.789,115.735 289.501,115.349 284.600 C 115.228 283.060,114.987 281.620,114.814 281.400 C 113.864 280.194,113.560 249.913,114.380 238.200 C 115.147 227.246,115.252 226.211,115.631 225.820 C 115.834 225.611,116.000 224.497,116.000 223.344 C 116.000 222.191,116.180 221.136,116.400 221.000 C 116.620 220.864,116.800 219.964,116.800 219.000 C 116.800 218.036,116.980 217.136,117.200 217.000 C 117.420 216.864,117.600 216.221,117.600 215.571 C 117.600 214.921,117.759 214.077,117.953 213.695 C 118.502 212.616,119.099 211.143,119.666 209.465 C 120.258 207.716,123.200 204.400,124.160 204.400 C 124.512 204.400,124.800 204.220,124.800 204.000 C 124.800 203.780,125.160 203.600,125.600 203.600 C 126.040 203.600,126.400 203.420,126.400 203.200 C 126.400 202.980,126.940 202.800,127.600 202.800 C 128.260 202.800,128.800 202.638,128.800 202.440 C 128.800 202.242,129.655 201.969,130.700 201.832 C 131.745 201.696,133.410 201.480,134.400 201.353 C 135.390 201.226,136.371 200.960,136.580 200.761 C 136.789 200.563,138.058 200.400,139.400 200.400 C 140.742 200.400,142.011 200.234,142.220 200.031 C 142.628 199.635,146.070 199.293,152.800 198.978 C 155.110 198.870,157.360 198.618,157.800 198.420 C 158.612 198.053,165.741 197.762,183.800 197.360 C 189.300 197.238,193.980 197.076,194.200 197.000 C 195.010 196.723,207.351 196.832,219.800 197.227 M130.888 225.100 L 131.000 230.200 137.100 230.310 L 143.200 230.421 143.200 261.210 L 143.200 292.000 148.800 292.000 L 154.400 292.000 154.400 261.200 L 154.400 230.400 160.600 230.400 L 166.800 230.400 166.800 225.200 L 166.800 220.000 148.788 220.000 L 130.776 220.000 130.888 225.100 M208.800 256.000 L 208.800 292.000 213.976 292.000 L 219.152 292.000 219.276 290.503 C 219.440 288.526,220.461 288.326,222.028 289.966 C 222.676 290.645,223.465 291.200,223.780 291.200 C 224.095 291.200,224.464 291.380,224.600 291.600 C 224.736 291.820,225.287 292.000,225.824 292.000 C 226.361 292.000,226.800 292.180,226.800 292.400 C 226.800 292.622,227.859 292.800,229.176 292.800 C 230.483 292.800,231.664 292.620,231.800 292.400 C 231.936 292.180,232.448 292.000,232.937 292.000 C 234.101 292.000,238.000 288.081,238.000 286.911 C 238.000 286.436,238.180 285.936,238.400 285.800 C 238.658 285.641,238.800 278.596,238.800 265.976 C 238.800 253.192,238.661 246.400,238.400 246.400 C 238.180 246.400,238.000 245.948,238.000 245.395 C 238.000 244.320,237.430 243.130,236.300 241.845 C 235.915 241.407,235.600 240.908,235.600 240.736 C 235.600 240.564,234.605 239.968,233.388 239.412 C 229.463 237.616,224.469 238.387,221.381 241.264 C 219.184 243.311,219.200 243.383,219.200 231.200 L 219.200 220.000 214.000 220.000 L 208.800 220.000 208.800 256.000 M256.347 238.002 C 252.420 238.991,247.200 242.511,247.200 244.169 C 247.200 244.516,247.065 244.801,246.900 244.803 C 246.541 244.807,245.600 246.744,245.600 247.480 C 245.600 247.766,245.420 248.000,245.200 248.000 C 244.940 248.000,244.800 253.992,244.800 265.176 C 244.800 276.196,244.943 282.441,245.200 282.600 C 245.420 282.736,245.600 283.180,245.600 283.586 C 245.600 285.184,249.201 290.400,250.305 290.400 C 250.523 290.400,250.923 290.666,251.193 290.992 C 251.933 291.884,253.983 292.800,255.238 292.800 C 255.851 292.800,256.464 292.980,256.600 293.200 C 256.736 293.420,258.176 293.600,259.800 293.600 C 261.424 293.600,262.864 293.420,263.000 293.200 C 263.136 292.980,263.760 292.800,264.386 292.800 C 266.772 292.800,273.191 288.065,273.198 286.300 C 273.199 285.915,273.380 285.600,273.600 285.600 C 273.820 285.600,274.000 285.186,274.000 284.680 C 274.000 284.174,274.164 283.589,274.365 283.380 C 274.722 283.008,275.129 279.996,275.310 276.400 L 275.400 274.600 269.900 274.489 L 264.400 274.377 264.400 277.594 C 264.400 282.261,263.314 284.000,260.399 284.000 C 257.889 284.000,256.000 283.043,256.000 281.771 C 256.000 281.237,255.816 280.800,255.591 280.800 C 255.323 280.800,255.219 278.411,255.291 273.900 L 255.400 267.000 264.968 266.893 C 271.206 266.823,274.721 266.632,275.068 266.344 C 275.725 265.798,275.849 252.201,275.200 251.800 C 274.980 251.664,274.800 250.573,274.800 249.376 C 274.800 248.179,274.620 247.200,274.400 247.200 C 274.180 247.200,274.000 246.660,274.000 246.000 C 274.000 245.340,273.820 244.800,273.600 244.800 C 273.380 244.800,273.200 244.518,273.200 244.174 C 273.200 240.427,262.408 236.474,256.347 238.002 M171.600 262.354 C 171.600 283.204,171.676 286.144,172.264 287.963 C 173.034 290.347,174.504 292.000,175.855 292.000 C 176.375 292.000,176.800 292.180,176.800 292.400 C 176.800 292.620,177.689 292.800,178.776 292.800 C 179.863 292.800,180.864 292.620,181.000 292.400 C 181.136 292.180,181.580 292.000,181.986 292.000 C 183.202 292.000,186.075 290.317,188.129 288.400 C 190.764 285.942,190.800 285.952,190.800 289.167 L 190.800 292.000 196.000 292.000 L 201.200 292.000 201.200 265.400 L 201.200 238.800 196.000 238.800 L 190.800 238.800 190.800 258.917 L 190.800 279.033 189.100 280.618 C 185.896 283.604,183.852 284.039,182.427 282.038 C 181.616 280.899,181.600 280.466,181.600 259.838 L 181.600 238.800 176.600 238.800 L 171.600 238.800 171.600 262.354 M226.503 247.517 C 228.345 249.122,228.400 249.650,228.400 265.867 C 228.400 283.999,228.409 283.961,224.196 283.987 C 222.499 283.998,221.962 283.801,220.693 282.700 L 219.195 281.400 219.197 265.378 L 219.200 249.357 220.500 248.112 C 222.292 246.395,224.917 246.135,226.503 247.517 M263.295 248.446 C 264.343 249.701,264.400 249.981,264.400 253.842 C 264.400 258.613,264.615 258.400,259.800 258.400 C 254.999 258.400,255.195 258.586,255.229 254.057 C 255.272 248.420,256.616 246.570,260.395 246.945 C 261.822 247.087,262.417 247.395,263.295 248.446 "
              stroke="none" fill="#cf3427" fill-rule="evenodd"></path>
        <path id="path3"
              d="M382.406 202.500 C 382.411 203.228,382.486 203.285,382.800 202.800 C 383.301 202.024,383.301 201.600,382.800 201.600 C 382.580 201.600,382.403 202.005,382.406 202.500 M340.800 318.400 C 340.330 319.060,340.036 319.600,340.146 319.600 C 340.256 319.600,340.730 319.060,341.200 318.400 C 341.670 317.740,341.964 317.200,341.854 317.200 C 341.744 317.200,341.270 317.740,340.800 318.400 M318.200 341.035 L 317.000 342.066 318.300 341.206 C 319.015 340.733,319.600 340.268,319.600 340.173 C 319.600 339.873,319.431 339.978,318.200 341.035 M201.600 382.800 C 201.600 383.301,202.024 383.301,202.800 382.800 C 203.285 382.486,203.228 382.411,202.500 382.406 C 202.005 382.403,201.600 382.580,201.600 382.800 "
              stroke="none" fill="#ff0000" fill-rule="evenodd"></path>
        <path id="path4"
              d="M144.486 95.899 L 150.373 96.021 150.950 97.311 C 151.532 98.612,151.878 99.915,152.273 102.304 C 152.391 103.021,152.649 103.706,152.844 103.827 C 153.040 103.948,153.203 104.532,153.206 105.124 C 153.209 105.716,153.396 106.470,153.621 106.800 C 153.914 107.230,153.954 106.947,153.763 105.800 C 153.616 104.920,153.362 104.020,153.198 103.800 C 152.893 103.390,152.524 101.756,152.135 99.100 C 152.015 98.275,151.755 97.600,151.558 97.600 C 151.361 97.600,151.200 97.259,151.200 96.843 C 151.200 95.714,150.464 95.592,144.267 95.688 L 138.600 95.777 144.486 95.899 M172.118 95.898 C 173.833 95.973,176.533 95.972,178.118 95.897 C 179.703 95.821,178.300 95.759,175.000 95.760 C 171.700 95.761,170.403 95.822,172.118 95.898 M138.060 97.076 C 138.027 97.778,138.180 98.464,138.400 98.600 C 138.620 98.736,138.800 99.276,138.800 99.800 C 138.800 100.324,138.980 100.864,139.200 101.000 C 139.420 101.136,139.600 101.676,139.600 102.200 C 139.600 102.724,139.780 103.264,140.000 103.400 C 140.220 103.536,140.400 104.051,140.400 104.544 C 140.400 105.037,140.565 105.611,140.766 105.820 C 140.968 106.029,141.213 106.650,141.312 107.200 C 141.491 108.199,141.491 108.199,141.546 107.124 C 141.575 106.532,141.420 105.936,141.200 105.800 C 140.980 105.664,140.800 105.124,140.800 104.600 C 140.800 104.076,140.620 103.536,140.400 103.400 C 140.180 103.264,140.000 102.724,140.000 102.200 C 140.000 101.676,139.820 101.136,139.600 101.000 C 139.380 100.864,139.200 100.349,139.200 99.856 C 139.200 99.363,139.034 98.789,138.831 98.580 C 138.628 98.371,138.385 97.660,138.291 97.000 L 138.120 95.800 138.060 97.076 M168.080 96.480 C 167.816 96.744,167.600 97.543,167.600 98.256 C 167.600 98.969,167.420 99.664,167.200 99.800 C 166.980 99.936,166.800 100.631,166.800 101.344 C 166.800 102.057,166.649 102.811,166.464 103.020 C 166.280 103.229,165.890 104.480,165.597 105.800 C 165.305 107.120,164.941 108.380,164.788 108.600 C 164.635 108.820,164.407 109.900,164.280 111.000 C 164.132 112.288,164.174 112.715,164.397 112.200 C 164.588 111.760,164.756 110.903,164.772 110.295 C 164.787 109.687,164.962 108.877,165.161 108.495 C 165.360 108.113,165.738 106.990,166.003 106.000 C 166.267 105.010,166.645 103.787,166.842 103.281 C 167.039 102.776,167.200 101.841,167.200 101.205 C 167.200 100.568,167.380 99.936,167.600 99.800 C 167.820 99.664,168.000 99.102,168.000 98.550 C 168.000 97.999,168.186 97.199,168.414 96.774 C 168.888 95.888,168.773 95.787,168.080 96.480 M181.246 96.676 C 181.221 97.158,181.020 97.664,180.800 97.800 C 180.580 97.936,180.400 98.476,180.400 99.000 C 180.400 99.524,180.220 100.064,180.000 100.200 C 179.780 100.336,179.600 100.876,179.600 101.400 C 179.600 101.924,179.420 102.464,179.200 102.600 C 178.980 102.736,178.800 103.251,178.800 103.744 C 178.800 104.237,178.605 104.835,178.366 105.074 C 178.128 105.312,178.013 105.933,178.112 106.454 C 178.280 107.340,178.295 107.332,178.346 106.324 C 178.375 105.732,178.580 105.136,178.800 105.000 C 179.020 104.864,179.200 104.324,179.200 103.800 C 179.200 103.276,179.380 102.736,179.600 102.600 C 179.820 102.464,180.000 101.924,180.000 101.400 C 180.000 100.876,180.180 100.336,180.400 100.200 C 180.620 100.064,180.800 99.549,180.800 99.056 C 180.800 98.563,180.997 97.963,181.238 97.722 C 181.478 97.482,181.589 96.951,181.484 96.542 C 181.323 95.917,181.286 95.938,181.246 96.676 M154.056 108.400 C 154.056 108.730,154.211 109.360,154.400 109.800 C 154.617 110.304,154.744 110.378,154.744 110.000 C 154.744 109.670,154.589 109.040,154.400 108.600 C 154.183 108.096,154.056 108.022,154.056 108.400 M142.800 111.800 C 142.800 112.350,142.955 112.800,143.145 112.800 C 143.334 112.800,143.403 112.350,143.298 111.800 C 143.193 111.250,143.038 110.800,142.953 110.800 C 142.869 110.800,142.800 111.250,142.800 111.800 M154.806 111.433 C 154.809 111.855,154.995 112.470,155.218 112.800 C 155.515 113.238,155.552 113.076,155.356 112.200 C 155.027 110.729,154.798 110.410,154.806 111.433 M175.502 113.400 C 175.397 113.950,175.466 114.400,175.655 114.400 C 175.845 114.400,176.000 113.950,176.000 113.400 C 176.000 112.850,175.931 112.400,175.847 112.400 C 175.762 112.400,175.607 112.850,175.502 113.400 M163.429 114.229 C 163.281 114.815,163.251 115.384,163.361 115.494 C 163.471 115.604,163.681 115.215,163.829 114.629 C 163.976 114.042,164.006 113.473,163.896 113.363 C 163.786 113.253,163.576 113.642,163.429 114.229 M155.606 114.233 C 155.609 114.655,155.795 115.270,156.018 115.600 C 156.315 116.038,156.352 115.876,156.156 115.000 C 155.827 113.529,155.598 113.210,155.606 114.233 M197.600 114.776 C 197.270 115.003,196.423 115.191,195.719 115.194 C 190.552 115.219,183.200 121.590,183.200 126.044 C 183.200 126.654,183.020 127.264,182.800 127.400 C 182.543 127.559,182.400 133.863,182.400 145.000 C 182.400 156.137,182.543 162.441,182.800 162.600 C 183.020 162.736,183.200 163.456,183.200 164.200 C 183.200 164.944,183.380 165.664,183.600 165.800 C 183.820 165.936,184.000 166.459,184.000 166.962 C 184.000 167.465,184.360 168.202,184.800 168.600 C 185.240 168.998,185.600 169.522,185.600 169.765 C 185.600 170.199,188.214 172.800,188.651 172.800 C 188.774 172.800,188.092 171.929,187.137 170.865 C 186.182 169.802,185.154 168.407,184.853 167.765 C 184.553 167.124,184.148 166.287,183.953 165.905 C 183.759 165.523,183.600 164.679,183.600 164.029 C 183.600 163.379,183.420 162.736,183.200 162.600 C 182.943 162.441,182.800 156.137,182.800 145.000 C 182.800 133.863,182.943 127.559,183.200 127.400 C 183.420 127.264,183.600 126.659,183.600 126.055 C 183.600 122.428,187.689 118.132,193.000 116.180 C 196.560 114.872,205.450 114.786,206.233 116.053 C 206.351 116.244,206.809 116.400,207.252 116.400 C 209.544 116.400,215.600 122.472,215.600 124.771 C 215.600 125.201,215.780 125.664,216.000 125.800 C 216.258 125.959,216.400 132.930,216.400 145.400 C 216.400 157.870,216.258 164.841,216.000 165.000 C 215.780 165.136,215.600 165.569,215.600 165.962 C 215.600 167.119,214.514 168.967,212.669 170.948 C 211.720 171.967,211.047 172.800,211.172 172.800 C 211.601 172.799,213.600 170.907,213.600 170.502 C 213.600 170.280,213.866 169.877,214.192 169.607 C 214.961 168.968,216.000 166.874,216.000 165.962 C 216.000 165.569,216.180 165.136,216.400 165.000 C 216.658 164.841,216.800 157.796,216.800 145.176 C 216.800 132.392,216.661 125.600,216.400 125.600 C 216.180 125.600,216.000 125.245,216.000 124.812 C 216.000 122.318,209.700 116.000,207.214 116.000 C 206.792 116.000,206.348 115.839,206.226 115.642 C 205.791 114.939,198.439 114.201,197.600 114.776 M226.667 116.267 C 226.296 116.637,226.329 168.709,226.700 168.938 C 226.865 169.040,226.952 157.256,226.894 142.750 L 226.789 116.377 232.094 116.488 L 237.400 116.600 237.600 139.667 C 237.710 152.354,237.890 162.824,238.000 162.934 C 238.439 163.373,237.982 117.060,237.541 116.529 C 237.076 115.968,227.204 115.730,226.667 116.267 M247.867 116.267 C 247.720 116.413,247.600 126.486,247.600 138.650 L 247.600 160.766 246.062 162.383 C 245.216 163.272,244.655 164.000,244.815 164.000 C 244.976 164.000,245.758 163.279,246.553 162.399 L 248.000 160.798 248.000 138.578 L 248.000 116.359 253.763 116.479 C 256.932 116.546,259.442 116.465,259.339 116.300 C 259.109 115.929,248.236 115.898,247.867 116.267 M162.629 117.429 C 162.481 118.015,162.438 118.572,162.532 118.666 C 162.627 118.760,162.824 118.358,162.971 117.771 C 163.119 117.185,163.162 116.628,163.068 116.534 C 162.973 116.440,162.776 116.842,162.629 117.429 M156.702 118.600 C 156.807 119.150,156.962 119.600,157.047 119.600 C 157.131 119.600,157.200 119.150,157.200 118.600 C 157.200 118.050,157.045 117.600,156.855 117.600 C 156.666 117.600,156.597 118.050,156.702 118.600 M196.624 125.413 C 195.946 125.925,195.934 126.000,196.524 126.000 C 196.896 126.000,197.200 125.829,197.200 125.619 C 197.200 125.410,198.325 125.174,199.700 125.096 L 202.200 124.954 199.800 124.890 C 198.222 124.847,197.134 125.027,196.624 125.413 M203.539 126.347 C 204.012 126.758,204.400 127.388,204.400 127.747 C 204.400 128.106,204.574 128.400,204.787 128.400 C 205.001 128.400,205.063 128.085,204.927 127.700 C 204.594 126.761,203.571 125.600,203.077 125.600 C 202.857 125.600,203.065 125.936,203.539 126.347 M147.853 127.200 C 147.992 127.970,148.262 128.771,148.453 128.980 C 148.644 129.189,148.800 129.763,148.800 130.256 C 148.800 130.749,148.980 131.264,149.200 131.400 C 149.420 131.536,149.621 132.042,149.646 132.524 C 149.686 133.262,149.723 133.283,149.884 132.658 C 149.989 132.249,149.878 131.718,149.638 131.478 C 149.397 131.237,149.200 130.637,149.200 130.144 C 149.200 129.651,149.020 129.136,148.800 129.000 C 148.580 128.864,148.397 128.358,148.394 127.876 C 148.391 127.394,148.211 126.730,147.994 126.400 C 147.717 125.977,147.676 126.213,147.853 127.200 M169.856 130.776 C 169.275 132.534,168.810 134.203,168.822 134.486 C 168.834 134.769,169.377 133.398,170.029 131.440 C 170.680 129.482,171.146 127.813,171.063 127.730 C 170.980 127.647,170.437 129.018,169.856 130.776 M194.584 145.200 C 194.584 154.770,194.636 158.685,194.700 153.900 C 194.763 149.115,194.763 141.285,194.700 136.500 C 194.636 131.715,194.584 135.630,194.584 145.200 M150.314 134.792 C 150.412 135.462,150.651 136.108,150.846 136.229 C 151.041 136.349,151.200 136.876,151.200 137.400 C 151.200 137.924,151.380 138.464,151.600 138.600 C 151.820 138.736,152.000 139.287,152.000 139.824 C 152.000 140.361,152.167 140.800,152.372 140.800 C 152.592 140.800,152.608 140.352,152.409 139.700 C 150.768 134.307,149.967 132.433,150.314 134.792 M168.158 135.900 C 168.039 136.285,167.775 136.913,167.571 137.295 C 167.367 137.677,167.200 138.316,167.200 138.715 C 167.200 139.114,167.024 139.616,166.809 139.831 C 166.346 140.294,166.042 174.400,166.500 174.400 C 166.665 174.400,166.800 166.748,166.800 157.395 C 166.800 148.042,166.959 140.077,167.153 139.695 C 168.120 137.793,168.926 135.200,168.550 135.200 C 168.454 135.200,168.277 135.515,168.158 135.900 M152.806 142.033 C 152.809 142.565,152.989 143.270,153.206 143.600 C 153.482 144.022,153.523 143.785,153.342 142.800 C 153.025 141.075,152.798 140.749,152.806 142.033 M204.559 162.300 C 203.320 166.308,196.947 167.343,195.584 163.758 C 195.170 162.669,194.692 162.427,195.075 163.500 C 196.607 167.797,203.737 167.071,204.897 162.500 C 205.164 161.445,204.876 161.274,204.559 162.300 M238.773 164.167 C 239.181 164.659,240.800 165.318,240.800 164.992 C 240.800 164.919,240.242 164.580,239.560 164.240 C 238.622 163.772,238.430 163.755,238.773 164.167 M242.800 164.288 C 241.333 164.551,240.962 165.096,242.392 164.886 C 243.062 164.788,243.708 164.549,243.829 164.354 C 243.949 164.159,243.992 164.025,243.924 164.054 C 243.856 164.084,243.350 164.190,242.800 164.288 M246.363 169.574 C 245.613 170.220,244.460 171.223,243.800 171.804 L 242.600 172.858 244.000 171.938 C 244.770 171.432,245.985 170.483,246.700 169.830 L 248.000 168.643 248.000 171.298 C 248.000 172.758,248.135 174.037,248.300 174.140 C 248.465 174.242,248.541 172.993,248.468 171.363 C 248.320 168.015,248.245 167.952,246.363 169.574 M228.000 172.356 C 228.000 172.735,229.955 174.599,230.111 174.368 C 230.174 174.276,229.724 173.716,229.112 173.126 C 228.501 172.535,228.000 172.188,228.000 172.356 M240.600 173.627 C 239.940 174.050,239.642 174.397,239.937 174.398 C 240.232 174.399,240.931 174.040,241.491 173.600 C 242.774 172.591,242.190 172.608,240.600 173.627 M231.141 174.901 C 231.343 175.103,231.933 175.201,232.454 175.119 C 233.255 174.993,233.198 174.937,232.087 174.752 C 231.293 174.621,230.919 174.679,231.141 174.901 M237.200 174.800 L 235.800 175.095 237.076 175.147 C 237.778 175.176,238.464 175.020,238.600 174.800 C 238.736 174.580,238.792 174.424,238.724 174.453 C 238.656 174.482,237.970 174.638,237.200 174.800 M195.062 175.700 C 195.164 175.865,197.386 176.000,200.000 176.000 C 202.614 176.000,204.836 175.865,204.938 175.700 C 205.040 175.535,202.818 175.400,200.000 175.400 C 197.182 175.400,194.960 175.535,195.062 175.700 M186.400 197.187 C 181.890 197.304,189.360 197.400,203.000 197.400 C 218.991 197.400,224.532 197.312,218.600 197.153 C 208.106 196.870,198.226 196.881,186.400 197.187 M164.400 197.888 C 161.210 197.950,158.240 198.176,157.800 198.391 C 157.360 198.606,155.110 198.870,152.800 198.978 C 146.584 199.269,142.636 199.628,142.319 199.931 C 142.165 200.079,143.515 200.054,145.319 199.876 C 147.124 199.698,150.580 199.462,153.000 199.351 C 155.420 199.241,157.571 198.982,157.780 198.775 C 157.989 198.569,160.689 198.376,163.780 198.348 C 166.871 198.319,170.750 198.168,172.400 198.012 L 175.400 197.729 172.800 197.753 C 171.370 197.766,167.590 197.827,164.400 197.888 M230.893 197.827 C 231.003 197.936,234.942 198.205,239.646 198.423 C 244.351 198.642,250.208 198.951,252.663 199.111 C 255.118 199.270,257.042 199.265,256.939 199.100 C 256.837 198.935,255.080 198.800,253.036 198.800 C 250.992 198.800,248.798 198.635,248.160 198.433 C 246.956 198.052,230.542 197.476,230.893 197.827 M260.400 199.884 C 262.050 199.953,263.760 200.179,264.200 200.387 C 264.640 200.594,265.990 200.849,267.200 200.953 C 268.410 201.057,270.335 201.302,271.478 201.497 C 272.620 201.691,273.465 201.704,273.354 201.525 C 273.243 201.346,272.454 201.200,271.600 201.200 C 270.746 201.200,269.936 201.020,269.800 200.800 C 269.664 200.580,268.404 200.400,267.000 200.400 C 265.596 200.400,264.336 200.220,264.200 200.000 C 264.061 199.775,262.520 199.635,260.676 199.679 L 257.400 199.759 260.400 199.884 M136.580 200.761 C 136.371 200.960,135.300 201.233,134.200 201.369 C 129.633 201.933,128.800 202.098,128.800 202.440 C 128.800 202.638,128.260 202.800,127.600 202.800 C 126.940 202.800,126.400 202.980,126.400 203.200 C 126.400 203.420,125.995 203.621,125.500 203.646 C 124.759 203.685,124.731 203.727,125.342 203.884 C 125.751 203.989,126.282 203.878,126.522 203.638 C 126.763 203.397,127.363 203.200,127.856 203.200 C 128.349 203.200,128.852 203.039,128.974 202.842 C 129.184 202.502,130.240 202.283,134.100 201.777 C 135.035 201.655,136.160 201.388,136.600 201.185 C 137.040 200.981,138.390 200.755,139.600 200.682 L 141.800 200.548 139.380 200.474 C 138.049 200.433,136.789 200.563,136.580 200.761 M274.000 202.156 C 274.000 202.242,274.630 202.386,275.400 202.476 C 276.170 202.566,276.800 202.496,276.800 202.320 C 276.800 202.144,276.170 202.000,275.400 202.000 C 274.630 202.000,274.000 202.070,274.000 202.156 M277.200 202.953 C 277.200 203.038,277.650 203.193,278.200 203.298 C 278.750 203.403,279.200 203.334,279.200 203.145 C 279.200 202.955,278.750 202.800,278.200 202.800 C 277.650 202.800,277.200 202.869,277.200 202.953 M280.000 203.867 C 282.383 204.679,284.400 206.180,284.400 207.143 C 284.400 207.326,284.750 207.793,285.178 208.180 C 285.605 208.567,286.031 209.270,286.123 209.742 C 286.289 210.590,286.292 210.590,286.346 209.762 C 286.375 209.301,286.040 208.598,285.600 208.200 C 285.160 207.802,284.800 207.268,284.800 207.013 C 284.800 206.032,281.387 203.574,280.105 203.632 C 279.559 203.656,279.535 203.709,280.000 203.867 M122.040 205.876 C 120.675 207.303,119.197 209.911,119.204 210.881 C 119.206 211.166,119.628 210.500,120.141 209.400 C 120.654 208.300,121.823 206.725,122.738 205.900 C 123.654 205.075,124.177 204.412,123.901 204.427 C 123.626 204.443,122.788 205.095,122.040 205.876 M118.558 212.300 C 118.439 212.685,118.175 213.313,117.971 213.695 C 117.767 214.077,117.600 214.921,117.600 215.571 C 117.600 216.221,117.420 216.864,117.200 217.000 C 116.980 217.136,116.800 218.036,116.800 219.000 C 116.800 219.964,116.620 220.864,116.400 221.000 C 116.180 221.136,116.000 222.216,116.000 223.400 C 116.000 224.584,115.820 225.664,115.600 225.800 C 115.380 225.936,115.200 227.218,115.200 228.650 C 115.200 230.081,115.045 231.556,114.855 231.926 C 114.665 232.297,114.408 235.570,114.284 239.200 C 114.000 247.484,114.277 247.063,114.816 238.391 C 115.436 228.412,115.599 226.671,115.995 225.800 C 116.195 225.360,116.461 224.100,116.587 223.000 C 117.108 218.444,117.295 217.381,117.639 217.020 C 117.837 216.811,118.000 216.147,118.000 215.544 C 118.000 214.941,118.159 214.349,118.354 214.229 C 118.549 214.108,118.787 213.468,118.885 212.805 C 119.079 211.480,118.898 211.201,118.558 212.300 M287.656 214.400 C 287.656 214.730,287.811 215.360,288.000 215.800 C 288.217 216.304,288.344 216.378,288.344 216.000 C 288.344 215.670,288.189 215.040,288.000 214.600 C 287.783 214.096,287.656 214.022,287.656 214.400 M288.480 217.400 C 288.480 217.840,288.624 218.650,288.800 219.200 C 289.054 219.992,289.120 220.033,289.120 219.400 C 289.120 218.960,288.976 218.150,288.800 217.600 C 288.546 216.808,288.480 216.767,288.480 217.400 M130.671 219.863 C 130.298 220.235,130.327 230.400,130.700 230.401 C 130.865 230.401,130.945 228.061,130.878 225.201 L 130.756 220.000 148.766 220.000 L 166.777 220.000 166.907 225.300 L 167.038 230.600 167.019 225.200 L 167.000 219.800 148.971 219.696 C 139.055 219.639,130.820 219.714,130.671 219.863 M213.999 219.893 L 219.200 220.023 219.200 231.212 C 219.200 243.471,219.216 243.544,221.425 241.100 L 222.600 239.800 221.378 240.900 C 220.706 241.505,220.034 242.000,219.884 242.000 C 219.735 242.000,219.565 237.005,219.506 230.900 L 219.400 219.800 214.099 219.782 L 208.799 219.764 213.999 219.893 M289.477 222.600 C 289.600 223.920,289.768 225.075,289.850 225.167 C 290.118 225.464,289.915 222.634,289.580 221.400 C 289.365 220.611,289.330 221.022,289.477 222.600 M290.276 229.046 C 290.540 231.755,290.732 232.133,290.762 230.000 C 290.776 229.010,290.630 227.951,290.437 227.646 C 290.221 227.305,290.159 227.842,290.276 229.046 M137.098 230.699 L 142.795 230.822 142.898 261.511 L 143.000 292.200 148.800 292.200 L 154.600 292.200 154.702 261.511 L 154.805 230.821 160.702 230.699 L 166.600 230.577 160.500 230.488 L 154.400 230.400 154.400 261.200 L 154.400 292.000 148.800 292.000 L 143.200 292.000 143.200 261.200 L 143.200 230.400 137.300 230.488 L 131.400 230.576 137.098 230.699 M291.107 237.000 C 291.218 238.760,291.375 240.275,291.455 240.367 C 291.732 240.684,291.519 235.795,291.212 234.800 C 291.043 234.250,290.995 235.240,291.107 237.000 M255.200 238.006 C 254.778 238.282,255.015 238.323,256.000 238.142 C 257.725 237.825,258.051 237.598,256.767 237.606 C 256.235 237.609,255.530 237.789,255.200 238.006 M265.600 238.350 C 268.594 239.313,269.533 239.865,271.292 241.696 C 272.122 242.559,272.800 243.107,272.800 242.914 C 272.800 241.499,266.478 237.568,264.289 237.622 C 263.800 237.633,264.390 237.961,265.600 238.350 M227.907 238.290 C 228.626 238.379,229.706 238.377,230.307 238.286 C 230.908 238.195,230.320 238.122,229.000 238.124 C 227.680 238.126,227.188 238.201,227.907 238.290 M171.228 262.300 C 171.244 275.445,171.379 286.509,171.528 286.886 C 171.678 287.263,171.750 276.598,171.688 263.186 L 171.576 238.800 176.588 238.800 L 181.600 238.800 181.600 259.838 C 181.600 280.466,181.616 280.899,182.427 282.038 C 183.840 284.022,186.432 283.442,189.304 280.499 L 190.808 278.959 190.700 258.979 L 190.592 239.000 190.496 259.036 L 190.400 279.071 188.880 280.436 C 186.848 282.260,185.837 282.800,184.451 282.800 C 181.969 282.800,182.000 283.097,182.000 259.614 L 182.000 238.400 176.600 238.400 L 171.200 238.400 171.228 262.300 M195.997 238.693 L 201.194 238.823 201.301 265.312 L 201.409 291.800 201.404 265.200 L 201.400 238.600 196.099 238.582 L 190.799 238.564 195.997 238.693 M232.968 239.214 C 233.831 239.645,234.612 239.921,234.705 239.828 C 234.936 239.597,232.567 238.396,231.920 238.416 C 231.634 238.425,232.106 238.784,232.968 239.214 M235.552 240.669 C 235.795 241.147,236.221 241.784,236.497 242.084 C 237.411 243.078,238.000 244.375,238.000 245.395 C 238.000 245.948,238.180 246.400,238.400 246.400 C 238.660 246.400,238.834 253.231,238.896 265.900 L 238.992 285.400 239.100 266.024 C 239.170 253.371,239.068 246.508,238.804 246.244 C 238.582 246.022,238.400 245.521,238.400 245.132 C 238.400 244.237,236.984 241.649,235.920 240.600 L 235.109 239.800 235.552 240.669 M248.468 241.727 C 247.235 243.040,247.387 243.449,248.642 242.194 C 249.216 241.621,249.606 241.073,249.511 240.977 C 249.415 240.882,248.946 241.219,248.468 241.727 M246.007 245.456 C 245.478 246.525,244.979 247.535,244.898 247.700 C 244.818 247.865,244.943 248.000,245.176 248.000 C 245.409 248.000,245.600 247.728,245.600 247.395 C 245.600 246.724,246.406 245.141,246.949 244.746 C 247.141 244.607,247.224 244.272,247.134 244.002 C 247.044 243.733,246.537 244.387,246.007 245.456 M274.000 246.200 C 274.000 246.750,274.155 247.200,274.345 247.200 C 274.534 247.200,274.603 246.750,274.498 246.200 C 274.393 245.650,274.238 245.200,274.153 245.200 C 274.069 245.200,274.000 245.650,274.000 246.200 M220.478 248.119 L 219.200 249.438 219.197 265.419 L 219.195 281.400 220.693 282.700 C 222.162 283.975,225.964 284.625,226.539 283.700 C 226.642 283.535,225.763 283.461,224.586 283.536 C 222.726 283.654,222.261 283.523,221.023 282.536 L 219.600 281.400 219.600 265.370 L 219.600 249.339 220.500 248.524 C 220.995 248.076,221.760 247.510,222.200 247.267 C 222.792 246.939,222.839 246.821,222.378 246.812 C 222.037 246.805,221.182 247.394,220.478 248.119 M226.326 247.912 C 226.916 248.524,227.476 248.974,227.568 248.911 C 227.799 248.755,225.935 246.800,225.556 246.800 C 225.388 246.800,225.735 247.301,226.326 247.912 M257.631 247.283 C 255.771 248.275,255.253 249.819,255.313 254.200 L 255.367 258.200 255.498 254.288 C 255.694 248.445,257.119 246.645,260.975 247.369 C 263.190 247.784,263.760 249.020,264.027 253.979 L 264.253 258.200 264.327 253.985 C 264.431 248.011,261.594 245.172,257.631 247.283 M274.920 249.600 C 274.920 250.810,274.995 251.305,275.087 250.700 C 275.178 250.095,275.178 249.105,275.087 248.500 C 274.995 247.895,274.920 248.390,274.920 249.600 M292.170 256.600 C 292.171 261.440,292.229 263.365,292.299 260.878 C 292.369 258.391,292.369 254.431,292.298 252.078 C 292.228 249.725,292.170 251.760,292.170 256.600 M113.768 256.600 C 113.768 261.000,113.826 262.855,113.898 260.721 C 113.970 258.588,113.970 254.988,113.899 252.721 C 113.827 250.455,113.768 252.200,113.768 256.600 M244.583 265.400 C 244.583 274.640,244.636 278.363,244.700 273.673 C 244.764 268.983,244.764 261.423,244.699 256.873 C 244.635 252.323,244.583 256.160,244.583 265.400 M227.800 265.800 C 227.800 274.668,227.935 281.840,228.100 281.738 C 228.265 281.636,228.400 274.464,228.400 265.800 C 228.400 257.136,228.265 249.964,228.100 249.862 C 227.935 249.760,227.800 256.932,227.800 265.800 M257.913 258.295 C 259.076 258.376,260.876 258.376,261.913 258.293 C 262.951 258.211,262.000 258.145,259.800 258.146 C 257.600 258.147,256.751 258.214,257.913 258.295 M274.967 266.393 C 274.739 266.621,270.571 266.830,264.987 266.893 L 255.400 267.000 255.291 273.900 C 255.230 277.695,255.320 280.800,255.491 280.801 C 255.661 280.801,255.747 277.741,255.682 274.001 L 255.564 267.200 265.133 267.200 C 273.151 267.200,274.783 267.103,275.200 266.600 C 275.754 265.933,275.581 265.779,274.967 266.393 M114.260 274.000 C 114.371 277.630,114.622 280.960,114.816 281.400 C 115.010 281.840,115.260 283.370,115.371 284.800 C 115.736 289.495,116.068 291.794,116.437 292.180 C 116.637 292.389,116.800 293.323,116.800 294.256 C 116.800 295.189,116.980 296.064,117.200 296.200 C 117.420 296.336,117.600 297.056,117.600 297.800 C 117.600 298.544,117.780 299.264,118.000 299.400 C 118.220 299.536,118.400 299.962,118.400 300.347 C 118.400 300.731,119.029 302.296,119.799 303.823 C 120.568 305.350,121.198 306.393,121.199 306.141 C 121.199 305.888,120.660 304.655,120.000 303.400 C 119.340 302.145,118.800 300.788,118.800 300.383 C 118.800 299.978,118.620 299.536,118.400 299.400 C 118.180 299.264,118.000 298.544,118.000 297.800 C 118.000 297.056,117.820 296.336,117.600 296.200 C 117.380 296.064,117.200 295.189,117.200 294.256 C 117.200 293.323,117.037 292.389,116.837 292.180 C 116.637 291.971,116.364 290.810,116.230 289.600 C 116.096 288.390,115.807 285.960,115.589 284.200 C 115.370 282.440,115.015 278.124,114.799 274.609 C 114.277 266.114,114.009 265.811,114.260 274.000 M291.274 274.650 C 291.233 275.778,291.111 277.308,291.001 278.050 L 290.803 279.400 291.221 278.068 C 291.451 277.335,291.574 275.805,291.494 274.668 L 291.348 272.600 291.274 274.650 M267.317 274.297 C 268.811 274.374,271.151 274.374,272.517 274.296 C 273.882 274.218,272.660 274.155,269.800 274.155 C 266.940 274.156,265.822 274.220,267.317 274.297 M264.051 277.600 C 263.892 282.524,263.296 283.400,260.102 283.400 C 258.767 283.400,257.758 283.535,257.861 283.700 C 258.259 284.341,262.259 284.020,262.855 283.300 C 264.147 281.739,264.436 280.557,264.299 277.392 L 264.161 274.200 264.051 277.600 M275.049 278.615 C 274.912 278.973,274.826 280.106,274.859 281.133 C 274.916 282.960,274.923 282.949,275.190 280.600 C 275.480 278.037,275.448 277.577,275.049 278.615 M256.126 281.969 C 256.167 282.501,256.470 283.010,256.800 283.099 C 257.196 283.206,257.246 283.149,256.946 282.930 C 256.697 282.749,256.393 282.240,256.272 281.800 C 256.099 281.169,256.068 281.205,256.126 281.969 M290.470 283.267 C 290.431 284.074,290.284 285.064,290.141 285.467 C 289.944 286.026,289.997 286.094,290.367 285.754 C 290.657 285.487,290.789 284.607,290.696 283.554 C 290.548 281.898,290.536 281.882,290.470 283.267 M245.072 283.299 C 245.545 285.463,248.930 290.803,249.480 290.253 C 249.584 290.149,249.157 289.529,248.531 288.874 C 247.171 287.451,245.600 284.616,245.600 283.586 C 245.600 283.180,245.437 282.746,245.237 282.623 C 245.038 282.500,244.963 282.804,245.072 283.299 M188.300 288.231 C 187.255 289.228,186.400 290.162,186.400 290.307 C 186.400 290.452,187.290 289.693,188.378 288.622 L 190.356 286.673 190.503 289.037 L 190.649 291.400 190.724 288.900 C 190.814 285.924,190.740 285.904,188.300 288.231 M270.968 289.122 C 269.886 290.180,268.325 291.358,267.500 291.741 C 266.675 292.124,266.000 292.530,266.000 292.642 C 266.000 292.755,266.135 292.777,266.300 292.691 C 266.465 292.605,267.230 292.245,268.000 291.891 C 268.770 291.537,270.293 290.337,271.385 289.224 C 273.910 286.650,273.581 286.570,270.968 289.122 M235.785 290.060 C 234.693 291.193,234.250 291.789,234.800 291.385 C 235.769 290.674,238.237 288.000,237.924 288.000 C 237.839 288.000,236.877 288.927,235.785 290.060 M289.415 290.215 C 289.261 291.454,289.224 292.557,289.334 292.667 C 289.444 292.777,289.661 291.854,289.815 290.615 C 289.970 289.377,290.007 288.273,289.897 288.163 C 289.787 288.053,289.570 288.977,289.415 290.215 M219.467 289.067 C 219.320 289.213,219.200 289.928,219.200 290.654 L 219.200 291.975 214.300 292.108 L 209.400 292.240 214.400 292.220 L 219.400 292.200 219.524 290.700 C 219.664 289.007,220.229 288.808,221.508 290.000 C 221.980 290.440,222.507 290.800,222.679 290.800 C 222.851 290.800,222.507 290.350,221.913 289.800 C 220.846 288.810,219.982 288.551,219.467 289.067 M184.493 290.980 C 183.239 291.672,182.862 292.101,183.812 291.755 C 184.798 291.395,186.314 290.386,185.789 290.439 C 185.575 290.461,184.992 290.704,184.493 290.980 M193.700 292.296 C 194.965 292.375,197.035 292.375,198.300 292.296 C 199.565 292.216,198.530 292.151,196.000 292.151 C 193.470 292.151,192.435 292.216,193.700 292.296 M254.400 292.955 C 254.400 293.040,254.930 293.187,255.579 293.282 C 256.227 293.377,256.667 293.308,256.555 293.128 C 256.357 292.807,254.400 292.650,254.400 292.955 M263.045 293.128 C 262.933 293.308,263.373 293.377,264.021 293.282 C 264.670 293.187,265.200 293.040,265.200 292.955 C 265.200 292.650,263.243 292.807,263.045 293.128 M288.622 294.622 C 288.472 295.425,288.428 296.162,288.526 296.260 C 288.624 296.357,288.827 295.781,288.978 294.978 C 289.128 294.175,289.172 293.438,289.074 293.340 C 288.976 293.243,288.773 293.819,288.622 294.622 M287.800 298.000 C 287.648 298.691,287.607 299.341,287.709 299.442 C 287.811 299.544,288.009 299.053,288.150 298.350 C 288.291 297.647,288.331 296.998,288.241 296.908 C 288.150 296.817,287.952 297.309,287.800 298.000 M287.021 300.500 C 285.645 304.966,283.965 307.499,281.583 308.696 C 280.247 309.367,280.026 309.593,280.700 309.596 C 281.195 309.598,281.600 309.420,281.600 309.200 C 281.600 308.980,281.894 308.800,282.253 308.800 C 283.515 308.800,286.192 304.716,287.173 301.294 C 287.514 300.105,287.372 299.361,287.021 300.500 M129.552 310.912 C 129.745 311.105,130.419 311.198,131.051 311.119 C 132.109 310.987,132.081 310.959,130.700 310.768 C 129.840 310.649,129.350 310.710,129.552 310.912 M274.705 311.083 C 275.202 311.179,275.922 311.175,276.305 311.075 C 276.687 310.975,276.280 310.896,275.400 310.901 C 274.520 310.905,274.207 310.987,274.705 311.083 M132.760 311.720 C 132.946 311.906,133.706 311.996,134.449 311.919 C 135.767 311.783,135.758 311.775,134.110 311.580 C 133.181 311.471,132.573 311.533,132.760 311.720 M270.905 311.887 C 271.514 311.979,272.414 311.977,272.905 311.882 C 273.397 311.787,272.900 311.711,271.800 311.714 C 270.700 311.717,270.297 311.795,270.905 311.887 M136.761 312.523 C 136.940 312.700,138.056 312.788,139.243 312.717 L 141.400 312.589 138.918 312.394 C 137.554 312.287,136.583 312.345,136.761 312.523 M266.600 312.400 L 264.200 312.666 266.476 312.733 C 267.728 312.770,268.864 312.620,269.000 312.400 C 269.136 312.180,269.192 312.030,269.124 312.067 C 269.056 312.104,267.920 312.254,266.600 312.400 M260.600 313.200 L 257.800 313.459 260.700 313.529 C 262.414 313.571,263.600 313.436,263.600 313.200 C 263.600 312.980,263.555 312.832,263.500 312.871 C 263.445 312.909,262.140 313.058,260.600 313.200 M143.511 313.493 C 144.451 313.578,145.891 313.577,146.711 313.491 C 147.530 313.405,146.760 313.336,145.000 313.337 C 143.240 313.339,142.570 313.409,143.511 313.493 M149.154 314.116 C 149.329 314.290,151.166 314.378,153.236 314.313 L 157.000 314.195 152.918 313.997 C 150.673 313.889,148.979 313.942,149.154 314.116 M252.800 314.000 L 249.000 314.247 252.676 314.323 C 254.783 314.367,256.458 314.229,256.600 314.000 C 256.736 313.780,256.792 313.634,256.724 313.677 C 256.656 313.719,254.890 313.864,252.800 314.000 M158.399 314.900 C 158.400 315.065,160.965 315.168,164.100 315.128 C 169.928 315.054,169.248 314.895,162.299 314.706 C 160.154 314.648,158.399 314.735,158.399 314.900 M242.000 314.800 L 236.200 315.034 241.876 315.117 C 245.322 315.167,247.650 315.043,247.800 314.800 C 247.936 314.580,247.992 314.437,247.924 314.483 C 247.856 314.529,245.190 314.672,242.000 314.800 M171.336 315.694 C 171.591 315.856,176.210 315.955,181.600 315.916 C 192.123 315.838,190.896 315.673,178.536 315.505 C 174.321 315.447,171.081 315.532,171.336 315.694 M224.600 315.600 L 214.600 315.821 224.476 315.911 C 230.728 315.967,234.444 315.853,234.600 315.600 C 234.736 315.380,234.792 315.240,234.724 315.289 C 234.656 315.339,230.100 315.478,224.600 315.600 M195.738 316.494 C 196.348 316.882,209.899 316.887,210.138 316.500 C 210.240 316.335,206.938 316.200,202.800 316.200 C 198.662 316.200,195.484 316.332,195.738 316.494 "
              stroke="none" fill="#de736a" fill-rule="evenodd"></path>
    </g>
</svg>