<?xml version="1.0" encoding="UTF-8" standalone="no"?>
<svg
   xmlns:dc="http://purl.org/dc/elements/1.1/"
   xmlns:cc="http://creativecommons.org/ns#"
   xmlns:rdf="http://www.w3.org/1999/02/22-rdf-syntax-ns#"
   xmlns:svg="http://www.w3.org/2000/svg"
   xmlns="http://www.w3.org/2000/svg"
   xmlns:sodipodi="http://sodipodi.sourceforge.net/DTD/sodipodi-0.dtd"
   xmlns:inkscape="http://www.inkscape.org/namespaces/inkscape"
   id="Layer_4"
   viewBox="95 151 1284.9749 200"
   version="1.1"
   inkscape:version="0.91 r13725"
   sodipodi:docname="gdg-logo.svg"
   width="1284.975"
   height="200">
  <metadata
     id="metadata22">
    <rdf:RDF>
      <cc:Work
         rdf:about="">
        <dc:format>image/svg+xml</dc:format>
        <dc:type
           rdf:resource="http://purl.org/dc/dcmitype/StillImage" />
        <dc:title></dc:title>
      </cc:Work>
    </rdf:RDF>
  </metadata>
  <defs
     id="defs20" />
  <sodipodi:namedview
     pagecolor="#ffffff"
     bordercolor="#666666"
     borderopacity="1"
     objecttolerance="10"
     gridtolerance="10"
     guidetolerance="10"
     inkscape:pageopacity="0"
     inkscape:pageshadow="2"
     inkscape:window-width="1535"
     inkscape:window-height="627"
     id="namedview18"
     showgrid="false"
     fit-margin-top="0"
     fit-margin-left="0"
     fit-margin-right="0"
     fit-margin-bottom="0"
     inkscape:zoom="0.33966766"
     inkscape:cx="172.22717"
     inkscape:cy="100"
     inkscape:window-x="0"
     inkscape:window-y="27"
     inkscape:window-maximized="0"
     inkscape:current-layer="XMLID_6_" />
  <style
     id="style3">.st0{fill:#757575;}</style>
  <g
     id="XMLID_6_">
    <g
       style="font-style:normal;font-variant:normal;font-weight:normal;font-stretch:normal;font-size:220px;line-height:125%;font-family:'Product Sans';-inkscape-font-specification:'Product Sans';letter-spacing:0px;word-spacing:0px;fill:#757575;fill-opacity:1;stroke:none;stroke-width:1px;stroke-linecap:butt;stroke-linejoin:miter;stroke-opacity:1"
       id="text4150">
      <path
         d="m 872.98155,261.53566 0,63.8 -20.24,0 0,-157.52 53.68,0 q 20.46,0 34.76,13.64 14.52,13.64 14.52,33.22 0,20.02 -14.52,33.44 -14.08,13.42 -34.76,13.42 l -33.44,0 z m 0,-74.36 0,55 33.88,0 q 12.1,0 20.02,-8.14 8.14,-8.14 8.14,-19.36 0,-11 -8.14,-19.14 -7.92,-8.36 -20.02,-8.36 l -33.88,0 z"
         style="font-size:220px;fill:#757575;fill-opacity:1"
         id="path4155"
         inkscape:connector-curvature="0" />
      <path
         d="m 999.58124,180.35566 q 0,5.94 -4.18,10.12 -4.18,4.18 -10.12,4.18 -5.94,0 -10.12,-4.18 -4.18,-4.18 -4.18,-10.12 0,-5.94 4.18,-10.12 4.18,-4.18 10.12,-4.18 5.94,0 10.12,4.18 4.18,4.18 4.18,10.12 z m -4.18,37.18 0,107.8 -20.24,0 0,-107.8 20.24,0 z"
         style="font-size:220px;fill:#757575;fill-opacity:1"
         id="path4157"
         inkscape:connector-curvature="0" />
      <path
         d="m 1042.1959,167.81566 0,157.52 -20.24,0 0,-157.52 20.24,0 z"
         style="font-size:220px;fill:#757575;fill-opacity:1"
         id="path4159"
         inkscape:connector-curvature="0" />
      <path
         d="m 1147.8544,295.41566 q 0,14.08 -12.32,23.76 -12.32,9.68 -31.02,9.68 -16.28,0 -28.6,-8.36 -12.32,-8.58 -17.6,-22.44 l 18.04,-7.7 q 3.96,9.68 11.44,15.18 7.7,5.28 16.72,5.28 9.68,0 16.06,-4.18 6.6,-4.18 6.6,-9.9 0,-10.34 -15.84,-15.18 l -18.48,-4.62 q -31.46,-7.92 -31.46,-30.36 0,-14.74 11.88,-23.54 12.1,-9.02 30.8,-9.02 14.3,0 25.74,6.82 11.66,6.82 16.28,18.26 l -18.04,7.48 q -3.08,-6.82 -10.12,-10.56 -6.82,-3.96 -15.4,-3.96 -7.92,0 -14.3,3.96 -6.16,3.96 -6.16,9.68 0,9.24 17.38,13.2 l 16.28,4.18 q 32.12,7.92 32.12,32.34 z"
         style="font-size:220px;fill:#757575;fill-opacity:1"
         id="path4161"
         inkscape:connector-curvature="0" />
      <path
         d="m 1215.1606,328.85566 q -23.76,0 -39.16,-16.28 -15.4,-16.28 -15.4,-41.14 0,-24.64 14.96,-40.92 14.96,-16.5 38.28,-16.5 23.98,0 38.06,15.62 14.3,15.4 14.3,43.34 l -0.22,2.2 -84.7,0 q 0.44,15.84 10.56,25.52 10.12,9.68 24.2,9.68 19.36,0 30.36,-19.36 l 18.04,8.8 q -7.26,13.64 -20.24,21.34 -12.76,7.7 -29.04,7.7 z m -32.34,-70.4 61.82,0 q -0.88,-11.22 -9.24,-18.48 -8.14,-7.48 -22,-7.48 -11.44,0 -19.8,7.04 -8.14,7.04 -10.78,18.92 z"
         style="font-size:220px;fill:#757575;fill-opacity:1"
         id="path4163"
         inkscape:connector-curvature="0" />
      <path
         d="m 1284.495,217.53566 19.36,0 0,14.96 0.88,0 q 4.62,-7.92 14.08,-13.2 9.68,-5.28 20.02,-5.28 19.8,0 30.36,11.44 10.78,11.22 10.78,32.12 l 0,67.76 -20.24,0 0,-66.44 q -0.66,-26.4 -26.62,-26.4 -12.1,0 -20.24,9.9 -8.14,9.68 -8.14,23.32 l 0,59.62 -20.24,0 0,-107.8 z"
         style="font-size:220px;fill:#757575;fill-opacity:1"
         id="path4165"
         inkscape:connector-curvature="0" />
    </g>
    <path
       id="XMLID_3_"
       class="st0"
       d="m 454.9,255.4 c 0,22 -6.5,39.6 -19.6,52.7 -14.8,15.6 -34.1,23.4 -57.9,23.4 -22.8,0 -42.1,-7.9 -58.1,-23.7 -15.9,-15.8 -23.9,-35.4 -23.9,-58.7 0,-23.3 8,-42.9 23.9,-58.7 15.9,-15.8 35.3,-23.7 58.1,-23.7 11.3,0 22.1,2.2 32.4,6.6 10.3,4.4 18.5,10.3 24.7,17.6 l -13.9,13.9 C 410.1,192.2 395.7,186 377.3,186 c -16.6,0 -31,5.8 -43.1,17.5 -12.1,11.7 -18.2,26.8 -18.2,45.5 0,18.7 6.1,33.8 18.2,45.5 12.1,11.7 26.5,17.5 43.1,17.5 17.6,0 32.3,-5.9 44.1,-17.6 7.6,-7.6 12,-18.3 13.2,-31.9 l -57.3,0 0,-19 76.4,0 c 0.8,4.1 1.2,8.1 1.2,11.9 z"
       inkscape:connector-curvature="0"
       style="fill:#757575" />
    <path
       id="XMLID_20_"
       class="st0"
       d="m 475.3,327.9 0,-157.8 48.2,0 c 24.2,0 43.6,7.3 58.2,21.9 14.5,14.6 21.8,33.6 21.8,57 0,23.4 -7.3,42.3 -21.8,57 -14.5,14.6 -33.9,21.9 -58.2,21.9 l -48.2,0 z m 20.3,-19.4 28,0 c 18.2,0 32.6,-5.2 43.3,-15.6 10.6,-10.4 16,-25 16,-43.8 0,-18.7 -5.3,-33.2 -16,-43.7 -10.7,-10.5 -25.1,-15.8 -43.3,-15.8 l -28,0 0,118.9 z"
       inkscape:connector-curvature="0"
       style="fill:#757575" />
    <path
       id="XMLID_23_"
       class="st0"
       d="m 776,255.4 c 0,22 -6.5,39.6 -19.6,52.7 -14.8,15.6 -34.1,23.4 -57.9,23.4 -22.8,0 -42.1,-7.9 -58.1,-23.7 -15.9,-15.8 -23.9,-35.4 -23.9,-58.7 0,-23.3 8,-42.9 23.9,-58.7 15.9,-15.8 35.3,-23.7 58.1,-23.7 11.3,0 22.1,2.2 32.4,6.6 10.3,4.4 18.5,10.3 24.7,17.6 l -13.9,13.9 C 731.2,192.2 716.8,186 698.4,186 c -16.6,0 -31,5.8 -43.1,17.5 -12.1,11.7 -18.2,26.8 -18.2,45.5 0,18.7 6.1,33.8 18.2,45.5 12.1,11.7 26.5,17.5 43.1,17.5 17.6,0 32.3,-5.9 44.1,-17.6 7.6,-7.6 12,-18.3 13.2,-31.9 l -57.3,0 0,-19 76.4,0 c 0.8,4.1 1.2,8.1 1.2,11.9 z"
       inkscape:connector-curvature="0"
       style="fill:#757575" />
  </g>
  <g
     id="XMLID_261_">
    <path
       id="XMLID_259_"
       class="st0"
       d="M 127.3,151 95,151 187.3,311 203.5,283 127.3,151 Z"
       inkscape:connector-curvature="0"
       style="fill:#757575" />
    <path
       id="XMLID_258_"
       class="st0"
       d="m 215.9,242 -52.6,-91 -32.2,0 74.3,128.8 10.5,-18.2 c 1.7,-2.8 2.8,-6.2 2.8,-9.8 -0.1,-3.6 -1.1,-6.9 -2.8,-9.8 z"
       inkscape:connector-curvature="0"
       style="fill:#757575" />
    <path
       id="XMLID_257_"
       class="st0"
       d="m 151.3,255.1 -55.4,95.9 32.3,0 39.3,-68 -16.2,-27.9 z"
       inkscape:connector-curvature="0"
       style="fill:#757575" />
    <path
       id="XMLID_256_"
       class="st0"
       d="M 169.3,286.3 132,351 l 32.2,0 21.3,-36.8 -16.2,-27.9 z"
       inkscape:connector-curvature="0"
       style="fill:#757575" />
  </g>
</svg>
