<?xml version="1.0" encoding="UTF-8" standalone="no"?>
<svg
   xmlns:dc="http://purl.org/dc/elements/1.1/"
   xmlns:cc="http://creativecommons.org/ns#"
   xmlns:rdf="http://www.w3.org/1999/02/22-rdf-syntax-ns#"
   xmlns:svg="http://www.w3.org/2000/svg"
   xmlns="http://www.w3.org/2000/svg"
   xmlns:sodipodi="http://sodipodi.sourceforge.net/DTD/sodipodi-0.dtd"
   xmlns:inkscape="http://www.inkscape.org/namespaces/inkscape"
   id="Layer_4"
   viewBox="0 0 839 200"
   version="1.1"
   inkscape:version="0.91 r13725"
   sodipodi:docname="logo-white.svg">
  <metadata
     id="metadata35">
    <rdf:RDF>
      <cc:Work
         rdf:about="">
        <dc:format>image/svg+xml</dc:format>
        <dc:type
           rdf:resource="http://purl.org/dc/dcmitype/StillImage" />
      </cc:Work>
    </rdf:RDF>
  </metadata>
  <defs
     id="defs33" />
  <sodipodi:namedview
     pagecolor="#ffffff"
     bordercolor="#666666"
     borderopacity="1"
     objecttolerance="10"
     gridtolerance="10"
     guidetolerance="10"
     inkscape:pageopacity="0"
     inkscape:pageshadow="2"
     inkscape:window-width="1766"
     inkscape:window-height="979"
     id="namedview31"
     showgrid="false"
     inkscape:zoom="1.7640048"
     inkscape:cx="132.6527"
     inkscape:cy="100"
     inkscape:window-x="73"
     inkscape:window-y="27"
     inkscape:window-maximized="0"
     inkscape:current-layer="Layer_4" />
  <style
     id="style3">.st0{fill:#FFFFFF;}</style>
  <g
     transform="translate(-0.36621622,0)"
     id="XMLID_7_-3"
     style="fill:#ffffff;fill-opacity:1">
    <path
       id="XMLID_2_-6"
       class="st13"
       d="m 275.5,51.8 c 0,10.9 -3.2,19.7 -9.7,26.1 -7.4,7.7 -17,11.6 -28.8,11.6 -11.3,0 -20.9,-3.9 -28.8,-11.8 -7.9,-7.8 -11.9,-17.6 -11.9,-29.1 0,-11.5 4,-21.3 11.9,-29.1 7.9,-7.8 17.5,-11.8 28.8,-11.8 5.6,0 11,1.1 16.1,3.3 5.1,2.2 9.2,5.1 12.2,8.8 l -6.9,6.9 c -5.2,-6.2 -12.3,-9.3 -21.4,-9.3 -8.2,0 -15.4,2.9 -21.4,8.7 -6,5.8 -9,13.3 -9,22.6 0,9.3 3,16.8 9,22.6 6,5.8 13.1,8.7 21.4,8.7 8.8,0 16,-2.9 21.9,-8.8 3.8,-3.8 6,-9.1 6.6,-15.9 l -28.5,0 0,-9.4 38,0 c 0.3,2.1 0.5,4 0.5,5.9 z"
       inkscape:connector-curvature="0"
       style="fill:#ffffff;fill-opacity:1" />
    <path
       id="XMLID_4_-7"
       class="st13"
       d="m 285.4,87.8 0,-78.3 24,0 c 12,0 21.7,3.6 28.9,10.9 7.2,7.3 10.8,16.7 10.8,28.3 0,11.6 -3.6,21 -10.8,28.3 -7.2,7.3 -16.8,10.9 -28.9,10.9 l -24,0 z m 10.1,-9.6 13.9,0 c 9,0 16.2,-2.6 21.5,-7.8 5.3,-5.2 7.9,-12.4 7.9,-21.8 0,-9.3 -2.6,-16.5 -7.9,-21.7 -5.3,-5.2 -12.5,-7.8 -21.5,-7.8 l -13.9,0 0,59.1 z"
       inkscape:connector-curvature="0"
       style="fill:#ffffff;fill-opacity:1" />
    <path
       id="XMLID_8_-5"
       class="st13"
       d="m 434.5,51.8 c 0,10.9 -3.2,19.7 -9.7,26.1 -7.4,7.7 -17,11.6 -28.8,11.6 -11.3,0 -20.9,-3.9 -28.8,-11.8 -7.9,-7.8 -11.9,-17.6 -11.9,-29.1 0,-11.5 4,-21.3 11.9,-29.1 7.9,-7.8 17.5,-11.8 28.8,-11.8 5.6,0 11,1.1 16.1,3.3 5.1,2.2 9.2,5.1 12.2,8.8 l -6.9,6.9 c -5.2,-6.2 -12.3,-9.3 -21.4,-9.3 -8.2,0 -15.4,2.9 -21.4,8.7 -6,5.8 -9,13.3 -9,22.6 0,9.3 3,16.8 9,22.6 6,5.8 13.1,8.7 21.4,8.7 8.8,0 16,-2.9 21.9,-8.8 3.8,-3.8 6,-9.1 6.6,-15.9 l -28.5,0 0,-9.4 38,0 c 0.3,2.1 0.5,4 0.5,5.9 z"
       inkscape:connector-curvature="0"
       style="fill:#ffffff;fill-opacity:1" />
    <path
       id="XMLID_10_-3"
       class="st13"
       d="m 470.8,87.8 0,-78.3 24,0 c 12,0 21.7,3.6 28.9,10.9 7.2,7.3 10.8,16.7 10.8,28.3 0,11.6 -3.6,21 -10.8,28.3 -7.2,7.3 -16.8,10.9 -28.9,10.9 l -24,0 z m 10.1,-9.6 13.9,0 c 9,0 16.2,-2.6 21.5,-7.8 5.3,-5.2 7.9,-12.4 7.9,-21.8 0,-9.3 -2.6,-16.5 -7.9,-21.7 -5.3,-5.2 -12.5,-7.8 -21.5,-7.8 l -13.9,0 0,59.1 z"
       inkscape:connector-curvature="0"
       style="fill:#ffffff;fill-opacity:1" />
    <path
       id="XMLID_13_-5"
       class="st13"
       d="m 567.4,89.6 c -8.1,0 -14.7,-2.7 -19.7,-8.1 -5.1,-5.4 -7.6,-12.2 -7.6,-20.5 0,-7.8 2.5,-14.5 7.4,-20.1 4.9,-5.6 11.2,-8.4 18.9,-8.4 7.9,0 14.3,2.6 19.1,7.8 4.8,5.2 7.2,12.1 7.2,20.8 l -0.1,1.9 -42.3,0 c 0.3,5.4 2.1,9.7 5.4,12.8 3.3,3.1 7.2,4.7 11.6,4.7 7.2,0 12.1,-3.1 14.7,-9.2 l 9,3.7 c -1.8,4.2 -4.6,7.6 -8.6,10.4 -4.2,2.8 -9.1,4.2 -15,4.2 z m 14.5,-35 c -0.2,-3.1 -1.6,-6 -4.2,-8.8 -2.6,-2.8 -6.4,-4.2 -11.5,-4.2 -3.7,0 -6.9,1.2 -9.7,3.5 -2.7,2.3 -4.6,5.5 -5.6,9.4 l 31,0 z"
       inkscape:connector-curvature="0"
       style="fill:#ffffff;fill-opacity:1" />
    <path
       id="XMLID_16_-6"
       class="st13"
       d="M 613.7,87.8 592,34.2 l 11,0 15.8,41.6 0.2,0 16,-41.6 10.7,0 -21.9,53.6 -10.1,0 z"
       inkscape:connector-curvature="0"
       style="fill:#ffffff;fill-opacity:1" />
    <path
       id="XMLID_18_-2"
       class="st13"
       d="m 661.6,87.8 -10.1,0 0,-78.3 45.7,0 0,9.6 -35.7,0 0,25.7 32.2,0 0,9.4 -32.2,0 0,33.6 z"
       inkscape:connector-curvature="0"
       style="fill:#ffffff;fill-opacity:1" />
    <path
       id="XMLID_20_-9"
       class="st13"
       d="m 727.7,89.6 c -8.1,0 -14.7,-2.7 -19.7,-8.1 -5.1,-5.4 -7.6,-12.2 -7.6,-20.5 0,-7.8 2.5,-14.5 7.4,-20.1 4.9,-5.6 11.2,-8.4 18.9,-8.4 7.9,0 14.3,2.6 19.1,7.8 4.8,5.2 7.2,12.1 7.2,20.8 l -0.1,1.9 -42.3,0 c 0.3,5.4 2.1,9.7 5.4,12.8 3.3,3.1 7.2,4.7 11.6,4.7 7.2,0 12.1,-3.1 14.7,-9.2 l 9,3.7 c -1.8,4.2 -4.6,7.6 -8.6,10.4 -4.3,2.8 -9.2,4.2 -15,4.2 z m 14.4,-35 c -0.2,-3.1 -1.6,-6 -4.2,-8.8 -2.6,-2.8 -6.4,-4.2 -11.5,-4.2 -3.7,0 -6.9,1.2 -9.7,3.5 -2.7,2.3 -4.6,5.5 -5.6,9.4 l 31,0 z"
       inkscape:connector-curvature="0"
       style="fill:#ffffff;fill-opacity:1" />
    <path
       id="XMLID_27_-1"
       class="st13"
       d="m 779.5,89.6 c -6,0 -10.9,-1.5 -14.8,-4.4 -3.9,-2.9 -6.8,-6.6 -8.6,-10.9 l 9,-3.7 c 2.8,6.7 7.7,10.1 14.5,10.1 3.1,0 5.7,-0.7 7.7,-2.1 2,-1.4 3,-3.2 3,-5.5 0,-3.5 -2.4,-5.9 -7.3,-7.1 l -10.8,-2.6 c -3.4,-0.9 -6.7,-2.5 -9.7,-5 -3.1,-2.4 -4.6,-5.7 -4.6,-9.9 0,-4.7 2.1,-8.6 6.3,-11.5 4.2,-3 9.2,-4.4 14.9,-4.4 4.7,0 9,1.1 12.7,3.2 3.7,2.2 6.4,5.2 8,9.2 l -8.8,3.6 c -2,-4.7 -6.1,-7.1 -12.2,-7.1 -3,0 -5.5,0.6 -7.5,1.9 -2,1.2 -3.1,2.9 -3.1,5 0,3.1 2.4,5.1 7.1,6.2 l 10.6,2.5 c 5,1.2 8.8,3.2 11.2,6 2.4,2.8 3.6,6.1 3.6,9.6 0,4.8 -2,8.8 -5.9,12 -4,3.3 -9.1,4.9 -15.3,4.9 z"
       inkscape:connector-curvature="0"
       style="fill:#ffffff;fill-opacity:1" />
    <path
       id="XMLID_29_-2"
       class="st13"
       d="m 830.9,88.7 c -5.6,0 -9.9,-1.5 -12.9,-4.5 -3,-3 -4.4,-7.2 -4.4,-12.7 l 0,-28.1 -9.4,0 0,-9.2 9.4,0 0,-16.4 10.1,0 0,16.4 13.1,0 0,9.2 -13.1,0 0,27.3 c 0,5.8 2.4,8.8 7.2,8.8 1.8,0 3.4,-0.3 4.6,-0.9 l 3.5,8.6 c -2.2,1 -4.9,1.5 -8.1,1.5 z"
       inkscape:connector-curvature="0"
       style="fill:#ffffff;fill-opacity:1" />
    <path
       id="XMLID_46_-7"
       class="st13"
       d="m 545.5,190.9 -47.7,0 0,-10.1 c 14.3,-14.4 23.4,-23.7 27.5,-28.1 3.6,-4 6,-7.1 7.2,-9.1 1.2,-2.1 1.9,-4.6 1.9,-7.7 0,-3.1 -1.2,-5.9 -3.7,-8.3 -2.5,-2.4 -5.8,-3.6 -10,-3.6 -3.8,0 -6.9,1.1 -9.2,3.3 -2.3,2.2 -3.8,4.6 -4.5,7.2 l -9.2,-3.7 c 1.2,-3.9 3.8,-7.7 7.8,-11.2 3.9,-3.5 9,-5.2 15.3,-5.2 6.9,0 12.6,2.1 17.1,6.3 4.4,4.2 6.7,9.3 6.7,15.2 0,7.3 -4,15.1 -11.9,23.4 l -21.9,22 34.7,0 0,9.6 z"
       inkscape:connector-curvature="0"
       style="fill:#ffffff;fill-opacity:1" />
    <path
       id="XMLID_48_-0"
       class="st13"
       d="m 603.1,181.4 c -5.5,7.5 -12.8,11.3 -21.8,11.3 -9,0 -16.2,-3.8 -21.8,-11.3 -5.5,-7.5 -8.3,-16.8 -8.3,-27.9 0,-11.2 2.8,-20.5 8.3,-27.9 5.5,-7.5 12.8,-11.2 21.8,-11.2 9,0 16.2,3.7 21.8,11.2 5.5,7.5 8.3,16.8 8.3,27.9 0,11.1 -2.8,20.4 -8.3,27.9 z m -21.8,1.7 c 6,0 10.8,-2.8 14.4,-8.4 3.6,-5.6 5.4,-12.6 5.4,-21.1 0,-8.5 -1.8,-15.6 -5.4,-21.2 -3.6,-5.6 -8.4,-8.4 -14.4,-8.4 -6.1,0 -10.9,2.8 -14.4,8.4 -3.6,5.6 -5.4,12.6 -5.4,21.2 0,8.5 1.8,15.5 5.4,21.1 3.6,5.6 8.4,8.4 14.4,8.4 z"
       inkscape:connector-curvature="0"
       style="fill:#ffffff;fill-opacity:1" />
    <path
       id="XMLID_51_-9"
       class="st13"
       d="m 643.3,190.9 -10.1,0 0,-62.3 -14.5,6.3 -3.8,-8.5 22,-10.3 6.5,0 0,74.8 z"
       inkscape:connector-curvature="0"
       style="fill:#ffffff;fill-opacity:1" />
    <path
       id="XMLID_53_-3"
       class="st13"
       d="m 681.5,143.1 c 5.8,0 11.2,2.4 16.1,7.2 4.9,4.8 7.3,10.6 7.3,17.3 0,6.6 -2.5,12.5 -7.6,17.5 -5.1,5 -11.1,7.5 -18,7.5 -7.4,0 -13.6,-2.5 -18.4,-7.6 -4.9,-5.1 -7.3,-10.9 -7.3,-17.4 0,-6.9 2.9,-14.7 8.8,-23.2 l 20.3,-30.1 8.1,5.6 -17.8,24.7 0.2,0.2 c 1.8,-1.1 4.5,-1.7 8.3,-1.7 z m -2.2,39.8 c 4.2,0 7.9,-1.5 10.9,-4.4 3,-2.9 4.5,-6.5 4.5,-10.8 0,-4.2 -1.5,-7.8 -4.5,-10.8 -3,-3 -6.7,-4.4 -10.9,-4.4 -4.2,0 -7.9,1.5 -10.9,4.4 -3.1,3 -4.6,6.5 -4.6,10.8 0,4.3 1.5,7.9 4.5,10.8 3,3 6.7,4.4 11,4.4 z"
       inkscape:connector-curvature="0"
       style="fill:#ffffff;fill-opacity:1" />
    <g
       style="font-style:normal;font-weight:normal;font-size:40px;line-height:125%;font-family:sans-serif;letter-spacing:0px;word-spacing:0px;fill:#ffffff;fill-opacity:1;stroke:none;stroke-width:1px;stroke-linecap:butt;stroke-linejoin:miter;stroke-opacity:1"
       id="text4204"
       transform="translate(-2.88091,0)">
      <path
         d="m 209.30091,158.77963 0,31.9 -10.12,0 0,-78.76 26.84,0 q 10.23,0 17.38,6.82 7.26,6.82 7.26,16.61 0,10.01 -7.26,16.72 -7.04,6.71 -17.38,6.71 l -16.72,0 z m 0,-37.18 0,27.5 16.94,0 q 6.05,0 10.01,-4.07 4.07,-4.07 4.07,-9.68 0,-5.5 -4.07,-9.57 -3.96,-4.18 -10.01,-4.18 l -16.94,0 z"
         style="font-style:normal;font-variant:normal;font-weight:normal;font-stretch:normal;font-size:110px;font-family:'Product Sans';-inkscape-font-specification:'Product Sans';fill:#ffffff;fill-opacity:1"
         id="path4209"
         inkscape:connector-curvature="0" />
      <path
         d="m 272.60075,118.18963 q 0,2.97 -2.09,5.06 -2.09,2.09 -5.06,2.09 -2.97,0 -5.06,-2.09 -2.09,-2.09 -2.09,-5.06 0,-2.97 2.09,-5.06 2.09,-2.09 5.06,-2.09 2.97,0 5.06,2.09 2.09,2.09 2.09,5.06 z m -2.09,18.59 0,53.9 -10.12,0 0,-53.9 10.12,0 z"
         style="font-style:normal;font-variant:normal;font-weight:normal;font-stretch:normal;font-size:110px;font-family:'Product Sans';-inkscape-font-specification:'Product Sans';fill:#ffffff;fill-opacity:1"
         id="path4211"
         inkscape:connector-curvature="0" />
      <path
         d="m 293.9081,111.91963 0,78.76 -10.12,0 0,-78.76 10.12,0 z"
         style="font-style:normal;font-variant:normal;font-weight:normal;font-stretch:normal;font-size:110px;font-family:'Product Sans';-inkscape-font-specification:'Product Sans';fill:#ffffff;fill-opacity:1"
         id="path4213"
         inkscape:connector-curvature="0" />
      <path
         d="m 346.73732,175.71963 q 0,7.04 -6.16,11.88 -6.16,4.84 -15.51,4.84 -8.14,0 -14.3,-4.18 -6.16,-4.29 -8.8,-11.22 l 9.02,-3.85 q 1.98,4.84 5.72,7.59 3.85,2.64 8.36,2.64 4.84,0 8.03,-2.09 3.3,-2.09 3.3,-4.95 0,-5.17 -7.92,-7.59 l -9.24,-2.31 q -15.73,-3.96 -15.73,-15.18 0,-7.37 5.94,-11.77 6.05,-4.51 15.4,-4.51 7.15,0 12.87,3.41 5.83,3.41 8.14,9.13 l -9.02,3.74 q -1.54,-3.41 -5.06,-5.28 -3.41,-1.98 -7.7,-1.98 -3.96,0 -7.15,1.98 -3.08,1.98 -3.08,4.84 0,4.62 8.69,6.6 l 8.14,2.09 q 16.06,3.96 16.06,16.17 z"
         style="font-style:normal;font-variant:normal;font-weight:normal;font-stretch:normal;font-size:110px;font-family:'Product Sans';-inkscape-font-specification:'Product Sans';fill:#ffffff;fill-opacity:1"
         id="path4215"
         inkscape:connector-curvature="0" />
      <path
         d="m 380.39044,192.43963 q -11.88,0 -19.58,-8.14 -7.7,-8.14 -7.7,-20.57 0,-12.32 7.48,-20.46 7.48,-8.25 19.14,-8.25 11.99,0 19.03,7.81 7.15,7.7 7.15,21.67 l -0.11,1.1 -42.35,0 q 0.22,7.92 5.28,12.76 5.06,4.84 12.1,4.84 9.68,0 15.18,-9.68 l 9.02,4.4 q -3.63,6.82 -10.12,10.67 -6.38,3.85 -14.52,3.85 z m -16.17,-35.2 30.91,0 q -0.44,-5.61 -4.62,-9.24 -4.07,-3.74 -11,-3.74 -5.72,0 -9.9,3.52 -4.07,3.52 -5.39,9.46 z"
         style="font-style:normal;font-variant:normal;font-weight:normal;font-stretch:normal;font-size:110px;font-family:'Product Sans';-inkscape-font-specification:'Product Sans';fill:#ffffff;fill-opacity:1"
         id="path4217"
         inkscape:connector-curvature="0" />
      <path
         d="m 415.05763,136.77963 9.68,0 0,7.48 0.44,0 q 2.31,-3.96 7.04,-6.6 4.84,-2.64 10.01,-2.64 9.9,0 15.18,5.72 5.39,5.61 5.39,16.06 l 0,33.88 -10.12,0 0,-33.22 q -0.33,-13.2 -13.31,-13.2 -6.05,0 -10.12,4.95 -4.07,4.84 -4.07,11.66 l 0,29.81 -10.12,0 0,-53.9 z"
         style="font-style:normal;font-variant:normal;font-weight:normal;font-stretch:normal;font-size:110px;font-family:'Product Sans';-inkscape-font-specification:'Product Sans';fill:#ffffff;fill-opacity:1"
         id="path4219"
         inkscape:connector-curvature="0" />
    </g>
  </g>
  <g
     id="XMLID_261_">
    <path
       id="XMLID_259_"
       class="st0"
       d="M32.3 0H0l92.3 160 16.2-28z" />
    <path
       id="XMLID_258_"
       class="st0"
       d="M120.9 91L68.3 0H36.1l74.3 128.8 10.5-18.2c1.7-2.8 2.8-6.2 2.8-9.8-.1-3.6-1.1-6.9-2.8-9.8z" />
    <path
       id="XMLID_257_"
       class="st0"
       d="M56.3 104.1L.9 200h32.3l39.3-68z" />
    <path
       id="XMLID_256_"
       class="st0"
       d="M74.3 135.3L37 200h32.2l21.3-36.8z" />
  </g>
</svg>
