<svg width="423" height="122" viewBox="0 0 423 122" version="1.1" xmlns="http://www.w3.org/2000/svg" xmlns:xlink="http://www.w3.org/1999/xlink" xmlns:figma="http://www.figma.com/figma/ns">
<title>devfest_cz</title>
<desc>Created using Figma</desc>
<g id="Canvas" transform="translate(-1219 377)" figma:type="canvas">
<g id="devfest_cz" style="mix-blend-mode:normal;" figma:type="frame">
<g id="g4823-9-3" style="mix-blend-mode:normal;" figma:type="frame">
<g id="text4256-4-7" style="mix-blend-mode:normal;" figma:type="frame">
<g id="path4182" style="mix-blend-mode:normal;" figma:type="vector">
<use xlink:href="#path0_fill" transform="matrix(1.02233 0 0 1.03077 1338.06 -333.666)" fill="#FFFFFF" style="mix-blend-mode:normal;"/>
</g>
<g id="path4184" style="mix-blend-mode:normal;" figma:type="vector">
<use xlink:href="#path1_fill" transform="matrix(1.02233 0 0 1.03077 1376.45 -335.464)" fill="#FFFFFF" style="mix-blend-mode:normal;"/>
</g>
<g id="path4186" style="mix-blend-mode:normal;" figma:type="vector">
<use xlink:href="#path2_fill" transform="matrix(1.02233 0 0 1.03077 1412.03 -323.662)" fill="#FFFFFF" style="mix-blend-mode:normal;"/>
</g>
<g id="path4188" style="mix-blend-mode:normal;" figma:type="vector">
<use xlink:href="#path3_fill" transform="matrix(1.02233 0 0 1.03077 1440.26 -322.763)" fill="#FFFFFF" style="mix-blend-mode:normal;"/>
</g>
<g id="path4190" style="mix-blend-mode:normal;" figma:type="vector">
<use xlink:href="#path4_fill" transform="matrix(1.02233 0 0 1.03077 1472.14 -335.464)" fill="#FFFFFF" style="mix-blend-mode:normal;"/>
</g>
<g id="path4192" style="mix-blend-mode:normal;" figma:type="vector">
<use xlink:href="#path5_fill" transform="matrix(1.02233 0 0 1.03077 1497.38 -323.662)" fill="#FFFFFF" style="mix-blend-mode:normal;"/>
</g>
<g id="path4194" style="mix-blend-mode:normal;" figma:type="vector">
<use xlink:href="#path6_fill" transform="matrix(1.02233 0 0 1.03077 1527.62 -323.662)" fill="#FFFFFF" style="mix-blend-mode:normal;"/>
</g>
<g id="path4196" style="mix-blend-mode:normal;" figma:type="vector">
<use xlink:href="#path7_fill" transform="matrix(1.02233 0 0 1.03077 1552.91 -331.193)" fill="#FFFFFF" style="mix-blend-mode:normal;"/>
</g>
<g id="path4198" style="mix-blend-mode:normal;" figma:type="vector">
<use xlink:href="#path8_fill" transform="matrix(1.02233 0 0 1.03077 1573.55 -336.363)" fill="#FFFFFF" style="mix-blend-mode:normal;"/>
</g>
<g id="path4200" style="mix-blend-mode:normal;" figma:type="vector">
<use xlink:href="#path9_fill" transform="matrix(1.02233 0 0 1.03077 1614.29 -335.464)" fill="#FFFFFF" style="mix-blend-mode:normal;"/>
</g>
</g>
</g>
<g id="g5716" style="mix-blend-mode:normal;" figma:type="frame">
<g id="rect5666-71" style="mix-blend-mode:normal;" figma:type="vector">
<use xlink:href="#path10_fill" transform="matrix(1.48951 0 0 1.48925 1239.93 -333.072)" fill="#FFC107" style="mix-blend-mode:normal;"/>
</g>
<g id="rect5666" style="mix-blend-mode:normal;" figma:type="vector">
<use xlink:href="#path11_fill" transform="matrix(1.48951 0 0 1.48925 1239.79 -377)" fill="#DB4437" style="mix-blend-mode:normal;"/>
</g>
<g id="rect5666-71-6" style="mix-blend-mode:normal;" figma:type="vector">
<use xlink:href="#path12_fill" transform="matrix(1.48951 0 0 1.48925 1219.13 -333.072)" fill="#0F9D58" style="mix-blend-mode:normal;"/>
</g>
<g id="rect5666-7" style="mix-blend-mode:normal;" figma:type="vector">
<use xlink:href="#path13_fill" transform="matrix(1.48951 0 0 1.48925 1219 -377)" fill="#4285F4" style="mix-blend-mode:normal;"/>
</g>
</g>
</g>
</g>
<defs>
<path id="path0_fill" d="M 11.8427 22.0817L 19.3339 22.0817L 20.4355 14.7211L 12.9443 14.7211L 11.8427 22.0817ZM 21.427 37.2935L 17.0205 37.2935L 18.6729 26.2254L 11.1817 26.2254L 9.52924 37.2935L 5.12265 37.2935L 6.77514 26.2254L -1.21924e-05 26.2254L 0.716068 22.0817L 7.43611 22.0817L 8.53778 14.7211L 1.65247 14.7211L 2.3135 10.5774L 9.14365 10.5774L 10.7411 3.60743e-07L 15.1477 3.60743e-07L 13.5503 10.5774L 21.0415 10.5774L 22.6388 3.60743e-07L 27.0454 3.60743e-07L 25.4481 10.5774L 32.2231 10.5774L 31.5622 14.7211L 24.8421 14.7211L 23.7405 22.0817L 30.6258 22.0817L 29.9648 26.2254L 23.0795 26.2254L 21.427 37.2935Z"/>
<path id="path1_fill" d="M -2.51799e-05 39.0383L -2.51799e-05 1.0068e-06L 12.0631 1.0068e-06C 18.0854 1.0068e-06 22.9143 1.79925 26.5497 5.39775C 30.2219 8.99625 32.058 13.7034 32.058 19.5191C 32.058 25.3712 30.2219 30.0965 26.5497 33.695C 22.9143 37.2572 18.0854 39.0383 12.0631 39.0383L -2.51799e-05 39.0383ZM 5.06759 4.798L 5.06759 34.2403L 12.0631 34.2403C 16.6532 34.2403 20.2703 32.9499 22.9143 30.3692C 25.5582 27.7521 26.8802 24.1354 26.8802 19.5191C 26.8802 14.9392 25.5582 11.3407 22.9143 8.72364C 20.2703 6.10654 16.6532 4.798 12.0631 4.798L 5.06759 4.798Z"/>
<path id="path2_fill" d="M 13.6604 28.4609C 9.6945 28.4609 6.42627 27.116 3.85576 24.4262C 1.28524 21.7364 -2.14691e-05 18.3378 -2.14691e-05 14.2304C -2.14691e-05 10.1594 1.24856 6.77899 3.74565 4.08921C 6.2427 1.36307 9.43745 8.5168e-07 13.33 8.5168e-07C 17.3326 8.5168e-07 20.509 1.29037 22.8592 3.87111C 25.2461 6.41551 26.4396 9.99583 26.4396 14.6121L 26.3844 15.1573L 5.17775 15.1573C 5.25119 17.7744 6.13251 19.8826 7.8217 21.482C 9.51091 23.0813 11.5306 23.881 13.8808 23.881C 17.1123 23.881 19.6461 22.2816 21.4822 19.083L 25.9989 21.2639C 24.7871 23.5175 23.0979 25.2804 20.9314 26.5526C 18.8015 27.8248 16.3778 28.4609 13.6604 28.4609ZM 5.56335 11.0136L 21.0415 11.0136C 20.8946 9.15982 20.1235 7.63318 18.7281 6.43368C 17.3693 5.19783 15.5333 4.57991 13.2198 4.57991C 11.3103 4.57991 9.65782 5.16149 8.2624 6.32464C 6.90371 7.48779 6.00403 9.05077 5.56335 11.0136Z"/>
<path id="path3_fill" d="M 15.9739 26.7161L 10.9063 26.7161L 1.87303e-05 3.04773e-07L 5.50822 3.04773e-07L 13.4401 20.7186L 13.5503 20.7186L 21.5923 3.04773e-07L 26.9904 3.04773e-07L 15.9739 26.7161Z"/>
<path id="path4_fill" d="M 5.06754 22.2998L 5.06754 39.0383L -2.03206e-05 39.0383L -2.03206e-05 1.0068e-06L 23.0244 1.0068e-06L 23.0244 4.798L 5.06754 4.798L 5.06754 17.6108L 21.2618 17.6108L 21.2618 22.2998L 5.06754 22.2998Z"/>
<path id="path5_fill" d="M 13.6604 28.4609C 9.69451 28.4609 6.42631 27.116 3.85579 24.4262C 1.28527 21.7364 1.28108e-05 18.3378 1.28108e-05 14.2304C 1.28108e-05 10.1594 1.24852 6.77899 3.74557 4.08921C 6.24266 1.36307 9.43746 8.5168e-07 13.3299 8.5168e-07C 17.3326 8.5168e-07 20.509 1.29037 22.8592 3.87111C 25.2461 6.41551 26.4395 9.99583 26.4395 14.6121L 26.3845 15.1573L 5.17773 15.1573C 5.25117 17.7744 6.13246 19.8826 7.82167 21.482C 9.51086 23.0813 11.5306 23.881 13.8807 23.881C 17.1122 23.881 19.6461 22.2816 21.4821 19.083L 25.9989 21.2639C 24.7871 23.5175 23.0979 25.2804 20.9313 26.5526C 18.8014 27.8248 16.3778 28.4609 13.6604 28.4609ZM 5.56333 11.0136L 21.0415 11.0136C 20.8946 9.15982 20.1234 7.63318 18.728 6.43368C 17.3693 5.19783 15.5332 4.57991 13.2198 4.57991C 11.3102 4.57991 9.65774 5.16149 8.26232 6.32464C 6.90363 7.48779 6.00398 9.05077 5.56333 11.0136Z"/>
<path id="path6_fill" d="M 22.4185 20.1734C 22.4185 22.4997 21.3903 24.4625 19.3339 26.0619C 17.2775 27.6612 14.6886 28.4609 11.5673 28.4609C 8.84987 28.4609 6.46294 27.7702 4.40654 26.389C 2.35013 24.9714 0.88131 23.1176 3.53402e-06 20.8277L 4.51675 18.9194C 5.17773 20.5187 6.13249 21.7727 7.38102 22.6815C 8.66628 23.5538 10.0617 23.99 11.5673 23.99C 13.183 23.99 14.5234 23.6447 15.5883 22.9541C 16.6899 22.2634 17.2408 21.4456 17.2408 20.5005C 17.2408 18.7922 15.9188 17.5381 13.2748 16.7385L 8.64791 15.5935C 3.39671 14.285 0.771137 11.7769 0.771137 8.06936C 0.771137 5.63402 1.76259 3.68937 3.74556 2.23543C 5.76526 0.745143 8.33578 8.5168e-07 11.4571 8.5168e-07C 13.844 8.5168e-07 15.9922 0.563401 17.9018 1.6902C 19.848 2.81701 21.2067 4.32547 21.9779 6.21559L 17.4611 8.06936C 16.947 6.94256 16.1024 6.0702 14.9273 5.45227C 13.7889 4.798 12.5036 4.47086 11.0715 4.47086C 9.74953 4.47086 8.55611 4.798 7.49118 5.45227C 6.46298 6.10655 5.94886 6.90621 5.94886 7.85127C 5.94886 9.37791 7.39938 10.4684 10.3004 11.1226L 14.3765 12.1586C 19.7379 13.4671 22.4185 16.1387 22.4185 20.1734Z"/>
<path id="path7_fill" d="M 12.4486 35.3307C 10.2453 35.3307 8.40922 34.6583 6.94035 33.3134C 5.50821 31.9685 4.77378 30.0965 4.73706 27.6975L 4.73706 12.7583L 1.37385e-05 12.7583L 1.37385e-05 8.17841L 4.73706 8.17841L 4.73706 -3.80419e-07L 9.80465 -3.80419e-07L 9.80465 8.17841L 16.4145 8.17841L 16.4145 12.7583L 9.80465 12.7583L 9.80465 26.0619C 9.80465 27.8429 10.1535 29.0606 10.8512 29.7149C 11.5489 30.3328 12.3384 30.6418 13.2197 30.6418C 13.6237 30.6418 14.0093 30.6054 14.3765 30.5327C 14.7804 30.4237 15.1476 30.2965 15.4781 30.1511L 17.0755 34.6219C 15.7535 35.0945 14.2112 35.3307 12.4486 35.3307Z"/>
<path id="path8_fill" d="M 20.4907 40.783C 14.6519 40.783 9.76794 38.8384 5.83874 34.9491C 1.94625 31.0598 -1.21305e-05 26.2073 -1.21305e-05 20.3915C -1.21305e-05 14.5757 1.94625 9.74139 5.83874 5.88845C 9.73122 1.96282 14.6152 -6.02112e-07 20.4907 -6.02112e-07C 26.4396 -6.02112e-07 31.2684 2.12639 34.9773 6.37916L 31.3419 9.86861C 28.5143 6.4882 24.8972 4.798 20.4907 4.798C 16.1208 4.798 12.467 6.25194 9.52924 9.15982C 6.62824 12.0313 5.17774 15.7752 5.17774 20.3915C 5.17774 25.0078 6.62824 28.7516 9.52924 31.6232C 12.467 34.5311 16.1208 35.985 20.4907 35.985C 25.0809 35.985 29.0651 34.0767 32.4435 30.2601L 36.134 33.8041C 34.2612 36.0213 31.9661 37.7479 29.2487 38.9837C 26.5314 40.1833 23.612 40.783 20.4907 40.783Z"/>
<path id="path9_fill" d="M 27.1005 39.0383L 9.74505e-06 39.0383L 9.74505e-06 33.8041L 20.9864 4.798L 0.881305 4.798L 0.881305 1.0068e-06L 26.8802 1.0068e-06L 26.8802 5.23418L 5.89381 34.2403L 27.1005 34.2403L 27.1005 39.0383Z"/>
<path id="path10_fill" d="M 30.5246 -4.77569e-06L -8.52664e-06 52.4236L 13.9893 52.4236L 35.6175 15.3167"/>
<path id="path11_fill" d="M -1.68627e-07 1.8018e-06L 13.9893 1.8018e-06L 35.6175 37.1069C 37.7996 40.8508 35.9962 44.3341 35.9962 44.3341L 30.9393 53.1958L -1.68627e-07 1.8018e-06Z"/>
<path id="path12_fill" d="M 30.5246 -4.77569e-06L -7.58087e-06 52.4236L 13.9893 52.4236L 35.6175 15.3167"/>
<path id="path13_fill" d="M 0 1.8018e-06L 13.9893 1.8018e-06L 44.8533 53.0912L 37.8628 65.1475L 0 1.8018e-06Z"/>
</defs>
</svg>
