<svg width="24" height="24" viewBox="0 0 24 24" version="1.1" xmlns="http://www.w3.org/2000/svg" xmlns:xlink="http://www.w3.org/1999/xlink" xmlns:figma="http://www.figma.com/figma/ns">
<title>Instagram Icon</title>
<desc>Created using Figma</desc>
<g id="Canvas" transform="translate(-1 -443)" figma:type="canvas">
<mask id="mask0_alpha" mask-type="alpha">
<path d="M 1 443L 25 443L 25 467L 1 467L 1 443Z" fill="#FFFFFF"/>
</mask>
<g id="Instagram Icon" style="mix-blend-mode:normal;" mask="url(#mask0_alpha)" figma:type="frame">
<g id="Exclude" style="mix-blend-mode:normal;" figma:type="vector-operation">
<use xlink:href="#path0_fill" transform="translate(1 443)" fill="#455A64" style="mix-blend-mode:normal;"/>
</g>
</g>
</g>
<defs>
<path id="path0_fill" fill-rule="evenodd" d="M 2 0C 0.895432 0 0 0.895416 0 2L 0 22C 0 23.1046 0.895432 24 2 24L 22 24C 23.1046 24 24 23.1046 24 22L 24 2C 24 0.895416 23.1046 0 22 0L 2 0ZM 15.78 3L 8.22 3C 6.83557 3 5.50784 3.54996 4.5289 4.5289C 3.54996 5.50784 3 6.83557 3 8.22L 3 15.78C 3 18.66 5.34 21 8.22 21L 15.78 21C 17.1644 21 18.4922 20.45 19.4711 19.4711C 20.45 18.4922 21 17.1644 21 15.78L 21 8.22C 21 5.34 18.66 3 15.78 3ZM 5.74898 5.74896C 6.35659 5.14136 7.1807 4.79999 8.04 4.79999L 15.96 4.79999C 17.751 4.79999 19.2 6.24899 19.2 8.04001L 19.2 15.96C 19.2 16.8193 18.8586 17.6434 18.251 18.251C 17.6434 18.8586 16.8193 19.2 15.96 19.2L 8.04 19.2C 6.249 19.2 4.8 17.751 4.8 15.96L 4.8 8.04001C 4.8 7.18069 5.14136 6.3566 5.74898 5.74896ZM 17.5205 6.47949C 17.3095 6.26852 17.0234 6.14999 16.725 6.14999C 16.4266 6.14999 16.1405 6.26852 15.9295 6.47949C 15.7185 6.69049 15.6 6.97662 15.6 7.27499C 15.6 7.57336 15.7185 7.85953 15.9295 8.0705C 16.1405 8.28146 16.4266 8.39999 16.725 8.39999C 17.0234 8.39999 17.3095 8.28146 17.5205 8.0705C 17.7315 7.85953 17.85 7.57336 17.85 7.27499C 17.85 6.97662 17.7315 6.69049 17.5205 6.47949ZM 15.182 8.81802C 14.3381 7.97409 13.1935 7.5 12 7.5C 10.8065 7.5 9.66193 7.97409 8.81802 8.81802C 7.97411 9.66193 7.5 10.8065 7.5 12C 7.5 13.1935 7.97411 14.3381 8.81802 15.182C 9.66193 16.0259 10.8065 16.5 12 16.5C 13.1935 16.5 14.3381 16.0259 15.182 15.182C 16.0259 14.3381 16.5 13.1935 16.5 12C 16.5 10.8065 16.0259 9.66193 15.182 8.81802ZM 10.0908 10.0908C 10.5972 9.58447 11.2839 9.29999 12 9.29999C 12.7161 9.29999 13.4028 9.58447 13.9092 10.0908C 14.4155 10.5972 14.7 11.2839 14.7 12C 14.7 12.7161 14.4155 13.4028 13.9092 13.9092C 13.4028 14.4155 12.7161 14.7 12 14.7C 11.2839 14.7 10.5972 14.4155 10.0908 13.9092C 9.58447 13.4028 9.3 12.7161 9.3 12C 9.3 11.2839 9.58447 10.5972 10.0908 10.0908Z"/>
</defs>
</svg>
