<?xml version="1.0"?>
<svg xmlns="http://www.w3.org/2000/svg" version="1.1" viewBox="0 0 252 252" width="96px" height="96px">
    <g transform="translate(-12.6,-12.6) scale(1.1,1.1)">
        <g fill="none" fill-rule="nonzero" stroke="none" stroke-width="1" stroke-linecap="butt" stroke-linejoin="miter"
           stroke-miterlimit="10" stroke-dasharray="" stroke-dashoffset="0" font-family="none" font-weight="none"
           font-size="none" text-anchor="none" style="mix-blend-mode: normal">
            <path d="M0,252v-252h252v252z" fill="none"/>
            <g>
                <g id="surface1">
                    <path d="M220.5,194.25c0,14.49902 -11.75098,26.25 -26.25,26.25h-136.5c-14.49902,0 -26.25,-11.75098 -26.25,-26.25v-136.5c0,-14.49902 11.75098,-26.25 26.25,-26.25h136.5c14.49902,0 26.25,11.75098 26.25,26.25z"
                          fill="#3f51b5"/>
                    <path d="M180.42774,131.25h-17.67774v68.25h-26.25v-68.25h-15.75v-21h15.75v-12.65332c0.02051,-18.41602 7.66992,-29.34668 29.36719,-29.34668h17.88281v21h-11.99707c-8.44922,0 -9.00293,3.15821 -9.00293,9.04394v11.95606h21z"
                          fill="#ffffff"/>
                </g>
            </g>
        </g>
    </g>
</svg>
