<?xml version="1.0" ?><!DOCTYPE svg  PUBLIC '-//W3C//DTD SVG 1.1//EN'  'http://www.w3.org/Graphics/SVG/1.1/DTD/svg11.dtd'><svg height="60px" id="Layer_1" style="enable-background:new 0 0 60 60;" version="1.1" viewBox="0 0 60 60" width="60px" xml:space="preserve" xmlns="http://www.w3.org/2000/svg" xmlns:xlink="http://www.w3.org/1999/xlink"><style type="text/css">
<![CDATA[
	.st0{fill:none;stroke:#231F20;stroke-width:1.5;stroke-linecap:round;stroke-linejoin:round;stroke-miterlimit:10;}
]]>
</style><g><path class="st0" d="M22.316,12.234c0,1.461,0,7.985,0,7.985h-5.85v9.766h5.85V59h12.021V29.985H42.4   c0,0,0.754-4.684,1.121-9.803c-1.051,0-9.141,0-9.141,0s0-5.682,0-6.677c0-0.997,1.309-2.34,2.605-2.34c1.292,0,4.021,0,6.547,0   c0-1.33,0-5.924,0-10.166c-3.372,0-7.21,0-8.9,0C22.02,1,22.316,10.774,22.316,12.234z" id="Facebook_3_"/></g></svg>