<?xml version="1.0" ?><svg height="60px" version="1.1" viewBox="0 0 60 60" width="60px" xmlns="http://www.w3.org/2000/svg" xmlns:xlink="http://www.w3.org/1999/xlink"><title/><desc/><defs/><g fill="none" fill-rule="evenodd" id="Page-1" stroke="none" stroke-width="1"><g id="Instagram" stroke="#000000" stroke-width="2" transform="translate(1.000000, 1.000000)"><path d="M36.7375,29.0458 C36.7375,24.8088 33.2955,21.3708 29.0455,21.3708 C24.8005,21.3708 21.3545,24.8088 21.3545,29.0458 C21.3545,33.2828 24.8005,36.7208 29.0455,36.7208 C33.2955,36.7208 36.7375,33.2828 36.7375,29.0458 L36.7375,29.0458 Z M44.0005,18.9998 L44.0005,15.2498 C44.0005,14.5588 43.4375,13.9998 42.7505,13.9998 L39.0005,13.9998 C38.3085,13.9998 37.7505,14.5588 37.7505,15.2498 L37.7505,18.9998 C37.7505,19.6878 38.3085,20.2498 39.0005,20.2498 L42.7505,20.2498 C43.4375,20.2498 44.0005,19.6878 44.0005,18.9998 L44.0005,18.9998 Z M45.2505,43.9998 L45.2505,25.2498 L40.2505,25.2498 C41.0585,26.2128 41.2125,27.9328 41.2125,29.0458 C41.2125,35.7378 35.7545,41.1828 29.0455,41.1828 C22.3375,41.1828 16.8795,35.7378 16.8795,29.0458 C16.8795,27.9328 17.1005,26.1838 17.7505,25.2498 L12.7505,25.2498 L12.7505,43.9998 C12.7505,44.6878 13.3085,45.2498 14.0005,45.2498 L44.0005,45.2498 C44.6875,45.2498 45.2505,44.6878 45.2505,43.9998 L45.2505,43.9998 Z M49.0005,13.7418 L49.0005,44.2538 C49.0005,46.8748 46.8705,48.9998 44.2455,48.9998 L13.7545,48.9998 C11.1295,48.9998 9.0005,46.8748 9.0005,44.2538 L9.0005,13.7418 C9.0005,11.1208 11.1295,8.9998 13.7545,8.9998 L44.2455,8.9998 C46.8705,8.9998 49.0005,11.1208 49.0005,13.7418 L49.0005,13.7418 Z" id="Stroke-9"/><path d="M54,58 L4,58 C1.791,58 0,56.209 0,54 L0,4 C0,1.791 1.791,0 4,0 L54,0 C56.209,0 58,1.791 58,4 L58,54 C58,56.209 56.209,58 54,58 L54,58 Z" id="Stroke-107" stroke-linejoin="round"/></g></g></svg>