<?xml version="1.0" ?><!DOCTYPE svg  PUBLIC '-//W3C//DTD SVG 1.1//EN'  'http://www.w3.org/Graphics/SVG/1.1/DTD/svg11.dtd'><svg height="60px" id="Layer_1" style="enable-background:new 0 0 60 60;" version="1.1" viewBox="0 0 60 60" width="60px" xml:space="preserve" xmlns="http://www.w3.org/2000/svg" xmlns:xlink="http://www.w3.org/1999/xlink"><style type="text/css">
<![CDATA[
	.st0{fill:none;stroke:#231F20;stroke-width:1.5;stroke-linecap:round;stroke-linejoin:round;stroke-miterlimit:10;}
]]>
</style><path class="st0" d="M29.157,20.533c0,0-11.634,2.698-24.616-12.477c0,0-5.058,9.948,3.71,16.017c0,0-2.865,0.506-5.228-1.179  c0,0-1.012,8.598,9.442,11.97H6.901c0,0,1.519,6.913,11.297,8.43c0,0-4.046,5.395-17.198,5.058c0,0,7.42,5.732,18.717,5.563  c0,0,20.905,1.012,30.853-22.593c2.446-5.805,2.192-11.295,2.023-13.994L59,11.597l-6.407,1.18c0,0,4.384-3.203,4.891-6.238  l-7.082,2.866c0,0-5.311-4.805-14.332-2.866C36.069,6.539,27.809,8.225,29.157,20.533z"/></svg>