<?xml version="1.0" ?><svg height="60px" version="1.1" viewBox="0 0 60 60" width="60px" xmlns="http://www.w3.org/2000/svg" xmlns:xlink="http://www.w3.org/1999/xlink"><title/><desc/><defs/><g fill="none" fill-rule="evenodd" id="Page-1" stroke="none" stroke-width="1"><g id="Youtube" stroke="#000000" stroke-width="2" transform="translate(1.000000, 1.000000)"><path d="M51.1765,31.0338 L51.1765,27.6558 C51.1765,24.0578 50.7345,20.4548 50.7345,20.4548 C50.7345,20.4548 50.3025,17.3898 48.9765,16.0418 C47.2975,14.2698 45.4155,14.2608 44.5505,14.1548 C38.3695,13.7078 29.0975,13.7078 29.0975,13.7078 L29.0795,13.7078 C29.0795,13.7078 19.8065,13.7078 13.6215,14.1548 C12.7565,14.2608 10.8795,14.2698 9.1955,16.0418 C7.8695,17.3898 7.4415,20.4548 7.4415,20.4548 C7.4415,20.4548 7.0005,24.0578 7.0005,27.6558 L7.0005,31.0338 C7.0005,34.6328 7.4415,38.2308 7.4415,38.2308 C7.4415,38.2308 7.8695,41.2998 9.1955,42.6488 C10.8795,44.4198 13.0835,44.3648 14.0685,44.5488 C17.6025,44.8938 29.0885,44.9998 29.0885,44.9998 C29.0885,44.9998 38.3695,44.9818 44.5505,44.5348 C45.4155,44.4298 47.2975,44.4198 48.9765,42.6488 C50.3025,41.2998 50.7345,38.2308 50.7345,38.2308 C50.7345,38.2308 51.1765,34.6328 51.1765,31.0338 L51.1765,31.0338 Z" id="Stroke-24"/><polygon id="Stroke-25" points="24.528 35.1201 36.46 28.8941 24.523 22.6221"/><path d="M54,58 L4,58 C1.791,58 0,56.209 0,54 L0,4 C0,1.791 1.791,0 4,0 L54,0 C56.209,0 58,1.791 58,4 L58,54 C58,56.209 56.209,58 54,58 L54,58 Z" id="Stroke-106" stroke-linejoin="round"/></g></g></svg>