<?xml version="1.0" encoding="UTF-8" standalone="no"?>
<!-- Created with Inkscape (http://www.inkscape.org/) -->

<svg
   xmlns:osb="http://www.openswatchbook.org/uri/2009/osb"
   xmlns:dc="http://purl.org/dc/elements/1.1/"
   xmlns:cc="http://creativecommons.org/ns#"
   xmlns:rdf="http://www.w3.org/1999/02/22-rdf-syntax-ns#"
   xmlns:svg="http://www.w3.org/2000/svg"
   xmlns="http://www.w3.org/2000/svg"
   xmlns:sodipodi="http://sodipodi.sourceforge.net/DTD/sodipodi-0.dtd"
   xmlns:inkscape="http://www.inkscape.org/namespaces/inkscape"
   width="140"
   height="60"
   viewBox="0 0 140 60"
   id="svg4651"
   version="1.1"
   inkscape:version="0.91 r13725"
   sodipodi:docname="gug-cz.svg">
  <defs
     id="defs4653">
    <linearGradient
       id="linearGradient6225"
       osb:paint="solid">
      <stop
         style="stop-color:#039be5;stop-opacity:1;"
         offset="0"
         id="stop6227" />
    </linearGradient>
    <linearGradient
       id="linearGradient6195"
       osb:paint="solid">
      <stop
         style="stop-color:#e53935;stop-opacity:1;"
         offset="0"
         id="stop6197" />
    </linearGradient>
    <linearGradient
       id="linearGradient6207"
       osb:paint="solid">
      <stop
         style="stop-color:#ffc400;stop-opacity:1;"
         offset="0"
         id="stop6209" />
    </linearGradient>
  </defs>
  <sodipodi:namedview
     id="base"
     pagecolor="#ffffff"
     bordercolor="#666666"
     borderopacity="1.0"
     inkscape:pageopacity="0.0"
     inkscape:pageshadow="2"
     inkscape:zoom="1.4"
     inkscape:cx="-221.9544"
     inkscape:cy="84.19643"
     inkscape:document-units="px"
     inkscape:current-layer="layer1"
     showgrid="false"
     fit-margin-top="0"
     fit-margin-left="0"
     fit-margin-right="0"
     fit-margin-bottom="0"
     units="px"
     inkscape:window-width="1920"
     inkscape:window-height="1048"
     inkscape:window-x="1920"
     inkscape:window-y="0"
     inkscape:window-maximized="1" />
  <metadata
     id="metadata4656">
    <rdf:RDF>
      <cc:Work
         rdf:about="">
        <dc:format>image/svg+xml</dc:format>
        <dc:type
           rdf:resource="http://purl.org/dc/dcmitype/StillImage" />
        <dc:title />
      </cc:Work>
    </rdf:RDF>
  </metadata>
  <g
     inkscape:label="Layer 1"
     inkscape:groupmode="layer"
     id="layer1"
     transform="translate(-101.9544,-486.55863)">
    <g
       style="font-style:normal;font-weight:normal;font-size:22.95038223px;line-height:125%;font-family:sans-serif;letter-spacing:0px;word-spacing:0px;fill:#c62828;fill-opacity:1;stroke:none;stroke-width:1px;stroke-linecap:butt;stroke-linejoin:miter;stroke-opacity:1"
       id="text4136-0-1-6">
      <path
         d="m 110.71912,527.55332 q -4.43229,-4.34623 -4.43229,-11.01618 0,-6.66996 4.43229,-11.01619 4.47533,-4.34623 10.93012,-4.34623 4.90565,0 8.69246,2.49586 3.82985,2.49585 5.46506,7.01421 l -7.2724,0 q -2.0225,-3.95894 -6.88512,-3.95894 -4.08803,0 -6.66995,2.71101 -2.53889,2.66798 -2.53889,7.14331 0,4.43229 2.53889,7.1433 2.58192,2.66799 6.28267,2.66799 3.74378,0 5.85234,-1.80735 2.1516,-1.85037 2.66799,-4.94867 l -9.98342,0 0,-4.60442 16.48124,0 0,4.60442 q -0.77457,4.90564 -4.81958,8.60639 -4.045,3.65772 -10.19857,3.65772 -6.11054,0 -10.54284,-4.34623 z"
         style="font-style:normal;font-variant:normal;font-weight:600;font-stretch:normal;font-family:Poppins;-inkscape-font-specification:'Poppins Semi-Bold';fill:url(#linearGradient6225);fill-opacity:1"
         id="path4146" />
      <path
         d="m 140.99346,520.10879 0,-18.50375 6.06751,0 0,18.50375 q 0,3.0983 1.54915,4.69048 1.59218,1.59219 4.51835,1.59219 2.92618,0 4.51836,-1.59219 1.59218,-1.59218 1.59218,-4.69048 l 0,-18.50375 6.02448,0 0,18.50375 q 0,5.68022 -3.57165,8.77852 -3.57166,3.05527 -8.69246,3.05527 -5.12081,0 -8.56337,-3.05527 -3.44255,-3.05527 -3.44255,-8.77852 z"
         style="font-style:normal;font-variant:normal;font-weight:600;font-stretch:normal;font-family:Poppins;-inkscape-font-specification:'Poppins Semi-Bold';fill:url(#linearGradient6195);fill-opacity:1"
         id="path4148" />
      <path
         d="m 174.34256,527.55332 q -4.43229,-4.34623 -4.43229,-11.01618 0,-6.66996 4.43229,-11.01619 4.47533,-4.34623 10.93012,-4.34623 4.90565,0 8.69246,2.49586 3.82985,2.49585 5.46506,7.01421 l -7.2724,0 q -2.0225,-3.95894 -6.88512,-3.95894 -4.08803,0 -6.66995,2.71101 -2.53889,2.66798 -2.53889,7.14331 0,4.43229 2.53889,7.1433 2.58192,2.66799 6.28267,2.66799 3.74378,0 5.85234,-1.80735 2.1516,-1.85037 2.66799,-4.94867 l -9.98342,0 0,-4.60442 16.48124,0 0,4.60442 q -0.77457,4.90564 -4.81958,8.60639 -4.045,3.65772 -10.19857,3.65772 -6.11054,0 -10.54284,-4.34623 z"
         style="font-style:normal;font-variant:normal;font-weight:600;font-stretch:normal;font-family:Poppins;-inkscape-font-specification:'Poppins Semi-Bold';fill:url(#linearGradient6207)"
         id="path4150" />
      <path
         d="m 206.23777,531.09629 q -0.57376,0.54507 -1.40571,0.54507 -0.83195,0 -1.40571,-0.57376 -0.54508,-0.57376 -0.54508,-1.37703 0,-0.83195 0.54508,-1.40571 0.57376,-0.57376 1.40571,-0.57376 0.83195,0 1.40571,0.57376 0.57376,0.57376 0.57376,1.40571 0,0.83196 -0.57376,1.40572 z"
         style="font-style:normal;font-variant:normal;font-weight:normal;font-stretch:normal;font-size:28.68797684px;font-family:Poppins;-inkscape-font-specification:Poppins;fill:#607d8b;fill-opacity:1"
         id="path4152" />
      <path
         d="m 217.00652,531.89955 q -3.44256,0 -5.59416,-2.23766 -2.15159,-2.23767 -2.15159,-5.90973 0,-3.70075 2.15159,-5.93841 2.18029,-2.23766 5.59416,-2.23766 2.8688,0 4.73352,1.37702 1.8934,1.34834 2.55323,3.87288 l -3.52863,0 q -0.88932,-2.49585 -3.75812,-2.49585 -2.00816,0 -3.21305,1.4344 -1.17621,1.40571 -1.17621,3.95894 0,2.55323 1.17621,3.98762 1.20489,1.4344 3.21305,1.4344 2.84011,0 3.75812,-2.49585 l 3.52863,0 q -0.68852,2.40979 -2.58192,3.84419 -1.89341,1.40571 -4.70483,1.40571 z"
         style="font-style:normal;font-variant:normal;font-weight:normal;font-stretch:normal;font-size:28.68797684px;font-family:Poppins;-inkscape-font-specification:Poppins;fill:#607d8b;fill-opacity:1"
         id="path4154" />
      <path
         d="m 237.62196,515.83428 0,2.66798 -7.17199,10.47112 7.17199,0 0,2.66798 -10.9588,0 0,-2.66798 7.20068,-10.47112 -7.20068,0 0,-2.66798 10.9588,0 z"
         style="font-style:normal;font-variant:normal;font-weight:normal;font-stretch:normal;font-size:28.68797684px;font-family:Poppins;-inkscape-font-specification:Poppins;fill:#607d8b;fill-opacity:1"
         id="path4156" />
    </g>
  </g>
</svg>
