<?xml version="1.0" encoding="utf-8"?>
<!-- Generator: Adobe Illustrator 20.0.0, SVG Export Plug-In . SVG Version: 6.00 Build 0)  -->
<svg version="1.1" xmlns="http://www.w3.org/2000/svg" xmlns:xlink="http://www.w3.org/1999/xlink" x="0px" y="0px"
	 viewBox="0 0 500 119.3" enable-background="new 0 0 500 119.3" xml:space="preserve">
<g id="Layer_4" display="none">
	<g id="XMLID_60_" display="inline">
		<g id="XMLID_61_">
			<g id="XMLID_62_">
				<path id="XMLID_106_" fill="none" d="M59.7,54.1l-33.5-58h-44.8l37,64l-37,64h44.8l33.5-58C61.9,62.4,61.9,57.9,59.7,54.1z"/>
				<polygon id="XMLID_105_" fill="#FFC107" points="40.5,98.4 29.8,80 4.3,124.1 26.2,124.1 40.8,98.9 				"/>
				<path id="XMLID_104_" fill="none" d="M59.7,54.1l-33.5-58h-44.8l37,64l-37,64h44.8l33.5-58C61.9,62.4,61.9,57.9,59.7,54.1z"/>
				<polygon id="XMLID_103_" fill="#0F9D58" points="18.3,60.1 29.8,80 4.3,124.1 -18.7,124.1 				"/>
				<path id="XMLID_102_" fill="none" d="M59.7,54.1l-33.5-58h-44.8l37,64l-37,64h44.8l33.5-58C61.9,62.4,61.9,57.9,59.7,54.1z"/>
				<polygon id="XMLID_101_" opacity="0.2" fill="#BF360C" enable-background="new    " points="26.2,123.1 4.9,123.1 4.3,124.1 
					26.2,124.1 40.8,98.9 40.5,98.4 				"/>
				<path id="XMLID_100_" fill="none" d="M59.7,54.1l-33.5-58h-44.8l37,64l-37,64h44.8l33.5-58C61.9,62.4,61.9,57.9,59.7,54.1z"/>
				<polygon id="XMLID_99_" opacity="0.2" fill="#263238" enable-background="new    " points="-18.1,123.1 -18.7,124.1 4.3,124.1 
					4.9,123.1 				"/>
				<path id="XMLID_98_" fill="none" d="M59.7,54.1l-33.5-58h-44.8l37,64l-37,64h44.8l33.5-58C61.9,62.4,61.9,57.9,59.7,54.1z"/>
				<polygon id="XMLID_96_" opacity="0.2" fill="#FFFFFF" enable-background="new    " points="-18.7,124.1 -18.1,124.1 18.6,60.6 
					18.3,60.1 				"/>
				<path id="XMLID_94_" fill="none" d="M59.7,54.1l-33.5-58h-44.8l37,64l-37,64h44.8l33.5-58C61.9,62.4,61.9,57.9,59.7,54.1z"/>
				
					<radialGradient id="XMLID_3_" cx="40.5907" cy="2689.2292" r="44.2635" gradientTransform="matrix(1 0 0 -1 0 2787.7466)" gradientUnits="userSpaceOnUse">
					<stop  offset="0" style="stop-color:#BF360C;stop-opacity:0.2"/>
					<stop  offset="1" style="stop-color:#BF360C;stop-opacity:2.000000e-02"/>
				</radialGradient>
				<polygon id="XMLID_92_" fill="url(#XMLID_3_)" points="40.8,98.9 40.8,98.9 29.8,80 27.2,84.7 				"/>
				<path id="XMLID_90_" fill="none" d="M59.7,54.1l-33.5-58h-44.8l37,64l-37,64h44.8l33.5-58C61.9,62.4,61.9,57.9,59.7,54.1z"/>
				
					<radialGradient id="XMLID_4_" cx="40.465" cy="2688.9495" r="44.6228" gradientTransform="matrix(1 0 0 -1 0 2787.7466)" gradientUnits="userSpaceOnUse">
					<stop  offset="0" style="stop-color:#263238;stop-opacity:0.2"/>
					<stop  offset="1" style="stop-color:#263238;stop-opacity:2.000000e-02"/>
				</radialGradient>
				<polygon id="XMLID_89_" fill="url(#XMLID_4_)" points="27.2,84.7 29.8,80 18.3,60.1 12.8,69.6 				"/>
				<path id="XMLID_88_" fill="none" d="M59.7,54.1l-33.5-58h-44.8l37,64l-37,64h44.8l33.5-58C61.9,62.4,61.9,57.9,59.7,54.1z"/>
				<g id="XMLID_85_">
					<g id="XMLID_86_">
						<polygon id="XMLID_87_" fill="#4285F4" points="4.3,-3.9 -18.7,-3.9 40.8,98.9 52.2,79 52.3,79 						"/>
					</g>
				</g>
				<path id="XMLID_84_" fill="none" d="M59.7,54.1l-33.5-58h-44.8l37,64l-37,64h44.8l33.5-58C61.9,62.4,61.9,57.9,59.7,54.1z"/>
				<path id="XMLID_83_" fill="#DB4437" d="M59.7,66.1c2.1-3.7,2.1-8.3,0-12l-33.5-58H4.3L52.3,79L59.7,66.1z"/>
				<path id="XMLID_82_" fill="none" d="M59.7,54.1l-33.5-58h-44.8l37,64l-37,64h44.8l33.5-58C61.9,62.4,61.9,57.9,59.7,54.1z"/>
				<polygon id="XMLID_71_" opacity="0.2" fill="#1A237E" enable-background="new    " points="52.3,79 52,78.5 40.8,97.9 
					-18.1,-3.9 -18.7,-3.9 40.8,98.9 52.2,79 				"/>
				<path id="XMLID_69_" fill="none" d="M59.7,54.1l-33.5-58h-44.8l37,64l-37,64h44.8l33.5-58C61.9,62.4,61.9,57.9,59.7,54.1z"/>
				<path id="XMLID_67_" opacity="0.2" fill="#FFFFFF" enable-background="new    " d="M26.2-2.9l33.5,58c1,1.7,1.5,3.6,1.6,5.5
					c0.1-2.2-0.4-4.5-1.6-6.5l-33.5-58h-44.8l0.6,1H26.2z"/>
				<path id="XMLID_66_" fill="none" d="M59.7,54.1l-33.5-58h-44.8l37,64l-37,64h44.8l33.5-58C61.9,62.4,61.9,57.9,59.7,54.1z"/>
				<path id="XMLID_65_" opacity="0.2" fill="#3E2723" enable-background="new    " d="M52.3,79l7.4-12.9c1.2-2,1.7-4.3,1.6-6.5
					c-0.1,1.9-0.6,3.8-1.6,5.5L52,78.5L52.3,79z"/>
				<path id="XMLID_64_" fill="none" d="M59.7,54.1l-33.5-58h-44.8l37,64l-37,64h44.8l33.5-58C61.9,62.4,61.9,57.9,59.7,54.1z"/>
				
					<radialGradient id="XMLID_5_" cx="-19.6859" cy="2790.6033" r="134.3503" gradientTransform="matrix(1 0 0 -1 0 2787.7466)" gradientUnits="userSpaceOnUse">
					<stop  offset="0" style="stop-color:#FFFFFF;stop-opacity:0.1"/>
					<stop  offset="1" style="stop-color:#FFFFFF;stop-opacity:0"/>
				</radialGradient>
				<path id="XMLID_63_" fill="url(#XMLID_5_)" d="M59.7,54.1l-33.5-58h-44.8l37,64l-37,64h44.8l33.5-58
					C61.9,62.4,61.9,57.9,59.7,54.1z"/>
			</g>
		</g>
	</g>
	<text id="XMLID_7_" transform="matrix(1 0 0 1 104.3428 52.3402)" display="inline"><tspan x="0" y="0" fill="#767676" font-family="'ProductSans-Regular'" font-size="70px">GDG DevFest </tspan><tspan x="0" y="66" fill="#767676" font-family="'ProductSans-Regular'" font-size="70px">Ukraine 2018</tspan></text>
</g>
<g id="Layer_2">
	<g id="XMLID_261_">
		<g>
			<polygon fill="#767676" points="19.3,0 0,0 55.1,95.4 64.7,78.7 			"/>
		</g>
		<g>
			<path fill="#767676" d="M72.1,54.3L40.8,0L21.5,0l44.3,76.8l6.3-10.8c1-1.7,1.6-3.7,1.6-5.8C73.7,58,73.1,56,72.1,54.3z"/>
		</g>
		<g>
			<polygon fill="#767676" points="33.6,62.1 0.6,119.3 19.8,119.3 43.2,78.7 			"/>
		</g>
		<g>
			<polygon fill="#767676" points="44.3,80.7 22,119.3 41.3,119.3 54,97.3 			"/>
		</g>
	</g>
	<g id="XMLID_1_">
		<path fill="#767676" d="M163.9,31.4c0,6.5-1.9,11.7-5.8,15.6c-4.4,4.6-10.1,6.9-17.2,6.9c-6.7,0-12.5-2.3-17.2-7
			c-4.7-4.7-7.1-10.5-7.1-17.4s2.4-12.7,7.1-17.4c4.7-4.7,10.4-7,17.2-7c3.3,0,6.5,0.7,9.6,2c3,1.3,5.5,3,7.3,5.2l-4.1,4.1
			c-3.1-3.7-7.4-5.5-12.8-5.5c-4.9,0-9.2,1.7-12.8,5.2c-3.6,3.5-5.4,7.9-5.4,13.5c0,5.5,1.8,10,5.4,13.5c3.6,3.5,7.8,5.2,12.8,5.2
			c5.2,0,9.6-1.7,13-5.2c2.3-2.3,3.6-5.4,3.9-9.5h-17v-5.6h22.6C163.8,29.1,163.9,30.2,163.9,31.4z"/>
		<path fill="#767676" d="M169.9,52.8V6.1h14.3c7.2,0,12.9,2.2,17.2,6.5c4.3,4.3,6.5,9.9,6.5,16.9s-2.2,12.5-6.5,16.9
			c-4.3,4.3-10,6.5-17.2,6.5H169.9z M175.9,47.1h8.3c5.4,0,9.7-1.5,12.8-4.6c3.2-3.1,4.7-7.4,4.7-13c0-5.5-1.6-9.8-4.7-12.9
			c-3.2-3.1-7.4-4.7-12.8-4.7h-8.3V47.1z"/>
		<path fill="#767676" d="M258.8,31.4c0,6.5-1.9,11.7-5.8,15.6c-4.4,4.6-10.1,6.9-17.2,6.9c-6.7,0-12.5-2.3-17.2-7
			c-4.7-4.7-7.1-10.5-7.1-17.4s2.4-12.7,7.1-17.4c4.7-4.7,10.4-7,17.2-7c3.3,0,6.5,0.7,9.6,2c3,1.3,5.5,3,7.3,5.2l-4.1,4.1
			c-3.1-3.7-7.4-5.5-12.8-5.5c-4.9,0-9.2,1.7-12.8,5.2c-3.6,3.5-5.4,7.9-5.4,13.5c0,5.5,1.8,10,5.4,13.5c3.6,3.5,7.8,5.2,12.8,5.2
			c5.2,0,9.6-1.7,13-5.2c2.3-2.3,3.6-5.4,3.9-9.5h-17v-5.6h22.6C258.7,29.1,258.8,30.2,258.8,31.4z"/>
		<path fill="#767676" d="M280.4,52.8V6.1h14.3c7.2,0,12.9,2.2,17.2,6.5c4.3,4.3,6.5,9.9,6.5,16.9s-2.2,12.5-6.5,16.9
			c-4.3,4.3-10,6.5-17.2,6.5H280.4z M286.4,47.1h8.3c5.4,0,9.7-1.5,12.8-4.6c3.2-3.1,4.7-7.4,4.7-13c0-5.5-1.6-9.8-4.7-12.9
			c-3.2-3.1-7.4-4.7-12.8-4.7h-8.3V47.1z"/>
		<path fill="#767676" d="M338,53.9c-4.8,0-8.8-1.6-11.8-4.8c-3-3.2-4.5-7.3-4.5-12.2c0-4.7,1.5-8.7,4.4-12c2.9-3.3,6.7-5,11.3-5
			c4.7,0,8.5,1.5,11.4,4.6c2.8,3.1,4.3,7.2,4.3,12.4L353,38h-25.2c0.2,3.2,1.2,5.8,3.2,7.6c2,1.9,4.3,2.8,6.9,2.8
			c4.3,0,7.2-1.8,8.7-5.5l5.3,2.2c-1,2.5-2.8,4.6-5.2,6.2C344.4,53,341.5,53.9,338,53.9z M346.6,33c-0.1-1.8-1-3.6-2.5-5.2
			c-1.5-1.7-3.8-2.5-6.9-2.5c-2.2,0-4.1,0.7-5.8,2.1c-1.6,1.4-2.8,3.3-3.4,5.6H346.6z"/>
		<path fill="#767676" d="M365.6,52.8l-12.9-32h6.5l9.4,24.8h0.1l9.5-24.8h6.4l-13,32H365.6z"/>
		<path fill="#767676" d="M394.2,52.8h-6V6.1h27.3v5.7h-21.3v15.3h19.2v5.6h-19.2V52.8z"/>
		<path fill="#767676" d="M433.6,53.9c-4.8,0-8.8-1.6-11.8-4.8c-3-3.2-4.5-7.3-4.5-12.2c0-4.7,1.5-8.7,4.4-12c2.9-3.3,6.7-5,11.3-5
			c4.7,0,8.5,1.5,11.4,4.6c2.8,3.1,4.3,7.2,4.3,12.4l-0.1,1.1h-25.2c0.2,3.2,1.2,5.8,3.2,7.6c2,1.9,4.3,2.8,6.9,2.8
			c4.3,0,7.2-1.8,8.7-5.5l5.3,2.2c-1,2.5-2.8,4.6-5.2,6.2C440,53,437.1,53.9,433.6,53.9z M442.2,33c-0.1-1.8-1-3.6-2.5-5.2
			c-1.5-1.7-3.8-2.5-6.9-2.5c-2.2,0-4.1,0.7-5.8,2.1c-1.6,1.4-2.8,3.3-3.4,5.6H442.2z"/>
		<path fill="#767676" d="M464.5,53.9c-3.6,0-6.5-0.9-8.8-2.6c-2.3-1.7-4-3.9-5.1-6.5l5.3-2.2c1.7,4,4.6,6,8.7,6
			c1.9,0,3.4-0.4,4.6-1.2c1.2-0.8,1.8-1.9,1.8-3.3c0-2.1-1.5-3.5-4.4-4.2l-6.5-1.6c-2-0.5-4-1.5-5.8-3c-1.8-1.5-2.7-3.4-2.7-5.9
			c0-2.8,1.2-5.1,3.8-6.9c2.5-1.8,5.5-2.6,8.9-2.6c2.8,0,5.3,0.6,7.6,1.9c2.2,1.3,3.8,3.1,4.8,5.5l-5.2,2.2
			c-1.2-2.8-3.6-4.2-7.3-4.2c-1.8,0-3.3,0.4-4.5,1.1c-1.2,0.7-1.8,1.7-1.8,3c0,1.8,1.4,3.1,4.2,3.7l6.3,1.5c3,0.7,5.2,1.9,6.7,3.6
			c1.4,1.7,2.2,3.6,2.2,5.7c0,2.9-1.2,5.3-3.5,7.2C471.3,52.9,468.2,53.9,464.5,53.9z"/>
		<path fill="#767676" d="M495.2,53.4c-3.3,0-5.9-0.9-7.7-2.7c-1.8-1.8-2.6-4.3-2.6-7.6V26.4h-5.6v-5.5h5.6v-9.8h6v9.8h7.8v5.5h-7.8
			v16.3c0,3.5,1.4,5.2,4.3,5.2c1.1,0,2-0.2,2.7-0.5l2.1,5.2C498.7,53.1,497.1,53.4,495.2,53.4z"/>
		<path fill="#767676" d="M135.2,115.4c-5.1,0-9.3-1.7-12.5-5.1c-3.2-3.4-4.8-7.8-4.8-13.3V67.6h6v29.6c0,3.7,1,6.7,2.9,9
			c1.9,2.3,4.7,3.4,8.4,3.4c3.7,0,6.4-1.1,8.4-3.4c1.9-2.3,2.9-5.3,2.9-9V67.6h6V97c0,5.5-1.6,10-4.7,13.3
			C144.7,113.7,140.5,115.4,135.2,115.4z"/>
		<path fill="#767676" d="M165.1,67.6v28.8l13.8-14h7.7v0.3l-12.5,12.5l13,19v0.3H180l-10-15.1l-4.8,4.8v10.2h-6V67.6H165.1z"/>
		<path fill="#767676" d="M195.8,114.3h-6v-32h5.7v5.2h0.3c0.6-1.7,1.9-3.2,3.8-4.3c1.9-1.1,3.7-1.7,5.5-1.7c1.8,0,3.3,0.3,4.5,0.8
			l-2.3,5.6c-0.8-0.3-1.8-0.5-3.2-0.5c-2.2,0-4.1,0.9-5.8,2.6c-1.7,1.7-2.5,4-2.5,6.8V114.3z"/>
		<path fill="#767676" d="M221.6,115.4c-3.4,0-6.2-1-8.5-2.9c-2.3-2-3.4-4.5-3.4-7.8c0-3.5,1.3-6.2,4-8.2c2.7-2,6-3,10-3
			c3.5,0,6.4,0.7,8.7,2v-0.9c0-2.3-0.8-4.2-2.4-5.6c-1.6-1.4-3.6-2.1-5.9-2.1c-1.7,0-3.3,0.4-4.7,1.2c-1.4,0.8-2.4,2-2.9,3.4
			l-5.5-2.3c0.7-1.9,2.2-3.7,4.4-5.3c2.2-1.6,5-2.4,8.6-2.4c4.1,0,7.5,1.2,10.2,3.6c2.7,2.4,4,5.8,4,10.1v19.3h-5.7v-4.4h-0.3
			C229.7,113.6,226.2,115.4,221.6,115.4z M222.6,109.9c2.5,0,4.7-0.9,6.8-2.8c2-1.8,3-4,3-6.6c-1.7-1.4-4.2-2.1-7.6-2.1
			c-2.9,0-5.1,0.6-6.6,1.9c-1.5,1.3-2.2,2.7-2.2,4.4c0,1.6,0.7,2.8,2,3.7C219.3,109.5,220.8,109.9,222.6,109.9z"/>
		<path fill="#767676" d="M249.9,74.4c-0.8,0.8-1.8,1.2-3,1.2c-1.2,0-2.2-0.4-3-1.2c-0.8-0.8-1.2-1.8-1.2-3c0-1.2,0.4-2.2,1.2-3
			c0.8-0.8,1.8-1.2,3-1.2c1.2,0,2.2,0.4,3,1.2c0.8,0.8,1.2,1.8,1.2,3C251.2,72.5,250.8,73.5,249.9,74.4z M249.9,114.3h-6v-32h6
			V114.3z"/>
		<path fill="#767676" d="M262,82.4v4.4h0.3c0.9-1.5,2.2-2.8,4.1-3.9c1.9-1.1,3.9-1.6,6-1.6c4,0,7,1.2,9.1,3.7
			c2.1,2.4,3.1,5.7,3.1,9.8v19.6h-6V95.7c0-5.9-2.6-8.9-7.9-8.9c-2.5,0-4.5,1-6.1,3c-1.6,2-2.3,4.3-2.3,6.9v17.7h-6v-32H262z"/>
		<path fill="#767676" d="M304.9,115.4c-4.8,0-8.8-1.6-11.8-4.8c-3-3.2-4.5-7.3-4.5-12.2c0-4.7,1.5-8.7,4.4-12c2.9-3.3,6.7-5,11.3-5
			c4.7,0,8.5,1.5,11.4,4.6c2.8,3.1,4.3,7.2,4.3,12.4l-0.1,1.1h-25.2c0.2,3.2,1.2,5.8,3.2,7.6c2,1.9,4.3,2.8,6.9,2.8
			c4.3,0,7.2-1.8,8.7-5.5l5.3,2.2c-1,2.5-2.8,4.6-5.2,6.2C311.3,114.6,308.4,115.4,304.9,115.4z M313.5,94.5c-0.1-1.8-1-3.6-2.5-5.2
			c-1.5-1.7-3.8-2.5-6.9-2.5c-2.2,0-4.1,0.7-5.8,2.1c-1.6,1.4-2.8,3.3-3.4,5.6H313.5z"/>
		<path fill="#767676" d="M367.1,114.3h-28.4v-6c8.5-8.6,14-14.2,16.4-16.8c2.1-2.4,3.6-4.2,4.3-5.4c0.7-1.2,1.1-2.8,1.1-4.6
			c0-1.9-0.7-3.5-2.2-5c-1.5-1.4-3.5-2.2-5.9-2.2c-2.3,0-4.1,0.7-5.5,2c-1.4,1.3-2.3,2.8-2.7,4.3l-5.5-2.2c0.7-2.3,2.3-4.6,4.6-6.7
			c2.3-2.1,5.4-3.1,9.1-3.1c4.1,0,7.5,1.3,10.2,3.8c2.7,2.5,4,5.5,4,9.1c0,4.3-2.4,9-7.1,14l-13,13.1h20.7V114.3z"/>
		<path fill="#767676" d="M401.5,108.7c-3.3,4.5-7.6,6.7-13,6.7c-5.3,0-9.7-2.2-13-6.7c-3.3-4.5-5-10-5-16.6c0-6.7,1.7-12.2,5-16.7
			c3.3-4.5,7.6-6.7,13-6.7c5.3,0,9.7,2.2,13,6.7c3.3,4.5,5,10,5,16.7C406.5,98.6,404.8,104.2,401.5,108.7z M388.5,109.6
			c3.6,0,6.4-1.7,8.6-5c2.2-3.3,3.2-7.5,3.2-12.6c0-5.1-1.1-9.3-3.2-12.6c-2.2-3.3-5-5-8.6-5c-3.6,0-6.5,1.7-8.6,5
			c-2.1,3.3-3.2,7.5-3.2,12.6c0,5,1.1,9.2,3.2,12.6C382,108,384.9,109.6,388.5,109.6z"/>
		<path fill="#767676" d="M425.5,114.3h-6V77.2l-8.7,3.8l-2.3-5.1l13.1-6.1h3.8V114.3z"/>
		<path fill="#767676" d="M458.4,111.5c-2.9,2.6-6.5,3.8-10.8,3.8c-4.3,0-7.9-1.3-10.8-3.8c-2.9-2.6-4.4-5.7-4.4-9.5
			c0-2.5,0.7-4.7,2-6.6c1.3-1.9,3.1-3.4,5.3-4.5v-0.3c-1.7-1.1-3.1-2.5-4.2-4.1c-1.1-1.7-1.6-3.4-1.6-5.3c0-3.6,1.3-6.6,3.8-9
			c2.6-2.4,5.8-3.6,9.8-3.6c4,0,7.2,1.2,9.8,3.6c2.6,2.4,3.8,5.4,3.8,9c0,1.8-0.5,3.6-1.6,5.3c-1.1,1.7-2.5,3.1-4.2,4.1V91
			c2.2,1.1,3.9,2.6,5.3,4.5c1.3,1.9,2,4.1,2,6.6C462.8,105.8,461.3,109,458.4,111.5z M441.2,107.4c1.7,1.5,3.9,2.2,6.4,2.2
			c2.5,0,4.7-0.7,6.4-2.2c1.7-1.5,2.6-3.4,2.6-5.7c0-2.3-0.9-4.2-2.6-5.7c-1.7-1.5-3.9-2.2-6.4-2.2c-2.5,0-4.7,0.7-6.4,2.2
			c-1.7,1.5-2.6,3.4-2.6,5.7C438.6,104,439.5,106,441.2,107.4z M442.2,86.3c1.4,1.3,3.2,1.9,5.4,1.9c2.2,0,4-0.6,5.4-1.9
			c1.4-1.3,2.1-3,2.1-5.1c0-2.1-0.7-3.7-2.1-5c-1.4-1.2-3.2-1.8-5.4-1.8c-2.2,0-4,0.6-5.4,1.8c-1.4,1.2-2.1,2.9-2.1,5
			C440.1,83.3,440.8,85,442.2,86.3z"/>
	</g>
</g>
</svg>
