<?xml version="1.0" encoding="UTF-8" standalone="no"?>
<!-- Created with Inkscape (http://www.inkscape.org/) -->

<svg
   xmlns:dc="http://purl.org/dc/elements/1.1/"
   xmlns:cc="http://creativecommons.org/ns#"
   xmlns:rdf="http://www.w3.org/1999/02/22-rdf-syntax-ns#"
   xmlns:svg="http://www.w3.org/2000/svg"
   xmlns="http://www.w3.org/2000/svg"
   xmlns:sodipodi="http://sodipodi.sourceforge.net/DTD/sodipodi-0.dtd"
   xmlns:inkscape="http://www.inkscape.org/namespaces/inkscape"
   id="svg2984"
   version="1.1"
   inkscape:version="0.48.4 r9939"
   width="531.49774"
   height="134.5645"
   xml:space="preserve"
   sodipodi:docname="GUGcz (rgb).svg"><metadata
     id="metadata2990"><rdf:RDF><cc:Work
         rdf:about=""><dc:format>image/svg+xml</dc:format><dc:type
           rdf:resource="http://purl.org/dc/dcmitype/StillImage" /><dc:title></dc:title></cc:Work></rdf:RDF></metadata><defs
     id="defs2988"><clipPath
       clipPathUnits="userSpaceOnUse"
       id="clipPath2998"><path
         d="m 0,566.93 566.93,0 L 566.93,0 0,0 0,566.93 z"
         id="path3000"
         inkscape:connector-curvature="0" /></clipPath></defs><sodipodi:namedview
     pagecolor="#ffffff"
     bordercolor="#666666"
     borderopacity="1"
     objecttolerance="10"
     gridtolerance="10"
     guidetolerance="10"
     inkscape:pageopacity="0"
     inkscape:pageshadow="2"
     inkscape:window-width="1920"
     inkscape:window-height="1003"
     id="namedview2986"
     showgrid="false"
     inkscape:zoom="1.1246539"
     inkscape:cx="265.74949"
     inkscape:cy="102.84839"
     inkscape:window-x="-9"
     inkscape:window-y="-9"
     inkscape:window-maximized="1"
     inkscape:current-layer="g2992"
     fit-margin-top="0"
     fit-margin-left="0"
     fit-margin-right="0"
     fit-margin-bottom="0" /><g
     id="g2992"
     inkscape:groupmode="layer"
     inkscape:label="GUGcz (rgb)"
     transform="matrix(1.25,0,0,-1.25,-88.58175,421.61387)"><g
       id="g2994"><g
         id="g2996"
         clip-path="url(#clipPath2998)"><g
           id="g3002"
           transform="translate(100.0874,282.9971)"><path
             d="m 0,0 c 0,9.982 2.256,17.655 6.769,23.033 4.512,5.369 10.894,8.058 19.157,8.058 9.025,0 17.312,-1.862 24.853,-5.594 l 8.955,22.206 c -4.342,1.909 -9.442,3.485 -15.291,4.729 -5.849,1.244 -12.069,1.862 -18.659,1.862 -17.381,0 -30.891,-4.706 -40.541,-14.108 -9.643,-9.412 -14.465,-22.562 -14.465,-39.468 0,-8.134 0.982,-15.381 2.921,-21.755 l 31.478,0 C 1.739,-15.977 0,-8.977 0,0"
             style="fill:#595959;fill-opacity:1;fill-rule:nonzero;stroke:none"
             id="path3004"
             inkscape:connector-curvature="0" /></g><g
           id="g3006"
           transform="translate(161.9692,292.3848)"><path
             d="m 0,0 -45.192,0 0,-21.849 18.69,0 0,-8.576 26.502,0 L 0,0 z"
             style="fill:#595959;fill-opacity:1;fill-rule:nonzero;stroke:none"
             id="path3008"
             inkscape:connector-curvature="0" /></g><g
           id="g3010"
           transform="translate(84.0781,243.6787)"><path
             d="m 0,0 c 8.808,-9.356 21.287,-14.039 37.423,-14.039 14.708,0 28.198,2.101 40.468,6.305 l 0,12.339 -81.623,0 C -2.588,2.982 -1.352,1.438 0,0"
             style="fill:#595959;fill-opacity:1;fill-rule:nonzero;stroke:none"
             id="path3012"
             inkscape:connector-curvature="0" /></g><g
           id="g3014"
           transform="translate(211.1792,274.3379)"><path
             d="m 0,0 0,61.446 -28.438,0 0,-63.672 c 0,-3.608 0.275,-6.984 0.804,-10.152 l 29.616,0 C 0.665,-9.21 0,-5.1 0,0"
             style="fill:#595959;fill-opacity:1;fill-rule:nonzero;stroke:none"
             id="path3016"
             inkscape:connector-curvature="0" /></g><g
           id="g3018"
           transform="translate(194.2349,240.6035)"><path
             d="m 0,0 c 7.665,-7.31 18.636,-10.964 32.915,-10.964 14.611,0 25.791,3.763 33.552,11.28 2.26,2.195 4.184,4.652 5.783,7.365 L -6,7.681 C -4.365,4.821 -2.364,2.256 0,0"
             style="fill:#595959;fill-opacity:1;fill-rule:nonzero;stroke:none"
             id="path3020"
             inkscape:connector-curvature="0" /></g><g
           id="g3022"
           transform="translate(272.3423,272.7607)"><path
             d="m 0,0 0,63.023 -28.291,0 0,-61.307 c 0,-5.177 -0.629,-9.334 -1.854,-12.517 l 29.218,0 C -0.317,-7.44 0,-3.848 0,0"
             style="fill:#595959;fill-opacity:1;fill-rule:nonzero;stroke:none"
             id="path3024"
             inkscape:connector-curvature="0" /></g><g
           id="g3026"
           transform="translate(381.5723,292.3848)"><path
             d="m 0,0 -45.192,0 0,-21.849 18.69,0 0,-8.576 26.502,0 L 0,0 z"
             style="fill:#595959;fill-opacity:1;fill-rule:nonzero;stroke:none"
             id="path3028"
             inkscape:connector-curvature="0" /></g><g
           id="g3030"
           transform="translate(303.6816,243.6787)"><path
             d="m 0,0 c 8.808,-9.356 21.282,-14.039 37.423,-14.039 14.707,0 28.198,2.101 40.468,6.305 l 0,12.339 -81.627,0 C -2.593,2.982 -1.36,1.438 0,0"
             style="fill:#595959;fill-opacity:1;fill-rule:nonzero;stroke:none"
             id="path3032"
             inkscape:connector-curvature="0" /></g><g
           id="g3034"
           transform="translate(319.6904,282.9971)"><path
             d="m 0,0 c 0,9.982 2.256,17.655 6.769,23.033 4.504,5.369 10.894,8.058 19.154,8.058 9.024,0 17.306,-1.862 24.855,-5.594 l 8.955,22.206 c -4.349,1.909 -9.441,3.485 -15.29,4.729 -5.849,1.244 -12.069,1.862 -18.66,1.862 -17.385,0 -30.898,-4.706 -40.541,-14.108 -9.646,-9.412 -14.471,-22.562 -14.471,-39.468 0,-8.134 0.989,-15.381 2.928,-21.755 l 31.478,0 C 1.734,-15.977 0,-8.977 0,0"
             style="fill:#595959;fill-opacity:1;fill-rule:nonzero;stroke:none"
             id="path3036"
             inkscape:connector-curvature="0" /></g><g
           id="g3038"
           transform="translate(403.415,242.6816)"><path
             d="m 0,0 c -2.017,0 -3.563,-0.548 -4.628,-1.638 -1.066,-1.096 -1.6,-2.666 -1.6,-4.713 0,-2.016 0.534,-3.6 1.6,-4.752 1.065,-1.151 2.611,-1.722 4.628,-1.722 2.024,0 3.569,0.579 4.651,1.746 1.075,1.158 1.615,2.734 1.615,4.728 0,1.962 -0.534,3.516 -1.599,4.652 C 3.601,-0.571 2.047,0 0,0"
             style="fill:#595959;fill-opacity:1;fill-rule:nonzero;stroke:none"
             id="path3040"
             inkscape:connector-curvature="0" /></g><g
           id="g3042"
           transform="translate(425.0566,236.3926)"><path
             d="m 0,0 c 3.654,-4.11 9.002,-6.158 16.04,-6.158 2.859,0 5.293,0.224 7.302,0.673 2.001,0.447 3.887,1.189 5.656,2.224 l 0,8.623 C 25.072,3.176 20.908,2.086 16.504,2.086 12.633,2.086 9.697,3.392 7.695,6.019 6.537,7.533 5.718,9.504 5.231,11.892 l -10.315,0 C -4.365,6.978 -2.681,3.006 0,0"
             style="fill:#595959;fill-opacity:1;fill-rule:nonzero;stroke:none"
             id="path3044"
             inkscape:connector-curvature="0" /></g><g
           id="g3046"
           transform="translate(441.8154,270.1885)"><path
             d="m 0,0 c 2.72,0 6.166,-0.812 10.346,-2.441 l 2.982,7.95 C 9.411,7.33 4.991,8.242 0.077,8.242 c -7.231,0 -12.756,-2.099 -16.589,-6.31 -2.418,-2.659 -4.071,-6.05 -4.96,-10.161 l 10.384,0 C -9.449,-2.751 -5.764,0 0,0"
             style="fill:#595959;fill-opacity:1;fill-rule:nonzero;stroke:none"
             id="path3048"
             inkscape:connector-curvature="0" /></g><g
           id="g3050"
           transform="translate(472.3896,238.6406)"><path
             d="m 0,0 6.923,9.644 -10.578,0 -7.95,-11.112 0,-6.095 35.279,0 0,7.563 L 0,0 z"
             style="fill:#595959;fill-opacity:1;fill-rule:nonzero;stroke:none"
             id="path3052"
             inkscape:connector-curvature="0" /></g><g
           id="g3054"
           transform="translate(495.3906,270.6904)"><path
             d="m 0,0 0,6.897 -33.177,0 0,-7.569 22.074,0 -5.771,-8.058 10.608,0 L 0,0 z"
             style="fill:#595959;fill-opacity:1;fill-rule:nonzero;stroke:none"
             id="path3056"
             inkscape:connector-curvature="0" /></g><g
           id="g3058"
           transform="translate(135.4673,261.96)"><path
             d="m 0,0 0,-7.819 c -3.531,-0.82 -7.402,-1.221 -11.605,-1.221 -7.688,0 -13.568,2.564 -17.651,7.703 -0.337,0.417 -0.638,0.881 -0.947,1.337 l -31.478,0 c 1.561,-5.123 3.747,-9.682 6.56,-13.676 l 81.623,0 L 26.502,0 0,0 z"
             style="fill:#3369e8;fill-opacity:1;fill-rule:nonzero;stroke:none"
             id="path3060"
             inkscape:connector-curvature="0" /></g><g
           id="g3062"
           transform="translate(242.1973,261.96)"><path
             d="m 0,0 c -0.56,-1.461 -1.232,-2.735 -2.051,-3.778 -2.604,-3.316 -6.792,-4.977 -12.568,-4.977 -5.397,0 -9.48,1.669 -12.25,5.015 -0.858,1.043 -1.576,2.302 -2.167,3.74 l -29.616,0 c 0.861,-5.146 2.423,-9.705 4.69,-13.676 l 78.25,0 c 2.357,3.994 3.995,8.553 4.93,13.676 L 0,0 z"
             style="fill:#d50f25;fill-opacity:1;fill-rule:nonzero;stroke:none"
             id="path3064"
             inkscape:connector-curvature="0" /></g><g
           id="g3066"
           transform="translate(355.0703,261.96)"><path
             d="m 0,0 0,-7.819 c -3.531,-0.82 -7.402,-1.221 -11.605,-1.221 -7.688,0 -13.576,2.564 -17.656,7.703 -0.336,0.417 -0.636,0.881 -0.942,1.337 l -31.478,0 c 1.557,-5.123 3.74,-9.682 6.556,-13.676 l 81.627,0 L 26.502,0 0,0 z"
             style="fill:#eeb211;fill-opacity:1;fill-rule:nonzero;stroke:none"
             id="path3068"
             inkscape:connector-curvature="0" /></g><g
           id="g3070"
           transform="translate(430.7275,261.96)"><path
             d="m 0,0 -10.384,0 c -0.517,-2.388 -0.78,-5.007 -0.78,-7.882 0,-2.062 0.146,-3.986 0.409,-5.794 l 10.316,0 c -0.356,1.738 -0.541,3.686 -0.541,5.879 0,3.037 0.332,5.625 0.98,7.797"
             style="fill:#009925;fill-opacity:1;fill-rule:nonzero;stroke:none"
             id="path3072"
             inkscape:connector-curvature="0" /></g><g
           id="g3074"
           transform="translate(489.125,261.96)"><path
             d="m 0,0 -10.608,0 -9.783,-13.676 10.578,0 L 0,0 z"
             style="fill:#009925;fill-opacity:1;fill-rule:nonzero;stroke:none"
             id="path3076"
             inkscape:connector-curvature="0" /></g></g></g></g></svg>