<?xml version="1.0" encoding="UTF-8" standalone="no"?>
<svg
   xmlns:dc="http://purl.org/dc/elements/1.1/"
   xmlns:cc="http://creativecommons.org/ns#"
   xmlns:rdf="http://www.w3.org/1999/02/22-rdf-syntax-ns#"
   xmlns:svg="http://www.w3.org/2000/svg"
   xmlns="http://www.w3.org/2000/svg"
   xmlns:sodipodi="http://sodipodi.sourceforge.net/DTD/sodipodi-0.dtd"
   xmlns:inkscape="http://www.inkscape.org/namespaces/inkscape"
   xml:space="preserve"
   height="45.729"
   viewBox="0 0 233.85375 45.729001"
   width="233.85374"
   version="1.1"
   id="svg2"
   inkscape:version="0.91 r13725"
   sodipodi:docname="asus.svg"><metadata
     id="metadata18"><rdf:RDF><cc:Work
         rdf:about=""><dc:format>image/svg+xml</dc:format><dc:type
           rdf:resource="http://purl.org/dc/dcmitype/StillImage" /><dc:title></dc:title></cc:Work></rdf:RDF></metadata><defs
     id="defs16" /><sodipodi:namedview
     pagecolor="#ffffff"
     bordercolor="#666666"
     borderopacity="1"
     objecttolerance="10"
     gridtolerance="10"
     guidetolerance="10"
     inkscape:pageopacity="0"
     inkscape:pageshadow="2"
     inkscape:window-width="1920"
     inkscape:window-height="1034"
     id="namedview14"
     showgrid="false"
     fit-margin-top="0"
     fit-margin-left="0"
     fit-margin-right="0"
     fit-margin-bottom="0"
     inkscape:zoom="0.97319588"
     inkscape:cx="-24.933369"
     inkscape:cy="22.934009"
     inkscape:window-x="0"
     inkscape:window-y="0"
     inkscape:window-maximized="1"
     inkscape:current-layer="svg2" /><g
     transform="matrix(1.25,0,0,-1.25,-3.86875,144.045)"
     id="g4"><g
       transform="scale(0.1,0.1)"
       id="g6"
       style="fill-rule:evenodd"><path
         d="m 1857.9,1149 c 7.37,0 14.56,-1.89 21.59,-5.66 7.01,-3.8 12.5,-9.2 16.41,-16.25 3.91,-7.03 5.88,-14.38 5.88,-22.03 0,-7.57 -1.93,-14.84 -5.8,-21.81 -3.85,-7 -9.28,-12.42 -16.23,-16.27 -6.97,-3.87 -14.24,-5.8 -21.85,-5.8 -7.61,0 -14.9,1.93 -21.85,5.8 -6.97,3.85 -12.4,9.27 -16.27,16.27 -3.89,6.97 -5.82,14.24 -5.82,21.81 0,7.65 1.97,15 5.9,22.03 3.93,7.05 9.41,12.45 16.45,16.25 7.01,3.77 14.22,5.66 21.59,5.66 z m 0,-7.27 c -6.18,0 -12.18,-1.59 -18.02,-4.75 -5.84,-3.16 -10.41,-7.69 -13.7,-13.55 -3.3,-5.88 -4.95,-12 -4.95,-18.37 0,-6.32 1.63,-12.38 4.87,-18.18 3.23,-5.8 7.76,-10.33 13.58,-13.56 5.83,-3.24 11.88,-4.87 18.22,-4.87 6.32,0 12.39,1.63 18.21,4.87 5.82,3.23 10.33,7.76 13.55,13.56 3.22,5.8 4.83,11.86 4.83,18.18 0,6.37 -1.63,12.49 -4.91,18.37 -3.27,5.86 -7.84,10.39 -13.7,13.55 -5.86,3.16 -11.86,4.75 -17.98,4.75 z m -19.27,-60.92 0,47.23 16.23,0 c 5.56,0 9.57,-0.42 12.06,-1.29 2.48,-0.87 4.45,-2.4 5.94,-4.57 1.47,-2.18 2.2,-4.49 2.2,-6.93 0,-3.46 -1.23,-6.46 -3.69,-9.02 -2.47,-2.56 -5.74,-3.99 -9.81,-4.31 1.66,-0.7 3.02,-1.53 4.01,-2.5 1.9,-1.87 4.23,-4.99 6.99,-9.38 l 5.76,-9.23 -9.31,0 -4.2,7.44 c -3.3,5.84 -5.94,9.52 -7.96,10.99 -1.4,1.09 -3.44,1.63 -6.12,1.63 l -4.47,0 0,-20.06 -7.63,0 z m 7.63,26.57 9.25,0 c 4.41,0 7.43,0.68 9.05,1.99 1.6,1.31 2.42,3.06 2.42,5.24 0,1.39 -0.4,2.64 -1.17,3.76 -0.78,1.09 -1.85,1.92 -3.22,2.46 -1.39,0.56 -3.94,0.82 -7.67,0.82 l -8.66,0 0,-14.27"
         id="path10"
         inkscape:connector-curvature="0"
         style="fill:#231f20" /><path
         d="m 1011.2,1151.8 1.47,0 0,-100.96 -102,0 0,100.96 100.53,0 z M 567.33,938.36 803.24,923.72 c 9.809,0 17.832,-8.024 17.832,-17.832 l 0,-0.004 c 0,-9.809 -8.019,-17.832 -17.832,-17.832 l -336.21,0 0,131.42 c 10.332,-40.578 45.887,-73.777 100.3,-81.125 z m -100.3,-151.82 343.72,0 c 50.106,0 92.172,36.145 101.44,83.641 8.175,-47.34 49.589,-83.641 99.056,-83.641 l 219.62,0 c 49.07,0 90.21,35.723 98.85,82.5 l 0,-82.5 352.1,0 c 56.84,0 103.34,46.504 103.34,103.34 l 0,14.633 c 0,56.839 -46.5,103.34 -103.34,103.34 l -19.31,0.85 c -109.56,4.82 -218.77,10.34 -328.19,15.99 8.52,-42.934 44.76,-78.684 101.49,-86.345 l 238.5,-14.632 c 9.81,0 17.84,-8.024 17.84,-17.832 l 0,-0.004 c 0,-9.809 -8.02,-17.832 -17.84,-17.832 l -342.91,0 0,136.78 -102,5.27 0,-117 c 0,-16.375 -13.39,-29.769 -29.77,-29.769 l -157.14,0 c -16.38,0 -29.77,13.394 -29.77,29.769 l 0,128.18 -102,5.26 0,-115.98 c -11.66,43.875 -52.156,75.51 -99.961,75.51 l -449.23,29.37 0,-248.91 105.51,0 z m 427.48,264.3 0,101.52 -327.17,0 c -48.297,0 -89.121,-33.57 -100.3,-78.54 l 0,78.04 -195.29,0 -66.554,-100.97 258.83,0 430.49,-0.05 z m -576.07,-12.9 -161.31,-251.4 -126.18,0 170.17,258.17 117.32,-6.77 z m 1466.7,12.9 0,101.52 -349.35,0 c -56.21,0 -102.31,-45.49 -103.32,-101.47 l 452.67,-0.05 z m -555.76,0.05 0,100.96 102,0 0,-100.96 -102,0"
         id="path12"
         inkscape:connector-curvature="0"
         style="fill:#231f20" /></g></g></svg>