<?xml version="1.0" encoding="UTF-8" standalone="no"?>
<svg
   xmlns:dc="http://purl.org/dc/elements/1.1/"
   xmlns:cc="http://creativecommons.org/ns#"
   xmlns:rdf="http://www.w3.org/1999/02/22-rdf-syntax-ns#"
   xmlns:svg="http://www.w3.org/2000/svg"
   xmlns="http://www.w3.org/2000/svg"
   viewBox="0 0 1054.3213 193.74133"
   height="193.74133"
   width="1054.3213"
   xml:space="preserve"
   id="svg2"
   version="1.1"><metadata
     id="metadata8"><rdf:RDF><cc:Work
         rdf:about=""><dc:format>image/svg+xml</dc:format><dc:type
           rdf:resource="http://purl.org/dc/dcmitype/StillImage" /></cc:Work></rdf:RDF></metadata><defs
     id="defs6"><clipPath
       id="clipPath18"
       clipPathUnits="userSpaceOnUse"><path
         id="path16"
         d="M 0,145.306 H 790.741 V 0 H 0 Z" /></clipPath></defs><g
     transform="matrix(1.3333333,0,0,-1.3333333,0,193.74133)"
     id="g10"><g
       id="g12"><g
         clip-path="url(#clipPath18)"
         id="g14"><g
           transform="translate(19.666,130.4629)"
           id="g20"><path
             id="path22"
             style="fill:#244f90;fill-opacity:1;fill-rule:evenodd;stroke:none"
             d="m 0,0 c -12.1,-10.652 -19.666,-26.613 -19.666,-44 0,-4.614 0.806,-9.064 1.822,-13.367 1.458,9.911 7.469,23.895 18.966,36.555 C 0.191,-13.412 -0.395,-6.169 0,0 m 9.064,-54.191 c -0.422,1.228 -0.832,2.456 -1.224,3.678 -6.731,-15.032 -8.254,-29.913 -5.122,-39.075 9.087,-7.178 20.36,-11.705 32.666,-12.4 -9.898,11.093 -19.462,27.916 -26.32,47.797" /></g><g
           transform="translate(79.5,139.3711)"
           id="g24"><path
             id="path26"
             style="fill:#a3a1a1;fill-opacity:1;fill-rule:evenodd;stroke:none"
             d="m 0,0 c -0.587,0.662 -2.403,2.541 -3,3.174 -1.889,0.666 -3.487,0.984 -5.458,1.455 1.287,-1.34 3.452,-3.717 4.702,-5.2 C -2.52,-0.364 -1.271,-0.169 0,0 m 8.27,-10.775 c -1.325,-0.268 -2.625,-0.565 -3.907,-0.886 5.188,-8.124 9.761,-17.51 13.319,-27.827 6.091,-17.659 8.265,-35.621 6.818,-50.088 1.247,1.572 2.415,3.211 3.497,4.91 1.262,13.827 -0.755,30.424 -6.319,46.556 -3.502,10.156 -8.107,19.372 -13.408,27.335 m -46.143,-26.627 c -1.072,-1.222 -2.102,-2.463 -3.087,-3.723 1.582,-5.42 3.362,-11.029 5.335,-16.751 7.463,-21.638 16.096,-40.339 23.695,-52.39 0.929,0.147 1.852,0.317 2.766,0.506 -6.809,12.33 -15.002,31.383 -22.539,53.238 -2.269,6.577 -4.33,12.985 -6.17,19.12 m 15.844,14.014 c -2.823,-1.913 -5.475,-3.966 -7.957,-6.137 2.521,-7.4 5.244,-15.341 8.097,-23.614 7.617,-22.078 14.532,-41.781 19.227,-54.847 2.103,0.705 4.154,1.521 6.142,2.453 -2.59,13.791 -8.123,33.819 -15.682,55.735 -3.247,9.415 -6.575,18.319 -9.827,26.41 m -31.805,19.229 c 0.069,-5.454 0.668,-12.289 1.739,-19.003 0.997,0.891 2.028,1.768 3.087,2.632 -1.174,6.389 -1.946,12.889 -2.255,18.03 -0.873,-0.529 -1.728,-1.084 -2.571,-1.659 m 10.509,-40.13 c -1.032,-1.447 -2.012,-2.912 -2.937,-4.391 1.11,-3.807 2.335,-7.678 3.686,-11.592 7.25,-21.023 16.488,-38.986 25.332,-50.582 1.025,0.067 2.042,0.163 3.052,0.284 -8.177,11.843 -17.107,30.236 -24.49,51.639 -1.714,4.975 -3.263,9.872 -4.643,14.642 m 58.034,34.572 c -0.963,-0.125 -1.916,-0.263 -2.859,-0.415 5.347,-7.788 9.934,-16.809 13.366,-26.759 4.932,-14.3 6.693,-29.808 5.867,-42.601 1,2.058 1.994,4.232 2.75,6.417 0.252,11.377 -1.63,24.87 -5.86,37.135 -3.366,9.754 -7.915,18.586 -13.264,26.223 M 0.568,-12.699 c -1.974,-0.591 -3.902,-1.236 -5.773,-1.946 4.68,-8.382 8.989,-17.969 12.586,-28.397 6.926,-20.077 9.88,-39.616 9.054,-54.442 1.66,1.41 3.238,2.91 4.731,4.492 1.361,14.756 -1.003,33.331 -7.484,52.123 -3.591,10.411 -8.09,19.916 -13.114,28.17 m -29.14,4.722 c -1.971,4.366 -4.047,8.901 -5.826,12.33 -2.166,-0.499 -4.288,-1.112 -6.352,-1.845 1.316,-3.983 3.023,-9.149 4.729,-14.217 2.371,1.326 4.856,2.572 7.449,3.732 m 19.213,-8.383 c -1.289,-0.572 -2.551,-1.171 -3.786,-1.796 4.057,-8.395 7.967,-17.852 11.47,-28.009 7.322,-21.23 11.314,-41.349 11.841,-55.827 0.994,0.637 1.973,1.303 2.924,1.998 0.191,14.689 -3.24,34.578 -10.399,55.334 -3.562,10.329 -7.68,19.885 -12.05,28.3 M 32.25,-34.742 c -4.902,14.299 -10.538,21.512 -14.582,25.14 5.254,-7.426 9.701,-15.974 12.959,-25.421 3.258,-9.444 5.264,-19.886 5.706,-28.969 0.58,3.298 1.917,11.75 -4.083,29.25 m -48.994,31.16 c -2.098,3.232 -4.733,6.887 -6.84,9.506 -1.189,-0.039 -2.375,-0.107 -3.546,-0.217 2.084,-2.869 4.721,-6.828 6.839,-10.424 1.162,0.397 2.346,0.774 3.547,1.135 m -30.175,3.563 c -0.845,-0.416 -1.677,-0.85 -2.498,-1.307 0.502,-4.901 1.542,-11.194 2.805,-17.32 0.991,0.753 2.004,1.494 3.046,2.219 -1.389,5.817 -2.609,11.788 -3.353,16.408 m 39.542,-1.22 c -1.656,2.086 -3.914,4.771 -5.623,6.58 -2.117,0.318 -4.275,0.511 -6.461,0.594 2.035,-2.322 4.631,-5.624 6.624,-8.425 1.778,0.457 3.599,0.874 5.46,1.251" /></g><g
           transform="translate(166.3516,58.1777)"
           id="g28"><path
             id="path30"
             style="fill:#244f90;fill-opacity:1;fill-rule:nonzero;stroke:none"
             d="M 0,0 H 23.637 V 11.235 H 4.731 c -4.731,0 -5.91,1.77 -5.91,6.497 v 5.324 h 21.276 v 11.22 H -1.179 V 45.51 H 22.534 V 56.734 H -14.19 V 15.367 C -14.19,5.912 -9.459,0 0,0 m 53.396,-0.592 c 13.006,0 23.125,6.799 23.125,21.275 V 56.734 H 63.448 V 20.388 c 0,-6.497 -2.954,-9.748 -10.052,-9.748 -7.086,0 -10.041,3.251 -10.041,9.748 V 56.734 H 30.357 V 20.616 c 0,-14.409 8.863,-21.208 23.039,-21.208 M 84.514,0 h 12.999 v 16.84 h 7.981 C 110.22,13.891 114.95,3.254 115.837,0 h 14.177 v 0.588 c -0.507,3.619 -6.792,15.959 -12.702,20.688 4.728,2.953 9.166,7.459 9.166,16.548 0,14.77 -8.285,18.91 -21.279,18.91 H 84.514 Z M 97.513,27.772 V 45.51 h 5.324 c 7.094,0 10.041,-1.19 10.041,-8.283 0,-7.091 -2.947,-9.455 -10.041,-9.455 z m 60.368,-28.364 c 17.438,0 26.01,10.638 26.01,28.072 v 2.364 c 0,17.434 -8.572,27.485 -26.01,27.485 -17.428,0 -25.999,-10.051 -25.999,-27.485 V 27.48 c 0,-17.434 8.571,-28.072 25.999,-28.072 m 0,11.232 c -9.746,0 -12.407,7.092 -12.407,16.84 v 2.364 c 0,9.759 2.661,16.254 12.407,16.254 9.758,0 12.417,-6.495 12.417,-16.254 V 27.48 c 0,-9.748 -2.659,-16.84 -12.417,-16.84" /></g><g
           transform="translate(419.4004,88.0381)"
           id="g32"><path
             id="path34"
             style="fill:#a3a1a1;fill-opacity:1;fill-rule:nonzero;stroke:none"
             d="m 0,0 v -2.377 c 0,-17.299 8.436,-27.915 25.584,-28.095 h 0.889 c 17.156,0.18 25.591,10.796 25.591,28.095 V 0 c 0,17.444 -8.582,27.498 -26.037,27.498 C 8.58,27.498 0,17.444 0,0 M 13.609,-2.377 V 0 c 0,9.754 2.664,16.264 12.418,16.264 9.762,0 12.428,-6.51 12.428,-16.264 v -2.377 c 0,-9.755 -2.666,-16.848 -12.428,-16.848 -9.754,0 -12.418,7.093 -12.418,16.848 M -25.03,27.498 c -11.532,0 -20.994,-4.73 -20.994,-16.265 0,-9.764 5.317,-14.34 11.829,-15.978 l 8.866,-2.362 c 3.407,-0.887 6.513,-2.372 6.513,-5.917 0,-4.73 -3.549,-6.201 -8.28,-6.201 h -2.965 c -5.031,0 -12.045,1.397 -15.308,2.364 h -0.655 v -10.947 c 4.027,-1.447 11.151,-2.603 15.615,-2.664 h 3.802 c 12.459,0.123 21.39,4.899 21.39,17.448 0,9.178 -4.431,14.28 -13.013,16.572 l -8.866,2.368 c -2.965,0.814 -5.331,2.068 -5.331,5.317 0,4.146 3.55,5.031 7.696,5.031 h 2.653 c 3.262,0 10.361,-0.967 13.312,-1.782 h 0.598 V 25.43 c -3.262,1.182 -10.359,2.068 -13.91,2.068 h -2.952 m 358.518,-0.586 v -41.407 c 0,-9.465 4.733,-15.381 14.194,-15.381 h 23.66 v 11.237 h -18.928 c -4.732,0 -5.912,1.778 -5.912,6.507 v 5.321 h 21.291 V 4.434 h -21.291 v 11.234 h 23.728 v 11.244 h -36.742 m -50.937,0 v -56.788 h 13.01 v 16.852 h 7.984 c 4.728,-2.955 9.463,-13.602 10.346,-16.852 h 14.197 v 0.584 c -0.512,3.621 -6.797,15.98 -12.715,20.716 4.732,2.948 9.17,7.466 9.17,16.56 0,14.784 -8.285,18.928 -21.297,18.928 h -20.695 m 13.01,-11.244 h 5.318 c 7.1,0 10.062,-1.186 10.062,-8.283 0,-7.096 -2.962,-9.462 -10.062,-9.462 h -5.318 v 17.745 m -53.51,11.244 c -2.365,-4.433 -8.281,-20.41 -11.83,-32.54 -2.367,-7.984 -4.063,-13.597 -6.5,-23.664 v -0.584 h 13.013 c 0.741,3.467 1.772,7.841 2.952,12.419 h 19.669 c 1.038,-4.578 2.079,-8.952 2.819,-12.419 h 14.195 v 0.584 c -2.363,10.067 -4.144,15.68 -6.51,23.664 -3.548,12.13 -9.466,28.107 -11.83,32.54 h -15.978 m 7.697,-10.348 c 1.625,-3.548 4.215,-12.8 6.797,-22.705 h -13.826 c 2.74,9.905 5.617,19.157 7.029,22.705 m -37.512,10.348 c -1.777,-13.61 -6.215,-34.605 -10.056,-45.254 -4.139,10.649 -8.871,31.644 -10.651,45.254 h -11.832 c -1.777,-13.61 -6.498,-35.488 -10.646,-45.254 -3.85,9.766 -8.281,31.644 -10.063,45.254 h -14.195 v -0.597 c 2.668,-18.034 8.578,-41.923 14.795,-56.191 h 17.746 c 2.664,6.502 6.51,18.043 8.281,27.799 1.778,-9.756 5.326,-20.701 8.28,-27.799 h 17.746 c 5.328,13.015 11.531,34.898 14.795,56.191 v 0.597 h -14.2 m -114.466,0 V 15.668 h 15.38 v -45.544 h 13.012 v 45.544 h 15.377 V 26.912 H 97.77 m -18.393,0 c -13.016,0 -20.109,-5.914 -20.109,-18.928 v -37.86 h 13.011 v 20.7 H 92.391 V 2.068 H 72.279 v 5.916 c 0,4.8 2.366,7.684 7.098,7.684 H 93.572 V 26.912 H 79.377" /></g><text
           id="text38"
           style="font-variant:normal;font-weight:normal;font-stretch:normal;font-size:28.89999962px;font-family:'Open Sans';-inkscape-font-specification:OpenSans;writing-mode:lr-tb;fill:#244f90;fill-opacity:1;fill-rule:nonzero;stroke:none"
           transform="matrix(1,0,0,-1,297.749,6.5107)"><tspan
             id="tspan36"
             y="0"
             x="0 18.293699 25.807699 51.9044 68.117302 94.994301 112.71 128.9229 140.7141 148.2281 165.6837 175.4808 182.9948 193.1965 210.9411 227.15401 234.668 255.7072 273.45181 280.96579 296.83191 314.28751 324.08459 334.28629 356.77051 372.8389 384.6301 400.84299 408.35699 429.39621 441.18741 458.64301 476.3876">A Member of the GK Software Group</tspan></text>
</g></g></g></svg>