<?xml version="1.0" encoding="UTF-8" standalone="no"?>
<svg
   xmlns:dc="http://purl.org/dc/elements/1.1/"
   xmlns:cc="http://creativecommons.org/ns#"
   xmlns:rdf="http://www.w3.org/1999/02/22-rdf-syntax-ns#"
   xmlns:svg="http://www.w3.org/2000/svg"
   xmlns="http://www.w3.org/2000/svg"
   xmlns:sodipodi="http://sodipodi.sourceforge.net/DTD/sodipodi-0.dtd"
   xmlns:inkscape="http://www.inkscape.org/namespaces/inkscape"
   width="1000"
   height="328.56"
   id="svg2"
   version="1.1"
   inkscape:version="0.91 r13725"
   sodipodi:docname="google.svg">
  <metadata
     id="metadata20">
    <rdf:RDF>
      <cc:Work
         rdf:about="">
        <dc:format>image/svg+xml</dc:format>
        <dc:type
           rdf:resource="http://purl.org/dc/dcmitype/StillImage" />
      </cc:Work>
    </rdf:RDF>
  </metadata>
  <defs
     id="defs18" />
  <sodipodi:namedview
     pagecolor="#ffffff"
     bordercolor="#666666"
     borderopacity="1"
     objecttolerance="10"
     gridtolerance="10"
     guidetolerance="10"
     inkscape:pageopacity="0"
     inkscape:pageshadow="2"
     inkscape:window-width="1920"
     inkscape:window-height="1048"
     id="namedview16"
     showgrid="false"
     inkscape:zoom="0.394"
     inkscape:cx="388.66543"
     inkscape:cy="164.28"
     inkscape:window-x="1920"
     inkscape:window-y="0"
     inkscape:window-maximized="1"
     inkscape:current-layer="svg2" />
  <g
     id="g4148"
     transform="matrix(0.83766674,0,0,0.83766674,81.166546,53.760073)">
    <path
       id="path4"
       d="m 246.11,116.18 -116.57,0 0,34.59 82.673,0 c -4.084,48.507 -44.44,69.193 -82.533,69.193 -48.736,0 -91.264,-38.346 -91.264,-92.092 0,-52.356 40.54,-92.678 91.37,-92.678 39.218,0 62.327,25 62.327,25 l 24.22,-25.08 C 216.333,35.113 185.246,0.5 128.55,0.5 56.35,0.503 0.5,61.437 0.5,127.253 c 0,64.494 52.538,127.38 129.89,127.38 68.03,0 117.83,-46.603 117.83,-115.52 0,-14.538 -2.112,-22.94 -2.112,-22.94 z"
       inkscape:connector-curvature="0"
       style="fill:#4285f4" />
    <path
       id="path6"
       d="m 341.6,91.13 c -47.832,0 -82.11,37.394 -82.11,81.007 0,44.258 33.248,82.348 82.672,82.348 44.742,0 81.397,-34.197 81.397,-81.397 0,-54.098 -42.64,-81.96 -81.96,-81.96 z m 0.476,32.082 c 23.522,0 45.812,19.017 45.812,49.66 0,29.993 -22.195,49.552 -45.92,49.552 -26.068,0 -46.633,-20.878 -46.633,-49.79 0,-28.292 20.31,-49.422 46.74,-49.422 z"
       inkscape:connector-curvature="0"
       style="fill:#ea4335" />
    <path
       id="path8"
       d="m 520.18,91.13 c -47.832,0 -82.11,37.394 -82.11,81.007 0,44.258 33.248,82.348 82.672,82.348 44.742,0 81.397,-34.197 81.397,-81.397 0,-54.098 -42.64,-81.96 -81.96,-81.96 z m 0.476,32.082 c 23.522,0 45.812,19.017 45.812,49.66 0,29.993 -22.195,49.552 -45.92,49.552 -26.068,0 -46.633,-20.878 -46.633,-49.79 0,-28.292 20.31,-49.422 46.74,-49.422 z"
       inkscape:connector-curvature="0"
       style="fill:#fbbc05" />
    <path
       id="path10"
       d="m 695.34,91.215 c -43.904,0 -78.414,38.453 -78.414,81.613 0,49.163 40.01,81.765 77.657,81.765 23.28,0 35.657,-9.24 44.796,-19.847 l 0,16.106 c 0,28.18 -17.11,45.055 -42.937,45.055 -24.95,0 -37.463,-18.55 -41.812,-29.078 l -31.39,13.122 c 11.136,23.547 33.554,48.103 73.463,48.103 43.652,0 76.922,-27.495 76.922,-85.16 l 0,-146.768 -34.245,0 0,13.837 C 728.85,98.616 714.45,91.218 695.34,91.218 Z m 3.178,32.018 c 21.525,0 43.628,18.38 43.628,49.768 0,31.905 -22.056,49.488 -44.104,49.488 -23.406,0 -45.185,-19.005 -45.185,-49.184 0,-31.358 22.62,-50.07 45.66,-50.07 z"
       inkscape:connector-curvature="0"
       style="fill:#4285f4" />
    <path
       id="path12"
       d="m 925.89,91.02 c -41.414,0 -76.187,32.95 -76.187,81.57 0,51.447 38.76,81.96 80.165,81.96 34.558,0 55.768,-18.907 68.426,-35.846 l -28.235,-18.787 c -7.328,11.37 -19.577,22.484 -40.02,22.484 -22.96,0 -33.52,-12.573 -40.06,-24.753 l 109.52,-45.444 -5.686,-13.318 c -10.58,-26.08 -35.26,-47.86 -67.92,-47.86 z m 1.427,31.413 c 14.923,0 25.663,7.934 30.224,17.447 l -73.138,30.57 c -3.153,-23.667 19.27,-48.017 42.915,-48.017 z"
       inkscape:connector-curvature="0"
       style="fill:#ea4335" />
    <path
       id="path14"
       d="m 797.49,249.7 35.975,0 0,-240.75 -35.975,0 z"
       inkscape:connector-curvature="0"
       style="fill:#34a853" />
  </g>
</svg>
