<?xml version="1.0" encoding="UTF-8" standalone="no"?>
<svg width="284px" height="120px" viewBox="0 0 284 120" version="1.1" xmlns="http://www.w3.org/2000/svg" xmlns:xlink="http://www.w3.org/1999/xlink">
    <!-- Generator: Sketch 40.1 (33804) - http://www.bohemiancoding.com/sketch -->
    <title>logo_full_black</title>
    <desc>Created with Sketch.</desc>
    <defs>
        <linearGradient x1="58.5131168%" y1="-7.11846137%" x2="58.5131168%" y2="-52.6543937%" id="linearGradient-1">
            <stop stop-color="#3C364C" offset="0%"></stop>
            <stop stop-color="#202432" offset="100%"></stop>
        </linearGradient>
    </defs>
    <g id="Logo" stroke="none" stroke-width="1" fill="none" fill-rule="evenodd">
        <g id="Group-30">
            <g id="Group-19" transform="translate(31.000000, 24.000000)">
                <g id="Group-17" transform="translate(69.000000, 0.000000)"></g>
                <g id="Group-28">
                    <path d="M12.633,38.514 C12.633,41.022 11.113,42.466 8.11099998,42.466 C5.07099998,42.466 3.58899998,41.212 2.44899998,41.212 C1.34699998,41.212 0.510999976,42.162 0.510999976,43.15 C0.510999976,45.506 5.45099998,46.342 8.07299998,46.342 C13.165,46.342 16.965,43.416 16.965,38.248 C16.965,31.484 10.581,31.484 6.74299998,29.508 C5.98299998,29.128 4.84299998,28.406 4.84299998,26.316 C4.84299998,23.542 6.85699998,22.744 9.02299998,22.744 C11.531,22.744 12.443,23.77 13.773,23.77 C15.065,23.77 15.863,22.858 15.863,21.87 C15.863,19.362 10.847,18.868 8.79499998,18.868 C3.74099998,18.868 0.548999976,21.756 0.548999976,26.506 C0.548999976,33.346 7.00899998,33.46 10.771,35.284 C11.569,35.702 12.633,36.462 12.633,38.514 L12.633,38.514 Z M19.701,38.21 C19.701,43.416 21.107,46.152 26.693,46.152 C28.175,46.152 29.619,45.924 29.619,44.176 C29.619,42.884 28.707,42.466 27.073,42.466 C26.921,42.466 26.655,42.504 26.389,42.504 C24.109,42.504 23.805,41.288 23.805,37.944 L23.805,31.294 L27.187,31.294 C28.251,31.294 29.125,30.496 29.125,29.47 C29.125,28.406 28.251,27.608 27.187,27.608 L23.805,27.608 L23.805,22.896 C23.805,21.87 23.045,20.996 21.753,20.996 C20.423,20.996 19.701,21.832 19.701,22.896 L19.701,38.21 Z M38.359,38.514 C43.185,38.514 45.275,36.386 45.275,32.814 C45.275,29.014 42.995,26.506 38.397,26.506 C33.495,26.506 30.873,29.356 30.873,33.08 L30.873,39.806 C30.873,43.492 33.533,46.304 38.207,46.304 C40.449,46.304 44.933,45.658 44.933,43.378 C44.933,42.618 44.363,41.668 43.071,41.668 C42.615,41.668 42.349,41.782 42.235,41.858 C40.981,42.428 39.955,42.808 38.549,42.808 C36.155,42.808 34.977,41.706 34.977,39.996 L34.977,38.248 C36.193,38.438 37.295,38.514 38.359,38.514 L38.359,38.514 Z M41.209,32.7 C41.209,34.296 40.487,35.322 38.321,35.322 C37.751,35.322 36.269,35.246 34.977,35.094 L34.977,32.852 C34.977,31.028 36.193,29.888 38.321,29.888 C40.183,29.888 41.209,30.686 41.209,32.7 L41.209,32.7 Z M56.295,46.266 C61.425,46.266 63.097,42.998 63.097,38.476 L63.097,33.802 C63.097,29.47 60.779,26.506 56.599,26.506 C54.623,26.506 52.913,27.19 51.165,28.178 C50.709,27.57 50.139,27.19 49.417,27.19 C48.505,27.19 47.517,27.912 47.517,29.014 C47.517,29.432 47.669,29.698 47.897,30.002 C48.277,30.572 48.429,31.142 48.429,32.206 L48.429,52.232 C48.429,53.258 49.151,54.132 50.481,54.132 C51.773,54.132 52.533,53.296 52.533,52.232 L52.533,45.506 C53.901,46.076 55.117,46.266 56.295,46.266 L56.295,46.266 Z M52.533,32.206 C52.533,31.864 52.457,31.484 52.381,31.066 C53.635,30.42 54.851,30.04 55.915,30.04 C57.967,30.04 58.993,31.332 58.993,33.802 L58.993,38.476 C58.993,41.44 58.157,42.808 55.839,42.808 C55.003,42.808 53.711,42.618 52.533,42.162 L52.533,32.206 Z" id="Step" fill="url(#linearGradient-1)"></path>
                    <path d="M170.957,44.062 C170.957,42.998 170.007,42.162 168.943,42.162 L160.127,42.162 L160.127,20.844 C160.127,19.78 159.177,18.868 158.037,18.868 C156.859,18.868 155.947,19.78 155.947,20.844 L155.947,43.834 C155.947,45.05 157.011,46 158.227,46 L168.943,46 C170.045,46 170.957,45.164 170.957,44.062 L170.957,44.062 Z M182.889,35.018 C181.787,34.714 180.647,34.562 179.469,34.562 C174.719,34.562 172.363,36.5 172.363,40.3 L172.363,40.414 C172.363,43.948 174.491,46.266 178.633,46.266 C180.723,46.266 182.395,45.658 183.801,44.442 C184.523,45.62 185.511,46.152 186.841,46.152 C188.285,46.152 189.083,45.62 189.083,44.556 C189.083,43.834 188.741,43.34 187.943,43.188 C187.373,43.074 186.993,42.922 186.993,41.972 L186.993,34.258 C186.993,29.204 184.903,26.506 179.773,26.506 C176.809,26.506 173.883,27.304 173.883,29.318 C173.883,30.116 174.339,30.99 175.441,30.99 C175.783,30.99 176.201,30.914 176.429,30.8 L177.151,30.496 C177.797,30.23 178.405,30.002 179.393,30.002 C181.749,30.002 182.889,31.104 182.889,33.346 L182.889,35.018 Z M179.583,37.678 C180.533,37.678 181.787,37.83 182.889,38.096 L182.889,41.516 C181.711,42.466 180.571,42.846 179.279,42.846 C177.189,42.846 176.429,41.972 176.429,40.452 L176.429,40.338 C176.429,38.894 176.923,37.678 179.583,37.678 L179.583,37.678 Z M195.695,31.256 C196.607,30.306 197.823,29.774 199.381,29.774 C201.585,29.774 202.535,30.8 202.535,32.51 L202.535,39.578 C202.535,41.63 201.433,42.884 199.115,42.884 C196.987,42.884 195.695,41.82 195.695,40.11 L195.695,31.256 Z M191.591,40.11 C191.591,43.568 194.327,46.304 199.115,46.304 C204.131,46.304 206.639,43.264 206.639,39.388 L206.639,32.624 C206.639,29.166 204.853,26.506 200.293,26.506 C198.355,26.506 196.987,26.962 195.695,27.798 L195.695,20.388 C195.695,19.4 194.935,18.526 193.643,18.526 C192.313,18.526 191.591,19.4 191.591,20.388 L191.591,40.11 Z M209.223,32.206 C209.223,38.932 218.077,37.032 218.077,40.604 C218.077,41.972 216.747,42.808 215.037,42.808 C213.441,42.808 211.807,42.086 211.123,41.934 C209.451,41.516 208.995,43.074 208.995,43.758 C208.995,45.772 213.023,46.266 215.189,46.266 C219.711,46.266 222.105,44.062 222.105,40.528 C222.105,33.726 213.251,35.55 213.251,31.826 C213.251,30.192 214.999,30.002 215.949,30.002 C217.963,30.002 218.533,30.838 219.749,30.838 C220.737,30.838 221.421,30.306 221.421,29.28 C221.421,27.076 218.191,26.506 215.949,26.506 C211.503,26.506 209.223,28.786 209.223,32.206 L209.223,32.206 Z" id="Labs" fill="url(#linearGradient-1)"></path>
                    <g id="logo_light_black-copy-109" transform="translate(73.000000, 0.000000)">
                        <ellipse id="Oval-1" fill="url(#linearGradient-1)" cx="36" cy="36" rx="36" ry="36"></ellipse>
                        <g id="Group-18" transform="translate(23.000000, 23.666667)">
                            <g id="logo_light_black-copy-110" transform="translate(0.000000, 0.157895)">
                                <g id="Group-20">
                                    <path d="M18.3680317,1.3964523 C17.6910891,1.93534833 17.2631579,2.76748615 17.2631579,3.69473684 L17.2631579,18.5017544 C17.2631578,21.272954 15.4058403,22.5838609 11.7017547,22.5838596 C7.9868561,22.5838584 6.10456136,21.2655294 6.1045614,18.5017544 L6.1045614,3.69473684 C6.1045614,2.07812808 4.7716665,0.762105263 3.17192982,0.762105263 C1.48089353,0.762105263 0.167719298,2.02603546 0.167719298,3.69473684 L0.167719298,18.5017544 C0.167719298,24.2871484 4.79366162,28.2701763 11.7017545,28.2701754 C18.6239603,28.2701746 23.2357895,24.3106767 23.2357895,18.5017544 L23.2357895,17.4902701 L25.6467892,17.4905263 C31.3256191,17.4905263 34.9074033,14.322413 34.9074033,9.03875439 C34.9074033,3.89509282 31.734665,0.485877193 25.6467892,0.485877193 L20.6926313,0.485877193 C19.809314,0.485877193 18.9842597,0.834598817 18.3680317,1.3964523 Z" id="Combined-Shape" fill="#FFFFFF"></path>
                                    <path d="M22.0701754,4.766 L22.0701754,5.43266667 L22.0701754,12.5437368 L22.0701754,13.2104035 L22.7368421,13.2104035 L25.6467892,13.2104035 C28.5759242,13.2104035 30.1891576,11.7741053 30.1891576,9.00505263 C30.1891576,6.41258684 28.7895588,4.766 25.6467892,4.766 L22.7368421,4.766 L22.0701754,4.766 Z" id="Combined-Shape" fill="#3C364C"></path>
                                </g>
                            </g>
                        </g>
                    </g>
                </g>
            </g>
        </g>
    </g>
</svg>