<?xml version="1.0" encoding="utf-8"?>
<svg version="1.1" id="Chevron" xmlns="http://www.w3.org/2000/svg" xmlns:xlink="http://www.w3.org/1999/xlink" x="0px" y="0px"
	 viewBox="0 0 1920 900" style="enable-background:new 0 0 1920 1080;" xml:space="preserve">
<defs>
    <filter height="200%" id="white-glow" width="200%" x="-20%" y="-20%">
      <feFlood flood-color="#ffffff" flood-opacity="1" result="flood"></feFlood>
      <feComposite in="flood" in2="SourceGraphic" operator="in" result="mask"></feComposite>
      <feMorphology in="mask" operator="dilate" radius="2" result="dilated"></feMorphology>
      <feGaussianBlur in="dilated" result="blurred" stdDeviation="5"></feGaussianBlur>
      <feMerge>
        <feMergeNode in="blurred"></feMergeNode>
        <feMergeNode in="SourceGraphic"></feMergeNode>
      </feMerge>
    </filter>
    <filter height="200%" id="red-glow" width="200%" x="-20%" y="-20%">
      <feFlood flood-color="#d74a3d" flood-opacity="1" result="flood"></feFlood>
      <feComposite in="flood" in2="SourceGraphic" operator="in" result="mask"></feComposite>
      <feMorphology in="mask" operator="dilate" radius="2" result="dilated"></feMorphology>
      <feGaussianBlur in="dilated" result="blurred" stdDeviation="5"></feGaussianBlur>
      <feMerge>
        <feMergeNode in="blurred"></feMergeNode>
        <feMergeNode in="SourceGraphic"></feMergeNode>
      </feMerge>
    </filter>
    <filter height="200%" id="green-glow" width="200%" x="-20%" y="-20%">
      <feFlood flood-color="#22a062" flood-opacity="1" result="flood"></feFlood>
      <feComposite in="flood" in2="SourceGraphic" operator="in" result="mask"></feComposite>
      <feMorphology in="mask" operator="dilate" radius="2" result="dilated"></feMorphology>
      <feGaussianBlur in="dilated" result="blurred" stdDeviation="5"></feGaussianBlur>
      <feMerge>
        <feMergeNode in="blurred"></feMergeNode>
        <feMergeNode in="SourceGraphic"></feMergeNode>
      </feMerge>
    </filter>
    <filter height="200%" id="yellow-glow" width="200%" x="-20%" y="-20%">
      <feFlood flood-color="#f3c744" flood-opacity="1" result="flood"></feFlood>
      <feComposite in="flood" in2="SourceGraphic" operator="in" result="mask"></feComposite>
      <feMorphology in="mask" operator="dilate" radius="2" result="dilated"></feMorphology>
      <feGaussianBlur in="dilated" result="blurred" stdDeviation="5"></feGaussianBlur>
      <feMerge>
        <feMergeNode in="blurred"></feMergeNode>
        <feMergeNode in="SourceGraphic"></feMergeNode>
      </feMerge>
    </filter>
    <filter height="200%" id="blue-glow" width="200%" x="-20%" y="-20%">
      <feFlood flood-color="#519bec" flood-opacity="1" result="flood"></feFlood>
      <feComposite in="flood" in2="SourceGraphic" operator="in" result="mask"></feComposite>
      <feMorphology in="mask" operator="dilate" radius="2" result="dilated"></feMorphology>
      <feGaussianBlur in="dilated" result="blurred" stdDeviation="5"></feGaussianBlur>
      <feMerge>
        <feMergeNode in="blurred"></feMergeNode>
        <feMergeNode in="SourceGraphic"></feMergeNode>
      </feMerge>
    </filter>
  </defs>

<style type="text/css">
	.st0{
		fill:#FFFFFF;
		filter: url(#white-glow);
    animation: flicker 5s infinite 9s step-end;
    -webkit-animation: flicker 5s infinite 9s step-end;
	}
	.st1{
		fill:#EA4334;
		filter: url(#red-glow);
    animation: flicker 5s infinite 9s step-end;
    -webkit-animation: flicker 5s infinite 9s step-end;
	}
	.st2{
		fill:#4285F4;
		filter: url(#blue-glow);
		animation: flicker 5s infinite 9s step-end;
    -webkit-animation: flicker 5s infinite 9s step-end;
	}
	.st3{
		fill:#FCBC05;
		filter: url(#yellow-glow);
		animation: flicker 5s infinite 9s step-end;
    -webkit-animation: flicker 5s infinite 9s step-end;	
	}
	.st4{
		fill:#0D9D58;
		filter: url(#green-glow);	
		animation: flicker 5s infinite 9s step-end;
    -webkit-animation: flicker 5s infinite 9s step-end;
	}

	@keyframes flicker {
  0% {
    opacity: 1;
  }

  3% {
    opacity: 0.4;
  }

  6% {
    opacity: 1;
  }

  7% {
    opacity: 0.4;
  }

  8% {
    opacity: 1;
  }

  9% {
    opacity: 0.4;
  }

  10% {
    opacity: 1;
  }

  100% {
    opacity: 1;
  }
}

</style>

<g>
	<g>
		<path class="st0" d="M603.4,553.4h-65.2V344h65.2c31.7,0,57.6,9.8,77,29c19.3,19.2,29.2,44.7,29.2,75.7c0,31.2-9.8,56.7-29.2,75.9
			C661.1,543.7,635.2,553.4,603.4,553.4z M543.9,547.8h59.5c30.2,0,54.8-9.2,73-27.2c18.2-18.1,27.5-42.2,27.5-71.9
			c0-29.4-9.2-53.6-27.5-71.7c-18.2-18.2-42.8-27.4-73-27.4h-59.5V547.8z M603.4,528.4h-39V369.1h39c24.4,0,43.9,7.2,58.1,21.3
			c14.1,14.1,21.3,33.8,21.3,58.4c0,24.8-7.2,44.5-21.3,58.5S627.8,528.4,603.4,528.4z M570.1,522.7h33.3c22.8,0,41-6.6,54.1-19.5
			c13-13,19.7-31.3,19.7-54.5c0-23-6.6-41.3-19.7-54.4c-13-13-31.2-19.7-54.1-19.7h-33.3V522.7z"/>
		<path class="st0" d="M791.6,558c-21.2,0-38.9-7.4-52.7-21.9c-13.7-14.5-20.7-33.1-20.7-55.2c0-21.9,6.8-40.4,20.1-55
			c13.4-14.7,30.8-22.1,51.6-22.1c21.4,0,38.7,7.1,51.5,21c12.7,13.9,19.1,33.4,19.1,58.1v0.3l-0.5,5.4H750.7
			c0.9,11.5,5.1,21,12.6,28.1c8.3,7.9,17.9,11.7,29.4,11.7c15.7,0,27.8-7.7,36.8-23.6l1.3-2.3l28.4,13.8l-1.4,2.6
			c-6.5,12.2-15.6,21.8-27.1,28.7C819.3,554.5,806.1,558,791.6,558z M789.9,409.4c-19.2,0-35.2,6.8-47.4,20.3
			c-12.4,13.5-18.6,30.7-18.6,51.2c0,20.6,6.4,37.9,19.2,51.3c12.7,13.4,29,20.2,48.6,20.2c13.5,0,25.7-3.2,36.3-9.6
			c9.8-5.9,17.7-13.9,23.6-24l-18.3-8.9c-9.9,16.1-23.5,24.2-40.4,24.2c-12.8,0-24-4.5-33.3-13.3c-9.2-8.8-14.1-20.6-14.5-35
			l-0.1-2.9h109.9v-0.2c0-23.2-6-41.4-17.6-54.2C825.6,415.9,809.6,409.4,789.9,409.4z M832.8,466.9h-86.6l0.8-3.4
			c2.4-10.8,7.5-19.6,15-26c7.6-6.5,16.8-9.8,27.3-9.8c12.6,0,22.9,3.4,30.5,10.3c7.6,6.8,11.9,15.6,12.7,25.9L832.8,466.9z
			 M753.4,461.3h73.2c-1.2-7.6-4.7-13.9-10.5-19.1c-6.5-5.8-15.5-8.8-26.7-8.8c-9.3,0-17,2.8-23.6,8.4
			C759.9,446.7,755.8,453.3,753.4,461.3z"/>
		<path class="st0" d="M948.3,553.4h-30l-58.6-145.1h34.6l39.3,103.8l39.9-103.8h34L948.3,553.4z M922.1,547.8h22.4L999.1,414h-21.7
			l-41.6,108.2h-4.5l-41-108.2H868L922.1,547.8z"/>
		<path class="st0" d="M1054,553.4h-31.8V344h124.6v30.7H1054v61.2h83.7V466H1054V553.4z M1027.8,547.8h20.5v-87.4h83.7v-18.8h-83.7
			v-72.5h92.8v-19.4h-113.3V547.8z"/>
		<path class="st0" d="M1223.1,558c-21.2,0-38.9-7.4-52.7-21.9c-13.7-14.5-20.7-33.1-20.7-55.2c0-21.9,6.8-40.4,20.1-55
			c13.4-14.7,30.8-22.1,51.6-22.1c21.4,0,38.7,7.1,51.5,21c12.7,13.9,19.1,33.4,19.1,58.1v0.3l-0.5,5.4h-109.2
			c0.9,11.5,5.1,21,12.6,28.1c8.3,7.9,17.9,11.7,29.4,11.7c15.7,0,27.8-7.7,36.8-23.6l1.3-2.3l28.4,13.8l-1.4,2.6
			c-6.5,12.2-15.6,21.8-27.1,28.7C1250.7,554.5,1237.6,558,1223.1,558z M1221.4,409.4c-19.2,0-35.2,6.8-47.4,20.3
			c-12.4,13.5-18.6,30.7-18.6,51.2c0,20.6,6.4,37.9,19.1,51.3s29,20.2,48.6,20.2c13.5,0,25.7-3.2,36.3-9.6
			c9.8-5.9,17.7-13.9,23.6-24l-18.3-8.9c-9.9,16.1-23.5,24.2-40.4,24.2c-12.8,0-24-4.5-33.3-13.3c-9.2-8.8-14.1-20.6-14.5-35
			l-0.1-2.9h109.9v-0.2c0-23.2-6-41.4-17.6-54.2C1257,415.9,1241.1,409.4,1221.4,409.4z M1264.3,466.9h-86.6l0.8-3.4
			c2.4-10.8,7.5-19.6,15-26c7.6-6.5,16.8-9.8,27.3-9.8c12.6,0,22.9,3.4,30.5,10.3c7.6,6.8,11.9,15.6,12.7,25.9L1264.3,466.9z
			 M1184.9,461.3h73.2c-1.2-7.6-4.7-13.9-10.5-19.1c-6.6-5.8-15.5-8.8-26.7-8.8c-9.3,0-17,2.8-23.6,8.4
			C1191.4,446.7,1187.2,453.3,1184.9,461.3z"/>
		<path class="st0" d="M1365.1,558c-14.6,0-27.5-3.9-38.6-11.5s-19.1-17.8-23.8-30.2l-1-2.5l28.5-12.2l1.1,2.7
			c3.2,7.8,7.9,14,14,18.3c6,4.3,12.7,6.5,19.9,6.5c7.8,0,14.3-1.7,19.4-5c4.8-3.1,7.1-6.5,7.1-10.4c0-7.6-6-13.1-18.4-16.9l-23.8-6
			c-28.4-7.2-42.8-21.3-42.8-42c0-13.6,5.6-24.7,16.7-32.9c10.8-8,24.7-12.1,41.4-12.1c12.8,0,24.5,3.1,34.9,9.2
			c10.5,6.2,17.9,14.6,22.1,25l1,2.6l-28.5,11.8l-1.1-2.5c-2.4-5.4-6.3-9.5-11.7-12.5c-5.5-3.1-11.8-4.6-18.7-4.6
			c-6.3,0-11.9,1.6-16.8,4.7c-4.6,2.9-6.8,6.2-6.8,10.1c0,6.4,6.8,11.3,20.3,14.3l21.1,5.4c29,7.1,43.7,22.1,43.7,44.6
			c0,13-5.7,24.1-17,33C1395.9,553.6,1381.8,558,1365.1,558z M1309,516.8c4.4,10.2,11.4,18.6,20.7,25c10.1,6.9,22,10.5,35.4,10.5
			c15.4,0,28.3-4,38.4-11.9c10-7.9,14.9-17.2,14.9-28.5c0-19.8-12.9-32.6-39.4-39.1l-21.1-5.4c-16.3-3.7-24.6-10.4-24.6-19.8
			c0-5.9,3.2-11,9.4-14.9c5.8-3.7,12.5-5.6,19.9-5.6c7.8,0,15.1,1.8,21.4,5.3c5.6,3.1,10,7.4,12.9,12.7l18.2-7.6
			c-3.9-8.1-10.1-14.7-18.6-19.7c-9.5-5.6-20.2-8.4-32-8.4c-15.4,0-28.2,3.7-38,11c-9.7,7.2-14.4,16.5-14.4,28.3
			c0,18.1,12.6,30,38.6,36.5l24,6c14.9,4.6,22.5,12.1,22.5,22.3c0,5.9-3.3,11-9.7,15.2c-6,3.9-13.6,5.9-22.4,5.9
			c-8.3,0-16.1-2.5-23.1-7.5c-6.3-4.4-11.2-10.5-14.8-18.1L1309,516.8z"/>
		<path class="st0" d="M1497.7,555.7c-12.1,0-22.3-3.8-30.3-11.3s-12.2-18.1-12.4-31.3v-75.2h-24.5v-29.6h24.5v-42.7h31.8v42.7h34.2
			v29.6h-34.2v66.6c0,8.4,1.5,14.1,4.5,16.8c3.1,2.9,6.5,4.2,10.3,4.2c1.9,0,3.7-0.2,5.5-0.6c1.8-0.4,3.5-1,5.1-1.7l2.8-1.2
			l10.2,28.9l-2.6,1C1515.5,554.4,1507.1,555.7,1497.7,555.7z M1436.2,432.2h24.5V513c0.2,11.6,3.8,20.8,10.6,27.3
			c7,6.6,15.6,9.8,26.4,9.8c7.6,0,14.4-0.9,20.3-2.7l-6.3-17.9c-1,0.3-2.1,0.7-3.2,0.9c-2.2,0.5-4.5,0.8-6.8,0.8
			c-5.3,0-10-1.9-14.2-5.7c-4.2-3.9-6.3-10.8-6.3-21v-72.3h34.2V414h-34.2v-42.7h-20.5V414h-24.5V432.2z"/>
		<path class="st0" d="M1560.3,555.2c-6.1,0-11.3-2.2-15.7-6.5c-4.3-4.3-6.5-9.6-6.5-15.7c0-6.3,2.2-11.6,6.5-15.8s9.6-6.4,15.6-6.4
			c6.3,0,11.6,2.1,15.8,6.4c4.2,4.2,6.4,9.5,6.4,15.8c0,6.1-2.1,11.3-6.4,15.6C1571.9,553,1566.6,555.2,1560.3,555.2z M1560.3,516.4
			c-4.6,0-8.4,1.6-11.7,4.7c-3.3,3.2-4.8,7-4.8,11.8c0,4.6,1.6,8.4,4.9,11.7s7.1,4.9,11.7,4.9c4.8,0,8.6-1.6,11.8-4.8
			c3.2-3.3,4.7-7.1,4.7-11.7c0-4.8-1.5-8.6-4.7-11.8C1569,518,1565.1,516.4,1560.3,516.4z"/>
		<path class="st0" d="M1675.3,558c-11.1,0-21.5-1.9-30.8-5.8c-9.3-3.8-17.5-9.3-24.3-16.1c-6.8-6.9-12.1-15.1-16-24.4
			c-3.8-9.3-5.8-19.7-5.8-30.8c0-11.1,1.9-21.5,5.8-30.9c3.8-9.4,9.2-17.6,16-24.4s14.9-12.2,24.3-16c9.3-3.8,19.7-5.8,30.8-5.8
			c16.6,0,30.8,3.9,42.3,11.6c11.4,7.7,19.9,17.8,25.2,30l1.1,2.6l-39.2,16.4l-1.2-2.4c-3-6-6.8-10.5-11.4-13.6
			c-4.5-3-10.4-4.5-17.4-4.5c-4.5,0-8.8,0.9-12.8,2.6s-7.6,4.2-10.6,7.3c-3,3.1-5.5,7-7.2,11.6c-1.8,4.6-2.7,9.8-2.7,15.5
			s0.9,10.9,2.7,15.5c1.7,4.6,4.2,8.4,7.2,11.6c3.1,3.1,6.6,5.6,10.6,7.3s8.3,2.6,12.8,2.6c7.2,0,13.3-1.6,18.2-4.8
			c4.9-3.2,9-7.9,11.9-14.1l1.2-2.4l39.4,17.1l-1.4,2.7c-6.3,12.1-15.1,22.2-26.4,29.9C1706.4,554.1,1692.2,558,1675.3,558z
			 M1675.3,409.4c-10.4,0-20,1.8-28.7,5.3c-8.6,3.5-16.2,8.5-22.4,14.8c-6.2,6.2-11.2,13.8-14.8,22.5c-3.5,8.7-5.3,18.4-5.3,28.8
			s1.8,20,5.3,28.7c3.5,8.6,8.5,16.2,14.8,22.6c6.2,6.3,13.8,11.3,22.4,14.9c8.6,3.5,18.3,5.3,28.7,5.3c15.7,0,28.9-3.6,39.2-10.7
			c9.6-6.6,17.4-15.1,23.1-25.2l-28.9-12.5c-3.3,5.9-7.6,10.6-12.7,14c-5.8,3.8-13,5.7-21.3,5.7c-5.3,0-10.4-1-15.1-3.1
			c-4.7-2-8.9-4.9-12.4-8.6c-3.6-3.7-6.4-8.2-8.4-13.5c-2-5.2-3-11.1-3-17.5s1-12.3,3-17.5c2-5.3,4.9-9.8,8.4-13.5
			c3.6-3.7,7.7-6.6,12.4-8.6c4.7-2,9.8-3.1,15.1-3.1c8.1,0,15,1.8,20.5,5.4c4.8,3.2,8.9,7.7,12.1,13.4l29.1-12.1
			c-4.9-10-12.3-18.4-22-24.9C1704,413,1690.8,409.4,1675.3,409.4z"/>
		<path class="st0" d="M1878.5,553.4h-123.8v-34.7l67.5-72.9H1757v-37.5h120.4V443l-67.5,72.9h68.7L1878.5,553.4L1878.5,553.4z
			 M1760.4,547.8h112.5v-26.2H1797l74.8-80.8V414h-109.1v26.2h72.5l-74.8,80.8V547.8z"/>
	</g>
</g>
<g id="Artboard">
	<g id="Group" transform="translate(44.000000, 143.000000)">
		<g>
			<path class="st1" d="M94.6,309.4l-52.3-30.2c-9.1-5.3-20.2-5.6-29.6-0.9l-2.4-4.4l117.7-67.9c17.4-10.1,39.7-4.1,49.8,13.3
				c4.9,8.4,6.2,18.2,3.7,27.7c-2.5,9.4-8.5,17.3-17,22.2L94.6,309.4z M27.1,270c6.2,0.1,12.3,1.7,17.8,4.9l49.8,28.8l67.4-38.9
				c7.3-4.2,12.5-11,14.6-19.1c2.2-8.1,1.1-16.6-3.1-23.8c-8.7-15-28-20.2-43-11.5L27.1,270z"/>
		</g>
		<g id="Rectangle-Copy-2_1_">
			<path class="st2" d="M145.2,411.5c-6.2,0-12.5-1.6-18.2-4.9L8.4,338.1C0,333.2-6,325.3-8.5,315.9c-2.5-9.4-1.2-19.2,3.7-27.7
				c10.1-17.4,32.5-23.4,49.8-13.3l118.7,68.5c8.5,4.9,14.5,12.8,17,22.2c2.5,9.4,1.1,19.2-3.8,27.6
				C170.1,404.9,157.8,411.5,145.2,411.5z M26.8,275c-10.9,0-21.5,5.6-27.3,15.7c-4.2,7.3-5.3,15.7-3.1,23.8
				c2.2,8.1,7.4,14.9,14.6,19.1l118.6,68.5c15,8.7,34.3,3.5,43-11.5c4.2-7.3,5.4-15.7,3.3-23.8c-2.1-8.1-7.3-14.9-14.6-19.2
				L42.5,279.3C37.5,276.4,32.1,275,26.8,275z"/>
		</g>
		<g>
			<path class="st3" d="M258.7,412.4c-3.2,0-6.4-0.4-9.5-1.3c-9.4-2.5-17.3-8.5-22.2-17c-4.9-8.4-6.2-18.2-3.7-27.7
				c2.5-9.4,8.5-17.3,17-22.2l70-40.3l52.3,30.2c9.2,5.3,20.2,5.6,29.6,0.8l2.4,4.4l-117.7,68C271.3,410.7,265,412.4,258.7,412.4z
				 M310.3,309.8l-67.4,38.9c-7.3,4.2-12.5,11-14.6,19.1c-2.2,8.1-1.1,16.6,3.1,23.8c4.2,7.3,11,12.5,19.1,14.6
				c8.1,2.2,16.6,1.1,23.8-3.1l103.3-59.7c-6.1-0.1-12.1-1.7-17.6-4.9L310.3,309.8z"/>
		</g>
		<g>
			<path class="st4" d="M378.2,343.5c-6.2,0-12.5-1.6-18.2-4.9l-118.6-68.5c-8.4-4.9-14.4-12.8-17-22.2c-2.5-9.4-1.2-19.2,3.7-27.7
				c10.1-17.4,32.4-23.4,49.8-13.3l118.6,68.5c8.4,4.9,14.4,12.8,17,22.2c2.5,9.4,1.2,19.2-3.7,27.7
				C403.1,336.9,390.8,343.5,378.2,343.5z M259.8,207c-10.9,0-21.5,5.6-27.3,15.7c-4.2,7.3-5.3,15.7-3.1,23.8
				c2.2,8.1,7.4,14.9,14.6,19.1l118.6,68.5c15,8.7,34.3,3.5,43-11.5c4.2-7.3,5.3-15.7,3.1-23.8c-2.2-8.1-7.4-14.9-14.6-19.1
				l-118.6-68.5C270.5,208.4,265.1,207,259.8,207z"/>
		</g>
	</g>
</g>
</svg>
