<?xml version="1.0" encoding="utf-8"?>
<!-- Generator: Adobe Illustrator 23.0.6, SVG Export Plug-In . SVG Version: 6.00 Build 0)  -->
<svg version="1.1" id="Vrstva_1" xmlns="http://www.w3.org/2000/svg" xmlns:xlink="http://www.w3.org/1999/xlink" x="0px" y="0px"
	 viewBox="0 0 1920 300" style="enable-background:new 0 0 1920 300;" xml:space="preserve">
	 	   <defs>
    <filter height="200%" id="white-text-glow" width="200%" x="-20%" y="-20%">
      <feFlood flood-color="#ffffff" flood-opacity="1" result="flood"></feFlood>
      <feComposite in="flood" in2="SourceGraphic" operator="in" result="mask"></feComposite>
      <feMorphology in="mask" operator="dilate" radius="2" result="dilated"></feMorphology>
      <feGaussianBlur in="dilated" result="blurred" stdDeviation="5"></feGaussianBlur>
      <feMerge>
        <feMergeNode in="blurred"></feMergeNode>
        <feMergeNode in="SourceGraphic"></feMergeNode>
      </feMerge>
    </filter>
  </defs>
  <style type="text/css">
  .sd0{
      filter: url(#white-text-glow);
      fill: #ffffff;
		animation: flicker 5s infinite 6s step-end;
      -webkit-animation: flicker 5s infinite 6s step-end;
  }

  @keyframes flicker {
   0% {
      opacity: 1;
   }

   3% {
      opacity: 0.4;
   }

   6% {
      opacity: 1;
   }

   7% {
      opacity: 0.4;
   }

   8% {
      opacity: 1;
   }

   9% {
      opacity: 0.4;
   }

   10% {
      opacity: 1;
   }

   100% {
      opacity: 1;
   }
   }
  </style>
<g>
	<path class="sd0" d="M160,136.6h-15.5V63h47.4v14.8H160v15.4h28.7V108H160V136.6z M146.5,134.6H158V106h28.7V95.2H158V75.8h31.9V65h-43.4V134.6
		z"/>
	<path class="sd0" d="M211.8,136.6h-15.1v-51H211v5.5c0.4-0.6,0.9-1.2,1.5-1.8c1.1-1.1,2.2-2,3.5-2.8c1.3-0.8,2.7-1.4,4.2-1.9
		c1.5-0.5,3.1-0.7,4.6-0.7c1.8,0,3.4,0.2,4.7,0.6c1.3,0.4,2.5,0.9,3.4,1.6l0.6,0.4l-4.1,13.5l-1.1-0.5c-0.7-0.4-1.5-0.7-2.4-0.9
		c-0.9-0.2-2-0.3-3.3-0.3c-1.6,0-3.1,0.3-4.5,1c-1.3,0.6-2.5,1.5-3.4,2.7c-1,1.2-1.7,2.6-2.2,4.2c-0.5,1.6-0.8,3.4-0.8,5.3V136.6z
		 M198.7,134.6h11.1v-23.1c0-2.1,0.3-4.1,0.9-5.9c0.6-1.8,1.5-3.4,2.6-4.8c1.1-1.4,2.5-2.5,4.1-3.2c1.6-0.8,3.4-1.2,5.3-1.2
		c1.5,0,2.7,0.1,3.8,0.4c0.6,0.2,1.2,0.3,1.8,0.6l3-9.9c-0.7-0.4-1.4-0.7-2.3-0.9c-1.1-0.3-2.5-0.5-4.2-0.5c-1.3,0-2.6,0.2-3.9,0.6
		c-1.4,0.4-2.6,1-3.8,1.7c-1.2,0.7-2.2,1.5-3.2,2.5c-0.9,0.9-1.7,1.9-2.2,3l-0.3,0.6H209v-6.8h-10.3V134.6z"/>
	<path class="sd0" d="M253.3,136.6h-15.1v-51h15.1V136.6z M240.2,134.6h11.1v-47h-11.1V134.6z M245.7,81c-1.3,0-2.5-0.2-3.6-0.7
		c-1.1-0.5-2.2-1.2-3-2c-0.9-0.8-1.5-1.8-2-3c-0.5-1.1-0.7-2.4-0.7-3.7s0.2-2.6,0.7-3.7c0.5-1.1,1.2-2.1,2-3c0.9-0.9,1.9-1.5,3-2
		c1.2-0.5,2.4-0.7,3.6-0.7c2.6,0,4.8,0.9,6.7,2.7c1.9,1.8,2.8,4.1,2.8,6.7c0,2.6-0.9,4.8-2.8,6.7C250.6,80.1,248.3,81,245.7,81z
		 M245.7,64.2c-1,0-2,0.2-2.9,0.6c-0.9,0.4-1.7,0.9-2.4,1.6c-0.7,0.7-1.2,1.5-1.6,2.3c-0.4,0.9-0.6,1.8-0.6,2.9s0.2,2,0.6,2.9
		c0.4,0.9,0.9,1.7,1.6,2.3c0.7,0.7,1.5,1.2,2.4,1.6c0.9,0.4,1.9,0.6,2.9,0.6c2.1,0,3.8-0.7,5.3-2.2c1.5-1.5,2.2-3.2,2.2-5.2
		c0-2.1-0.7-3.8-2.2-5.2C249.5,64.9,247.8,64.2,245.7,64.2z"/>
	<path class="sd0" d="M284.5,138.2c-3.3,0-6.4-0.7-9.4-2c-2.9-1.3-5.6-3.2-7.8-5.6c-2.2-2.4-4-5.3-5.4-8.6c-1.3-3.3-2-7-2-10.9s0.7-7.6,2-10.9
		c1.3-3.3,3.1-6.2,5.4-8.6c2.2-2.4,4.9-4.3,7.8-5.6c3-1.4,6.1-2,9.4-2c3.9,0,7.2,0.8,9.9,2.3c1.9,1.1,3.4,2.3,4.6,3.8l-0.5-4.6V63
		h15.1v73.6h-14.3v-4.8c-1.2,1.6-2.9,2.9-4.9,4.1C291.7,137.4,288.4,138.2,284.5,138.2z M284.5,86c-3,0-5.8,0.6-8.5,1.9
		c-2.7,1.2-5.1,3-7.2,5.2c-2.1,2.2-3.7,4.9-4.9,7.9c-1.2,3.1-1.8,6.5-1.8,10.1s0.6,7.1,1.8,10.1c1.2,3.1,2.9,5.7,4.9,7.9
		c2.1,2.2,4.5,3.9,7.2,5.2c2.7,1.2,5.6,1.9,8.5,1.9c3.5,0,6.5-0.7,8.9-2.1c2.4-1.4,4.1-3,5.2-4.9l0.3-0.5h2.4v5.9h10.3V65h-11.1
		v20.4l0.9,8.1h-2.5l-0.3-0.5c-1.1-1.9-2.9-3.6-5.2-4.9C291.1,86.7,288.1,86,284.5,86z M287.2,126.1c-1.9,0-3.7-0.4-5.3-1.1
		c-1.7-0.7-3.2-1.7-4.5-3c-1.3-1.3-2.3-2.9-3.1-4.7c-0.8-1.8-1.2-3.9-1.2-6.2c0-2.3,0.4-4.3,1.2-6.2c0.8-1.8,1.8-3.4,3.1-4.7
		c1.3-1.3,2.8-2.3,4.5-3c3.4-1.4,7.3-1.4,10.7-0.1c1.7,0.7,3.2,1.7,4.5,3c1.3,1.3,2.3,2.9,3.1,4.7c0.8,1.9,1.2,4,1.2,6.3
		c0,2.3-0.4,4.4-1.2,6.3c-0.8,1.8-1.8,3.4-3.1,4.7c-1.3,1.3-2.8,2.3-4.5,3C290.9,125.8,289.1,126.1,287.2,126.1z M287.2,98.1
		c-1.6,0-3.1,0.3-4.6,0.9c-1.4,0.6-2.7,1.5-3.8,2.6c-1.1,1.1-2,2.5-2.7,4.1c-0.7,1.6-1,3.4-1,5.4c0,2,0.3,3.8,1,5.4
		c0.7,1.6,1.6,3,2.7,4.1c1.1,1.1,2.4,2,3.8,2.6c2.9,1.2,6.3,1.2,9.1,0c1.4-0.6,2.7-1.4,3.8-2.5c1.1-1.1,2-2.5,2.7-4.1
		c0.7-1.6,1-3.5,1-5.5c0-2.1-0.3-3.9-1-5.5c-0.7-1.6-1.6-3-2.7-4.1c-1.1-1.1-2.4-1.9-3.8-2.5C290.4,98.4,288.8,98.1,287.2,98.1z"/>
	<path class="sd0" d="M338.8,138.2c-2.6,0-5.2-0.4-7.5-1.3c-2.3-0.9-4.4-2.1-6.2-3.6c-1.8-1.6-3.2-3.4-4.1-5.6c-1-2.2-1.5-4.6-1.5-7.2
		c0-2.7,0.5-5.1,1.6-7.3c1.1-2.2,2.6-4,4.5-5.6c1.9-1.5,4.1-2.7,6.7-3.5c2.5-0.8,5.3-1.2,8.3-1.2c3.3,0,6,0.3,8.1,0.8
		c1.5,0.4,2.8,0.7,3.9,1.1v-0.1c0-2.3-0.9-4.2-2.7-5.7c-1.9-1.5-4.3-2.3-7.1-2.3c-4.3,0-7.8,1.7-10.7,5.3l-0.6,0.7L320.3,95l0.7-0.8
		C326.3,87.4,333.7,84,343,84c7.8,0,13.9,1.9,18.1,5.6c4.2,3.7,6.3,9.3,6.3,16.6v30.4h-14.9v-4.5c-1.4,1.5-3,2.8-4.8,3.9
		C345.4,137.5,342.4,138.2,338.8,138.2z M340.5,104.8c-2.7,0-5.3,0.4-7.6,1.1c-2.3,0.7-4.3,1.8-6,3.2c-1.7,1.4-3,3-3.9,4.9
		c-0.9,1.9-1.4,4-1.4,6.4c0,2.3,0.4,4.5,1.3,6.4c0.9,1.9,2.1,3.6,3.6,5c1.6,1.4,3.4,2.5,5.5,3.3c2.1,0.8,4.4,1.2,6.8,1.2
		c3.2,0,5.8-0.6,7.8-1.9c2.1-1.3,3.8-2.8,5.3-4.6l0.3-0.4h2.3v5.2h10.9v-28.4c0-6.7-1.9-11.8-5.7-15.1C356,87.7,350.3,86,343,86
		c-8.2,0-14.9,2.9-19.8,8.6l7.9,5.4c3.2-3.6,7.1-5.4,11.7-5.4c3.3,0,6.1,0.9,8.3,2.8c2.3,1.9,3.5,4.3,3.5,7.2v3l-1.4-0.5
		c-1.3-0.5-3-1-5-1.5C346.2,105,343.6,104.8,340.5,104.8z M341.7,128c-2.3,0-4.4-0.7-6.2-2c-1.9-1.4-2.9-3.3-2.9-5.6
		c0-2.3,1-4.3,2.9-5.8c1.9-1.5,4.5-2.3,7.9-2.3c2,0,3.9,0.2,5.6,0.7c1.7,0.4,3.3,1.1,4.9,1.8l0.6,0.3v0.6c0,1.6-0.3,3.1-0.9,4.6
		c-0.6,1.5-1.5,2.8-2.6,3.9c-1.1,1.1-2.5,2-4.1,2.7C345.3,127.7,343.6,128,341.7,128z M343.4,114.3c-2.9,0-5.1,0.6-6.6,1.8
		c-1.5,1.2-2.2,2.6-2.2,4.3c0,1.7,0.7,3,2,4c1.5,1.1,3.1,1.6,5.1,1.6c1.6,0,3.1-0.3,4.4-0.9c1.3-0.6,2.5-1.4,3.4-2.3
		c0.9-0.9,1.7-2,2.2-3.3c0.4-1,0.7-2.1,0.8-3.2c-1.3-0.6-2.6-1.1-4-1.4C347,114.5,345.3,114.3,343.4,114.3z"/>
	<path class="sd0" d="M395.1,158.2h-16.3l11.4-25l-21-47.6h17.1l12.1,28.9l11.6-28.9h16.8L395.1,158.2z M381.9,156.2h11.9l29.8-68.6h-12.4
		l-11.9,29.7h-2l-12.4-29.7h-12.7l20.2,45.6L381.9,156.2z"/>
	<path class="sd0" d="M429.1,149.8l-7.6-5l5.8-9c-1.2-0.6-2.2-1.6-3.1-2.7c-1.2-1.6-1.7-3.4-1.7-5.6c0-2.7,1-5,2.8-6.8c1.9-1.8,4.2-2.8,6.9-2.8
		c2.7,0,5,0.9,6.8,2.8c1.9,1.9,2.8,4.1,2.8,6.8c0,1.4-0.2,2.6-0.7,3.7c-0.4,1-1.1,2.2-2,3.5L429.1,149.8z M424.3,144.2l4.2,2.8
		l8.9-13.4c0.8-1.2,1.4-2.3,1.8-3.2c0.3-0.8,0.5-1.8,0.5-3c0-2.1-0.7-3.9-2.2-5.4c-1.5-1.5-3.3-2.2-5.4-2.2c-2.1,0-3.9,0.7-5.5,2.2
		c-1.5,1.5-2.2,3.2-2.2,5.4c0,1.7,0.4,3.2,1.4,4.4c0.9,1.3,2,2.1,3.3,2.6l1.2,0.4L424.3,144.2z"/>
	<path class="sd0" d="M496.4,138.2c-3.8,0-7.3-0.6-10.4-1.7c-3.1-1.1-5.9-2.6-8.2-4.5c-2.3-1.9-4.1-4.2-5.4-6.8c-1.3-2.6-1.9-5.5-1.9-8.6
		c0-2.1,0.3-4.1,0.9-5.9c0.6-1.8,1.4-3.5,2.4-5c1-1.5,2.2-2.8,3.5-3.9c1.1-0.9,2.2-1.7,3.4-2.4c-2-1.5-3.8-3.3-5.3-5.6
		c-1.7-2.6-2.6-5.6-2.6-9c0-2.9,0.6-5.6,1.8-8.1c1.2-2.5,2.9-4.7,4.9-6.5c2.1-1.8,4.6-3.2,7.4-4.2c2.8-1,6-1.5,9.3-1.5
		c3.4,0,6.5,0.5,9.3,1.5c2.8,1,5.3,2.4,7.4,4.2c2.1,1.8,3.8,4,4.9,6.5c1.2,2.5,1.8,5.2,1.8,8.1c0,3.4-0.9,6.4-2.6,9
		c-1.5,2.2-3.3,4.1-5.3,5.6c1.2,0.7,2.3,1.5,3.4,2.4c1.3,1.1,2.5,2.4,3.5,3.9c1,1.5,1.8,3.1,2.4,5c0.6,1.8,0.9,3.8,0.9,5.9
		c0,3.1-0.6,6-1.9,8.6c-1.3,2.6-3.1,4.9-5.4,6.8c-2.3,1.9-5,3.4-8.2,4.5C503.7,137.6,500.2,138.2,496.4,138.2z M496.4,66.6
		c-3.1,0-6.1,0.5-8.7,1.4c-2.6,0.9-4.9,2.2-6.8,3.9c-1.9,1.6-3.4,3.6-4.5,5.8c-1.1,2.2-1.6,4.6-1.6,7.2c0,3,0.8,5.6,2.3,7.8
		c1.6,2.3,3.4,4.1,5.5,5.5l0.4,0.3v1.9l-0.5,0.3c-1.3,0.7-2.6,1.6-3.8,2.6c-1.2,1-2.3,2.2-3.2,3.5c-0.9,1.3-1.6,2.8-2.2,4.4
		c-0.5,1.6-0.8,3.4-0.8,5.3c0,2.8,0.6,5.4,1.7,7.7c1.1,2.4,2.8,4.4,4.8,6.2c2.1,1.8,4.6,3.2,7.5,4.2c2.9,1,6.2,1.5,9.7,1.5
		c3.5,0,6.8-0.5,9.7-1.5c2.9-1,5.4-2.4,7.5-4.2c2.1-1.7,3.7-3.8,4.8-6.2c1.1-2.4,1.7-4.9,1.7-7.7c0-1.9-0.3-3.7-0.8-5.3
		c-0.5-1.6-1.3-3.1-2.2-4.4c-0.9-1.3-2-2.5-3.2-3.5c-1.2-1-2.5-1.9-3.8-2.6l-0.5-0.3v-1.9l0.4-0.3c2.1-1.4,3.9-3.2,5.5-5.5
		c1.5-2.2,2.3-4.9,2.3-7.8c0-2.6-0.5-5-1.6-7.2c-1.1-2.2-2.6-4.2-4.5-5.8c-1.9-1.6-4.2-2.9-6.8-3.9
		C502.5,67.1,499.6,66.6,496.4,66.6z M496.4,126.1c-3.6,0-6.7-1-9-2.9c-2.4-2-3.7-4.6-3.7-7.9c0-1.6,0.3-3,1-4.3
		c0.7-1.3,1.6-2.4,2.7-3.4c1.1-0.9,2.5-1.7,4-2.2c3.1-1,6.9-1,9.9,0c1.5,0.5,2.9,1.2,4,2.2c1.1,1,2,2.1,2.7,3.4c0.7,1.3,1,2.8,1,4.3
		c0,3.3-1.2,6-3.7,7.9C503.1,125.1,500,126.1,496.4,126.1z M496.4,106.7c-1.6,0-3,0.2-4.3,0.7c-1.3,0.4-2.4,1-3.4,1.8
		c-0.9,0.8-1.7,1.7-2.2,2.7c-0.5,1-0.8,2.2-0.8,3.4c0,2.7,1,4.8,2.9,6.4c2,1.6,4.6,2.4,7.8,2.4s5.8-0.8,7.8-2.4
		c2-1.6,2.9-3.7,2.9-6.4c0-1.2-0.3-2.4-0.8-3.4c-0.5-1-1.3-2-2.2-2.7c-0.9-0.8-2.1-1.4-3.4-1.8C499.4,106.9,498,106.7,496.4,106.7z
		 M496.4,95.2c-3,0-5.6-0.9-7.6-2.6c-2.1-1.8-3.2-4.1-3.2-6.9c0-2.9,1.1-5.2,3.2-6.9c2-1.6,4.6-2.5,7.6-2.5c3,0,5.6,0.8,7.6,2.5
		c2.1,1.7,3.2,4,3.2,6.9c0,2.8-1.1,5.2-3.2,6.9C502,94.3,499.5,95.2,496.4,95.2z M496.4,78.3c-2.6,0-4.7,0.7-6.4,2
		c-1.6,1.3-2.4,3.1-2.4,5.4c0,2.2,0.8,4,2.4,5.4c1.7,1.4,3.8,2.1,6.4,2.1c2.6,0,4.7-0.7,6.4-2.1c1.6-1.4,2.4-3.1,2.4-5.4
		c0-2.3-0.8-4.1-2.4-5.4C501.1,79,499,78.3,496.4,78.3z"/>
	<path class="sd0" d="M541.1,104.2c-1.6,0-3-0.3-4.2-0.8c-1.3-0.5-2.4-1.2-3.2-2.1c-2-2-3-4.8-3-8.3V81.3h-5v-8.5h5V64h9.6v8.7h7v8.5h-7v10.4
		c0,0.6,0.1,1.2,0.2,1.7c0.1,0.4,0.3,0.7,0.5,1c0.3,0.3,0.7,0.7,1.6,0.7c0.7,0,1.1-0.1,1.2-0.1c0.3-0.1,0.6-0.3,0.9-0.4l1.1-0.7
		l2.8,8.8l-0.8,0.4c-1,0.5-2,0.8-3.1,1C543.7,104.1,542.4,104.2,541.1,104.2z M527.6,79.3h5v13.8c0,3,0.8,5.3,2.4,6.9
		c0.7,0.7,1.5,1.3,2.6,1.7c1,0.4,2.2,0.6,3.5,0.6c1.2,0,2.2-0.1,3.2-0.3c0.6-0.1,1.3-0.3,1.9-0.5l-1.5-4.7c-0.1,0-0.1,0-0.2,0.1
		c-0.5,0.2-1.1,0.3-1.9,0.3c-1.3,0-2.4-0.4-3.1-1.3c-0.5-0.5-0.8-1.1-1-1.9c-0.2-0.7-0.2-1.4-0.2-2.1V79.3h7v-4.5h-7V66h-5.6v8.7h-5
		V79.3z"/>
	<path class="sd0" d="M580.3,103.3h-9.6V85.9c0-1.7-0.4-3-1.1-3.8c-0.7-0.8-1.8-1.2-3.2-1.2c-0.9,0-1.6,0.2-2.3,0.5c-0.7,0.4-1.3,0.9-1.7,1.5
		c-0.5,0.7-0.9,1.5-1.1,2.4c-0.3,0.9-0.4,2-0.4,3v14.9h-9.6V59.6h9.6v12.7l-0.2,2.6c0.7-0.6,1.4-1.2,2.3-1.7c1.7-1,3.6-1.4,5.7-1.4
		c4,0,7,1.2,9,3.6c1.9,2.4,2.9,5.6,2.9,9.6V103.3z M572.7,101.3h5.6V85c0-3.5-0.8-6.3-2.4-8.3c-1.6-1.9-4-2.9-7.4-2.9
		c-1.7,0-3.3,0.4-4.7,1.2c-1.4,0.8-2.4,1.8-3.2,3l-0.3,0.5h-2.1l0.6-6.3l0-10.6h-5.6v39.7h5.6V88.4c0-1.3,0.2-2.5,0.5-3.6
		c0.3-1.1,0.8-2.2,1.4-3c0.6-0.9,1.5-1.6,2.4-2.1c1-0.5,2.1-0.8,3.3-0.8c2,0,3.5,0.6,4.6,1.9c1.1,1.2,1.7,3,1.7,5.2V101.3z"/>
	<path class="sd0" d="M670.5,136.6h-15.8l-29.5-49.2l0.7,11.2l0,38h-15.3V63h17.3l27.9,46.5l-0.7-11.2l0-35.3h15.4V136.6z M655.8,134.6h12.6V65
		h-11.4v33.2l0.9,14.8h-2.4l-28.8-48h-14.1v69.6h11.3V98.7L623,83.9h2.4L655.8,134.6z"/>
	<path class="sd0" d="M705.4,138.2c-3.9,0-7.6-0.7-10.8-2c-3.3-1.3-6.1-3.2-8.5-5.6c-2.4-2.4-4.3-5.3-5.6-8.6c-1.3-3.3-2-7-2-10.9
		s0.7-7.6,2-10.9c1.3-3.3,3.2-6.2,5.6-8.6c2.4-2.4,5.3-4.3,8.5-5.6c3.3-1.3,6.9-2,10.8-2c3.9,0,7.6,0.7,10.8,2
		c3.3,1.3,6.1,3.2,8.5,5.6c2.4,2.4,4.3,5.3,5.6,8.6c1.3,3.3,2,7,2,10.9s-0.7,7.6-2,10.9c-1.3,3.3-3.2,6.2-5.6,8.6
		c-2.4,2.4-5.3,4.3-8.5,5.6C713,137.5,709.4,138.2,705.4,138.2z M705.4,86c-3.7,0-7,0.6-10.1,1.9c-3,1.2-5.7,3-7.9,5.2
		c-2.2,2.2-3.9,4.9-5.2,7.9c-1.2,3.1-1.9,6.5-1.9,10.1s0.6,7.1,1.9,10.1c1.2,3.1,3,5.7,5.2,7.9c2.2,2.2,4.8,3.9,7.9,5.2
		c3,1.2,6.4,1.9,10.1,1.9c3.7,0,7-0.6,10.1-1.9c3-1.2,5.7-3,7.9-5.2c2.2-2.2,3.9-4.9,5.2-7.9c1.2-3.1,1.9-6.5,1.9-10.1
		s-0.6-7.1-1.9-10.1c-1.2-3.1-3-5.7-5.2-7.9c-2.2-2.2-4.8-3.9-7.9-5.2C712.5,86.6,709.1,86,705.4,86z M705.4,126.1
		c-1.9,0-3.6-0.3-5.3-1c-1.6-0.7-3.1-1.7-4.4-3c-1.3-1.3-2.3-2.9-3.1-4.7c-0.7-1.8-1.1-4-1.1-6.3c0-2.3,0.4-4.4,1.1-6.3
		c0.7-1.9,1.8-3.4,3.1-4.7c1.3-1.3,2.8-2.3,4.4-3c3.2-1.3,7.1-1.4,10.5,0c1.7,0.7,3.2,1.7,4.5,3c1.3,1.3,2.3,2.9,3.1,4.7
		c0.7,1.8,1.1,4,1.1,6.3c0,2.3-0.4,4.4-1.1,6.3c-0.7,1.9-1.8,3.4-3.1,4.7c-1.3,1.3-2.8,2.3-4.5,3C709,125.8,707.2,126.1,705.4,126.1
		z M705.4,98.1c-1.6,0-3.1,0.3-4.5,0.9c-1.4,0.6-2.7,1.4-3.8,2.5c-1.1,1.1-2,2.5-2.6,4.1c-0.6,1.6-1,3.5-1,5.5c0,2.1,0.3,3.9,1,5.5
		c0.6,1.6,1.5,3,2.6,4.1c1.1,1.1,2.4,2,3.8,2.5c2.7,1.1,6.1,1.2,9,0c1.4-0.6,2.7-1.4,3.8-2.5c1.1-1.1,2-2.5,2.6-4.1
		c0.6-1.6,1-3.5,1-5.5c0-2.1-0.3-3.9-1-5.5c-0.6-1.6-1.5-3-2.6-4.1c-1.1-1.1-2.4-1.9-3.8-2.5C708.5,98.4,707,98.1,705.4,98.1z"/>
	<path class="sd0" d="M768.1,136.6h-14.2l-21.8-51h17.1l11.9,30.4l12-30.4h17L768.1,136.6z M755.2,134.6h11.6l20.2-47h-12.6l-12.3,31.2h-2.1
		l-12.2-31.2h-12.7L755.2,134.6z"/>
	<path class="sd0" d="M816.2,138.2c-3.8,0-7.5-0.7-10.7-2c-3.3-1.3-6.2-3.3-8.6-5.7c-2.4-2.4-4.3-5.3-5.7-8.6c-1.3-3.3-2-6.9-2-10.8
		c0-3.6,0.7-7.2,2-10.4c1.3-3.3,3.2-6.2,5.5-8.6c2.3-2.4,5.2-4.4,8.4-5.9c3.2-1.5,6.8-2.2,10.7-2.2c4,0,7.7,0.7,10.9,2
		c3.2,1.4,5.9,3.3,8.1,5.7c2.1,2.4,3.8,5.2,4.9,8.5c1.1,3.2,1.7,6.8,1.7,10.5l0,1.4c-0.1,0.3-0.1,0.7-0.1,0.9l0,0.2
		c-0.1,0.3-0.1,0.6-0.1,0.9v1h-36.7c0.3,1.4,0.7,2.6,1.3,3.6c0.8,1.3,1.7,2.4,2.9,3.3c1.1,0.9,2.4,1.5,3.7,1.9
		c1.4,0.4,2.8,0.6,4.2,0.6c2.8,0,5.1-0.6,6.9-1.9c1.8-1.3,3.3-2.9,4.3-4.8l0.5-0.8l12.7,6.3l-0.5,0.9c-2.3,4.1-5.5,7.5-9.5,10
		C826.9,136.9,821.9,138.2,816.2,138.2z M815.7,86c-3.6,0-6.9,0.7-9.8,2c-3,1.3-5.6,3.2-7.7,5.4c-2.2,2.3-3.9,4.9-5.1,8
		c-1.2,3-1.8,6.3-1.8,9.7c0,3.7,0.6,7,1.9,10.1c1.2,3,3,5.7,5.2,7.9c2.2,2.2,4.9,4,7.9,5.2c3,1.2,6.4,1.9,10,1.9
		c5.3,0,9.9-1.2,13.5-3.5c3.4-2.2,6.2-5,8.3-8.4l-9.1-4.5c-1.2,1.8-2.7,3.4-4.5,4.7c-2.1,1.5-4.8,2.2-8,2.2c-1.6,0-3.2-0.2-4.8-0.7
		c-1.6-0.5-3.1-1.2-4.4-2.3c-1.3-1-2.5-2.3-3.3-3.9c-0.9-1.5-1.5-3.4-1.8-5.5l-0.2-1.1h37.1c0-0.1,0-0.1,0-0.2c0-0.3,0-0.7,0.1-1.1
		v-1.1c0-3.5-0.5-6.9-1.5-9.9c-1-3-2.5-5.6-4.5-7.8c-2-2.2-4.4-3.9-7.3-5.1C822.9,86.6,819.5,86,815.7,86z M828.6,105.8h-26.1
		l0.4-1.3c0.9-3.1,2.6-5.5,4.9-7.2c2.3-1.7,5-2.6,8-2.6c2.1,0,4,0.3,5.5,1c1.5,0.6,2.9,1.5,3.9,2.5c1.1,1,1.9,2.1,2.4,3.3
		c0.5,1.2,0.9,2.3,0.9,3.2L828.6,105.8z M805.3,103.8h21.1c-0.1-0.5-0.3-1-0.6-1.5c-0.4-0.9-1.1-1.9-2-2.7c-0.9-0.8-2-1.5-3.3-2.1
		c-1.3-0.5-2.9-0.8-4.8-0.8c-2.6,0-4.9,0.7-6.8,2.2C807.3,100.1,806.1,101.8,805.3,103.8z"/>
	<path class="sd0" d="M926.8,136.6h-15.1v-29.5c0-6.1-2.3-9-7.2-9c-1.5,0-2.9,0.3-4.1,1c-1.2,0.7-2.2,1.6-3,2.8c-0.8,1.2-1.5,2.7-2,4.3
		c-0.5,1.7-0.7,3.6-0.7,5.5v24.8h-15.1v-29.5c0-6.1-2.4-9-7.6-9c-1.5,0-2.8,0.3-3.9,1c-1.1,0.7-2.1,1.6-2.9,2.8
		c-0.8,1.2-1.4,2.7-1.9,4.3c-0.4,1.7-0.7,3.6-0.7,5.6v24.8h-15.1v-51h14.3V91c1.5-1.9,3.3-3.4,5.6-4.7c2.8-1.5,5.9-2.3,9.2-2.3
		c3.9,0,7.3,0.9,10,2.8c2.1,1.5,3.8,3.2,5,5.3c1.5-2,3.5-3.7,5.8-5.2c3-1.9,6.6-2.8,10.7-2.8c3.1,0,5.9,0.5,8.2,1.5
		c2.3,1,4.3,2.5,5.8,4.3c1.5,1.8,2.7,4,3.4,6.6c0.8,2.5,1.1,5.3,1.1,8.2V136.6z M913.7,134.6h11.1v-29.9c0-2.8-0.4-5.3-1.1-7.7
		c-0.7-2.3-1.7-4.3-3.1-5.9c-1.3-1.6-3-2.9-5.1-3.8c-2.1-0.9-4.6-1.4-7.4-1.4c-3.8,0-7,0.8-9.7,2.5c-2.7,1.7-4.7,3.7-6.2,6l-1,1.6
		l-0.8-1.8c-1-2.3-2.7-4.3-5-6c-2.4-1.6-5.3-2.4-8.8-2.4c-3,0-5.8,0.7-8.3,2.1c-2.5,1.4-4.5,3.2-5.9,5.5l-0.3,0.5h-2.3v-6.4h-10.3
		v47h11.1v-22.8c0-2.1,0.2-4.2,0.7-6.1c0.5-1.9,1.2-3.6,2.1-5c0.9-1.4,2.1-2.6,3.5-3.4c1.4-0.9,3.1-1.3,4.9-1.3
		c4.4,0,9.6,1.9,9.6,11v27.5h11.1v-22.8c0-2.1,0.3-4.2,0.8-6.1c0.5-1.9,1.3-3.6,2.2-5c1-1.4,2.2-2.6,3.7-3.4
		c1.5-0.9,3.2-1.3,5.1-1.3c4.2,0,9.2,1.9,9.2,11V134.6z"/>
	<path class="sd0" d="M964.7,138.2c-3.9,0-7.2-0.8-9.9-2.3c-2-1.2-3.7-2.5-4.9-4.1v4.8h-14.3V63h15.1l0,22.6l-0.5,4.5c1.2-1.4,2.7-2.7,4.6-3.8
		c2.7-1.5,6-2.3,9.9-2.3c3.3,0,6.4,0.7,9.4,2c2.9,1.3,5.6,3.2,7.8,5.6c2.2,2.4,4,5.3,5.4,8.6c1.3,3.3,2,7,2,10.9s-0.7,7.6-2,10.9
		c-1.3,3.3-3.1,6.2-5.4,8.6c-2.2,2.4-4.9,4.3-7.8,5.6C971.2,137.5,968,138.2,964.7,138.2z M947.9,128.7h2.4l0.3,0.5
		c1.1,1.9,2.9,3.6,5.2,4.9c2.4,1.4,5.4,2.1,8.9,2.1c3,0,5.8-0.6,8.5-1.9c2.7-1.2,5.1-3,7.2-5.2c2.1-2.2,3.7-4.9,4.9-7.9
		c1.2-3.1,1.8-6.5,1.8-10.1s-0.6-7.1-1.8-10.1c-1.2-3.1-2.9-5.7-4.9-7.9c-2.1-2.2-4.5-3.9-7.2-5.2c-2.7-1.2-5.6-1.9-8.5-1.9
		c-3.5,0-6.5,0.7-8.9,2.1c-2.4,1.4-4.1,3-5.2,4.9l-0.3,0.5h-2.5l0.9-8.1V65h-11.1v69.6h10.3V128.7z M962,126.1c-1.9,0-3.7-0.3-5.3-1
		c-1.7-0.7-3.2-1.7-4.5-3c-1.3-1.3-2.3-2.9-3.1-4.7c-0.8-1.8-1.2-4-1.2-6.3c0-2.3,0.4-4.4,1.2-6.3c0.8-1.8,1.8-3.4,3.1-4.7
		c1.3-1.3,2.8-2.3,4.5-3c3.4-1.4,7.3-1.4,10.7,0.1c1.7,0.7,3.2,1.7,4.5,3c1.3,1.3,2.3,2.9,3.1,4.7c0.8,1.9,1.2,3.9,1.2,6.2
		c0,2.3-0.4,4.3-1.2,6.2c-0.8,1.8-1.8,3.4-3.1,4.7c-1.3,1.3-2.8,2.3-4.5,3C965.7,125.7,963.9,126.1,962,126.1z M962,98.1
		c-1.6,0-3.1,0.3-4.6,0.9c-1.4,0.6-2.7,1.4-3.8,2.5c-1.1,1.1-2,2.5-2.7,4.1c-0.7,1.6-1,3.5-1,5.5c0,2.1,0.3,3.9,1,5.5
		c0.7,1.6,1.6,3,2.7,4.1c1.1,1.1,2.4,2,3.8,2.5c2.9,1.2,6.3,1.2,9.1,0c1.4-0.6,2.7-1.5,3.8-2.6c1.1-1.1,2-2.5,2.7-4.1
		c0.7-1.6,1-3.4,1-5.4c0-2-0.3-3.8-1-5.4c-0.7-1.6-1.6-3-2.7-4.1c-1.1-1.1-2.4-2-3.8-2.6C965.2,98.4,963.6,98.1,962,98.1z"/>
	<path class="sd0" d="M1019.8,138.2c-3.8,0-7.5-0.7-10.7-2c-3.3-1.3-6.2-3.3-8.6-5.7c-2.4-2.4-4.3-5.3-5.7-8.6c-1.3-3.3-2-6.9-2-10.8
		c0-3.6,0.7-7.2,2-10.4c1.3-3.3,3.2-6.2,5.5-8.6c2.3-2.4,5.2-4.4,8.4-5.9c3.2-1.5,6.8-2.2,10.7-2.2c4,0,7.7,0.7,10.9,2
		c3.2,1.4,5.9,3.3,8.1,5.7c2.1,2.4,3.8,5.2,4.9,8.5c1.1,3.2,1.7,6.8,1.7,10.5l0,1.4c-0.1,0.3-0.1,0.7-0.1,0.9l0,0.2
		c-0.1,0.3-0.1,0.6-0.1,0.9v1h-36.7c0.3,1.4,0.7,2.6,1.3,3.6c0.8,1.3,1.7,2.4,2.9,3.3c1.1,0.9,2.4,1.5,3.7,1.9
		c1.4,0.4,2.8,0.6,4.2,0.6c2.8,0,5.1-0.6,6.9-1.9c1.8-1.3,3.3-2.9,4.3-4.8l0.5-0.8l12.7,6.3l-0.5,0.9c-2.3,4.1-5.5,7.5-9.5,10
		C1030.5,136.9,1025.5,138.2,1019.8,138.2z M1019.3,86c-3.6,0-6.9,0.7-9.8,2c-3,1.3-5.6,3.2-7.7,5.4c-2.2,2.3-3.9,4.9-5.1,8
		c-1.2,3-1.8,6.3-1.8,9.7c0,3.7,0.6,7,1.9,10.1c1.2,3,3,5.7,5.2,7.9c2.2,2.2,4.9,4,7.9,5.2c3,1.2,6.4,1.9,10,1.9
		c5.3,0,9.9-1.2,13.5-3.5c3.4-2.2,6.2-5,8.3-8.4l-9.1-4.5c-1.2,1.8-2.7,3.4-4.5,4.7c-2.1,1.5-4.8,2.2-8,2.2c-1.6,0-3.2-0.2-4.8-0.7
		c-1.6-0.5-3.1-1.2-4.4-2.3c-1.3-1-2.5-2.3-3.3-3.9c-0.9-1.5-1.5-3.4-1.8-5.5l-0.2-1.1h37.1c0-0.1,0-0.1,0-0.2c0-0.3,0-0.7,0.1-1.1
		v-1.1c0-3.5-0.5-6.9-1.5-9.9c-1-3-2.5-5.6-4.5-7.8c-2-2.2-4.4-3.9-7.3-5.1C1026.5,86.6,1023.1,86,1019.3,86z M1032.2,105.8h-26.1
		l0.4-1.3c0.9-3.1,2.6-5.5,4.9-7.2c2.3-1.7,5-2.6,8-2.6c2.1,0,4,0.3,5.5,1c1.5,0.6,2.9,1.5,3.9,2.5c1.1,1,1.9,2.1,2.4,3.3
		c0.5,1.2,0.9,2.3,0.9,3.2L1032.2,105.8z M1008.9,103.8h21.1c-0.1-0.5-0.3-1-0.6-1.5c-0.4-0.9-1.1-1.9-2-2.7c-0.9-0.8-2-1.5-3.3-2.1
		c-1.3-0.5-2.9-0.8-4.8-0.8c-2.6,0-4.9,0.7-6.8,2.2C1010.9,100.1,1009.7,101.8,1008.9,103.8z"/>
	<path class="sd0" d="M1066.3,136.6h-15.1v-51h14.3v5.5c0.4-0.6,0.9-1.2,1.5-1.8c1-1.1,2.2-2,3.5-2.8c1.3-0.8,2.7-1.4,4.2-1.9
		c1.5-0.5,3.1-0.7,4.6-0.7c1.8,0,3.4,0.2,4.7,0.6c1.3,0.4,2.5,0.9,3.4,1.6l0.6,0.4l-4.1,13.5l-1.1-0.5c-0.7-0.4-1.5-0.7-2.4-0.9
		c-0.9-0.2-2-0.3-3.3-0.3c-1.6,0-3.1,0.3-4.5,1c-1.3,0.6-2.5,1.5-3.4,2.7c-1,1.2-1.7,2.6-2.2,4.2c-0.5,1.6-0.8,3.4-0.8,5.3V136.6z
		 M1053.2,134.6h11.1v-23.1c0-2.1,0.3-4.1,0.9-5.9c0.6-1.8,1.5-3.4,2.6-4.8c1.1-1.4,2.5-2.5,4.1-3.2c1.6-0.8,3.4-1.2,5.3-1.2
		c1.5,0,2.7,0.1,3.8,0.4c0.6,0.2,1.2,0.3,1.8,0.6l3-9.9c-0.7-0.4-1.4-0.7-2.3-0.9c-1.1-0.3-2.5-0.5-4.2-0.5c-1.3,0-2.6,0.2-3.9,0.6
		c-1.4,0.4-2.6,1-3.8,1.7c-1.2,0.7-2.2,1.5-3.2,2.5c-0.9,0.9-1.7,1.9-2.2,3l-0.3,0.6h-2.4v-6.8h-10.3V134.6z"/>
	<path class="sd0" d="M1100.8,136.6c-2.7,0-5-1-6.9-2.8c-1.9-1.9-2.8-4.2-2.8-6.9c0-2.7,1-5,2.8-6.8c1.9-1.8,4.2-2.8,6.9-2.8
		c2.7,0,5,0.9,6.8,2.8c1.9,1.9,2.8,4.1,2.8,6.8c0,2.7-0.9,5-2.8,6.9C1105.8,135.6,1103.5,136.6,1100.8,136.6z M1100.8,119.3
		c-2.1,0-3.9,0.7-5.5,2.2c-1.5,1.5-2.3,3.2-2.3,5.4c0,2.1,0.7,3.9,2.3,5.4c1.5,1.5,3.3,2.3,5.4,2.3c2.1,0,3.9-0.7,5.4-2.3
		c1.5-1.5,2.2-3.3,2.2-5.5c0-2.1-0.7-3.9-2.2-5.4C1104.8,120,1103,119.3,1100.8,119.3z M1100.8,103.7c-2.7,0-5-1-6.9-2.8
		s-2.8-4.2-2.8-6.9c0-2.7,1-5,2.8-6.9c1.9-1.9,4.2-2.8,6.9-2.8c2.7,0,5,1,6.8,2.8c1.8,1.9,2.8,4.2,2.8,6.9c0,2.7-0.9,5-2.8,6.9
		C1105.8,102.7,1103.5,103.7,1100.8,103.7z M1100.8,86.3c-2.1,0-3.9,0.7-5.4,2.3c-1.5,1.5-2.3,3.3-2.3,5.4c0,2.1,0.7,3.9,2.3,5.4
		c1.5,1.5,3.3,2.3,5.4,2.3c2.1,0,3.9-0.7,5.4-2.3c1.5-1.5,2.2-3.3,2.2-5.4s-0.7-3.9-2.2-5.5C1104.7,87,1103,86.3,1100.8,86.3z"/>
	<path class="sd0" d="M1201.4,136.6h-15.6l-9.4-29.7l-9.4,29.7h-15.4l-16.3-51h16.8l7.7,29.3l9.3-29.3h15l9.4,29.3l7.6-29.3h16.6L1201.4,136.6z
		 M1187.3,134.6h12.6l15.1-47h-12.4l-8,30.7h-2.2l-9.8-30.7h-12l-9.7,30.7h-2.2l-8.1-30.7H1138l15.1,47h12.4l9.8-30.9h2.2
		L1187.3,134.6z"/>
	<path class="sd0" d="M1244.5,138.2c-3.9,0-7.6-0.7-10.8-2c-3.3-1.3-6.1-3.2-8.5-5.6c-2.4-2.4-4.3-5.3-5.6-8.6c-1.3-3.3-2-7-2-10.9
		s0.7-7.6,2-10.9c1.3-3.3,3.2-6.2,5.6-8.6c2.4-2.4,5.3-4.3,8.5-5.6c3.3-1.3,6.9-2,10.8-2c3.9,0,7.6,0.7,10.8,2
		c3.3,1.3,6.1,3.2,8.5,5.6c2.4,2.4,4.3,5.3,5.6,8.6c1.3,3.3,2,7,2,10.9s-0.7,7.6-2,10.9c-1.3,3.3-3.2,6.2-5.6,8.6
		c-2.4,2.4-5.3,4.3-8.5,5.6C1252.1,137.5,1248.5,138.2,1244.5,138.2z M1244.5,86c-3.7,0-7,0.6-10.1,1.9c-3,1.2-5.7,3-7.9,5.2
		c-2.2,2.2-3.9,4.9-5.2,7.9c-1.2,3.1-1.9,6.5-1.9,10.1s0.6,7.1,1.9,10.1c1.2,3.1,3,5.7,5.2,7.9c2.2,2.2,4.8,3.9,7.9,5.2
		c3,1.2,6.4,1.9,10.1,1.9c3.7,0,7-0.6,10.1-1.9c3-1.2,5.7-3,7.9-5.2c2.2-2.2,3.9-4.9,5.2-7.9c1.2-3.1,1.9-6.5,1.9-10.1
		s-0.6-7.1-1.9-10.1c-1.2-3.1-3-5.7-5.2-7.9c-2.2-2.2-4.8-3.9-7.9-5.2C1251.6,86.6,1248.2,86,1244.5,86z M1244.5,126.1
		c-1.9,0-3.6-0.3-5.3-1c-1.6-0.7-3.1-1.7-4.4-3c-1.3-1.3-2.3-2.9-3.1-4.7c-0.7-1.8-1.1-4-1.1-6.3c0-2.3,0.4-4.4,1.1-6.3
		c0.7-1.9,1.8-3.4,3.1-4.7c1.3-1.3,2.8-2.3,4.4-3c3.2-1.3,7.1-1.4,10.5,0c1.7,0.7,3.2,1.7,4.5,3c1.3,1.3,2.3,2.9,3.1,4.7
		c0.7,1.8,1.1,4,1.1,6.3c0,2.3-0.4,4.4-1.1,6.3c-0.7,1.9-1.8,3.4-3.1,4.7c-1.3,1.3-2.8,2.3-4.5,3
		C1248.1,125.8,1246.3,126.1,1244.5,126.1z M1244.5,98.1c-1.6,0-3.1,0.3-4.5,0.9c-1.4,0.6-2.7,1.4-3.8,2.5c-1.1,1.1-2,2.5-2.6,4.1
		c-0.6,1.6-1,3.5-1,5.5c0,2.1,0.3,3.9,1,5.5c0.6,1.6,1.5,3,2.6,4.1c1.1,1.1,2.4,2,3.8,2.5c2.7,1.1,6.1,1.2,9,0
		c1.4-0.6,2.7-1.4,3.8-2.5s2-2.5,2.6-4.1c0.6-1.6,1-3.5,1-5.5c0-2.1-0.3-3.9-1-5.5c-0.6-1.6-1.5-3-2.6-4.1c-1.1-1.1-2.4-1.9-3.8-2.5
		C1247.6,98.4,1246.1,98.1,1244.5,98.1z"/>
	<path class="sd0" d="M1292,136.6h-15.1v-51h14.3v5.5c0.4-0.6,0.9-1.2,1.5-1.8c1-1.1,2.2-2,3.5-2.8c1.3-0.8,2.7-1.4,4.2-1.9
		c1.5-0.5,3.1-0.7,4.6-0.7c1.8,0,3.4,0.2,4.7,0.6c1.3,0.4,2.5,0.9,3.4,1.6l0.6,0.4l-4.1,13.5l-1.1-0.5c-0.7-0.4-1.5-0.7-2.4-0.9
		c-0.9-0.2-2-0.3-3.3-0.3c-1.6,0-3.1,0.3-4.5,1c-1.3,0.6-2.5,1.5-3.4,2.7c-1,1.2-1.7,2.6-2.2,4.2c-0.5,1.6-0.8,3.4-0.8,5.3V136.6z
		 M1278.9,134.6h11.1v-23.1c0-2.1,0.3-4.1,0.9-5.9c0.6-1.8,1.5-3.4,2.6-4.8c1.1-1.4,2.5-2.5,4.1-3.2c1.6-0.8,3.4-1.2,5.3-1.2
		c1.5,0,2.7,0.1,3.8,0.4c0.6,0.2,1.2,0.3,1.8,0.6l3-9.9c-0.7-0.4-1.4-0.7-2.3-0.9c-1.1-0.3-2.5-0.5-4.2-0.5c-1.3,0-2.6,0.2-3.9,0.6
		c-1.4,0.4-2.6,1-3.8,1.7c-1.2,0.7-2.2,1.5-3.2,2.5c-0.9,0.9-1.7,1.9-2.2,3l-0.3,0.6h-2.4v-6.8h-10.3V134.6z"/>
	<path class="sd0" d="M1367.9,136.6h-17.1l-13-20.9l-4.6,4.5v16.4h-15.1V63h15.1v38.2l15.6-15.6h17.6v2.2l-17.9,17.4l19.4,29.3V136.6z
		 M1352,134.6h13.6L1346,105l17.9-17.4h-14.1l-16.4,16.4h-2V65h-11.1v69.6h11.1v-15.2l7-6.9L1352,134.6z"/>
	<path class="sd0" d="M1390.5,138.2c-3.3,0-6.3-0.4-8.9-1.2c-2.6-0.8-4.9-1.9-6.8-3.3c-1.9-1.4-3.6-2.9-4.9-4.7c-1.3-1.8-2.3-3.6-3-5.4l-0.3-0.9
		l13.5-5.8l0.4,0.9c1,2.3,2.5,4.1,4.2,5.2c1.7,1.1,3.7,1.7,5.8,1.7c2.2,0,3.9-0.4,5.2-1.2c1.1-0.7,1.6-1.4,1.6-2.2
		c0-1-0.4-1.8-1.3-2.4c-1.1-0.8-3-1.5-5.7-2.1l-6.9-1.5c-1.6-0.3-3.3-0.9-4.9-1.7c-1.7-0.8-3.3-1.8-4.7-3c-1.4-1.2-2.6-2.7-3.5-4.4
		c-0.9-1.7-1.4-3.8-1.4-6.1c0-2.6,0.6-4.9,1.7-6.9c1.1-2,2.6-3.7,4.5-5.1c1.9-1.4,4.1-2.4,6.7-3.2c2.5-0.7,5.2-1.1,8.1-1.1
		c4.8,0,9.2,1,12.9,2.9c3.9,1.9,6.7,5,8.6,9.2l0.4,0.9l-13.1,5.3l-0.4-0.8c-0.8-1.7-2-3-3.6-3.7c-3.4-1.6-6.9-1.5-9.4-0.2
		c-1.4,0.8-1.6,1.6-1.6,2.1c0,0.5,0.1,1.2,1.2,1.8c1.1,0.6,2.6,1.2,4.5,1.7l7.5,1.8c5.2,1.2,9.1,3.3,11.7,6c2.6,2.8,3.9,6.2,3.9,10
		c0,2.3-0.5,4.5-1.6,6.6c-1.1,2-2.6,3.9-4.5,5.5c-1.9,1.6-4.3,2.8-6.9,3.7C1396.8,137.7,1393.8,138.2,1390.5,138.2z M1369.2,123.7
		c0.6,1.3,1.4,2.7,2.4,4c1.2,1.6,2.7,3,4.4,4.3c1.7,1.2,3.8,2.2,6.2,3c2.4,0.8,5.2,1.2,8.2,1.2c3,0,5.8-0.4,8.2-1.2
		c2.4-0.8,4.6-2,6.3-3.4c1.7-1.4,3.1-3,4-4.8c0.9-1.8,1.4-3.7,1.4-5.6c0-3.4-1.1-6.2-3.4-8.7c-2.3-2.5-5.9-4.3-10.6-5.5l-7.5-1.8
		c-2.1-0.6-3.8-1.2-5-1.9c-1.9-1.1-2.3-2.5-2.3-3.6c0-1.1,0.5-2.6,2.6-3.8c1.5-0.8,3.4-1.3,5.4-1.3c1.9,0,3.9,0.5,5.8,1.4
		c1.7,0.8,3.1,2.1,4.1,3.8l9.5-3.9c-1.6-3.3-4.1-5.8-7.2-7.3c-3.5-1.8-7.6-2.6-12.1-2.6c-2.7,0-5.2,0.3-7.6,1
		c-2.3,0.7-4.3,1.6-6,2.8c-1.7,1.2-3,2.7-4,4.4c-0.9,1.7-1.4,3.7-1.4,5.9c0,2,0.4,3.7,1.2,5.1c0.8,1.5,1.8,2.8,3.1,3.8
		c1.3,1.1,2.7,2,4.2,2.7c1.6,0.7,3.1,1.2,4.6,1.5l6.9,1.5c3,0.7,5.1,1.5,6.4,2.4c1.4,1,2.2,2.4,2.2,4.1c0,1.6-0.9,2.9-2.6,4
		c-1.6,1-3.6,1.4-6.2,1.4c-2.5,0-4.8-0.7-6.9-2c-1.8-1.2-3.3-2.9-4.5-5.2L1369.2,123.7z"/>
	<path class="sd0" d="M1467,136.6h-15.1v-29.1c0-3.1-0.7-5.5-2.1-7.1c-1.4-1.6-3.4-2.3-6-2.3c-1.6,0-3.1,0.3-4.3,1c-1.3,0.7-2.3,1.7-3.2,2.9
		c-0.9,1.2-1.6,2.7-2,4.3c-0.5,1.7-0.7,3.5-0.7,5.4v24.9h-15.1V63h15.1v21.1l-0.6,6.6c1.4-1.7,3.1-3.1,5.1-4.3
		c2.8-1.6,5.9-2.4,9.3-2.4c6.6,0,11.6,2,14.8,6c3.2,3.9,4.8,9.3,4.8,15.9V136.6z M1453.9,134.6h11.1v-28.7c0-6.2-1.5-11.1-4.3-14.7
		c-2.8-3.5-7.3-5.2-13.3-5.2c-3.1,0-5.9,0.7-8.4,2.1c-2.5,1.4-4.4,3.2-5.7,5.4l-0.3,0.5h-2.5l0.9-10l0-19h-11.1v69.6h11.1v-22.9
		c0-2.1,0.3-4.1,0.8-5.9c0.5-1.9,1.3-3.5,2.4-5c1-1.4,2.4-2.6,3.9-3.4c1.5-0.8,3.3-1.3,5.3-1.3c3.1,0,5.6,1,7.4,3
		c1.8,1.9,2.7,4.8,2.7,8.4V134.6z"/>
	<path class="sd0" d="M1500,138.2c-3.9,0-7.6-0.7-10.8-2c-3.3-1.3-6.1-3.2-8.5-5.6c-2.4-2.4-4.3-5.3-5.6-8.6c-1.3-3.3-2-7-2-10.9s0.7-7.6,2-10.9
		c1.3-3.3,3.2-6.2,5.6-8.6c2.4-2.4,5.3-4.3,8.5-5.6c3.3-1.3,6.9-2,10.8-2c3.9,0,7.6,0.7,10.8,2c3.3,1.3,6.1,3.2,8.5,5.6
		c2.4,2.4,4.3,5.3,5.6,8.6c1.3,3.3,2,7,2,10.9s-0.7,7.6-2,10.9c-1.3,3.3-3.2,6.2-5.6,8.6c-2.4,2.4-5.3,4.3-8.5,5.6
		C1507.6,137.5,1504,138.2,1500,138.2z M1500,86c-3.7,0-7,0.6-10.1,1.9c-3,1.2-5.7,3-7.9,5.2c-2.2,2.2-3.9,4.9-5.2,7.9
		c-1.2,3.1-1.9,6.5-1.9,10.1s0.6,7.1,1.9,10.1c1.2,3.1,3,5.7,5.2,7.9c2.2,2.2,4.8,3.9,7.9,5.2c3,1.2,6.4,1.9,10.1,1.9
		c3.7,0,7-0.6,10.1-1.9c3-1.2,5.7-3,7.9-5.2c2.2-2.2,3.9-4.9,5.2-7.9c1.2-3.1,1.9-6.5,1.9-10.1s-0.6-7.1-1.9-10.1
		c-1.2-3.1-3-5.7-5.2-7.9c-2.2-2.2-4.8-3.9-7.9-5.2C1507.1,86.6,1503.7,86,1500,86z M1500,126.1c-1.9,0-3.6-0.3-5.3-1
		c-1.6-0.7-3.1-1.7-4.4-3c-1.3-1.3-2.3-2.9-3.1-4.7c-0.7-1.8-1.1-4-1.1-6.3c0-2.3,0.4-4.4,1.1-6.3c0.7-1.9,1.8-3.4,3.1-4.7
		c1.3-1.3,2.8-2.3,4.4-3c3.2-1.3,7.1-1.4,10.5,0c1.7,0.7,3.2,1.7,4.5,3c1.3,1.3,2.3,2.9,3.1,4.7c0.7,1.8,1.1,4,1.1,6.3
		c0,2.3-0.4,4.4-1.1,6.3c-0.7,1.9-1.8,3.4-3.1,4.7c-1.3,1.3-2.8,2.3-4.5,3C1503.6,125.8,1501.8,126.1,1500,126.1z M1500,98.1
		c-1.6,0-3.1,0.3-4.5,0.9c-1.4,0.6-2.7,1.4-3.8,2.5c-1.1,1.1-2,2.5-2.6,4.1c-0.6,1.6-1,3.5-1,5.5c0,2.1,0.3,3.9,1,5.5
		c0.6,1.6,1.5,3,2.6,4.1c1.1,1.1,2.4,2,3.8,2.5c2.7,1.1,6.1,1.2,9,0c1.4-0.6,2.7-1.4,3.8-2.5s2-2.5,2.6-4.1c0.6-1.6,1-3.5,1-5.5
		c0-2.1-0.3-3.9-1-5.5c-0.6-1.6-1.5-3-2.6-4.1c-1.1-1.1-2.4-1.9-3.8-2.5C1503.1,98.4,1501.6,98.1,1500,98.1z"/>
	<path class="sd0" d="M1547.6,158.2h-15.1V85.6h14.3v4.8c1.2-1.6,2.9-2.9,4.9-4.1c2.7-1.5,6-2.3,9.9-2.3c3.3,0,6.4,0.7,9.4,2
		c2.9,1.3,5.6,3.2,7.8,5.6c2.2,2.4,4,5.3,5.4,8.6c1.3,3.3,2,7,2,10.9s-0.7,7.6-2,10.9c-1.3,3.3-3.1,6.2-5.4,8.6
		c-2.2,2.4-4.9,4.3-7.8,5.6c-3,1.4-6.1,2-9.4,2c-3.9,0-7.2-0.8-9.9-2.3c-1.9-1.1-3.4-2.3-4.6-3.8l0.5,4.6V158.2z M1534.5,156.2h11.1
		v-19.4l-0.9-8.1h2.5l0.3,0.5c1.1,1.9,2.9,3.6,5.2,4.9c2.4,1.4,5.4,2.1,8.9,2.1c3,0,5.8-0.6,8.5-1.9c2.7-1.2,5.1-3,7.2-5.2
		c2.1-2.2,3.7-4.9,4.9-7.9c1.2-3.1,1.8-6.5,1.8-10.1s-0.6-7.1-1.8-10.1c-1.2-3.1-2.9-5.7-4.9-7.9c-2.1-2.2-4.5-3.9-7.2-5.2
		c-2.7-1.2-5.6-1.9-8.5-1.9c-3.5,0-6.5,0.7-8.9,2.1s-4.1,3-5.2,4.9l-0.3,0.5h-2.4v-5.9h-10.3V156.2z M1558.9,126.1
		c-1.9,0-3.7-0.3-5.3-1c-1.7-0.7-3.2-1.7-4.5-3c-1.3-1.3-2.3-2.9-3.1-4.7c-0.8-1.8-1.2-4-1.2-6.3c0-2.3,0.4-4.4,1.2-6.3
		c0.8-1.8,1.8-3.4,3.1-4.7c1.3-1.3,2.8-2.3,4.5-3c3.4-1.4,7.3-1.4,10.7,0.1c1.7,0.7,3.2,1.7,4.5,3c1.3,1.3,2.3,2.9,3.1,4.7
		c0.8,1.9,1.2,3.9,1.2,6.2c0,2.3-0.4,4.3-1.2,6.2c-0.8,1.8-1.8,3.4-3.1,4.7c-1.3,1.3-2.8,2.3-4.5,3
		C1562.6,125.7,1560.8,126.1,1558.9,126.1z M1558.9,98.1c-1.6,0-3.1,0.3-4.6,0.9c-1.4,0.6-2.7,1.4-3.8,2.5c-1.1,1.1-2,2.5-2.7,4.1
		c-0.7,1.6-1,3.5-1,5.5c0,2.1,0.3,3.9,1,5.5c0.7,1.6,1.6,3,2.7,4.1c1.1,1.1,2.4,2,3.8,2.5c2.9,1.2,6.3,1.2,9.1,0
		c1.4-0.6,2.7-1.5,3.8-2.6c1.1-1.1,2-2.5,2.7-4.1c0.7-1.6,1-3.4,1-5.4c0-2-0.3-3.8-1-5.4c-0.7-1.6-1.6-3-2.7-4.1
		c-1.1-1.1-2.4-2-3.8-2.6C1562.1,98.4,1560.5,98.1,1558.9,98.1z"/>
	<path class="sd0" d="M1612.4,138.2c-3.3,0-6.3-0.4-8.9-1.2c-2.6-0.8-4.9-1.9-6.8-3.3c-1.9-1.4-3.6-2.9-4.9-4.7c-1.3-1.8-2.3-3.6-3-5.4l-0.3-0.9
		l13.5-5.8l0.4,0.9c1,2.3,2.5,4.1,4.2,5.2c1.7,1.1,3.7,1.7,5.8,1.7c2.2,0,3.9-0.4,5.2-1.2c1.1-0.7,1.6-1.4,1.6-2.2
		c0-1-0.4-1.8-1.3-2.4c-1.1-0.8-3-1.5-5.7-2.1l-6.9-1.5c-1.6-0.3-3.3-0.9-4.9-1.7c-1.7-0.8-3.3-1.8-4.7-3c-1.4-1.2-2.6-2.7-3.5-4.4
		c-0.9-1.7-1.4-3.8-1.4-6.1c0-2.6,0.6-4.9,1.7-6.9c1.1-2,2.6-3.7,4.5-5.1c1.9-1.4,4.1-2.4,6.7-3.2c2.5-0.7,5.2-1.1,8.1-1.1
		c4.8,0,9.2,1,12.9,2.9c3.9,1.9,6.7,5,8.6,9.2l0.4,0.9l-13.1,5.3l-0.4-0.8c-0.8-1.7-2-3-3.6-3.7c-3.4-1.6-6.9-1.5-9.4-0.2
		c-1.4,0.8-1.6,1.6-1.6,2.1c0,0.5,0.1,1.2,1.2,1.8c1.1,0.6,2.6,1.2,4.5,1.7l7.5,1.8c5.2,1.2,9.1,3.3,11.7,6c2.6,2.8,3.9,6.2,3.9,10
		c0,2.3-0.5,4.5-1.6,6.6c-1.1,2-2.6,3.9-4.5,5.5c-1.9,1.6-4.3,2.8-6.9,3.7C1618.6,137.7,1615.7,138.2,1612.4,138.2z M1591.1,123.7
		c0.6,1.3,1.4,2.7,2.4,4c1.2,1.6,2.7,3,4.4,4.3c1.7,1.2,3.8,2.2,6.2,3c2.4,0.8,5.2,1.2,8.2,1.2c3,0,5.8-0.4,8.2-1.2
		c2.4-0.8,4.6-2,6.3-3.4c1.7-1.4,3.1-3,4-4.8c0.9-1.8,1.4-3.7,1.4-5.6c0-3.4-1.1-6.2-3.4-8.7c-2.3-2.5-5.9-4.3-10.6-5.5l-7.5-1.8
		c-2.1-0.6-3.8-1.2-5-1.9c-1.9-1.1-2.3-2.5-2.3-3.6c0-1.1,0.5-2.6,2.6-3.8c1.5-0.8,3.4-1.3,5.4-1.3c1.9,0,3.9,0.5,5.8,1.4
		c1.7,0.8,3.1,2.1,4.1,3.8l9.5-3.9c-1.6-3.3-4.1-5.8-7.2-7.3c-3.5-1.8-7.6-2.6-12.1-2.6c-2.7,0-5.2,0.3-7.6,1
		c-2.3,0.7-4.3,1.6-6,2.8c-1.7,1.2-3,2.7-4,4.4c-0.9,1.7-1.4,3.7-1.4,5.9c0,2,0.4,3.7,1.2,5.1c0.8,1.5,1.8,2.8,3.1,3.8
		c1.3,1.1,2.7,2,4.2,2.7c1.6,0.7,3.1,1.2,4.6,1.5l6.9,1.5c3,0.7,5.1,1.5,6.4,2.4c1.4,1,2.2,2.4,2.2,4.1c0,1.6-0.9,2.9-2.6,4
		c-1.6,1-3.6,1.4-6.2,1.4c-2.5,0-4.8-0.7-6.9-2c-1.8-1.2-3.3-2.9-4.5-5.2L1591.1,123.7z"/>
	<path class="sd0" d="M1666.5,102.3l-7.6-10.2l-7.6,10.2l-9.2-6.7l7.5-10.2l-11.1-4l3.8-10.8l11,3.9V63h11.4v11.6l11-3.8l3.8,10.8l-11.1,4
		l7.5,10.2L1666.5,102.3z M1644.9,95.2l6,4.3l7.1-9.6h1.8l7.1,9.6l6-4.3l-6.9-9.4l0.6-1.9l10.2-3.6l-2.4-7l-10,3.5l-1.8-0.7V65h-7.4
		v11.1l-1.9,0.6l-9.9-3.5l-2.4,7l10.2,3.6l0.6,1.9L1644.9,95.2z"/>
	<path class="sd0" d="M167.4,258.2c-3.1,0-6.2-0.5-9.1-1.3c-2.9-0.9-5.6-2.3-8-4.1c-2.4-1.8-4.5-4-6.3-6.6c-1.8-2.6-3.2-5.6-4.2-9l-0.3-0.9
		l14.6-5.8l0.3,1.1c0.9,3.4,2.4,6.3,4.6,8.5c2.2,2.2,4.9,3.3,8.5,3.3c1.3,0,2.6-0.2,3.8-0.5c1.2-0.3,2.3-0.8,3.2-1.5
		c0.9-0.6,1.6-1.4,2.1-2.3c0.5-0.9,0.8-2,0.8-3.2c0-1.2-0.2-2.3-0.6-3.2c-0.4-0.9-1.1-1.8-2.1-2.6c-1-0.9-2.4-1.7-4.1-2.6
		c-1.7-0.8-3.9-1.7-6.4-2.7l-4.4-1.6c-2-0.7-4-1.6-6-2.8c-2-1.2-3.9-2.6-5.6-4.3c-1.7-1.7-3.1-3.7-4.1-5.9c-1.1-2.3-1.6-4.9-1.6-7.8
		c0-2.9,0.6-5.7,1.7-8.3c1.2-2.5,2.8-4.8,4.9-6.7c2.1-1.9,4.7-3.4,7.6-4.5c2.9-1.1,6.2-1.6,9.8-1.6c3.7,0,7,0.5,9.7,1.5
		c2.7,1,5.1,2.3,7,3.9c1.9,1.6,3.5,3.3,4.7,5.2c1.2,1.9,2,3.6,2.6,5.3l0.3,0.9l-13.8,5.8l-0.3-1c-0.6-1.8-1.7-3.5-3.4-5
		c-1.6-1.4-3.8-2.1-6.6-2.1c-2.7,0-5,0.6-6.7,1.9c-1.7,1.2-2.5,2.7-2.5,4.5c0,1.8,0.8,3.4,2.4,4.7c1.8,1.4,4.7,2.8,8.6,4.2l4.5,1.5
		c2.9,1,5.6,2.2,8,3.5c2.4,1.3,4.6,3,6.3,4.8c1.8,1.9,3.2,4.1,4.1,6.5c0.9,2.4,1.4,5.2,1.4,8.3c0,3.9-0.8,7.3-2.4,10.1
		c-1.6,2.8-3.6,5.2-6,7c-2.4,1.8-5.2,3.2-8.2,4.1C173.3,257.8,170.3,258.2,167.4,258.2z M142,237.5c0.9,2.9,2.2,5.4,3.7,7.6
		c1.7,2.4,3.6,4.5,5.9,6.1c2.2,1.7,4.7,2.9,7.4,3.7c5.1,1.6,10.9,1.8,16.8,0c2.8-0.8,5.4-2.1,7.6-3.7c2.2-1.6,4-3.8,5.5-6.3
		c1.4-2.5,2.1-5.6,2.1-9.2c0-2.9-0.4-5.4-1.3-7.6c-0.8-2.2-2.1-4.1-3.7-5.8c-1.6-1.7-3.6-3.2-5.9-4.5c-2.3-1.3-4.9-2.4-7.7-3.4
		l-4.5-1.5c-4.2-1.5-7.2-2.9-9.2-4.5c-2.1-1.7-3.2-3.8-3.2-6.2c0-2.5,1.1-4.6,3.3-6.2c2.1-1.5,4.7-2.2,7.9-2.2c3.3,0,6,0.9,7.9,2.7
		c1.6,1.4,2.8,3.1,3.5,4.8l10.1-4.2c-0.5-1.3-1.2-2.6-2.1-4c-1.1-1.7-2.5-3.3-4.2-4.7c-1.7-1.4-3.9-2.6-6.4-3.5
		c-2.5-0.9-5.5-1.4-9-1.4c-3.3,0-6.4,0.5-9.1,1.5c-2.7,1-5,2.4-7,4.1c-1.9,1.7-3.4,3.8-4.5,6.1c-1,2.3-1.6,4.8-1.6,7.4
		c0,2.6,0.5,4.9,1.5,6.9c1,2.1,2.2,3.9,3.8,5.4c1.5,1.5,3.3,2.9,5.1,3.9c1.9,1.1,3.8,2,5.7,2.6l4.4,1.6c2.6,0.9,4.9,1.9,6.6,2.7
		c1.8,0.9,3.4,1.9,4.5,2.8c1.2,1,2.1,2.2,2.6,3.4c0.5,1.2,0.8,2.5,0.8,4c0,1.6-0.3,3-1,4.2c-0.7,1.2-1.6,2.2-2.8,3
		c-1.1,0.8-2.4,1.3-3.8,1.7c-1.4,0.4-2.8,0.6-4.3,0.6c-4.1,0-7.4-1.3-9.9-3.8c-2.2-2.2-3.8-5-4.8-8.3L142,237.5z"/>
	<path class="sd0" d="M216.9,258.2c-2.6,0-5.2-0.4-7.5-1.3c-2.3-0.9-4.4-2.1-6.2-3.6c-1.8-1.6-3.2-3.4-4.2-5.6c-1-2.2-1.5-4.6-1.5-7.2
		c0-2.7,0.5-5.1,1.6-7.3c1.1-2.2,2.6-4,4.5-5.6c1.9-1.5,4.1-2.7,6.7-3.5c2.5-0.8,5.3-1.2,8.3-1.2c3.3,0,6,0.3,8.1,0.8
		c1.5,0.4,2.7,0.7,3.9,1.1v-0.1c0-2.3-0.9-4.2-2.7-5.7c-1.9-1.5-4.3-2.3-7.1-2.3c-4.3,0-7.8,1.7-10.7,5.3l-0.6,0.7l-11.1-7.6
		l0.7-0.8c5.4-6.8,12.8-10.2,22.1-10.2c7.8,0,13.9,1.9,18.1,5.6c4.2,3.7,6.3,9.3,6.3,16.6v30.4h-14.9v-4.5c-1.4,1.5-3,2.8-4.8,3.9
		C223.5,257.5,220.5,258.2,216.9,258.2z M218.6,224.8c-2.7,0-5.3,0.4-7.7,1.1c-2.3,0.7-4.3,1.8-6,3.2c-1.7,1.4-3,3-3.9,4.9
		c-0.9,1.9-1.4,4-1.4,6.4c0,2.3,0.4,4.5,1.3,6.4c0.9,1.9,2.1,3.6,3.6,5c1.6,1.4,3.4,2.5,5.5,3.3c2.1,0.8,4.4,1.2,6.8,1.2
		c3.2,0,5.8-0.6,7.8-1.9c2.1-1.3,3.8-2.8,5.3-4.6l0.3-0.4h2.3v5.2h10.9v-28.4c0-6.7-1.9-11.8-5.7-15.1c-3.8-3.4-9.4-5.1-16.7-5.1
		c-8.2,0-14.9,2.9-19.8,8.6l7.9,5.4c3.2-3.6,7.1-5.4,11.7-5.4c3.3,0,6.1,0.9,8.3,2.8c2.3,1.9,3.5,4.3,3.5,7.2v3l-1.4-0.5
		c-1.3-0.5-3-1-5-1.5C224.3,225,221.7,224.8,218.6,224.8z M219.8,248c-2.3,0-4.4-0.7-6.2-2c-1.9-1.4-2.9-3.3-2.9-5.6
		c0-2.3,1-4.3,2.9-5.8c1.9-1.5,4.5-2.3,7.9-2.3c2,0,3.9,0.2,5.6,0.7c1.7,0.4,3.3,1.1,4.9,1.8l0.6,0.3v0.6c0,1.6-0.3,3.1-0.9,4.6
		c-0.6,1.5-1.5,2.8-2.6,3.9s-2.5,2-4.1,2.7C223.4,247.7,221.7,248,219.8,248z M221.5,234.3c-2.9,0-5.1,0.6-6.6,1.8
		c-1.5,1.2-2.2,2.6-2.2,4.3c0,1.7,0.7,3,2,4c1.5,1.1,3.1,1.6,5.1,1.6c1.6,0,3.1-0.3,4.4-0.9c1.3-0.6,2.5-1.4,3.4-2.3
		c0.9-0.9,1.7-2,2.2-3.3c0.4-1,0.7-2.1,0.8-3.2c-1.3-0.6-2.6-1.1-4-1.4C225.1,234.5,223.4,234.3,221.5,234.3z"/>
	<path class="sd0" d="M275.6,258.2c-2.6,0-4.9-0.4-7-1.2c-2.1-0.8-3.9-2-5.3-3.4c-3.3-3.2-5-7.9-5-13.8v-20.9h-8.6v-13.2h8.6v-15h15.1v15h12
		v13.2h-12v18.6c0,1.1,0.1,2.1,0.3,3c0.2,0.8,0.6,1.5,1.1,2.1c0.8,0.9,1.8,1.3,3.3,1.3c1,0,1.8-0.1,2.4-0.3c0.6-0.2,1.1-0.5,1.7-0.8
		l1.1-0.7l4.4,13.6l-0.8,0.4c-1.6,0.8-3.3,1.3-5.2,1.7C279.8,258,277.8,258.2,275.6,258.2z M251.7,216.8h8.6v22.9
		c0,5.3,1.5,9.5,4.4,12.4c1.2,1.3,2.8,2.3,4.6,3c1.8,0.7,4,1.1,6.3,1.1c2.1,0,4-0.2,5.6-0.5c1.4-0.3,2.7-0.7,3.9-1.2l-3-9.5
		c-0.3,0.2-0.7,0.3-1,0.4c-0.8,0.3-1.8,0.4-3,0.4c-2,0-3.6-0.7-4.8-2c-0.7-0.8-1.3-1.8-1.6-2.9c-0.2-1.1-0.4-2.2-0.4-3.5v-20.6h12
		v-9.2h-12v-15h-11.1v15h-8.6V216.8z"/>
	<path class="sd0" d="M312,258.2c-6.5,0-11.4-2-14.6-6.1c-3.2-4-4.8-9.3-4.8-15.8v-30.7h15.1v29.1c0,3.3,0.7,5.7,2.1,7.2
		c1.4,1.5,3.4,2.2,6.1,2.2c1.6,0,3.1-0.3,4.3-1c1.2-0.7,2.3-1.6,3.2-2.8c0.9-1.2,1.6-2.6,2-4.3c0.5-1.7,0.7-3.5,0.7-5.4v-25h15.1v51
		h-14.3v-5.4c-1.5,1.9-3.3,3.5-5.5,4.7C318.7,257.4,315.5,258.2,312,258.2z M294.6,207.6v28.7c0,6.1,1.5,11,4.3,14.6
		c2.8,3.5,7.2,5.3,13.1,5.3c3.1,0,6-0.7,8.4-2c2.4-1.3,4.4-3.2,5.8-5.5l0.3-0.5h2.4v6.4h10.3v-47h-11.1v23c0,2.1-0.3,4.1-0.8,5.9
		c-0.5,1.9-1.3,3.5-2.4,4.9c-1,1.4-2.3,2.5-3.8,3.4c-1.5,0.8-3.3,1.3-5.2,1.3c-3.3,0-5.8-1-7.6-2.9c-1.7-1.9-2.6-4.8-2.6-8.5v-27.1
		H294.6z"/>
	<path class="sd0" d="M365.5,256.6h-15.1v-51h14.3v5.5c0.4-0.6,0.9-1.2,1.5-1.8c1.1-1.1,2.2-2,3.5-2.8c1.3-0.8,2.7-1.4,4.2-1.9
		c1.5-0.5,3.1-0.7,4.6-0.7c1.8,0,3.4,0.2,4.7,0.6c1.3,0.4,2.5,0.9,3.4,1.6l0.6,0.4l-4.1,13.5l-1.1-0.5c-0.7-0.4-1.5-0.7-2.4-0.9
		c-0.9-0.2-2-0.3-3.3-0.3c-1.6,0-3.1,0.3-4.5,1s-2.5,1.5-3.4,2.7c-1,1.2-1.7,2.6-2.2,4.2c-0.5,1.6-0.8,3.4-0.8,5.3V256.6z
		 M352.4,254.6h11.1v-23.1c0-2.1,0.3-4.1,0.9-5.9c0.6-1.8,1.5-3.4,2.6-4.8c1.1-1.4,2.5-2.5,4.1-3.2c1.6-0.8,3.4-1.2,5.3-1.2
		c1.5,0,2.7,0.1,3.8,0.4c0.6,0.2,1.2,0.3,1.8,0.6l3-9.9c-0.7-0.4-1.4-0.7-2.3-0.9c-1.1-0.3-2.5-0.5-4.2-0.5c-1.3,0-2.6,0.2-3.9,0.6
		c-1.4,0.4-2.6,1-3.8,1.7c-1.2,0.7-2.2,1.5-3.2,2.5c-0.9,0.9-1.7,1.9-2.2,3l-0.3,0.6h-2.4v-6.8h-10.3V254.6z"/>
	<path class="sd0" d="M409.8,258.2c-3.3,0-6.4-0.7-9.4-2c-2.9-1.3-5.6-3.2-7.8-5.6c-2.2-2.4-4-5.3-5.4-8.6c-1.3-3.3-2-7-2-10.9s0.7-7.6,2-10.9
		c1.3-3.3,3.1-6.2,5.4-8.6c2.2-2.4,4.9-4.3,7.8-5.6c2.9-1.4,6.1-2,9.4-2c3.9,0,7.2,0.8,9.9,2.3c1.9,1.1,3.4,2.3,4.6,3.8l-0.5-4.6
		V183h15.1v73.6h-14.3v-4.8c-1.2,1.6-2.9,2.9-4.9,4.1C417,257.4,413.7,258.2,409.8,258.2z M409.8,206c-3,0-5.8,0.6-8.5,1.9
		c-2.7,1.2-5.1,3-7.2,5.2c-2.1,2.2-3.7,4.9-4.9,7.9c-1.2,3.1-1.8,6.5-1.8,10.1s0.6,7.1,1.8,10.1c1.2,3.1,2.9,5.7,4.9,7.9
		c2.1,2.2,4.5,3.9,7.2,5.2c2.7,1.2,5.6,1.9,8.5,1.9c3.5,0,6.5-0.7,8.9-2.1c2.4-1.4,4.1-3,5.2-4.9l0.3-0.5h2.4v5.9h10.3V185h-11.1
		v20.4l0.9,8.1h-2.5L424,213c-1.1-1.9-2.9-3.6-5.2-4.9C416.3,206.7,413.4,206,409.8,206z M412.5,246.1c-1.9,0-3.7-0.4-5.3-1.1
		c-1.7-0.7-3.2-1.7-4.5-3c-1.3-1.3-2.3-2.9-3.1-4.7c-0.8-1.8-1.2-3.9-1.2-6.2c0-2.3,0.4-4.3,1.2-6.2c0.8-1.8,1.8-3.4,3.1-4.7
		c1.3-1.3,2.8-2.3,4.5-3c3.4-1.4,7.3-1.4,10.7-0.1c1.7,0.7,3.2,1.7,4.5,3c1.3,1.3,2.3,2.9,3.1,4.7c0.8,1.9,1.2,4,1.2,6.3
		c0,2.3-0.4,4.4-1.2,6.3c-0.8,1.8-1.8,3.4-3.1,4.7c-1.3,1.3-2.8,2.3-4.5,3C416.2,245.8,414.4,246.1,412.5,246.1z M412.5,218.1
		c-1.6,0-3.1,0.3-4.6,0.9c-1.4,0.6-2.7,1.5-3.8,2.6c-1.1,1.1-2,2.5-2.7,4.1c-0.7,1.6-1,3.4-1,5.4c0,2,0.3,3.8,1,5.4
		c0.7,1.6,1.6,3,2.7,4.1c1.1,1.1,2.4,2,3.8,2.6c2.9,1.2,6.3,1.2,9.1,0c1.4-0.6,2.7-1.4,3.8-2.5c1.1-1.1,2-2.5,2.7-4.1
		c0.7-1.6,1-3.5,1-5.5c0-2.1-0.3-3.9-1-5.5c-0.7-1.6-1.6-3-2.7-4.1c-1.1-1.1-2.4-1.9-3.8-2.5C415.7,218.4,414.1,218.1,412.5,218.1z"
		/>
	<path class="sd0" d="M464.1,258.2c-2.6,0-5.2-0.4-7.5-1.3c-2.3-0.9-4.4-2.1-6.2-3.6c-1.8-1.6-3.2-3.5-4.2-5.6c-1-2.2-1.5-4.6-1.5-7.2
		c0-2.7,0.5-5.1,1.6-7.3c1.1-2.2,2.6-4,4.5-5.6c1.9-1.5,4.1-2.7,6.7-3.5c2.5-0.8,5.3-1.2,8.3-1.2c3.3,0,6,0.3,8.1,0.8
		c1.5,0.4,2.7,0.7,3.9,1.1v-0.1c0-2.3-0.9-4.2-2.7-5.7c-1.9-1.5-4.3-2.3-7.1-2.3c-4.3,0-7.8,1.7-10.7,5.3l-0.6,0.7l-11.1-7.6
		l0.7-0.8c5.4-6.8,12.8-10.2,22.1-10.2c7.8,0,13.9,1.9,18.1,5.6c4.2,3.7,6.3,9.3,6.3,16.6v30.4h-14.9v-4.5c-1.4,1.5-3,2.8-4.8,3.9
		C470.7,257.5,467.7,258.2,464.1,258.2z M465.8,224.8c-2.7,0-5.3,0.4-7.6,1.1c-2.3,0.7-4.3,1.8-6,3.2c-1.7,1.4-3,3-3.9,4.9
		c-0.9,1.9-1.4,4-1.4,6.4c0,2.3,0.4,4.5,1.3,6.4c0.9,1.9,2.1,3.6,3.6,5c1.6,1.4,3.4,2.5,5.5,3.3c2.1,0.8,4.4,1.2,6.8,1.2
		c3.2,0,5.8-0.6,7.8-1.9c2.1-1.3,3.8-2.8,5.3-4.6l0.3-0.4h2.3v5.2h10.9v-28.4c0-6.7-1.9-11.8-5.7-15.1c-3.8-3.4-9.4-5.1-16.7-5.1
		c-8.2,0-14.9,2.9-19.8,8.6l7.9,5.4c3.2-3.6,7.1-5.4,11.7-5.4c3.3,0,6.1,0.9,8.3,2.8c2.3,1.9,3.5,4.3,3.5,7.2v3l-1.4-0.5
		c-1.3-0.5-3-1-5-1.5C471.5,225,468.9,224.8,465.8,224.8z M467,248c-2.3,0-4.4-0.7-6.2-2c-1.9-1.4-2.9-3.3-2.9-5.6
		c0-2.3,1-4.3,2.9-5.8c1.9-1.5,4.5-2.3,7.9-2.3c2,0,3.9,0.2,5.6,0.7c1.7,0.4,3.3,1.1,4.9,1.8l0.6,0.3v0.6c0,1.6-0.3,3.1-0.9,4.6
		c-0.6,1.5-1.5,2.8-2.6,3.9c-1.1,1.1-2.5,2-4.1,2.7C470.6,247.7,468.9,248,467,248z M468.7,234.3c-2.9,0-5.1,0.6-6.6,1.8
		c-1.5,1.2-2.2,2.6-2.2,4.3c0,1.7,0.7,3,2,4c1.5,1.1,3.1,1.6,5.1,1.6c1.6,0,3.1-0.3,4.4-0.9c1.3-0.6,2.5-1.3,3.4-2.3
		c0.9-0.9,1.7-2,2.2-3.3c0.4-1,0.7-2.1,0.8-3.2c-1.3-0.6-2.6-1.1-4-1.4C472.3,234.5,470.6,234.3,468.7,234.3z"/>
	<path class="sd0" d="M520.4,278.2h-16.3l11.4-25l-21-47.6h17.1l12.1,28.9l11.6-28.9h16.8L520.4,278.2z M507.2,276.2h11.9l29.8-68.6h-12.4
		l-11.9,29.7h-2l-12.4-29.7h-12.7l20.2,45.6L507.2,276.2z"/>
	<path class="sd0" d="M554.4,269.8l-7.6-5l5.8-9c-1.2-0.6-2.2-1.6-3.1-2.7c-1.2-1.6-1.7-3.5-1.7-5.6c0-2.7,1-5,2.8-6.8c1.9-1.8,4.2-2.8,6.9-2.8
		c2.7,0,5,0.9,6.8,2.8c1.9,1.9,2.8,4.1,2.8,6.8c0,1.4-0.2,2.6-0.7,3.7c-0.4,1-1.1,2.2-2,3.5L554.4,269.8z M549.6,264.2l4.2,2.8
		l8.9-13.4c0.8-1.2,1.4-2.3,1.8-3.2c0.3-0.8,0.5-1.8,0.5-3c0-2.1-0.7-3.9-2.2-5.4c-1.5-1.5-3.3-2.2-5.4-2.2c-2.1,0-3.9,0.7-5.5,2.2
		c-1.5,1.5-2.2,3.2-2.2,5.4c0,1.7,0.4,3.2,1.4,4.4c0.9,1.2,2,2.1,3.3,2.6l1.2,0.4L549.6,264.2z"/>
	<path class="sd0" d="M619.7,258.6l-11.8-8l13.5-19.2c-1.2,0.3-2.5,0.5-3.9,0.5c-2.7,0-5.4-0.6-8-1.7c-2.6-1.1-4.9-2.7-6.9-4.7
		c-2-2-3.6-4.5-4.9-7.3c-1.2-2.8-1.8-5.9-1.8-9.3c0-3.5,0.7-6.8,2.1-9.8c1.4-3,3.3-5.6,5.6-7.7c2.3-2.1,5-3.8,8-5
		c3-1.2,6.2-1.8,9.5-1.8c3.8,0,7.3,0.7,10.4,2c3.1,1.3,5.9,3.1,8.1,5.4c2.3,2.2,4,4.9,5.2,7.9c1.2,3,1.8,6.2,1.8,9.5
		c0,4.7-1,9.1-2.8,13c-1.9,3.9-4.2,7.8-7,11.8L619.7,258.6z M610.7,250.1l8.4,5.7l16-22.8c2.8-3.9,5.1-7.8,6.9-11.5
		c1.8-3.7,2.7-7.7,2.7-12.1c0-3-0.6-6-1.7-8.7c-1.1-2.7-2.7-5.2-4.8-7.2c-2.1-2.1-4.6-3.7-7.5-5c-2.9-1.2-6.1-1.9-9.7-1.9
		c-3.1,0-6,0.6-8.8,1.7c-2.8,1.1-5.3,2.7-7.4,4.6c-2.1,2-3.8,4.3-5.1,7.1c-1.3,2.7-1.9,5.8-1.9,9c0,3.1,0.6,6,1.7,8.5
		c1.1,2.6,2.6,4.8,4.4,6.6c1.8,1.9,3.9,3.3,6.3,4.3c2.3,1,4.8,1.5,7.2,1.5c1.9,0,3.5-0.3,4.9-0.9l0.7-0.3l1.5,1.8L610.7,250.1z
		 M621.3,220.9c-1.7,0-3.2-0.3-4.7-0.9c-1.5-0.6-2.8-1.4-4-2.5c-1.2-1.1-2.1-2.4-2.8-3.8c-0.7-1.5-1-3.2-1-5c0-1.8,0.4-3.4,1-4.9
		c0.7-1.5,1.6-2.7,2.8-3.8c1.2-1.1,2.5-1.9,4-2.5c2.9-1.1,6.3-1.2,9.4,0c1.5,0.6,2.9,1.4,4.1,2.5c1.2,1.1,2.1,2.4,2.8,3.8
		c0.7,1.5,1,3.1,1,4.9c0,1.8-0.4,3.5-1,5c-0.7,1.5-1.6,2.8-2.8,3.8c-1.2,1.1-2.6,1.9-4.1,2.5C624.5,220.6,622.9,220.9,621.3,220.9z
		 M621.3,198.7c-1.4,0-2.7,0.2-4,0.7c-1.2,0.5-2.4,1.2-3.3,2.1c-1,0.9-1.8,2-2.3,3.2c-0.6,1.2-0.9,2.6-0.9,4.1c0,1.6,0.3,3,0.9,4.2
		c0.6,1.2,1.4,2.3,2.3,3.2c1,0.9,2.1,1.6,3.3,2.1c2.4,0.9,5.3,1,7.9,0c1.3-0.5,2.4-1.2,3.4-2.1c1-0.9,1.8-2,2.4-3.2
		c0.6-1.2,0.9-2.6,0.9-4.2c0-1.5-0.3-2.9-0.9-4.1c-0.6-1.2-1.4-2.3-2.4-3.2c-1-0.9-2.2-1.6-3.4-2.1
		C624,198.9,622.7,198.7,621.3,198.7z"/>
	<path class="sd0" d="M665.6,224.2c-1.6,0-3-0.3-4.2-0.8c-1.3-0.5-2.4-1.2-3.2-2.1c-2-2-3-4.8-3-8.3v-11.8h-5v-8.5h5V184h9.6v8.7h7v8.5h-7v10.4
		c0,0.6,0.1,1.2,0.2,1.7c0.1,0.4,0.3,0.7,0.5,1c0.3,0.3,0.7,0.7,1.6,0.7c0.7,0,1.1-0.1,1.2-0.1c0.3-0.1,0.6-0.3,0.9-0.4l1.1-0.7
		l2.8,8.8l-0.8,0.4c-1,0.5-2,0.8-3.1,1C668.1,224.1,666.9,224.2,665.6,224.2z M652.1,199.3h5v13.8c0,3,0.8,5.3,2.4,6.9
		c0.7,0.7,1.5,1.3,2.6,1.7c1,0.4,2.2,0.6,3.5,0.6c1.2,0,2.2-0.1,3.2-0.3c0.6-0.1,1.3-0.3,1.9-0.5l-1.5-4.7c-0.1,0-0.1,0-0.2,0.1
		c-0.5,0.2-1.1,0.3-1.9,0.3c-1.3,0-2.4-0.4-3.1-1.3c-0.5-0.5-0.8-1.1-1-1.9c-0.2-0.7-0.2-1.4-0.2-2.1v-12.4h7v-4.5h-7V186h-5.6v8.7
		h-5V199.3z"/>
	<path class="sd0" d="M704.8,223.3h-9.6v-17.4c0-1.7-0.4-3-1.1-3.8c-0.7-0.8-1.8-1.2-3.2-1.2c-0.9,0-1.7,0.2-2.3,0.5c-0.7,0.4-1.3,0.9-1.7,1.5
		c-0.5,0.7-0.9,1.5-1.1,2.4c-0.3,0.9-0.4,2-0.4,3v14.9h-9.6v-43.7h9.6v12.7l-0.2,2.6c0.7-0.6,1.4-1.2,2.3-1.7c1.7-1,3.6-1.4,5.7-1.4
		c4,0,7,1.2,9,3.6c1.9,2.4,2.9,5.6,2.9,9.6V223.3z M697.2,221.3h5.6V205c0-3.5-0.8-6.3-2.4-8.3c-1.6-1.9-4-2.9-7.4-2.9
		c-1.7,0-3.3,0.4-4.7,1.2c-1.4,0.8-2.4,1.8-3.2,3l-0.3,0.5h-2.1l0.6-6.3l0-10.6h-5.6v39.7h5.6v-12.9c0-1.3,0.2-2.5,0.5-3.6
		c0.3-1.1,0.8-2.2,1.4-3c0.6-0.9,1.5-1.6,2.4-2.1c1-0.5,2.1-0.8,3.3-0.8c2,0,3.5,0.6,4.6,1.9c1.1,1.2,1.7,3,1.7,5.2V221.3z"/>
	<path class="sd0" d="M794.9,256.6h-15.8l-29.5-49.2l0.7,11.2l0,38H735V183h17.3l27.9,46.5l-0.7-11.2l0-35.3h15.4V256.6z M780.3,254.6h12.6V185
		h-11.4v33.2l0.9,14.8H780l-28.8-48H737v69.6h11.3v-35.9l-0.9-14.8h2.4L780.3,254.6z"/>
	<path class="sd0" d="M829.9,258.2c-3.9,0-7.6-0.7-10.8-2c-3.3-1.3-6.1-3.2-8.5-5.6c-2.4-2.4-4.3-5.3-5.6-8.6c-1.3-3.3-2-7-2-10.9
		s0.7-7.6,2-10.9c1.3-3.3,3.2-6.2,5.6-8.6c2.4-2.4,5.3-4.3,8.5-5.6c3.3-1.3,6.9-2,10.8-2c3.9,0,7.6,0.7,10.8,2
		c3.3,1.3,6.1,3.2,8.5,5.6c2.4,2.4,4.3,5.3,5.6,8.6c1.3,3.3,2,7,2,10.9s-0.7,7.6-2,10.9c-1.3,3.3-3.2,6.2-5.6,8.6
		c-2.4,2.4-5.3,4.3-8.5,5.6C837.5,257.5,833.9,258.2,829.9,258.2z M829.9,206c-3.7,0-7,0.6-10.1,1.9c-3,1.2-5.7,3-7.9,5.2
		c-2.2,2.2-3.9,4.9-5.2,7.9c-1.2,3.1-1.9,6.5-1.9,10.1s0.6,7.1,1.9,10.1c1.2,3.1,3,5.7,5.2,7.9c2.2,2.2,4.8,3.9,7.9,5.2
		c3,1.2,6.4,1.9,10.1,1.9c3.7,0,7-0.6,10.1-1.9c3-1.2,5.7-3,7.9-5.2c2.2-2.2,3.9-4.9,5.2-7.9c1.2-3.1,1.9-6.5,1.9-10.1
		s-0.6-7.1-1.9-10.1c-1.2-3.1-3-5.7-5.2-7.9c-2.2-2.2-4.8-3.9-7.9-5.2C837,206.6,833.6,206,829.9,206z M829.9,246.1
		c-1.9,0-3.6-0.3-5.3-1c-1.6-0.7-3.1-1.7-4.4-3c-1.3-1.3-2.3-2.9-3.1-4.7c-0.7-1.8-1.1-4-1.1-6.3c0-2.3,0.4-4.4,1.1-6.3
		c0.7-1.9,1.8-3.4,3.1-4.7c1.3-1.3,2.8-2.3,4.4-3c3.2-1.3,7.1-1.4,10.5,0c1.7,0.7,3.2,1.7,4.5,3c1.3,1.3,2.3,2.9,3.1,4.7
		c0.7,1.8,1.1,4,1.1,6.3c0,2.3-0.4,4.4-1.1,6.3c-0.7,1.9-1.8,3.4-3.1,4.7c-1.3,1.3-2.8,2.3-4.5,3
		C833.5,245.8,831.7,246.1,829.9,246.1z M829.9,218.1c-1.6,0-3.1,0.3-4.5,0.9c-1.4,0.6-2.7,1.4-3.8,2.5c-1.1,1.1-2,2.5-2.6,4.1
		c-0.6,1.6-1,3.5-1,5.5c0,2.1,0.3,3.9,1,5.5c0.6,1.6,1.5,3,2.6,4.1c1.1,1.1,2.4,2,3.8,2.5c2.7,1.1,6.1,1.2,9,0
		c1.4-0.6,2.7-1.4,3.8-2.5c1.1-1.1,2-2.5,2.6-4.1c0.6-1.6,1-3.5,1-5.5c0-2.1-0.3-3.9-1-5.5c-0.6-1.6-1.5-3-2.6-4.1
		c-1.1-1.1-2.4-1.9-3.8-2.5C833,218.4,831.5,218.1,829.9,218.1z"/>
	<path class="sd0" d="M892.6,256.6h-14.2l-21.8-51h17.1l11.9,30.4l12-30.4h17L892.6,256.6z M879.7,254.6h11.6l20.2-47h-12.6l-12.3,31.2h-2.1
		l-12.2-31.2h-12.7L879.7,254.6z"/>
	<path class="sd0" d="M940.7,258.2c-3.8,0-7.5-0.7-10.7-2c-3.3-1.3-6.2-3.3-8.6-5.7c-2.4-2.4-4.3-5.3-5.7-8.6c-1.3-3.3-2-6.9-2-10.8
		c0-3.6,0.7-7.2,2-10.4c1.3-3.3,3.2-6.2,5.5-8.6c2.3-2.4,5.2-4.4,8.4-5.9c3.2-1.5,6.8-2.2,10.7-2.2c4.1,0,7.7,0.7,10.9,2
		c3.2,1.4,5.9,3.3,8.1,5.7c2.1,2.4,3.8,5.3,4.9,8.5c1.1,3.2,1.7,6.8,1.7,10.5l0,1.4c-0.1,0.3-0.1,0.7-0.1,0.9l0,0.2
		c-0.1,0.3-0.1,0.6-0.1,0.9v1h-36.7c0.3,1.4,0.7,2.6,1.3,3.6c0.8,1.3,1.7,2.4,2.9,3.3c1.1,0.9,2.4,1.5,3.7,1.9
		c1.4,0.4,2.8,0.6,4.2,0.6c2.8,0,5.1-0.6,6.9-1.9c1.8-1.3,3.3-2.9,4.3-4.8l0.5-0.8l12.7,6.3l-0.5,0.9c-2.3,4.1-5.5,7.5-9.5,10
		C951.4,256.9,946.4,258.2,940.7,258.2z M940.2,206c-3.6,0-6.9,0.7-9.8,2c-3,1.3-5.6,3.2-7.7,5.4c-2.2,2.3-3.9,4.9-5.1,8
		c-1.2,3-1.8,6.3-1.8,9.7c0,3.7,0.6,7,1.9,10.1c1.2,3,3,5.7,5.2,7.9c2.2,2.2,4.9,4,7.9,5.2s6.4,1.9,10,1.9c5.3,0,9.9-1.2,13.5-3.5
		c3.4-2.2,6.2-5,8.3-8.4l-9.1-4.5c-1.2,1.8-2.7,3.4-4.5,4.7c-2.1,1.5-4.8,2.2-8,2.2c-1.6,0-3.2-0.2-4.8-0.7
		c-1.6-0.5-3.1-1.2-4.4-2.3c-1.3-1-2.5-2.3-3.3-3.9c-0.9-1.5-1.5-3.4-1.8-5.5l-0.2-1.1h37.1c0-0.1,0-0.1,0-0.2c0-0.3,0-0.7,0.1-1.1
		v-1.1c0-3.5-0.5-6.9-1.5-9.9c-1-3-2.5-5.6-4.5-7.8c-2-2.2-4.4-3.9-7.3-5.1C947.4,206.6,944,206,940.2,206z M953.1,225.8H927
		l0.4-1.3c0.9-3.1,2.6-5.5,4.9-7.2c2.3-1.7,5-2.6,8-2.6c2.1,0,4,0.3,5.5,1c1.5,0.6,2.9,1.5,3.9,2.5c1.1,1,1.9,2.1,2.4,3.3
		c0.5,1.2,0.9,2.3,0.9,3.2L953.1,225.8z M929.8,223.8h21.1c-0.1-0.5-0.3-1-0.6-1.5c-0.4-0.9-1.1-1.9-2-2.7c-0.9-0.8-2-1.5-3.3-2.1
		c-1.3-0.5-2.9-0.8-4.8-0.8c-2.6,0-4.9,0.7-6.8,2.2C931.8,220.1,930.6,221.8,929.8,223.8z"/>
	<path class="sd0" d="M1051.3,256.6h-15.1v-29.5c0-6.1-2.3-9-7.2-9c-1.5,0-2.9,0.3-4.1,1c-1.2,0.7-2.2,1.6-3,2.8c-0.8,1.2-1.5,2.7-2,4.3
		c-0.5,1.7-0.7,3.6-0.7,5.5v24.8h-15.1v-29.5c0-6.1-2.4-9-7.6-9c-1.5,0-2.8,0.3-3.9,1c-1.1,0.7-2.1,1.6-2.9,2.8
		c-0.8,1.2-1.4,2.7-1.9,4.3c-0.4,1.7-0.7,3.6-0.7,5.5v24.8h-15.1v-51h14.3v5.4c1.5-1.9,3.3-3.4,5.6-4.7c2.8-1.5,5.9-2.3,9.2-2.3
		c3.9,0,7.3,0.9,10,2.8c2.1,1.5,3.8,3.2,5,5.3c1.5-2,3.5-3.7,5.8-5.2c3-1.9,6.6-2.8,10.7-2.8c3.1,0,5.9,0.5,8.2,1.5
		c2.3,1,4.3,2.5,5.8,4.3c1.5,1.8,2.7,4,3.4,6.6c0.8,2.5,1.1,5.3,1.1,8.2V256.6z M1038.2,254.6h11.1v-29.9c0-2.8-0.4-5.3-1.1-7.7
		c-0.7-2.3-1.7-4.3-3.1-5.9c-1.3-1.6-3-2.9-5.1-3.8c-2.1-0.9-4.6-1.4-7.4-1.4c-3.8,0-7,0.8-9.7,2.5c-2.7,1.7-4.7,3.7-6.2,6l-1,1.6
		l-0.8-1.8c-1-2.3-2.7-4.3-5-6c-2.4-1.6-5.3-2.4-8.8-2.4c-3,0-5.8,0.7-8.3,2.1c-2.5,1.4-4.5,3.2-5.9,5.5l-0.3,0.5h-2.3v-6.4h-10.3
		v47h11.1v-22.8c0-2.1,0.2-4.2,0.7-6.1c0.5-1.9,1.2-3.6,2.1-5c0.9-1.4,2.1-2.6,3.5-3.4c1.4-0.9,3.1-1.3,4.9-1.3
		c4.4,0,9.6,1.9,9.6,11v27.5h11.1v-22.8c0-2.1,0.3-4.2,0.8-6.1c0.5-1.9,1.3-3.6,2.2-5c1-1.4,2.2-2.6,3.7-3.4
		c1.5-0.9,3.2-1.3,5.1-1.3c4.2,0,9.2,1.9,9.2,11V254.6z"/>
	<path class="sd0" d="M1089.2,258.2c-3.9,0-7.2-0.8-9.9-2.3c-2-1.2-3.7-2.5-4.9-4.1v4.8h-14.3V183h15.1l0,22.6l-0.5,4.5c1.2-1.4,2.7-2.7,4.6-3.8
		c2.7-1.5,6-2.3,9.9-2.3c3.3,0,6.4,0.7,9.4,2c2.9,1.3,5.6,3.2,7.8,5.6c2.2,2.4,4,5.3,5.4,8.6c1.3,3.3,2,7,2,10.9s-0.7,7.6-2,10.9
		c-1.3,3.3-3.1,6.2-5.4,8.6c-2.2,2.4-4.9,4.3-7.8,5.6C1095.7,257.5,1092.5,258.2,1089.2,258.2z M1072.4,248.7h2.4l0.3,0.5
		c1.1,1.9,2.9,3.6,5.2,4.9c2.4,1.4,5.4,2.1,8.9,2.1c3,0,5.8-0.6,8.5-1.9c2.7-1.2,5.1-3,7.2-5.2c2.1-2.2,3.7-4.9,4.9-7.9
		c1.2-3.1,1.8-6.5,1.8-10.1s-0.6-7.1-1.8-10.1c-1.2-3.1-2.9-5.7-4.9-7.9c-2.1-2.2-4.5-3.9-7.2-5.2c-2.7-1.2-5.6-1.9-8.5-1.9
		c-3.5,0-6.5,0.7-8.9,2.1c-2.4,1.4-4.1,3-5.2,4.9l-0.3,0.5h-2.5l0.9-8.1V185h-11.1v69.6h10.3V248.7z M1086.5,246.1
		c-1.9,0-3.7-0.3-5.3-1c-1.7-0.7-3.2-1.7-4.5-3c-1.3-1.3-2.3-2.9-3.1-4.7c-0.8-1.8-1.2-4-1.2-6.3c0-2.3,0.4-4.4,1.2-6.3
		c0.8-1.8,1.8-3.4,3.1-4.7c1.3-1.3,2.8-2.3,4.5-3c3.4-1.4,7.3-1.4,10.7,0.1c1.7,0.7,3.2,1.7,4.5,3c1.3,1.3,2.3,2.9,3.1,4.7
		c0.8,1.9,1.2,3.9,1.2,6.2c0,2.3-0.4,4.3-1.2,6.2c-0.8,1.8-1.8,3.4-3.1,4.7c-1.3,1.3-2.8,2.3-4.5,3
		C1090.2,245.7,1088.4,246.1,1086.5,246.1z M1086.5,218.1c-1.6,0-3.1,0.3-4.6,0.9c-1.4,0.6-2.7,1.4-3.8,2.5c-1.1,1.1-2,2.5-2.7,4.1
		c-0.7,1.6-1,3.5-1,5.5c0,2.1,0.3,3.9,1,5.5c0.7,1.6,1.6,3,2.7,4.1c1.1,1.1,2.4,2,3.8,2.5c2.9,1.2,6.3,1.2,9.1,0
		c1.4-0.6,2.7-1.5,3.8-2.6c1.1-1.1,2-2.5,2.7-4.1c0.7-1.6,1-3.4,1-5.4c0-2-0.3-3.8-1-5.4c-0.7-1.6-1.6-3-2.7-4.1
		c-1.1-1.1-2.4-2-3.8-2.6C1089.7,218.4,1088.1,218.1,1086.5,218.1z"/>
	<path class="sd0" d="M1144.3,258.2c-3.8,0-7.5-0.7-10.7-2c-3.3-1.3-6.2-3.3-8.6-5.7c-2.4-2.4-4.3-5.3-5.7-8.6c-1.3-3.3-2-6.9-2-10.8
		c0-3.6,0.7-7.2,2-10.4c1.3-3.3,3.2-6.2,5.5-8.6c2.3-2.4,5.2-4.4,8.4-5.9c3.2-1.5,6.8-2.2,10.7-2.2c4.1,0,7.7,0.7,10.9,2
		c3.2,1.4,5.9,3.3,8.1,5.7c2.1,2.4,3.8,5.3,4.9,8.5c1.1,3.2,1.7,6.8,1.7,10.5l0,1.4c-0.1,0.3-0.1,0.7-0.1,0.9l0,0.2
		c-0.1,0.3-0.1,0.6-0.1,0.9v1h-36.7c0.3,1.4,0.7,2.6,1.3,3.6c0.8,1.3,1.7,2.4,2.9,3.3c1.1,0.9,2.4,1.5,3.7,1.9
		c1.4,0.4,2.8,0.6,4.2,0.6c2.8,0,5.1-0.6,6.9-1.9c1.8-1.3,3.3-2.9,4.3-4.8l0.5-0.8l12.7,6.3l-0.5,0.9c-2.3,4.1-5.5,7.5-9.5,10
		C1155,256.9,1150,258.2,1144.3,258.2z M1143.8,206c-3.6,0-6.9,0.7-9.8,2c-3,1.3-5.6,3.2-7.7,5.4c-2.2,2.3-3.9,4.9-5.1,8
		c-1.2,3-1.8,6.3-1.8,9.7c0,3.7,0.6,7,1.9,10.1s3,5.7,5.2,7.9c2.2,2.2,4.9,4,7.9,5.2c3,1.2,6.4,1.9,10,1.9c5.3,0,9.9-1.2,13.5-3.5
		c3.4-2.2,6.2-5,8.3-8.4l-9.1-4.5c-1.2,1.8-2.7,3.4-4.5,4.7c-2.1,1.5-4.8,2.2-8,2.2c-1.6,0-3.2-0.2-4.8-0.7
		c-1.6-0.5-3.1-1.2-4.4-2.3c-1.3-1-2.5-2.3-3.3-3.9c-0.9-1.5-1.5-3.4-1.8-5.5l-0.2-1.1h37.1c0-0.1,0-0.1,0-0.2c0-0.3,0-0.7,0.1-1.1
		v-1.1c0-3.5-0.5-6.9-1.5-9.9c-1-3-2.5-5.6-4.5-7.8c-2-2.2-4.4-3.9-7.3-5.1C1151,206.6,1147.6,206,1143.8,206z M1156.7,225.8h-26.1
		l0.4-1.3c0.9-3.1,2.6-5.5,4.9-7.2c2.3-1.7,5-2.6,8-2.6c2.1,0,4,0.3,5.5,1c1.5,0.6,2.9,1.5,3.9,2.5c1.1,1,1.9,2.1,2.4,3.3
		c0.5,1.2,0.9,2.3,0.9,3.2L1156.7,225.8z M1133.4,223.8h21.1c-0.1-0.5-0.3-1-0.6-1.5c-0.4-0.9-1.1-1.9-2-2.7c-0.9-0.8-2-1.5-3.3-2.1
		c-1.3-0.5-2.9-0.8-4.8-0.8c-2.6,0-4.9,0.7-6.8,2.2C1135.4,220.1,1134.2,221.8,1133.4,223.8z"/>
	<path class="sd0" d="M1190.8,256.6h-15.1v-51h14.3v5.5c0.4-0.6,0.9-1.2,1.5-1.8c1-1.1,2.2-2,3.5-2.8c1.3-0.8,2.7-1.4,4.2-1.9
		c1.5-0.5,3.1-0.7,4.6-0.7c1.8,0,3.4,0.2,4.7,0.6c1.3,0.4,2.5,0.9,3.4,1.6l0.6,0.4l-4,13.5l-1.1-0.5c-0.7-0.4-1.5-0.7-2.4-0.9
		c-0.9-0.2-2-0.3-3.3-0.3c-1.6,0-3.1,0.3-4.5,1c-1.3,0.6-2.5,1.5-3.4,2.7c-1,1.2-1.7,2.6-2.2,4.2c-0.5,1.6-0.8,3.4-0.8,5.3V256.6z
		 M1177.7,254.6h11.1v-23.1c0-2.1,0.3-4.1,0.9-5.9c0.6-1.8,1.5-3.4,2.6-4.8c1.1-1.4,2.5-2.5,4.1-3.2c1.6-0.8,3.4-1.2,5.3-1.2
		c1.5,0,2.7,0.1,3.8,0.4c0.6,0.2,1.2,0.3,1.8,0.6l3-9.9c-0.7-0.4-1.4-0.7-2.3-0.9c-1.1-0.3-2.5-0.5-4.2-0.5c-1.3,0-2.6,0.2-3.9,0.6
		c-1.4,0.4-2.6,1-3.8,1.7c-1.2,0.7-2.2,1.5-3.2,2.5c-0.9,0.9-1.7,1.9-2.2,3l-0.3,0.6h-2.4v-6.8h-10.3V254.6z"/>
	<path class="sd0" d="M1225.3,256.6c-2.7,0-5-1-6.9-2.8c-1.9-1.9-2.8-4.2-2.8-6.9c0-2.7,1-5,2.8-6.8c1.9-1.8,4.2-2.8,6.9-2.8
		c2.7,0,5,0.9,6.8,2.8c1.9,1.9,2.8,4.1,2.8,6.8c0,2.7-0.9,5-2.8,6.9C1230.3,255.6,1228,256.6,1225.3,256.6z M1225.3,239.3
		c-2.1,0-3.9,0.7-5.5,2.2c-1.5,1.5-2.3,3.2-2.3,5.4c0,2.1,0.7,3.9,2.3,5.4c1.5,1.5,3.3,2.3,5.4,2.3c2.1,0,3.9-0.7,5.4-2.3
		c1.5-1.5,2.2-3.3,2.2-5.5c0-2.1-0.7-3.9-2.2-5.4C1229.2,240,1227.5,239.3,1225.3,239.3z M1225.3,223.7c-2.7,0-5-1-6.9-2.8
		c-1.9-1.9-2.8-4.2-2.8-6.9s1-5,2.8-6.9c1.9-1.9,4.2-2.8,6.9-2.8c2.7,0,5,1,6.8,2.8c1.8,1.9,2.8,4.2,2.8,6.9s-0.9,5-2.8,6.8
		C1230.3,222.7,1228,223.7,1225.3,223.7z M1225.3,206.3c-2.1,0-3.9,0.7-5.4,2.3c-1.5,1.5-2.3,3.3-2.3,5.4s0.7,3.9,2.3,5.4
		c1.5,1.5,3.3,2.3,5.4,2.3c2.1,0,3.9-0.7,5.4-2.3c1.5-1.5,2.2-3.3,2.2-5.4s-0.7-3.9-2.2-5.5C1229.2,207,1227.5,206.3,1225.3,206.3z"
		/>
	<path class="sd0" d="M1289.5,258.2c-3.9,0-7.6-0.7-10.8-2c-3.3-1.3-6.1-3.3-8.5-5.7c-2.4-2.4-4.3-5.3-5.6-8.6s-2-6.9-2-10.8
		c0-3.9,0.7-7.6,2-10.9c1.3-3.3,3.2-6.2,5.6-8.6c2.4-2.4,5.3-4.3,8.5-5.6c3.3-1.3,6.9-2,10.8-2c5.8,0,10.8,1.4,14.9,4.1
		c4,2.7,7,6.2,8.9,10.5l0.4,0.9l-13.8,5.8l-0.4-0.8c-1-2.1-2.4-3.7-4-4.8c-1.6-1.1-3.6-1.6-6.1-1.6c-1.6,0-3.1,0.3-4.5,0.9
		c-1.4,0.6-2.7,1.5-3.7,2.6c-1.1,1.1-1.9,2.5-2.5,4.1c-0.6,1.6-0.9,3.4-0.9,5.4c0,2,0.3,3.8,0.9,5.4c0.6,1.6,1.5,3,2.5,4.1
		c1.1,1.1,2.3,2,3.7,2.6c1.4,0.6,2.9,0.9,4.5,0.9c2.5,0,4.7-0.6,6.4-1.7c1.7-1.1,3.1-2.8,4.2-4.9l0.4-0.9l13.9,6l-0.5,1
		c-2.2,4.3-5.3,7.8-9.3,10.5C1300.5,256.8,1295.5,258.2,1289.5,258.2z M1289.5,206c-3.7,0-7,0.6-10.1,1.9c-3,1.2-5.7,3-7.9,5.2
		c-2.2,2.2-3.9,4.9-5.2,7.9c-1.2,3.1-1.9,6.5-1.9,10.1s0.6,7,1.9,10.1c1.2,3,3,5.7,5.2,7.9c2.2,2.2,4.8,4,7.9,5.2
		c3,1.2,6.4,1.9,10.1,1.9c5.5,0,10.1-1.3,13.8-3.8c3.4-2.3,6.1-5.3,8.1-8.8l-10.1-4.4c-1.2,2.1-2.7,3.7-4.5,4.9
		c-2.1,1.3-4.6,2-7.5,2c-1.9,0-3.6-0.4-5.3-1.1c-1.6-0.7-3.1-1.7-4.4-3c-1.3-1.3-2.3-2.9-3-4.7c-0.7-1.8-1.1-3.9-1.1-6.2
		c0-2.2,0.4-4.3,1.1-6.2c0.7-1.9,1.7-3.4,3-4.7c1.3-1.3,2.7-2.3,4.4-3c1.7-0.7,3.4-1.1,5.3-1.1c2.9,0,5.3,0.6,7.2,1.9
		c1.7,1.1,3.1,2.7,4.3,4.7l10.2-4.3c-1.7-3.5-4.3-6.5-7.7-8.7C1299.6,207.3,1295,206,1289.5,206z"/>
	<path class="sd0" d="M1343.5,258.2c-3.9,0-7.6-0.7-10.8-2c-3.3-1.3-6.1-3.2-8.5-5.6c-2.4-2.4-4.3-5.3-5.6-8.6c-1.3-3.3-2-7-2-10.9
		s0.7-7.6,2-10.9c1.3-3.3,3.2-6.2,5.6-8.6c2.4-2.4,5.3-4.3,8.5-5.6c3.3-1.3,6.9-2,10.8-2c3.9,0,7.6,0.7,10.8,2
		c3.3,1.3,6.1,3.2,8.5,5.6c2.4,2.4,4.3,5.3,5.6,8.6c1.3,3.3,2,7,2,10.9s-0.7,7.6-2,10.9c-1.3,3.3-3.2,6.2-5.6,8.6s-5.3,4.3-8.5,5.6
		S1347.5,258.2,1343.5,258.2z M1343.5,206c-3.7,0-7,0.6-10.1,1.9c-3,1.2-5.7,3-7.9,5.2c-2.2,2.2-3.9,4.9-5.2,7.9
		c-1.2,3.1-1.9,6.5-1.9,10.1s0.6,7.1,1.9,10.1c1.2,3.1,3,5.7,5.2,7.9c2.2,2.2,4.8,3.9,7.9,5.2c3,1.2,6.4,1.9,10.1,1.9
		c3.7,0,7-0.6,10.1-1.9c3-1.2,5.7-3,7.9-5.2c2.2-2.2,3.9-4.9,5.2-7.9c1.2-3.1,1.9-6.5,1.9-10.1s-0.6-7.1-1.9-10.1
		c-1.2-3.1-3-5.7-5.2-7.9s-4.8-3.9-7.9-5.2C1350.6,206.6,1347.2,206,1343.5,206z M1343.5,246.1c-1.9,0-3.6-0.3-5.3-1
		c-1.6-0.7-3.1-1.7-4.4-3c-1.3-1.3-2.3-2.9-3.1-4.7c-0.7-1.8-1.1-4-1.1-6.3c0-2.3,0.4-4.4,1.1-6.3c0.7-1.9,1.8-3.4,3.1-4.7
		c1.3-1.3,2.8-2.3,4.4-3c3.2-1.3,7.1-1.4,10.5,0c1.7,0.7,3.2,1.7,4.5,3c1.3,1.3,2.3,2.9,3.1,4.7c0.7,1.8,1.1,4,1.1,6.3
		c0,2.3-0.4,4.4-1.1,6.3c-0.7,1.9-1.8,3.4-3.1,4.7c-1.3,1.3-2.8,2.3-4.5,3C1347.1,245.8,1345.3,246.1,1343.5,246.1z M1343.5,218.1
		c-1.6,0-3.1,0.3-4.5,0.9c-1.4,0.6-2.7,1.4-3.8,2.5c-1.1,1.1-2,2.5-2.6,4.1c-0.6,1.6-1,3.5-1,5.5c0,2.1,0.3,3.9,1,5.5
		c0.6,1.6,1.5,3,2.6,4.1c1.1,1.1,2.4,2,3.8,2.5c2.7,1.1,6.1,1.2,9,0c1.4-0.6,2.7-1.4,3.8-2.5c1.1-1.1,2-2.5,2.6-4.1
		c0.6-1.6,1-3.5,1-5.5c0-2.1-0.3-3.9-1-5.5c-0.6-1.6-1.5-3-2.6-4.1c-1.1-1.1-2.4-1.9-3.8-2.5
		C1346.6,218.4,1345.1,218.1,1343.5,218.1z"/>
	<path class="sd0" d="M1424.5,256.6h-15.1v-29.1c0-3.3-0.7-5.7-2.1-7.2c-1.4-1.5-3.4-2.2-6.1-2.2c-1.6,0-3.1,0.3-4.3,1c-1.2,0.7-2.3,1.6-3.2,2.8
		c-0.9,1.2-1.6,2.6-2,4.3c-0.5,1.7-0.7,3.5-0.7,5.4v25h-15.1v-51h14.3v5.4c1.5-1.9,3.3-3.5,5.5-4.7c2.7-1.5,5.9-2.3,9.4-2.3
		c3.2,0,6,0.5,8.5,1.6c2.5,1.1,4.5,2.6,6.1,4.5c1.6,1.9,2.8,4.3,3.6,6.9c0.8,2.7,1.2,5.6,1.2,8.8V256.6z M1411.4,254.6h11.1v-28.7
		c0-3-0.4-5.8-1.1-8.3c-0.7-2.4-1.8-4.5-3.2-6.3c-1.4-1.7-3.2-3-5.4-4c-2.2-0.9-4.8-1.4-7.7-1.4c-3.1,0-6,0.7-8.4,2
		c-2.4,1.3-4.4,3.2-5.8,5.5l-0.3,0.5h-2.4v-6.4h-10.3v47h11.1v-23c0-2.1,0.3-4.1,0.8-5.9c0.5-1.9,1.3-3.5,2.4-4.9
		c1-1.4,2.3-2.5,3.8-3.4c1.5-0.8,3.3-1.3,5.2-1.3c3.3,0,5.8,1,7.6,2.9c1.7,1.9,2.6,4.8,2.6,8.5V254.6z"/>
	<path class="sd0" d="M1453,256.6h-15.1v-37.8h-8.8v-13.2h8.8v-3.8c0-3.1,0.5-5.9,1.4-8.3c1-2.4,2.3-4.5,4.1-6.2c1.8-1.7,3.9-2.9,6.2-3.8
		c2.4-0.9,5-1.3,7.8-1.3c1.9,0,3.7,0.2,5.4,0.5c1.7,0.3,3.2,0.8,4.5,1.4l0.8,0.4l-4.3,13.7l-1-0.5c-0.6-0.3-1.3-0.5-2-0.7
		c-0.7-0.2-1.6-0.3-2.6-0.3c-1.7,0-2.9,0.5-3.9,1.5c-1,1.1-1.4,2.5-1.4,4.5v3h12.2v13.2H1453V256.6z M1439.9,254.6h11.1v-37.8h12.2
		v-9.2H1451v-5c0-2.4,0.7-4.4,2-5.8c1.3-1.4,3.1-2.2,5.3-2.2c1.2,0,2.3,0.1,3.1,0.3c0.4,0.1,0.9,0.3,1.3,0.4l3.1-9.7
		c-1-0.4-2.1-0.7-3.3-0.9c-1.5-0.3-3.2-0.5-5-0.5c-2.6,0-5,0.4-7.2,1.2c-2.1,0.8-4,1.9-5.6,3.4c-1.5,1.5-2.8,3.3-3.6,5.4
		c-0.9,2.2-1.3,4.7-1.3,7.6v5.8h-8.8v9.2h8.8V254.6z"/>
	<path class="sd0" d="M1493.2,258.2c-3.8,0-7.5-0.7-10.7-2c-3.3-1.3-6.2-3.3-8.6-5.7c-2.4-2.4-4.3-5.3-5.7-8.6c-1.3-3.3-2-6.9-2-10.8
		c0-3.6,0.7-7.2,2-10.4c1.3-3.3,3.2-6.2,5.5-8.6c2.3-2.4,5.2-4.4,8.4-5.9c3.2-1.5,6.8-2.2,10.7-2.2c4.1,0,7.7,0.7,10.9,2
		c3.2,1.4,5.9,3.3,8.1,5.7c2.1,2.4,3.8,5.3,4.9,8.5c1.1,3.2,1.7,6.8,1.7,10.5l0,1.4c-0.1,0.3-0.1,0.7-0.1,0.9l0,0.2
		c-0.1,0.3-0.1,0.6-0.1,0.9v1h-36.7c0.3,1.4,0.7,2.6,1.3,3.6c0.8,1.3,1.7,2.4,2.9,3.3c1.1,0.9,2.4,1.5,3.7,1.9
		c1.4,0.4,2.8,0.6,4.2,0.6c2.8,0,5.1-0.6,6.9-1.9c1.8-1.3,3.3-2.9,4.3-4.8l0.5-0.8l12.7,6.3l-0.5,0.9c-2.3,4.1-5.5,7.5-9.5,10
		C1503.8,256.9,1498.9,258.2,1493.2,258.2z M1492.7,206c-3.6,0-6.9,0.7-9.8,2c-3,1.3-5.6,3.2-7.7,5.4c-2.2,2.3-3.9,4.9-5.1,8
		c-1.2,3-1.8,6.3-1.8,9.7c0,3.7,0.6,7,1.9,10.1s3,5.7,5.2,7.9c2.2,2.2,4.9,4,7.9,5.2c3,1.2,6.4,1.9,10,1.9c5.3,0,9.9-1.2,13.5-3.5
		c3.4-2.2,6.2-5,8.3-8.4l-9.1-4.5c-1.2,1.8-2.7,3.4-4.5,4.7c-2.1,1.5-4.8,2.2-8,2.2c-1.6,0-3.2-0.2-4.8-0.7
		c-1.6-0.5-3.1-1.2-4.4-2.3c-1.3-1-2.5-2.3-3.3-3.9c-0.9-1.5-1.5-3.4-1.8-5.5l-0.2-1.1h37.1c0-0.1,0-0.1,0-0.2c0-0.3,0-0.7,0.1-1.1
		v-1.1c0-3.5-0.5-6.9-1.5-9.9c-1-3-2.5-5.6-4.5-7.8c-2-2.2-4.4-3.9-7.3-5.1C1499.9,206.6,1496.5,206,1492.7,206z M1505.6,225.8
		h-26.1l0.4-1.3c0.9-3.1,2.6-5.5,4.9-7.2c2.3-1.7,5-2.6,8-2.6c2.1,0,4,0.3,5.5,1c1.5,0.6,2.9,1.5,3.9,2.5c1.1,1,1.9,2.1,2.4,3.3
		c0.5,1.2,0.9,2.3,0.9,3.2L1505.6,225.8z M1482.3,223.8h21.1c-0.1-0.5-0.3-1-0.6-1.5c-0.4-0.9-1.1-1.9-2-2.7c-0.9-0.8-2-1.5-3.3-2.1
		c-1.3-0.5-2.9-0.8-4.8-0.8c-2.6,0-4.9,0.7-6.8,2.2C1484.3,220.1,1483.1,221.8,1482.3,223.8z"/>
	<path class="sd0" d="M1539.7,256.6h-15.1v-51h14.3v5.5c0.4-0.6,0.9-1.2,1.5-1.8c1-1.1,2.2-2,3.5-2.8c1.3-0.8,2.7-1.4,4.2-1.9
		c1.5-0.5,3.1-0.7,4.6-0.7c1.8,0,3.4,0.2,4.7,0.6c1.3,0.4,2.5,0.9,3.4,1.6l0.6,0.4l-4,13.5l-1.1-0.5c-0.7-0.4-1.5-0.7-2.4-0.9
		c-0.9-0.2-2-0.3-3.3-0.3c-1.6,0-3.1,0.3-4.5,1c-1.3,0.6-2.5,1.5-3.4,2.7c-1,1.2-1.7,2.6-2.2,4.2c-0.5,1.6-0.8,3.4-0.8,5.3V256.6z
		 M1526.6,254.6h11.1v-23.1c0-2.1,0.3-4.1,0.9-5.9c0.6-1.8,1.5-3.4,2.6-4.8c1.1-1.4,2.5-2.5,4.1-3.2c1.6-0.8,3.4-1.2,5.3-1.2
		c1.5,0,2.7,0.1,3.8,0.4c0.6,0.2,1.2,0.3,1.8,0.6l3-9.9c-0.7-0.4-1.4-0.7-2.3-0.9c-1.1-0.3-2.5-0.5-4.2-0.5c-1.3,0-2.6,0.2-3.9,0.6
		c-1.4,0.4-2.6,1-3.8,1.7c-1.2,0.7-2.2,1.5-3.2,2.5c-0.9,0.9-1.7,1.9-2.2,3l-0.3,0.6h-2.4v-6.8h-10.3V254.6z"/>
	<path class="sd0" d="M1586.5,258.2c-3.8,0-7.5-0.7-10.7-2c-3.3-1.3-6.2-3.3-8.6-5.7c-2.4-2.4-4.3-5.3-5.7-8.6c-1.3-3.3-2-6.9-2-10.8
		c0-3.6,0.7-7.2,2-10.4c1.3-3.3,3.2-6.2,5.5-8.6c2.3-2.4,5.2-4.4,8.4-5.9c3.2-1.5,6.8-2.2,10.7-2.2c4.1,0,7.7,0.7,10.9,2
		c3.2,1.4,5.9,3.3,8.1,5.7c2.1,2.4,3.8,5.3,4.9,8.5c1.1,3.2,1.7,6.8,1.7,10.5l0,1.4c-0.1,0.3-0.1,0.7-0.1,0.9l0,0.2
		c-0.1,0.3-0.1,0.6-0.1,0.9v1h-36.7c0.3,1.4,0.7,2.6,1.3,3.6c0.8,1.3,1.7,2.4,2.9,3.3c1.1,0.9,2.4,1.5,3.7,1.9
		c1.4,0.4,2.8,0.6,4.2,0.6c2.8,0,5.1-0.6,6.9-1.9c1.8-1.3,3.3-2.9,4.3-4.8l0.5-0.8l12.7,6.3l-0.5,0.9c-2.3,4.1-5.5,7.5-9.5,10
		C1597.1,256.9,1592.2,258.2,1586.5,258.2z M1586,206c-3.6,0-6.9,0.7-9.8,2c-3,1.3-5.6,3.2-7.7,5.4c-2.2,2.3-3.9,4.9-5.1,8
		c-1.2,3-1.8,6.3-1.8,9.7c0,3.7,0.6,7,1.9,10.1s3,5.7,5.2,7.9c2.2,2.2,4.9,4,7.9,5.2c3,1.2,6.4,1.9,10,1.9c5.3,0,9.9-1.2,13.5-3.5
		c3.4-2.2,6.2-5,8.3-8.4l-9.1-4.5c-1.2,1.8-2.7,3.4-4.5,4.7c-2.1,1.5-4.8,2.2-8,2.2c-1.6,0-3.2-0.2-4.8-0.7
		c-1.6-0.5-3.1-1.2-4.4-2.3c-1.3-1-2.5-2.3-3.3-3.9c-0.9-1.5-1.5-3.4-1.8-5.5l-0.2-1.1h37.1c0-0.1,0-0.1,0-0.2c0-0.3,0-0.7,0.1-1.1
		v-1.1c0-3.5-0.5-6.9-1.5-9.9c-1-3-2.5-5.6-4.5-7.8c-2-2.2-4.4-3.9-7.3-5.1C1593.2,206.6,1589.8,206,1586,206z M1598.9,225.8h-26.1
		l0.4-1.3c0.9-3.1,2.6-5.5,4.9-7.2c2.3-1.7,5-2.6,8-2.6c2.1,0,4,0.3,5.5,1c1.5,0.6,2.9,1.5,3.9,2.5c1.1,1,1.9,2.1,2.4,3.3
		c0.5,1.2,0.9,2.3,0.9,3.2L1598.9,225.8z M1575.6,223.8h21.1c-0.1-0.5-0.3-1-0.6-1.5c-0.4-0.9-1.1-1.9-2-2.7c-0.9-0.8-2-1.5-3.3-2.1
		c-1.3-0.5-2.9-0.8-4.8-0.8c-2.6,0-4.9,0.7-6.8,2.2C1577.6,220.1,1576.4,221.8,1575.6,223.8z"/>
	<path class="sd0" d="M1666.5,256.6h-15.1v-29.1c0-3.3-0.7-5.7-2.1-7.2c-1.4-1.5-3.4-2.2-6.1-2.2c-1.6,0-3.1,0.3-4.3,1c-1.2,0.7-2.3,1.6-3.2,2.8
		c-0.9,1.2-1.6,2.6-2,4.3c-0.5,1.7-0.7,3.5-0.7,5.4v25h-15.1v-51h14.3v5.4c1.5-1.9,3.3-3.5,5.5-4.7c2.7-1.5,5.9-2.3,9.4-2.3
		c3.2,0,6,0.5,8.5,1.6c2.5,1.1,4.5,2.6,6.1,4.5c1.6,1.9,2.8,4.3,3.6,6.9c0.8,2.7,1.2,5.6,1.2,8.8V256.6z M1653.4,254.6h11.1v-28.7
		c0-3-0.4-5.8-1.1-8.3c-0.7-2.4-1.8-4.5-3.2-6.3c-1.4-1.7-3.2-3-5.4-4c-2.2-0.9-4.8-1.4-7.7-1.4c-3.1,0-6,0.7-8.4,2
		c-2.4,1.3-4.4,3.2-5.8,5.5l-0.3,0.5h-2.4v-6.4h-10.3v47h11.1v-23c0-2.1,0.3-4.1,0.8-5.9c0.5-1.9,1.3-3.5,2.4-4.9
		c1-1.4,2.3-2.5,3.8-3.4c1.5-0.8,3.3-1.3,5.2-1.3c3.3,0,5.8,1,7.6,2.9c1.7,1.9,2.6,4.8,2.6,8.5V254.6z"/>
	<path class="sd0" d="M1699.5,258.2c-3.9,0-7.6-0.7-10.8-2c-3.3-1.3-6.1-3.3-8.5-5.7c-2.4-2.4-4.3-5.3-5.6-8.6s-2-6.9-2-10.8
		c0-3.9,0.7-7.6,2-10.9c1.3-3.3,3.2-6.2,5.6-8.6c2.4-2.4,5.3-4.3,8.5-5.6c3.3-1.3,6.9-2,10.8-2c5.8,0,10.8,1.4,14.9,4.1
		c4,2.7,7,6.2,8.9,10.5l0.4,0.9l-13.8,5.8l-0.4-0.8c-1-2.1-2.4-3.7-4-4.8c-1.6-1.1-3.6-1.6-6.1-1.6c-1.6,0-3.1,0.3-4.5,0.9
		c-1.4,0.6-2.7,1.5-3.7,2.6c-1.1,1.1-1.9,2.5-2.5,4.1c-0.6,1.6-0.9,3.4-0.9,5.4c0,2,0.3,3.8,0.9,5.4c0.6,1.6,1.5,3,2.5,4.1
		c1.1,1.1,2.3,2,3.7,2.6c1.4,0.6,2.9,0.9,4.5,0.9c2.5,0,4.7-0.6,6.4-1.7c1.7-1.1,3.1-2.8,4.2-4.9l0.4-0.9l13.9,6l-0.5,1
		c-2.2,4.3-5.3,7.8-9.3,10.5C1710.5,256.8,1705.4,258.2,1699.5,258.2z M1699.5,206c-3.7,0-7,0.6-10.1,1.9c-3,1.2-5.7,3-7.9,5.2
		c-2.2,2.2-3.9,4.9-5.2,7.9c-1.2,3.1-1.9,6.5-1.9,10.1s0.6,7,1.9,10.1c1.2,3,3,5.7,5.2,7.9c2.2,2.2,4.8,4,7.9,5.2
		c3,1.2,6.4,1.9,10.1,1.9c5.5,0,10.1-1.3,13.8-3.8c3.4-2.3,6.1-5.3,8.1-8.8l-10.1-4.4c-1.2,2.1-2.7,3.7-4.5,4.9
		c-2.1,1.3-4.6,2-7.5,2c-1.9,0-3.6-0.4-5.3-1.1c-1.6-0.7-3.1-1.7-4.4-3c-1.3-1.3-2.3-2.9-3-4.7c-0.7-1.8-1.1-3.9-1.1-6.2
		c0-2.2,0.4-4.3,1.1-6.2c0.7-1.9,1.7-3.4,3-4.7c1.3-1.3,2.7-2.3,4.4-3c1.7-0.7,3.4-1.1,5.3-1.1c2.9,0,5.3,0.6,7.2,1.9
		c1.7,1.1,3.1,2.7,4.3,4.7l10.2-4.3c-1.7-3.5-4.3-6.5-7.7-8.7C1709.6,207.3,1705,206,1699.5,206z"/>
	<path class="sd0" d="M1753.5,258.2c-3.8,0-7.5-0.7-10.7-2c-3.3-1.3-6.2-3.3-8.6-5.7c-2.4-2.4-4.3-5.3-5.7-8.6c-1.3-3.3-2-6.9-2-10.8
		c0-3.6,0.7-7.2,2-10.4c1.3-3.3,3.2-6.2,5.5-8.6c2.3-2.4,5.2-4.4,8.4-5.9c3.2-1.5,6.8-2.2,10.7-2.2c4.1,0,7.7,0.7,10.9,2
		c3.2,1.4,5.9,3.3,8.1,5.7c2.1,2.4,3.8,5.3,4.9,8.5c1.1,3.2,1.7,6.8,1.7,10.5l0,1.4c-0.1,0.3-0.1,0.7-0.1,0.9l0,0.2
		c-0.1,0.3-0.1,0.6-0.1,0.9v1h-36.7c0.3,1.4,0.7,2.6,1.3,3.6c0.8,1.3,1.7,2.4,2.9,3.3c1.1,0.9,2.4,1.5,3.7,1.9
		c1.4,0.4,2.8,0.6,4.2,0.6c2.8,0,5.1-0.6,6.9-1.9c1.8-1.3,3.3-2.9,4.3-4.8l0.5-0.8l12.7,6.3l-0.5,0.9c-2.3,4.1-5.5,7.5-9.5,10
		C1764.1,256.9,1759.2,258.2,1753.5,258.2z M1753,206c-3.6,0-6.9,0.7-9.8,2c-3,1.3-5.6,3.2-7.7,5.4c-2.2,2.3-3.9,4.9-5.1,8
		c-1.2,3-1.8,6.3-1.8,9.7c0,3.7,0.6,7,1.9,10.1s3,5.7,5.2,7.9c2.2,2.2,4.9,4,7.9,5.2c3,1.2,6.4,1.9,10,1.9c5.3,0,9.9-1.2,13.5-3.5
		c3.4-2.2,6.2-5,8.3-8.4l-9.1-4.5c-1.2,1.8-2.7,3.4-4.5,4.7c-2.1,1.5-4.8,2.2-8,2.2c-1.6,0-3.2-0.2-4.8-0.7
		c-1.6-0.5-3.1-1.2-4.4-2.3c-1.3-1-2.5-2.3-3.3-3.9c-0.9-1.5-1.5-3.4-1.8-5.5l-0.2-1.1h37.1c0-0.1,0-0.1,0-0.2c0-0.3,0-0.7,0.1-1.1
		v-1.1c0-3.5-0.5-6.9-1.5-9.9c-1-3-2.5-5.6-4.5-7.8c-2-2.2-4.4-3.9-7.3-5.1C1760.2,206.6,1756.8,206,1753,206z M1765.9,225.8h-26.1
		l0.4-1.3c0.9-3.1,2.6-5.5,4.9-7.2c2.3-1.7,5-2.6,8-2.6c2.1,0,4,0.3,5.5,1c1.5,0.6,2.9,1.5,3.9,2.5c1.1,1,1.9,2.1,2.4,3.3
		c0.5,1.2,0.9,2.3,0.9,3.2L1765.9,225.8z M1742.6,223.8h21.1c-0.1-0.5-0.3-1-0.6-1.5c-0.4-0.9-1.1-1.9-2-2.7c-0.9-0.8-2-1.5-3.3-2.1
		c-1.3-0.5-2.9-0.8-4.8-0.8c-2.6,0-4.9,0.7-6.8,2.2C1744.6,220.1,1743.4,221.8,1742.6,223.8z"/>
</g>
</svg>
