<?xml version="1.0" encoding="utf-8"?>
<!-- Generator: Adobe Illustrator 23.0.6, SVG Export Plug-In . SVG Version: 6.00 Build 0)  -->
<svg version="1.1" id="Vrstva_1" xmlns="http://www.w3.org/2000/svg" xmlns:xlink="http://www.w3.org/1999/xlink" x="0px" y="0px"
	 viewBox="0 0 900 300" style="enable-background:new 0 0 900 300;" xml:space="preserve">
	   <defs>
    <filter height="200%" id="white-text-glow" width="200%" x="-20%" y="-20%">
      <feFlood flood-color="#ffffff" flood-opacity="1" result="flood"></feFlood>
      <feComposite in="flood" in2="SourceGraphic" operator="in" result="mask"></feComposite>
      <feMorphology in="mask" operator="dilate" radius="2" result="dilated"></feMorphology>
      <feGaussianBlur in="dilated" result="blurred" stdDeviation="5"></feGaussianBlur>
      <feMerge>
        <feMergeNode in="blurred"></feMergeNode>
        <feMergeNode in="SourceGraphic"></feMergeNode>
      </feMerge>
    </filter>
  </defs>
  <style type="text/css">
  .sd0{
      filter: url(#white-text-glow);
      fill: #ffffff;
		animation: flicker 5s infinite 6s step-end;
      -webkit-animation: flicker 5s infinite 6s step-end;
  }

  @keyframes flicker {
   0% {
      opacity: 1;
   }

   3% {
      opacity: 0.4;
   }

   6% {
      opacity: 1;
   }

   7% {
      opacity: 0.4;
   }

   8% {
      opacity: 1;
   }

   9% {
      opacity: 0.4;
   }

   10% {
      opacity: 1;
   }

   100% {
      opacity: 1;
   }
   }
  </style>
<g>
	<path class="sd0" d="M127.7,148.5c-5.6,0-10.7-0.9-15.3-2.7c-4.6-1.8-8.5-4.5-11.7-8c-3.2-3.5-5.7-7.7-7.5-12.6c-1.8-4.9-2.7-10.5-2.7-16.8v-57
		h19.6v58.1c0,3,0.4,5.8,1.1,8.3c0.7,2.5,1.9,4.6,3.3,6.4c1.5,1.8,3.3,3.2,5.5,4.2c2.2,1,4.8,1.5,7.6,1.5c3,0,5.6-0.5,7.8-1.5
		c2.2-1,4-2.4,5.5-4.2c1.5-1.8,2.6-4,3.3-6.4c0.7-2.5,1.1-5.3,1.1-8.3V51.3H165v57c0,5.9-0.9,11.4-2.6,16.3
		c-1.7,4.9-4.2,9.2-7.5,12.7c-3.2,3.5-7.2,6.3-11.8,8.2C138.6,147.5,133.4,148.5,127.7,148.5z M92.6,53.3v55c0,6,0.9,11.4,2.5,16.1
		c1.7,4.7,4.1,8.7,7.1,11.9c3,3.3,6.7,5.8,11,7.5c4.3,1.7,9.2,2.6,14.5,2.6c5.4,0,10.3-0.9,14.6-2.8c4.3-1.8,8-4.4,11.1-7.8
		c3.1-3.3,5.4-7.3,7.1-12c1.6-4.7,2.5-9.9,2.5-15.6v-55h-15.5v56.1c0,3.2-0.4,6.2-1.2,8.9c-0.8,2.7-2.1,5.1-3.7,7.1
		c-1.6,2-3.7,3.6-6.2,4.8c-2.5,1.1-5.4,1.7-8.6,1.7c-3.2,0-6-0.6-8.5-1.7c-2.5-1.1-4.6-2.7-6.2-4.8c-1.6-2-2.9-4.4-3.7-7.1
		c-0.8-2.7-1.2-5.7-1.2-8.9V53.3H92.6z"/>
	<path class="sd0" d="M240.1,146.4h-19v-37.5c0-4.1-1-7.3-2.9-9.4c-1.9-2.1-4.5-3.1-8-3.1c-2.2,0-4.1,0.5-5.8,1.4c-1.7,0.9-3.1,2.2-4.3,3.8
		c-1.2,1.6-2.1,3.6-2.7,5.7c-0.6,2.2-0.9,4.6-0.9,7.1v32.1h-19V51.3h19v27.1l-0.9,9.5c1.8-2.5,4.2-4.6,7.2-6.3c3.6-2,7.6-3.1,12-3.1
		c8.5,0,14.9,2.6,19,7.6c4.1,5,6.1,11.9,6.1,20.5V146.4z M223.1,144.4h15v-37.6c0-8.1-1.9-14.6-5.7-19.3c-3.7-4.6-9.6-6.9-17.5-6.9
		c-4.1,0-7.8,0.9-11,2.8c-3.3,1.9-5.8,4.3-7.5,7.1l-0.3,0.5h-2.7l1.1-12.7l0-25h-15v91.1h15v-30.1c0-2.7,0.3-5.2,1-7.6
		c0.7-2.4,1.7-4.5,3-6.4c1.3-1.8,3-3.3,4.9-4.4c2-1.1,4.2-1.6,6.7-1.6c4,0,7.2,1.3,9.5,3.8c2.2,2.5,3.4,6.1,3.4,10.7V144.4z"/>
	<path class="sd0" d="M283.3,148.5c-5,0-9.6-0.9-13.8-2.6c-4.2-1.7-7.9-4.2-11.1-7.3c-3.1-3.1-5.6-6.8-7.3-11.1c-1.7-4.2-2.6-8.9-2.6-14
		c0-4.7,0.9-9.2,2.5-13.4c1.7-4.2,4.1-8,7.1-11.1c3-3.2,6.6-5.7,10.8-7.6c4.1-1.9,8.8-2.8,13.7-2.8c5.2,0,9.9,0.9,14,2.6
		c4.1,1.7,7.6,4.2,10.4,7.3c2.8,3.1,4.9,6.8,6.3,10.9c1.4,4.2,2.1,8.7,2.1,13.6l0,1.7c-0.1,0.5-0.1,0.9-0.1,1.3l0,0.2
		c-0.1,0.4-0.1,0.8-0.1,1.2v1h-47.8c0.4,2,1,3.7,1.8,5.2c1,1.7,2.3,3.2,3.8,4.4c1.5,1.2,3.2,2,4.9,2.6c1.8,0.5,3.7,0.8,5.6,0.8
		c3.7,0,6.7-0.8,9.1-2.5c2.4-1.7,4.3-3.8,5.7-6.4l0.5-0.8l16,7.9l-0.5,0.9c-3,5.3-7.1,9.7-12.2,13
		C297,146.8,290.7,148.5,283.3,148.5z M282.7,80.6c-4.7,0-9,0.9-12.9,2.6c-3.9,1.8-7.3,4.2-10.2,7.1c-2.8,3-5.1,6.5-6.7,10.5
		c-1.6,4-2.4,8.2-2.4,12.7c0,4.8,0.8,9.2,2.5,13.2c1.6,4,3.9,7.5,6.9,10.4c2.9,2.9,6.4,5.2,10.4,6.9c4,1.6,8.4,2.5,13.1,2.5
		c7,0,12.9-1.6,17.7-4.7c4.5-2.9,8.2-6.7,11-11.3l-12.4-6.1c-1.5,2.5-3.5,4.5-5.9,6.2c-2.7,1.9-6.2,2.8-10.3,2.8
		c-2.1,0-4.2-0.3-6.1-0.9c-2-0.6-3.9-1.6-5.6-2.9c-1.7-1.3-3.1-3-4.3-5c-1.1-2-1.9-4.3-2.3-7.1l-0.2-1.1h48.2c0-0.2,0-0.4,0.1-0.5
		c0-0.4,0-0.9,0.1-1.4V113c0-4.6-0.7-9-2-12.9c-1.3-3.9-3.3-7.4-5.9-10.2c-2.6-2.9-5.8-5.1-9.7-6.8
		C292.1,81.4,287.7,80.6,282.7,80.6z M299.1,106.3h-33.2l0.4-1.3c1.2-3.9,3.3-7,6.2-9.2c2.9-2.2,6.4-3.3,10.2-3.3
		c2.7,0,5.1,0.4,7.1,1.2c2,0.8,3.6,1.9,5,3.2c1.3,1.3,2.4,2.7,3.1,4.2c0.7,1.5,1.1,2.9,1.2,4.1L299.1,106.3z M268.6,104.3h28.2
		c-0.2-0.7-0.5-1.5-0.8-2.3c-0.6-1.3-1.5-2.5-2.6-3.6c-1.2-1.1-2.6-2.1-4.4-2.8c-1.7-0.7-3.9-1.1-6.3-1.1c-3.4,0-6.4,1-9,2.9
		C271.4,99.1,269.7,101.4,268.6,104.3z"/>
	<path class="sd0" d="M343.5,146.4h-19V51.3h19V146.4z M326.5,144.4h15V53.3h-15V144.4z"/>
	<path class="sd0" d="M418.6,146.4h-19v-37.5c0-4.3-0.9-7.5-2.8-9.5c-1.8-2-4.6-3-8.2-3c-2.2,0-4.1,0.5-5.7,1.4c-1.6,0.9-3.1,2.2-4.2,3.8
		c-1.2,1.6-2.1,3.5-2.7,5.7c-0.6,2.2-0.9,4.6-0.9,7.1v32.2h-19V80.7h18v7.6c2-2.8,4.5-5,7.6-6.7c3.5-1.9,7.6-2.9,12.1-2.9
		c4.1,0,7.8,0.7,10.9,2c3.2,1.4,5.8,3.3,7.9,5.8c2,2.5,3.6,5.5,4.6,8.9c1,3.4,1.5,7.3,1.5,11.4V146.4z M401.6,144.4h15v-37.6
		c0-4-0.5-7.6-1.5-10.8c-1-3.2-2.4-6-4.2-8.2c-1.8-2.2-4.2-4-7.1-5.2c-2.9-1.2-6.3-1.9-10.1-1.9c-4.1,0-7.9,0.9-11.1,2.7
		c-3.2,1.8-5.8,4.2-7.7,7.3l-0.3,0.5H372v-8.3h-14v61.7h15v-30.2c0-2.7,0.3-5.2,1-7.6c0.7-2.4,1.7-4.5,3-6.3c1.3-1.8,3-3.2,4.9-4.3
		c1.9-1.1,4.2-1.6,6.7-1.6c4.2,0,7.4,1.2,9.6,3.6c2.2,2.4,3.3,6.1,3.3,10.9V144.4z"/>
	<path class="sd0" d="M455.2,174.5h-20.5l14.6-32.2l-27.2-61.6h21.6l15.9,38.1l15.3-38.1H496L455.2,174.5z M437.8,172.5h16.1l39-89.8h-16.8
		l-15.5,38.6h-2.3l-16.1-38.6h-17.2l26.3,59.6L437.8,172.5z M467.2,69.9h-15.5l6.1-19.7h22.5L467.2,69.9z M454.4,67.9h11.8
		l10.4-15.7h-17.3L454.4,67.9z"/>
	<path class="sd0" d="M632.2,146.4h-19v-38c0-8.1-3.2-12-9.7-12c-2.1,0-3.9,0.5-5.5,1.4c-1.6,0.9-2.9,2.2-4,3.7c-1.1,1.6-2,3.5-2.6,5.7
		c-0.6,2.2-0.9,4.7-0.9,7.3v31.9h-19v-38c0-8.1-3.3-12-10.2-12c-2,0-3.7,0.5-5.2,1.4c-1.5,0.9-2.8,2.2-3.8,3.7
		c-1.1,1.6-1.9,3.5-2.5,5.7c-0.6,2.2-0.9,4.7-0.9,7.3v31.9h-19V80.7h18v7.6c2-2.7,4.6-5,7.7-6.7c3.6-2,7.6-3,11.9-3
		c5,0,9.3,1.2,12.8,3.6c2.9,2,5.1,4.4,6.6,7.1c2-2.7,4.6-5.1,7.8-7.1c3.8-2.4,8.4-3.6,13.8-3.6c4,0,7.6,0.7,10.5,2
		c3,1.3,5.5,3.2,7.5,5.5c1.9,2.3,3.4,5.2,4.4,8.5c1,3.2,1.5,6.8,1.5,10.6V146.4z M615.2,144.4h15v-39.2c0-3.6-0.5-7-1.4-10
		c-0.9-3-2.3-5.6-4-7.8c-1.8-2.1-4-3.8-6.7-5c-2.7-1.2-6-1.8-9.7-1.8c-5,0-9.3,1.1-12.7,3.3c-3.5,2.2-6.2,4.9-8.1,7.9l-1,1.6
		l-0.8-1.8c-1.3-3.1-3.5-5.7-6.7-7.9c-3.1-2.1-7-3.2-11.7-3.2c-4,0-7.6,0.9-10.9,2.7c-3.3,1.8-5.9,4.2-7.8,7.2l-0.3,0.5h-2.6v-8.3
		h-14v61.7h15v-29.9c0-2.8,0.3-5.4,0.9-7.8c0.6-2.4,1.6-4.6,2.7-6.3c1.2-1.8,2.7-3.3,4.5-4.3c1.8-1.1,3.9-1.6,6.2-1.6
		c5.6,0,12.2,2.4,12.2,14v36h15v-29.9c0-2.8,0.3-5.4,1-7.8c0.7-2.4,1.6-4.6,2.9-6.3c1.3-1.8,2.8-3.3,4.7-4.3
		c1.9-1.1,4.1-1.6,6.5-1.6c5.3,0,11.7,2.4,11.7,14V144.4z"/>
	<path class="sd0" d="M663.3,146.4h-19V51.3h19V146.4z M646.3,144.4h15V53.3h-15V144.4z"/>
	<path class="sd0" d="M701.7,174.5h-20.5l14.6-32.2l-27.2-61.6h21.6l15.9,38.1l15.3-38.1h21.2L701.7,174.5z M684.3,172.5h16.1l39-89.8h-16.8
		l-15.5,38.6h-2.3l-16.1-38.6h-17.2l26.3,59.6L684.3,172.5z M713.7,69.9h-15.5l6.1-19.7h22.5L713.7,69.9z M700.8,67.9h11.8L723,52.3
		h-17.3L700.8,67.9z"/>
	<path class="sd0" d="M810.3,146.4h-19v-37.5c0-4.3-0.9-7.5-2.8-9.5c-1.9-2-4.5-3-8.2-3c-2.2,0-4.1,0.5-5.7,1.4c-1.6,0.9-3.1,2.2-4.2,3.8
		c-1.2,1.6-2.1,3.5-2.7,5.7c-0.6,2.2-0.9,4.6-0.9,7.1v32.2h-19V80.7h18v7.6c2-2.8,4.5-5,7.6-6.7c3.5-1.9,7.6-2.9,12.1-2.9
		c4.1,0,7.8,0.7,10.9,2c3.2,1.4,5.8,3.3,7.9,5.8c2,2.5,3.6,5.5,4.6,8.9c1,3.4,1.5,7.3,1.5,11.4V146.4z M793.3,144.4h15v-37.6
		c0-4-0.5-7.6-1.5-10.8c-1-3.2-2.4-6-4.2-8.2c-1.8-2.2-4.2-4-7.1-5.2c-2.9-1.2-6.3-1.9-10.1-1.9c-4.1,0-7.9,0.9-11.1,2.7
		c-3.2,1.8-5.8,4.2-7.7,7.3l-0.3,0.5h-2.6v-8.3h-14v61.7h15v-30.2c0-2.7,0.3-5.2,1-7.6c0.7-2.4,1.7-4.5,3-6.3c1.3-1.8,3-3.2,4.9-4.3
		c1.9-1.1,4.2-1.6,6.7-1.6c4.2,0,7.4,1.2,9.6,3.6c2.2,2.4,3.3,6.1,3.3,10.9V144.4z"/>
	<path class="sd0" d="M131.3,243.6H93.9v-60h12.9v47.6h24.5V243.6z M95.9,241.6h33.5v-8.4h-24.5v-47.6h-8.9V241.6z"/>
	<path class="sd0" d="M149.1,243.6h-12.6v-41.7h12.6V243.6z M138.5,241.6h8.6v-37.7h-8.6V241.6z M142.7,198.5c-1,0-2.1-0.2-3-0.6
		c-1-0.4-1.8-1-2.5-1.7c-0.7-0.7-1.3-1.5-1.7-2.5c-0.4-0.9-0.6-2-0.6-3.1s0.2-2.1,0.6-3.1c0.4-0.9,1-1.7,1.7-2.5
		c0.7-0.7,1.6-1.3,2.5-1.7c1-0.4,2-0.6,3-0.6c2.2,0,4,0.8,5.6,2.3c1.5,1.5,2.3,3.4,2.3,5.5s-0.8,4-2.3,5.5
		C146.8,197.8,144.9,198.5,142.7,198.5z M142.7,184.9c-0.8,0-1.5,0.2-2.2,0.4c-0.7,0.3-1.3,0.7-1.9,1.2c-0.5,0.5-0.9,1.1-1.2,1.8
		c-0.3,0.7-0.4,1.4-0.4,2.3s0.1,1.6,0.4,2.3c0.3,0.7,0.7,1.3,1.2,1.8c0.5,0.5,1.2,0.9,1.9,1.2c0.7,0.3,1.5,0.4,2.2,0.4
		c1.6,0,3-0.6,4.2-1.7c1.2-1.1,1.7-2.5,1.7-4.1s-0.6-3-1.7-4.1C145.7,185.5,144.4,184.9,142.7,184.9z"/>
	<path class="sd0" d="M180.6,244.9c-3.2,0-5.9-0.6-8.1-1.9c-1.5-0.9-2.7-1.8-3.7-3v3.6h-12v-60h12.6l0,18.5l-0.3,3c0.9-1,2.1-1.9,3.4-2.6
		c2.2-1.3,4.9-1.9,8.1-1.9c2.7,0,5.2,0.6,7.7,1.7c2.4,1.1,4.5,2.6,6.4,4.6c1.8,1.9,3.3,4.3,4.4,7c1.1,2.7,1.6,5.7,1.6,8.9
		c0,3.2-0.5,6.2-1.6,8.9c-1.1,2.7-2.5,5.1-4.4,7c-1.8,1.9-4,3.5-6.4,4.6C185.8,244.3,183.2,244.9,180.6,244.9z M166.8,236.8h2.2
		l0.3,0.5c0.9,1.5,2.3,2.8,4.2,3.9c1.9,1.1,4.3,1.6,7.1,1.6c2.4,0,4.7-0.5,6.8-1.5c2.2-1,4.1-2.4,5.8-4.2c1.7-1.8,3-3.9,4-6.4
		c1-2.5,1.5-5.2,1.5-8.1c0-2.9-0.5-5.7-1.5-8.1c-1-2.5-2.3-4.6-4-6.4c-1.7-1.8-3.6-3.2-5.8-4.2c-2.2-1-4.5-1.5-6.8-1.5
		c-2.8,0-5.2,0.6-7.1,1.6c-1.9,1.1-3.3,2.4-4.2,3.9l-0.3,0.5h-2.3l0.8-6.7v-16.4h-8.6v56h8V236.8z M178.4,235.1
		c-1.5,0-3-0.3-4.4-0.8c-1.4-0.6-2.6-1.4-3.7-2.4c-1.1-1.1-1.9-2.4-2.6-3.9c-0.6-1.5-1-3.3-1-5.2c0-1.9,0.3-3.6,1-5.2
		c0.6-1.5,1.5-2.8,2.6-3.9c1.1-1.1,2.3-1.9,3.7-2.4c2.8-1.1,6-1.1,8.8,0c1.4,0.6,2.6,1.4,3.7,2.5c1.1,1.1,1.9,2.4,2.6,3.9
		c0.6,1.5,1,3.2,1,5.1c0,1.9-0.3,3.6-1,5.1c-0.6,1.5-1.5,2.8-2.6,3.9c-1.1,1.1-2.3,1.9-3.7,2.5C181.4,234.8,179.9,235.1,178.4,235.1
		z M178.4,212.4c-1.3,0-2.5,0.2-3.6,0.7c-1.1,0.5-2.2,1.1-3,2c-0.9,0.9-1.6,2-2.1,3.2c-0.5,1.3-0.8,2.7-0.8,4.4
		c0,1.6,0.3,3.1,0.8,4.4c0.5,1.3,1.3,2.4,2.1,3.2c0.9,0.9,1.9,1.5,3,2c2.3,0.9,5,0.9,7.3,0c1.1-0.5,2.2-1.2,3-2.1
		c0.9-0.9,1.6-2,2.1-3.2c0.5-1.3,0.8-2.7,0.8-4.3c0-1.6-0.3-3-0.8-4.3c-0.5-1.3-1.3-2.4-2.1-3.2s-1.9-1.6-3-2.1
		C180.8,212.6,179.6,212.4,178.4,212.4z"/>
	<path class="sd0" d="M225.2,244.9c-3.2,0-6.2-0.6-8.8-1.7c-2.7-1.1-5-2.7-7-4.6c-1.9-2-3.5-4.3-4.6-7c-1.1-2.7-1.7-5.6-1.7-8.8
		c0-3.2,0.6-6.2,1.7-8.9c1.1-2.7,2.6-5.1,4.6-7c1.9-1.9,4.3-3.5,7-4.6c2.7-1.1,5.6-1.7,8.8-1.7c4.8,0,8.9,1.1,12.1,3.3
		c3.3,2.2,5.7,5.1,7.2,8.6l0.4,0.9l-11.5,4.8l-0.4-0.8c-0.8-1.7-1.9-2.9-3.2-3.8c-1.3-0.8-2.9-1.3-4.8-1.3c-1.3,0-2.5,0.2-3.6,0.7
		c-1.1,0.5-2.1,1.2-3,2c-0.8,0.9-1.5,2-2,3.2c-0.5,1.3-0.7,2.7-0.7,4.3c0,1.6,0.3,3.1,0.7,4.3c0.5,1.3,1.2,2.4,2,3.2
		c0.9,0.9,1.8,1.6,3,2c1.1,0.5,2.3,0.7,3.6,0.7c2,0,3.7-0.5,5.1-1.3c1.4-0.9,2.5-2.2,3.3-3.9l0.4-0.9l11.6,5l-0.5,1
		c-1.8,3.5-4.3,6.4-7.6,8.6C234.1,243.7,230,244.9,225.2,244.9z M225.2,202.6c-2.9,0-5.7,0.5-8.1,1.5c-2.4,1-4.6,2.4-6.3,4.2
		c-1.8,1.8-3.2,3.9-4.2,6.4c-1,2.5-1.5,5.2-1.5,8.1s0.5,5.7,1.5,8.1c1,2.4,2.4,4.6,4.2,6.4c1.8,1.8,3.9,3.2,6.3,4.2
		c2.4,1,5.2,1.5,8.1,1.5c4.4,0,8.1-1,11.1-3c2.7-1.8,4.8-4.1,6.4-6.9l-7.9-3.4c-0.9,1.6-2.1,3-3.6,3.9c-1.7,1.1-3.8,1.7-6.2,1.7
		c-1.5,0-3-0.3-4.4-0.9c-1.4-0.6-2.6-1.4-3.6-2.5c-1-1.1-1.9-2.4-2.4-3.9c-0.6-1.5-0.9-3.2-0.9-5.1c0-1.8,0.3-3.5,0.9-5.1
		c0.6-1.5,1.4-2.8,2.4-3.9c1-1.1,2.2-1.9,3.6-2.5c1.4-0.6,2.8-0.9,4.4-0.9c2.3,0,4.3,0.5,5.9,1.6c1.3,0.9,2.5,2.1,3.4,3.7l7.9-3.3
		c-1.4-2.7-3.4-5-6.1-6.8C233.3,203.6,229.6,202.6,225.2,202.6z M230.4,196.4h-10.1l-9.8-10.8v-2h11.7l3.2,4.7l3.2-4.7h11.7v2
		L230.4,196.4z M221.2,194.4h8.3l8-8.9h-7.9l-3.2,4.8h-2l-3.2-4.8h-7.9L221.2,194.4z"/>
	<path class="sd0" d="M262.8,243.6h-12.6v-41.7h12.6V243.6z M252.2,241.6h8.6v-37.7h-8.6V241.6z M256.4,198.5c-1,0-2.1-0.2-3-0.6
		c-1-0.4-1.8-1-2.5-1.7c-0.7-0.7-1.3-1.5-1.7-2.5c-0.4-0.9-0.6-2-0.6-3.1s0.2-2.1,0.6-3.1c0.4-0.9,1-1.7,1.7-2.5
		c0.7-0.7,1.6-1.3,2.5-1.7c1-0.4,2-0.6,3-0.6c2.2,0,4,0.8,5.6,2.3c1.5,1.5,2.3,3.4,2.3,5.5s-0.8,4-2.3,5.5
		C260.5,197.8,258.6,198.5,256.4,198.5z M256.4,184.9c-0.8,0-1.5,0.2-2.2,0.4c-0.7,0.3-1.3,0.7-1.9,1.2c-0.5,0.5-0.9,1.1-1.2,1.8
		c-0.3,0.7-0.4,1.4-0.4,2.3s0.1,1.6,0.4,2.3c0.3,0.7,0.7,1.3,1.2,1.8c0.5,0.5,1.2,0.9,1.9,1.2c0.7,0.3,1.5,0.4,2.2,0.4
		c1.6,0,3-0.6,4.2-1.7c1.2-1.1,1.7-2.5,1.7-4.1s-0.6-3-1.7-4.1C259.4,185.5,258.1,184.9,256.4,184.9z"/>
	<path class="sd0" d="M289.9,244.9c-3.2,0-6.2-0.6-8.8-1.7c-2.7-1.1-5-2.7-7-4.6c-1.9-2-3.5-4.3-4.6-7c-1.1-2.7-1.7-5.6-1.7-8.8
		c0-3.2,0.6-6.2,1.7-8.9c1.1-2.7,2.6-5.1,4.6-7c1.9-1.9,4.3-3.5,7-4.6c2.7-1.1,5.6-1.7,8.8-1.7c4.8,0,8.9,1.1,12.1,3.3
		c3.3,2.2,5.7,5.1,7.2,8.6l0.4,0.9l-11.5,4.8l-0.4-0.8c-0.8-1.7-1.9-2.9-3.2-3.8c-1.3-0.8-2.9-1.3-4.8-1.3c-1.3,0-2.5,0.2-3.6,0.7
		c-1.1,0.5-2.1,1.2-3,2c-0.8,0.9-1.5,2-2,3.2c-0.5,1.3-0.7,2.7-0.7,4.3c0,1.6,0.3,3.1,0.7,4.3c0.5,1.3,1.2,2.4,2,3.2
		c0.9,0.9,1.8,1.6,3,2c1.1,0.5,2.3,0.7,3.6,0.7c2,0,3.7-0.5,5.1-1.3c1.4-0.9,2.5-2.2,3.3-3.9l0.4-0.9l11.6,5l-0.5,1
		c-1.8,3.5-4.3,6.4-7.6,8.6C298.8,243.7,294.7,244.9,289.9,244.9z M289.9,202.6c-2.9,0-5.7,0.5-8.1,1.5c-2.4,1-4.6,2.4-6.3,4.2
		c-1.8,1.8-3.2,3.9-4.2,6.4c-1,2.5-1.5,5.2-1.5,8.1s0.5,5.7,1.5,8.1c1,2.4,2.4,4.6,4.2,6.4c1.8,1.8,3.9,3.2,6.3,4.2
		c2.4,1,5.2,1.5,8.1,1.5c4.4,0,8.1-1,11.1-3c2.7-1.8,4.8-4.1,6.4-6.9l-7.9-3.4c-0.9,1.6-2.1,3-3.6,3.9c-1.7,1.1-3.8,1.7-6.2,1.7
		c-1.5,0-3-0.3-4.4-0.9c-1.4-0.6-2.6-1.4-3.6-2.5c-1-1.1-1.9-2.4-2.4-3.9c-0.6-1.5-0.9-3.2-0.9-5.1c0-1.8,0.3-3.5,0.9-5.1
		c0.6-1.5,1.4-2.8,2.4-3.9c1-1.1,2.2-1.9,3.6-2.5c1.4-0.6,2.8-0.9,4.4-0.9c2.3,0,4.3,0.5,5.9,1.6c1.3,0.9,2.5,2.1,3.4,3.7l7.9-3.3
		c-1.4-2.7-3.4-5-6.1-6.8C298,203.6,294.3,202.6,289.9,202.6z"/>
	<path class="sd0" d="M333.6,244.9c-3.1,0-6.1-0.6-8.8-1.7c-2.7-1.1-5-2.7-7-4.6c-2-2-3.5-4.3-4.6-7c-1.1-2.7-1.7-5.6-1.7-8.8
		c0-3,0.5-5.8,1.6-8.5c1.1-2.7,2.6-5,4.5-7c1.9-2,4.2-3.6,6.8-4.8c2.6-1.2,5.6-1.8,8.7-1.8c3.3,0,6.3,0.6,8.9,1.7
		c2.6,1.1,4.8,2.7,6.6,4.6c1.8,2,3.1,4.3,4,6.9c0.9,2.6,1.3,5.5,1.3,8.6l0,1.1c0,0.3-0.1,0.5-0.1,0.7l0,0.2c0,0.2-0.1,0.4-0.1,0.7v1
		h-29.7c0.2,1,0.6,1.9,1,2.7c0.6,1,1.4,1.9,2.3,2.6c0.9,0.7,1.9,1.2,2.9,1.5c1.1,0.3,2.2,0.5,3.4,0.5c2.2,0,4-0.5,5.5-1.5
		c1.5-1,2.6-2.3,3.5-3.8l0.5-0.8l10.6,5.3l-0.5,0.9c-1.9,3.4-4.5,6.1-7.7,8.2C342.3,243.8,338.3,244.9,333.6,244.9z M333.2,202.6
		c-2.9,0-5.5,0.5-7.9,1.6c-2.4,1.1-4.5,2.5-6.2,4.4c-1.7,1.8-3.1,4-4.1,6.4c-1,2.4-1.5,5-1.5,7.8c0,2.9,0.5,5.7,1.5,8.1
		c1,2.4,2.4,4.6,4.2,6.4c1.8,1.8,3.9,3.2,6.4,4.2s5.1,1.5,8,1.5c4.3,0,7.9-1,10.8-2.8c2.7-1.7,4.9-3.9,6.5-6.6l-7-3.5
		c-0.9,1.4-2.1,2.7-3.6,3.7c-1.8,1.2-4,1.8-6.6,1.8c-1.3,0-2.7-0.2-3.9-0.6c-1.3-0.4-2.5-1-3.6-1.9c-1.1-0.9-2-1.9-2.8-3.2
		c-0.7-1.3-1.2-2.8-1.5-4.5l-0.2-1.1H352c0-0.3,0-0.6,0.1-0.9v-0.9c0-2.8-0.4-5.5-1.2-7.9c-0.8-2.4-2-4.5-3.6-6.3
		c-1.6-1.7-3.5-3.1-5.9-4.1C339,203.1,336.3,202.6,333.2,202.6z M343.9,218.6h-21.6l0.4-1.3c0.8-2.5,2.1-4.5,4-5.9
		c1.9-1.4,4.1-2.1,6.6-2.1c1.7,0,3.3,0.3,4.6,0.8c1.3,0.5,2.4,1.2,3.2,2.1c0.9,0.8,1.5,1.8,2,2.7c0.5,1,0.7,1.9,0.8,2.7L343.9,218.6
		z M325,216.6h16.5c-0.1-0.3-0.2-0.6-0.4-0.9c-0.4-0.7-0.9-1.5-1.6-2.1c-0.7-0.7-1.6-1.2-2.6-1.7c-1-0.4-2.3-0.7-3.8-0.7
		c-2.1,0-3.8,0.6-5.4,1.7C326.6,213.9,325.7,215.1,325,216.6z"/>
	<path class="sd0" d="M416.5,243.6h-12.6v-23.8c0-2.6-0.6-4.5-1.6-5.7c-1.1-1.2-2.7-1.7-4.8-1.7c-1.3,0-2.4,0.3-3.4,0.8c-1,0.6-1.8,1.3-2.5,2.2
		c-0.7,0.9-1.3,2.1-1.6,3.4c-0.4,1.3-0.6,2.8-0.6,4.3v20.4h-12.6v-41.7h12v4c1.2-1.4,2.6-2.5,4.2-3.4c2.2-1.2,4.8-1.9,7.7-1.9
		c2.6,0,4.9,0.4,7,1.3c2,0.9,3.7,2.1,5,3.7c1.3,1.6,2.3,3.5,2.9,5.7c0.6,2.2,1,4.6,1,7.2V243.6z M405.8,241.6h8.6v-23.1
		c0-2.4-0.3-4.7-0.9-6.6c-0.6-1.9-1.4-3.6-2.6-5c-1.1-1.4-2.5-2.4-4.3-3.2c-1.8-0.8-3.8-1.1-6.2-1.1c-2.5,0-4.8,0.5-6.7,1.6
		c-1.9,1.1-3.5,2.6-4.7,4.4l-0.3,0.5h-2.2v-5.2h-8v37.7h8.6v-18.4c0-1.7,0.2-3.3,0.6-4.8c0.4-1.5,1.1-2.9,1.9-4.1
		c0.9-1.2,1.9-2.1,3.1-2.8c1.3-0.7,2.7-1.1,4.3-1.1c2.7,0,4.8,0.8,6.3,2.4c1.4,1.6,2.2,3.9,2.2,7V241.6z"/>
	<path class="sd0" d="M436.4,244.9c-2.2,0-4.2-0.4-6.1-1.1c-1.9-0.7-3.6-1.7-5-3c-1.4-1.3-2.6-2.8-3.4-4.6c-0.8-1.8-1.2-3.8-1.2-5.9
		c0-2.2,0.4-4.2,1.3-6c0.9-1.8,2.1-3.3,3.7-4.6c1.5-1.3,3.4-2.2,5.5-2.9c2.1-0.6,4.3-1,6.7-1c2.7,0,4.9,0.2,6.6,0.6
		c1.1,0.3,2,0.5,2.9,0.8c-0.1-1.7-0.8-3.1-2.1-4.2c-1.5-1.2-3.3-1.8-5.6-1.8c-3.4,0-6.2,1.4-8.5,4.3l-0.6,0.7l-9.3-6.4l0.7-0.8
		c4.4-5.5,10.5-8.3,18-8.3c6.4,0,11.3,1.5,14.8,4.6c3.4,3.1,5.2,7.6,5.2,13.6v24.8h-12.4v-3.3c-1.1,1.1-2.3,2-3.6,2.9
		C441.7,244.3,439.3,244.9,436.4,244.9z M437.7,217.8c-2.2,0-4.3,0.3-6.1,0.9c-1.8,0.6-3.5,1.4-4.8,2.5c-1.3,1.1-2.4,2.4-3.1,3.9
		c-0.7,1.5-1.1,3.2-1.1,5.1c0,1.8,0.4,3.6,1,5.1c0.7,1.5,1.7,2.9,2.9,4c1.3,1.1,2.7,2,4.4,2.6c1.7,0.6,3.5,0.9,5.4,0.9
		c2.6,0,4.7-0.5,6.2-1.5c1.7-1,3.1-2.3,4.2-3.7l0.3-0.4h2.1v4.2h8.4v-22.8c0-5.3-1.5-9.4-4.5-12.1c-3-2.7-7.6-4.1-13.4-4.1
		c-6.6,0-11.8,2.2-15.8,6.7l6.1,4.1c2.6-2.8,5.8-4.3,9.5-4.3c2.7,0,5,0.8,6.9,2.3c1.9,1.6,2.9,3.6,2.9,6v2.7l-1.4-0.5
		c-1-0.4-2.4-0.8-4-1.2C442.3,218,440.2,217.8,437.7,217.8z M438.7,236.6c-1.9,0-3.7-0.6-5.2-1.7c-1.6-1.2-2.4-2.7-2.4-4.7
		c0-1.9,0.8-3.6,2.4-4.9c1.6-1.2,3.7-1.9,6.5-1.9c1.6,0,3.2,0.2,4.6,0.6c1.4,0.4,2.7,0.9,4,1.5l0.6,0.3v0.6c0,1.3-0.3,2.6-0.8,3.8
		c-0.5,1.2-1.2,2.3-2.2,3.2c-0.9,0.9-2,1.7-3.3,2.2C441.7,236.3,440.2,236.6,438.7,236.6z M440.1,225.5c-2.3,0-4.1,0.5-5.2,1.4
		c-1.1,0.9-1.7,2-1.7,3.3c0,1.3,0.5,2.3,1.6,3.1c1.2,0.9,2.5,1.3,4,1.3c1.3,0,2.4-0.2,3.5-0.7c1.1-0.5,2-1.1,2.7-1.8
		c0.7-0.7,1.3-1.6,1.7-2.6c0.3-0.8,0.5-1.6,0.6-2.4c-1-0.4-2-0.8-3.1-1.1C442.9,225.7,441.5,225.5,440.1,225.5z"/>
	<path class="sd0" d="M483.5,244.9c-2.7,0-5.3-0.6-7.7-1.7c-2.4-1.1-4.6-2.6-6.4-4.6c-1.8-1.9-3.3-4.3-4.4-7c-1.1-2.7-1.6-5.7-1.6-8.9
		s0.5-6.2,1.6-8.9c1.1-2.7,2.5-5.1,4.4-7c1.8-1.9,4-3.5,6.4-4.6c2.4-1.1,5-1.7,7.7-1.7c3.2,0,5.9,0.6,8.1,1.9
		c1.3,0.8,2.5,1.7,3.4,2.6l-0.4-3.1v-18.4h12.6v60h-12V240c-1,1.1-2.2,2.1-3.7,3C489.4,244.2,486.7,244.9,483.5,244.9z M483.5,202.6
		c-2.4,0-4.7,0.5-6.8,1.5c-2.2,1-4.1,2.4-5.8,4.2c-1.7,1.8-3,3.9-4,6.4c-1,2.5-1.5,5.2-1.5,8.1s0.5,5.7,1.5,8.1s2.3,4.6,4,6.4
		c1.7,1.8,3.6,3.2,5.8,4.2c2.2,1,4.5,1.5,6.8,1.5c2.8,0,5.2-0.6,7.1-1.6c1.9-1.1,3.3-2.4,4.2-3.9l0.3-0.5h2.2v4.8h8v-56h-8.6v16.4
		l0.8,6.7h-2.3l-0.3-0.5c-0.9-1.5-2.3-2.8-4.2-3.9C488.7,203.2,486.3,202.6,483.5,202.6z M485.7,235.1c-1.5,0-3-0.3-4.4-0.9
		c-1.4-0.6-2.6-1.4-3.7-2.5c-1.1-1.1-1.9-2.4-2.6-3.9c-0.6-1.5-1-3.2-1-5.1c0-1.9,0.3-3.6,1-5.1c0.6-1.5,1.5-2.8,2.6-3.9
		c1.1-1.1,2.3-1.9,3.7-2.5c2.8-1.2,6-1.2,8.8,0c1.4,0.6,2.6,1.4,3.7,2.4c1.1,1.1,1.9,2.4,2.6,3.9c0.6,1.5,1,3.3,1,5.2
		c0,1.9-0.3,3.6-1,5.2c-0.6,1.5-1.5,2.8-2.6,3.9c-1.1,1.1-2.3,1.9-3.7,2.4C488.7,234.8,487.2,235.1,485.7,235.1z M485.7,212.4
		c-1.3,0-2.5,0.2-3.6,0.7c-1.1,0.5-2.2,1.2-3,2.1c-0.9,0.9-1.6,2-2.1,3.2c-0.5,1.3-0.8,2.7-0.8,4.3c0,1.6,0.3,3,0.8,4.3
		c0.5,1.3,1.3,2.4,2.1,3.2c0.9,0.9,1.9,1.6,3,2.1c2.3,1,5,1,7.3,0c1.1-0.5,2.2-1.1,3-2c0.9-0.9,1.6-2,2.1-3.2
		c0.5-1.3,0.8-2.8,0.8-4.4c0-1.6-0.3-3.1-0.8-4.4c-0.5-1.3-1.3-2.4-2.1-3.2c-0.9-0.9-1.9-1.5-3-2
		C488.2,212.6,486.9,212.4,485.7,212.4z"/>
	<path class="sd0" d="M559,243.6h-12.9l-21.2-60h14l12.2,35.6l1.5,5.3l1.6-5.3l12.7-35.6h14L559,243.6z M547.5,241.6h10.1l20.4-56h-9.7
		l-12.2,34.2l-2.5,8.1h-2.1l-2.3-8.2l-11.7-34.2h-9.7L547.5,241.6z"/>
	<path class="sd0" d="M596.6,243.6H584v-60h12.6V243.6z M586,241.6h8.6v-56H586V241.6z"/>
	<path class="sd0" d="M622.6,244.9c-2.1,0-4.1-0.3-5.8-1c-1.7-0.7-3.2-1.6-4.4-2.8c-2.7-2.6-4.1-6.4-4.1-11.3V213h-7v-11.1h7v-12.1h12.6v12.1
		h9.7V213h-9.7v14.9c0,0.9,0.1,1.7,0.3,2.4c0.1,0.6,0.4,1.2,0.8,1.6c0.6,0.7,1.4,1,2.5,1c0.8,0,1.4-0.1,1.9-0.2
		c0.5-0.2,0.9-0.4,1.3-0.7l1.1-0.7l3.7,11.4l-0.8,0.4c-1.3,0.6-2.7,1.1-4.2,1.4C626.1,244.7,624.4,244.9,622.6,244.9z M603.5,211h7
		v18.8c0,4.3,1.2,7.6,3.5,9.9c1,1,2.2,1.8,3.7,2.4c1.5,0.6,3.2,0.9,5,0.9c1.6,0,3.2-0.1,4.5-0.4c1-0.2,2-0.5,3-0.9l-2.3-7.3
		c-0.2,0.1-0.4,0.2-0.6,0.3c-0.6,0.2-1.5,0.3-2.5,0.3c-1.7,0-3.1-0.6-4-1.7c-0.6-0.6-1.1-1.5-1.3-2.5c-0.2-0.9-0.3-1.8-0.3-2.9V211
		h9.7v-7.1h-9.7v-12.1h-8.6v12.1h-7V211z"/>
	<path class="sd0" d="M649.3,244.9c-2.2,0-4.2-0.4-6.1-1.1c-1.9-0.7-3.6-1.7-5-3c-1.5-1.3-2.6-2.8-3.4-4.6c-0.8-1.8-1.2-3.8-1.2-5.9
		c0-2.2,0.4-4.2,1.3-6c0.9-1.8,2.1-3.3,3.7-4.6c1.5-1.3,3.4-2.2,5.5-2.9c2.1-0.6,4.3-1,6.7-1c2.7,0,4.9,0.2,6.6,0.6
		c1.1,0.3,2,0.5,2.9,0.8c-0.1-1.7-0.8-3.1-2.1-4.2c-1.5-1.2-3.3-1.8-5.6-1.8c-3.4,0-6.2,1.4-8.5,4.3l-0.6,0.7l-9.3-6.4l0.7-0.8
		c4.4-5.5,10.5-8.3,18-8.3c6.4,0,11.3,1.5,14.8,4.6c3.4,3.1,5.2,7.6,5.2,13.6v24.8h-12.4v-3.3c-1.1,1.1-2.3,2-3.6,2.9
		C654.7,244.3,652.2,244.9,649.3,244.9z M650.7,217.8c-2.2,0-4.3,0.3-6.1,0.9c-1.8,0.6-3.5,1.4-4.8,2.5c-1.3,1.1-2.4,2.4-3.1,3.9
		c-0.7,1.5-1.1,3.2-1.1,5.1c0,1.8,0.4,3.6,1,5.1c0.7,1.5,1.7,2.9,2.9,4c1.3,1.1,2.7,2,4.4,2.6c1.7,0.6,3.5,1,5.4,1
		c2.6,0,4.7-0.5,6.2-1.5c1.7-1,3.1-2.3,4.2-3.7l0.3-0.4h2.1v4.2h8.4v-22.8c0-5.3-1.5-9.4-4.5-12.1c-3-2.7-7.6-4.1-13.4-4.1
		c-6.5,0-11.8,2.3-15.8,6.7l6,4.1c2.6-2.8,5.8-4.3,9.5-4.3c2.7,0,5,0.8,6.9,2.3c1.9,1.6,2.9,3.6,2.9,6v2.7l-1.4-0.5
		c-1-0.4-2.4-0.8-4-1.2C655.2,218,653.2,217.8,650.7,217.8z M651.6,236.6c-1.9,0-3.7-0.6-5.2-1.7c-1.6-1.2-2.4-2.7-2.4-4.7
		c0-1.9,0.8-3.6,2.4-4.9c1.6-1.2,3.7-1.9,6.5-1.9c1.6,0,3.2,0.2,4.6,0.6c1.4,0.4,2.7,0.9,4,1.5l0.6,0.3v0.6c0,1.3-0.3,2.6-0.8,3.8
		c-0.5,1.2-1.2,2.3-2.2,3.2c-0.9,0.9-2,1.7-3.3,2.2C654.6,236.3,653.2,236.6,651.6,236.6z M653,225.5c-2.3,0-4.1,0.5-5.2,1.4
		c-1.1,0.9-1.7,2-1.7,3.3c0,1.3,0.5,2.3,1.6,3.1c1.2,0.9,2.5,1.3,4,1.3c1.3,0,2.4-0.2,3.5-0.7c1.1-0.5,2-1.1,2.7-1.8
		c0.7-0.7,1.3-1.6,1.7-2.6c0.3-0.8,0.5-1.6,0.6-2.4c-1-0.4-2-0.8-3.1-1.1C655.9,225.7,654.5,225.5,653,225.5z"/>
	<path class="sd0" d="M703.1,243.6h-11.8l-17.8-41.7h14.3l9.5,24.3l9.6-24.3H721L703.1,243.6z M692.6,241.6h9.1l16.2-37.7h-9.8l-10,25.3h-1.9
		l-9.9-25.3h-9.9L692.6,241.6z"/>
	<path class="sd0" d="M742,244.9c-3.2,0-6.2-0.6-8.8-1.7c-2.7-1.1-5-2.6-7-4.6c-1.9-1.9-3.5-4.3-4.6-7c-1.1-2.7-1.7-5.7-1.7-8.9
		c0-3.2,0.6-6.2,1.7-8.9c1.1-2.7,2.6-5.1,4.6-7c1.9-1.9,4.3-3.5,7-4.6c2.7-1.1,5.6-1.7,8.8-1.7c3.2,0,6.2,0.6,8.8,1.7
		c2.7,1.1,5,2.6,7,4.6c2,2,3.5,4.3,4.6,7c1.1,2.7,1.7,5.7,1.7,8.9s-0.6,6.2-1.7,8.9c-1.1,2.7-2.6,5.1-4.6,7c-1.9,1.9-4.3,3.5-7,4.6
		C748.1,244.3,745.2,244.9,742,244.9z M742,202.6c-2.9,0-5.7,0.5-8.1,1.5c-2.4,1-4.6,2.4-6.3,4.2c-1.8,1.8-3.2,3.9-4.2,6.4
		c-1,2.5-1.5,5.2-1.5,8.1c0,2.9,0.5,5.7,1.5,8.1c1,2.5,2.4,4.6,4.2,6.4c1.8,1.8,3.9,3.2,6.3,4.2c2.4,1,5.2,1.5,8.1,1.5
		c2.9,0,5.7-0.5,8.1-1.5c2.4-1,4.6-2.4,6.3-4.2c1.8-1.8,3.2-3.9,4.2-6.4c1-2.5,1.5-5.2,1.5-8.1c0-2.9-0.5-5.7-1.5-8.1
		c-1-2.5-2.4-4.6-4.2-6.4c-1.8-1.8-3.9-3.2-6.3-4.2C747.6,203.1,744.9,202.6,742,202.6z M742,235.1c-1.5,0-3-0.3-4.4-0.8
		c-1.4-0.6-2.6-1.4-3.6-2.4c-1.1-1.1-1.9-2.4-2.5-3.9c-0.6-1.5-0.9-3.3-0.9-5.2c0-1.9,0.3-3.6,0.9-5.2c0.6-1.5,1.5-2.8,2.5-3.9
		c1.1-1.1,2.3-1.9,3.6-2.4c2.7-1.1,5.8-1.1,8.7,0c1.4,0.6,2.6,1.4,3.7,2.4c1.1,1.1,1.9,2.4,2.5,3.9c0.6,1.5,0.9,3.3,0.9,5.2
		c0,1.9-0.3,3.6-0.9,5.2c-0.6,1.5-1.5,2.8-2.5,3.9c-1.1,1.1-2.3,1.9-3.7,2.4C744.9,234.8,743.4,235.1,742,235.1z M742,212.4
		c-1.3,0-2.5,0.2-3.6,0.7s-2.1,1.1-3,2c-0.9,0.9-1.6,2-2.1,3.2c-0.5,1.3-0.8,2.8-0.8,4.4c0,1.6,0.3,3.1,0.8,4.4
		c0.5,1.3,1.2,2.4,2.1,3.2c0.9,0.9,1.9,1.6,3,2c2.2,0.9,4.8,0.9,7.1,0c1.1-0.5,2.2-1.1,3-2c0.9-0.9,1.6-2,2.1-3.2
		c0.5-1.3,0.8-2.8,0.8-4.4c0-1.6-0.3-3.1-0.8-4.4c-0.5-1.3-1.2-2.4-2.1-3.2c-0.9-0.9-1.9-1.5-3-2C744.4,212.6,743.2,212.4,742,212.4
		z"/>
	<path class="sd0" d="M784,244.9c-5.3,0-9.4-1.7-12-5c-2.6-3.2-3.9-7.6-3.9-12.9v-25.1h12.6v23.8c0,2.6,0.6,4.5,1.6,5.7c1.1,1.2,2.7,1.7,4.8,1.7
		c1.3,0,2.4-0.3,3.4-0.8c1-0.5,1.8-1.3,2.5-2.2c0.7-1,1.3-2.1,1.6-3.4c0.4-1.3,0.6-2.8,0.6-4.3v-20.4h12.6v41.7h-12v-4
		c-1.2,1.4-2.6,2.5-4.2,3.4C789.4,244.3,786.9,244.9,784,244.9z M770.1,203.9V227c0,4.9,1.2,8.8,3.5,11.7c2.3,2.9,5.7,4.2,10.4,4.2
		c2.5,0,4.8-0.5,6.7-1.6c1.9-1.1,3.5-2.5,4.7-4.4l0.3-0.5h2.2v5.2h8v-37.7h-8.6v18.4c0,1.7-0.2,3.3-0.6,4.8
		c-0.4,1.5-1.1,2.9-1.9,4.1c-0.9,1.2-1.9,2.1-3.1,2.8c-1.3,0.7-2.7,1.1-4.3,1.1c-2.7,0-4.8-0.8-6.3-2.4c-1.4-1.6-2.2-3.9-2.2-7
		v-21.8H770.1z"/>
</g>
</svg>