<?xml version="1.0" ?><!DOCTYPE svg  PUBLIC '-//W3C//DTD SVG 1.1//EN'  'http://www.w3.org/Graphics/SVG/1.1/DTD/svg11.dtd'><svg height="60px" id="Layer_1" style="enable-background:new 0 0 60 60;" version="1.1" viewBox="0 0 60 60" width="60px" xml:space="preserve" xmlns="http://www.w3.org/2000/svg" xmlns:xlink="http://www.w3.org/1999/xlink"><style type="text/css">
<![CDATA[
	.st0{fill:none;stroke:#231F20;stroke-width:1.5;stroke-linecap:round;stroke-linejoin:round;stroke-miterlimit:10;}
]]>
</style><g><g><path class="st0" d="M28.782,3.746c0.481,0.297,1.017,0.73,1.614,1.301c0.575,0.595,1.134,1.327,1.686,2.192    c0.527,0.819,0.993,1.782,1.402,2.897c0.333,1.115,0.501,2.417,0.501,3.902c-0.043,2.726-0.646,4.904-1.806,6.542    c-0.565,0.791-1.167,1.522-1.803,2.192c-0.704,0.667-1.452,1.35-2.245,2.043c-0.456,0.471-0.873,1.002-1.259,1.598    c-0.454,0.619-0.681,1.336-0.681,2.153c0,0.798,0.233,1.454,0.7,1.972c0.393,0.496,0.78,0.931,1.153,1.302l2.584,2.118    c1.605,1.316,3.013,2.757,4.224,4.345c1.14,1.612,1.733,3.718,1.783,6.316c0,3.691-1.631,6.961-4.891,9.812    c-3.377,2.95-8.256,4.472-14.63,4.569c-5.336-0.049-9.319-1.187-11.951-3.409c-2.653-2.079-3.983-4.562-3.983-7.455    c0-1.407,0.43-2.981,1.299-4.712c0.835-1.729,2.353-3.251,4.552-4.561c2.464-1.406,5.058-2.35,7.773-2.82    c2.689-0.393,4.921-0.618,6.699-0.664c-0.55-0.725-1.039-1.496-1.469-2.318c-0.501-0.797-0.749-1.758-0.749-2.875    c0-0.672,0.094-1.236,0.285-1.682c0.167-0.476,0.323-0.908,0.464-1.308c-0.864,0.098-1.681,0.15-2.444,0.15    c-4.058-0.052-7.148-1.328-9.273-3.828c-2.229-2.332-3.343-5.044-3.343-8.139c0-3.741,1.576-7.133,4.732-10.181    c2.165-1.782,4.415-2.942,6.748-3.492C18.764,1.234,20.93,1,22.949,1h15.234l-4.705,2.746H28.782z M31.723,47.596    c0-1.937-0.629-3.617-1.888-5.054c-1.337-1.362-3.421-3.032-6.259-5.017c-0.488-0.052-1.058-0.074-1.711-0.074    c-0.388-0.049-1.382,0-2.983,0.147c-1.576,0.224-3.191,0.583-4.839,1.079c-0.39,0.146-0.933,0.372-1.637,0.668    c-0.702,0.322-1.418,0.782-2.146,1.375c-0.704,0.621-1.298,1.387-1.782,2.305c-0.56,0.967-0.835,2.132-0.835,3.493    c0,2.677,1.209,4.882,3.634,6.618c2.305,1.732,5.457,2.623,9.46,2.674c3.59-0.051,6.331-0.842,8.221-2.379    C30.801,51.919,31.723,49.977,31.723,47.596z M21.105,25.266c2.004-0.073,3.676-0.795,5.011-2.162    c0.646-0.968,1.059-1.96,1.244-2.978c0.109-1.019,0.167-1.873,0.167-2.571c0-2.999-0.77-6.031-2.305-9.082    c-0.721-1.463-1.669-2.657-2.846-3.576c-1.2-0.864-2.581-1.327-4.14-1.375c-2.065,0.048-3.779,0.881-5.149,2.496    c-1.154,1.687-1.707,3.573-1.654,5.658c0,2.754,0.804,5.618,2.417,8.6c0.782,1.389,1.786,2.568,3.023,3.536    C18.105,24.783,19.516,25.266,21.105,25.266z"/><polygon class="st0" points="58.821,9.321 50.828,9.321 50.828,1.325 46.956,1.325 46.956,9.321 38.963,9.321 38.963,13.193     46.956,13.193 46.956,21.185 50.828,21.185 50.828,13.193 58.821,13.193   "/></g></g></svg>