<?xml version="1.0" ?><!DOCTYPE svg  PUBLIC '-//W3C//DTD SVG 1.1//EN'  'http://www.w3.org/Graphics/SVG/1.1/DTD/svg11.dtd'><svg height="60px" id="Layer_1" style="enable-background:new 0 0 60 60;" version="1.1" viewBox="0 0 60 60" width="60px" xml:space="preserve" xmlns="http://www.w3.org/2000/svg" xmlns:xlink="http://www.w3.org/1999/xlink"><style type="text/css">
<![CDATA[
	.st0{fill:none;stroke:#231F20;stroke-width:1.5;stroke-linecap:round;stroke-linejoin:round;stroke-miterlimit:10;}
]]>
</style><g><g><g><path class="st0" d="M43.274,23.369c4.818,10.359-2.474,22.896-15.122,21.662c-8.136-0.796-15.578-9.54-12.277-19.475     c0.207-0.628,0.649-1.316,0.987-1.977"/><path class="st0" d="M1.197,19.646v29.337C1.746,54.311,5.936,58.496,11.359,59h18.768h18.771     c5.431-0.558,9.48-5.077,10.02-9.879c0,0,0-24.745,0-29.475"/><g><path class="st0" d="M28.576,19.063c-2.217,0.268-3.408,0.747-4.516,1.412c-2.543,1.527-4.936,4.373-5.363,8.183      c-0.865,7.697,4.779,12.985,11.29,12.985c5.186,0,11.495-3.705,11.431-11.431C41.359,23.179,35.746,18.203,28.576,19.063z       M38.314,32.469c-0.945,3.893-5.268,6.838-9.738,6.21c-4.273-0.599-8.865-5.912-6.352-11.853      c0.928-2.187,3.016-4.64,7.338-4.939C34.873,21.519,39.819,26.264,38.314,32.469z"/></g></g><g><path class="st0" d="M11.197,15.681V1.536 M6.352,15.681V2.694C5.59,3.164,4.913,3.695,4.364,4.246     c-3.19,3.19-3.448,8.68-3.245,15.667h17.923c0.728-0.173,1.601-1.067,2.259-1.554c2.415-1.777,5.52-2.749,8.674-2.783h0.089     c3.153,0.034,6.259,1.006,8.673,2.783c0.658,0.486,1.53,1.381,2.257,1.554h17.925c0.079-7.058-0.054-12.477-3.247-15.667     C54.115,2.69,51.568,1.263,48.756,1H30.043h-0.051H16.584v14.681 M53.211,13.767c0,0.822-0.667,1.49-1.487,1.49h-6.2     c-0.82,0-1.487-0.668-1.487-1.49V7.567c0-0.821,0.667-1.489,1.487-1.489h6.2c0.82,0,1.487,0.668,1.487,1.489V13.767z"/></g></g></g></svg>