<?xml version="1.0" ?><!DOCTYPE svg  PUBLIC '-//W3C//DTD SVG 1.1//EN'  'http://www.w3.org/Graphics/SVG/1.1/DTD/svg11.dtd'><svg height="60px" id="Layer_1" style="enable-background:new 0 0 60 60;" version="1.1" viewBox="0 0 60 60" width="60px" xml:space="preserve" xmlns="http://www.w3.org/2000/svg" xmlns:xlink="http://www.w3.org/1999/xlink"><style type="text/css">
<![CDATA[
	.st0{fill:none;stroke:#231F20;stroke-width:1.5;stroke-linecap:round;stroke-linejoin:round;stroke-miterlimit:10;}
]]>
</style><g><path class="st0" d="M59,36.268v21.444H46.569V37.705c0-5.026-1.799-8.456-6.297-8.456   c-3.438,0-5.481,2.312-6.381,4.546c-0.328,0.799-0.412,1.912-0.412,3.032v20.884H21.046c0,0,0.166-33.885,0-37.395h12.433v5.299   c-0.024,0.041-0.057,0.083-0.081,0.122h0.081v-0.122c1.65-2.543,4.602-6.178,11.206-6.178C52.867,19.438,59,24.781,59,36.268z    M8.036,2.289C3.783,2.289,1,5.079,1,8.748c0,3.59,2.701,6.465,6.871,6.465h0.084c4.334,0,7.032-2.875,7.032-6.465   C14.906,5.079,12.29,2.289,8.036,2.289z M1.737,57.711h12.431V20.317H1.737V57.711z" id="LinkedIn_3_"/></g></svg>