<svg xmlns:rdf="http://www.w3.org/1999/02/22-rdf-syntax-ns#" xmlns="http://www.w3.org/2000/svg" xml:space="preserve" height="187.79" viewBox="0 0 595.77502 187.78751" width="595.78" version="1.1" xmlns:cc="http://creativecommons.org/ns#" xmlns:dc="http://purl.org/dc/elements/1.1/"><g transform="matrix(1.25 0 0 -1.25 0 187.79)"><g transform="scale(.1)"><path d="m1412 492.79c-49 46.137-81.5 52.563-121.23 81.664-121.61 89.055-150.94 275.68-57.59 397.35 26.69 34.785 59.89 59.325 97.25 84.145 38.82 25.8 74.22 63.23 92.56 102.12 36.84 78.1 28.09 176.85-29.07 250.56-54.39 70.13-139.92 106.71-233.36 89.5-44.07-8.11-81.15-26.34-118.55-59.72-38.42-34.31-48.22-69.53-92.193-112.62-69.347-67.97-152.49-101.29-251-94.58-48.262 3.29-88.988 14.75-137.49 42.13-52.16 29.45-72.539 64.7-112.73 73.87-41.757 9.54-88.179-2.1-116.02-34.1-37.961-43.61-32.961-84.23-16.461-136.36 15.602-49.31 28.961-97.12 31.527-149.19 2.524-51.197-3.379-102.83-17.961-152-26.5-89.82-92.06-174.2-154.85-229.78-51.75-45.82-88.336-53.13-121.51-85.15-32.263-31.14-53.24-73.91-53.24-122.28 0-83.72 60.012-153.55 139.41-168.31 62.07-11.52 121.29 16.77 139.79 22.609 128.91 40.641 290.78 35.641 407.77 1.532 96.726-28.211 180.41-78.18 258.47-141.43 37.55-30.43 66.032-71.332 105.52-99.5 101.52-72.461 276.84-86.52 388.95 57.988 75.91 97.84 94.14 266.74-27.86 381.59" fill-rule="evenodd" fill="#f46d1e"/><path d="m742 626.18c-78.813 0-135.56 71.875-135.56 149.3 0 81.758 58.43 148.92 135.56 148.92 83.234 0 135.56-74.551 135.56-148.92 0-78.617-55.821-149.3-135.56-149.3m187.9 394.42c-37.82 0-52.378-29.858-52.378-51.545v-40.102c-39.043 52.508-91.782 87.447-163.81 87.447-58.813 0-108.95-23.677-150.45-71.029-41.488-47.348-62.238-104.5-62.238-171.45 0-66.684 20.75-123.72 62.238-171.08 41.504-47.598 91.64-71.387 150.45-71.387 77.195 0 130.66 42.051 163.81 87.813v-43.145c0-19.316 15.527-50.02 51.937-50.02 35.981 0 51.164 31.329 51.164 51.543v391.41c0 33.185-28.433 51.545-50.723 51.545" fill-rule="evenodd" fill="#fff"/><g fill="#272e52"><g fill-rule="evenodd"><path d="m2943.4 1111.8c-48.12 18.93-83.82-17.28-92.61-40.57l-173.9-455.89-173.8 455.89c-8.8 23.29-44.51 59.5-92.62 40.57-51.93-20.43-49.43-69.27-40.7-91.13 0 0 144.79-380.15 191.71-503.01 26.99-70.66 79.92-85.617 115.4-85.688 35.5 0.071 88.44 15.028 115.41 85.688 46.93 122.86 191.72 503.01 191.72 503.01 8.73 21.86 11.23 70.7-40.7 91.13"/><path d="m1944 568.44c-109.18 0-187.81 99.589-187.81 206.86 0 113.28 80.94 206.33 187.81 206.33 115.33 0 187.81-103.29 187.81-206.33 0-108.93-77.33-206.86-187.81-206.86m262.49 548.62c-52.4 0-72.57-41.36-72.57-71.42v-55.554c-54.09 72.744-127.16 121.15-226.95 121.15-81.48 0-150.96-32.81-208.45-98.41-57.48-65.596-86.23-144.78-86.23-237.54 0-92.402 28.75-171.41 86.23-237.01 57.49-65.961 126.97-98.929 208.45-98.929 106.95 0 181.02 58.277 226.95 121.68v-59.777c0-26.762 21.52-69.309 71.96-69.309 49.86 0 70.88 43.43 70.88 71.418v542.28c0 46-39.39 71.42-70.27 71.42"/><path d="m3348.6 568.44c-109.18 0-187.81 99.589-187.81 206.86 0 113.28 80.94 206.33 187.81 206.33 115.33 0 187.81-103.29 187.81-206.33 0-108.93-77.33-206.86-187.81-206.86m262.49 548.62c-52.4 0-72.57-41.36-72.57-71.42v-55.554c-54.09 72.744-127.16 121.15-226.95 121.15-81.48 0-150.96-32.81-208.45-98.41-57.48-65.596-86.23-144.78-86.23-237.54 0-92.402 28.75-171.41 86.23-237.01 57.49-65.961 126.97-98.929 208.45-98.929 106.95 0 181.02 58.277 226.95 121.68v-59.777c0-26.762 21.52-69.309 71.96-69.309 49.86 0 70.88 43.43 70.88 71.418v542.28c0 46-39.39 71.42-70.27 71.42"/></g><path d="m3801.8 510.85c-16.28 8.777-28.81 27.566-28.81 52.605 0 33.809 26.29 61.367 61.38 61.367 12.52 0 23.79-3.758 32.55-8.758 63.86-42.589 130.25-63.878 190.38-63.878 65.11 0 102.68 27.558 102.68 71.386v2.5c0 51.36-70.13 66.367-147.77 90.149-97.7 27.582-206.66 70.183-206.66 196.69v2.5c0 125.25 103.95 201.65 235.47 201.65 70.13 0 144.01-20.04 207.88-53.85 21.28-11.28 36.32-31.31 36.32-57.61 0-35.077-27.55-61.385-62.62-61.385-12.52 0-20.05 2.512-30.06 7.519-53.86 27.559-108.97 45.098-155.29 45.098-58.86 0-92.68-27.562-92.68-65.137v-2.5c0-48.851 71.39-66.382 149.04-91.425 96.42-30.067 205.39-76.411 205.39-195.42v-2.5c0-139.03-107.72-207.91-245.45-207.91-83.93 0-175.36 26.289-251.75 78.911"/><path d="m4436.3 624.67v343.71h-28.89c-36.25 0-65 28.711-65 64.925 0 36.19 28.75 64.9 65 64.9h28.89v102.01c0 41.2 29.86 74.91 72.36 74.91 41.25 0 70.76-33.71 70.76-74.91v-102.01h112.99c36.25 0 66.25-28.71 66.25-64.9 0-36.214-30-64.925-66.25-64.925h-112.99v-319.96c0-58.672 34.24-82.414 85.49-82.414 17.5 0 32.5 3.75 37.5 3.75 33.75 0 63.75-27.461 63.75-62.422 0-27.472-18.75-49.933-40-58.683-32.5-11.211-63.75-17.461-103.75-17.461-111.25 0-186.11 48.672-186.11 193.49"/></g></g></g></svg>
