<?xml version="1.0" encoding="UTF-8" standalone="no"?>
<svg
   xmlns:dc="http://purl.org/dc/elements/1.1/"
   xmlns:cc="http://creativecommons.org/ns#"
   xmlns:rdf="http://www.w3.org/1999/02/22-rdf-syntax-ns#"
   xmlns:svg="http://www.w3.org/2000/svg"
   xmlns="http://www.w3.org/2000/svg"
   xmlns:sodipodi="http://sodipodi.sourceforge.net/DTD/sodipodi-0.dtd"
   xmlns:inkscape="http://www.inkscape.org/namespaces/inkscape"
   id="Layer_4"
   viewBox="0 0 1291.3924 200"
   version="1.1"
   inkscape:version="0.91 r13725"
   sodipodi:docname="gdg-pilsen.svg"
   width="1291.3925"
   height="200">
  <metadata
     id="metadata63">
    <rdf:RDF>
      <cc:Work
         rdf:about="">
        <dc:format>image/svg+xml</dc:format>
        <dc:type
           rdf:resource="http://purl.org/dc/dcmitype/StillImage" />
        <dc:title></dc:title>
      </cc:Work>
    </rdf:RDF>
  </metadata>
  <defs
     id="defs61" />
  <sodipodi:namedview
     pagecolor="#ffffff"
     bordercolor="#666666"
     borderopacity="1"
     objecttolerance="10"
     gridtolerance="10"
     guidetolerance="10"
     inkscape:pageopacity="0"
     inkscape:pageshadow="2"
     inkscape:window-width="2565"
     inkscape:window-height="706"
     id="namedview59"
     showgrid="false"
     fit-margin-top="0"
     fit-margin-left="0"
     fit-margin-right="0"
     fit-margin-bottom="0"
     inkscape:zoom="0.48036261"
     inkscape:cx="1177.2732"
     inkscape:cy="100"
     inkscape:window-x="0"
     inkscape:window-y="27"
     inkscape:window-maximized="0"
     inkscape:current-layer="XMLID_6_" />
  <style
     id="style3">.st0{fill:none;} .st1{fill:#FFC107;} .st2{fill:#0F9D58;} .st3{opacity:0.2;fill:#BF360C;enable-background:new ;} .st4{opacity:0.2;fill:#263238;enable-background:new ;} .st5{opacity:0.2;fill:#FFFFFF;enable-background:new ;} .st6{fill:url(#XMLID_91_);} .st7{fill:url(#XMLID_92_);} .st8{fill:#4285F4;} .st9{fill:#DB4437;} .st10{opacity:0.2;fill:#1A237E;enable-background:new ;} .st11{opacity:0.2;fill:#3E2723;enable-background:new ;} .st12{fill:url(#XMLID_93_);} .st13{fill:#767676;}</style>
  <g
     id="XMLID_1_">
    <g
       id="XMLID_50_">
      <g
         id="XMLID_72_">
        <path
           id="XMLID_7_"
           class="st0"
           d="M 122.5,90.6 70.1,0 0,0 57.8,100 0,200 l 70.1,0 52.4,-90.6 c 3.3,-5.8 3.3,-13 0,-18.8 z"
           inkscape:connector-curvature="0"
           style="fill:none" />
        <path
           id="XMLID_80_"
           class="st1"
           d="M 92.4,159.8 75.8,131.1 35.9,200 l 34.2,0 22.8,-39.4 z"
           inkscape:connector-curvature="0"
           style="fill:#ffc107" />
        <path
           id="XMLID_8_"
           class="st0"
           d="M 122.5,90.6 70.1,0 0,0 57.8,100 0,200 l 70.1,0 52.4,-90.6 c 3.3,-5.8 3.3,-13 0,-18.8 z"
           inkscape:connector-curvature="0"
           style="fill:none" />
        <path
           id="XMLID_39_"
           class="st2"
           d="m 57.8,100 18,31.1 L 35.9,200 0,200 Z"
           inkscape:connector-curvature="0"
           style="fill:#0f9d58" />
        <path
           id="XMLID_9_"
           class="st0"
           d="M 122.5,90.6 70.1,0 0,0 57.8,100 0,200 l 70.1,0 52.4,-90.6 c 3.3,-5.8 3.3,-13 0,-18.8 z"
           inkscape:connector-curvature="0"
           style="fill:none" />
        <path
           id="XMLID_38_"
           class="st3"
           d="m 70.1,198.4 -33.3,0 -0.9,1.6 34.2,0 22.8,-39.4 -0.5,-0.8 z"
           inkscape:connector-curvature="0"
           style="opacity:0.2;fill:#bf360c;enable-background:new" />
        <path
           id="XMLID_10_"
           class="st0"
           d="M 122.5,90.6 70.1,0 0,0 57.8,100 0,200 l 70.1,0 52.4,-90.6 c 3.3,-5.8 3.3,-13 0,-18.8 z"
           inkscape:connector-curvature="0"
           style="fill:none" />
        <path
           id="XMLID_37_"
           class="st4"
           d="M 0.9,198.4 0,200 l 35.9,0 0.9,-1.6 z"
           inkscape:connector-curvature="0"
           style="opacity:0.2;fill:#263238;enable-background:new" />
        <path
           id="XMLID_11_"
           class="st0"
           d="M 122.5,90.6 70.1,0 0,0 57.8,100 0,200 l 70.1,0 52.4,-90.6 c 3.3,-5.8 3.3,-13 0,-18.8 z"
           inkscape:connector-curvature="0"
           style="fill:none" />
        <path
           id="XMLID_36_"
           class="st5"
           d="m 0,200 0.9,0 57.4,-99.2 -0.5,-0.8 z"
           inkscape:connector-curvature="0"
           style="opacity:0.2;fill:#ffffff;enable-background:new" />
        <path
           id="XMLID_12_"
           class="st0"
           d="M 122.5,90.6 70.1,0 0,0 57.8,100 0,200 l 70.1,0 52.4,-90.6 c 3.3,-5.8 3.3,-13 0,-18.8 z"
           inkscape:connector-curvature="0"
           style="fill:none" />
        <radialGradient
           id="XMLID_91_"
           cx="255.347"
           cy="61.085999"
           r="44.264"
           gradientTransform="matrix(1.5625,0,0,-1.5625,-306.36,255.406)"
           gradientUnits="userSpaceOnUse">
          <stop
             offset="0"
             stop-color="#BF360C"
             stop-opacity=".2"
             id="stop20" />
          <stop
             offset="1"
             stop-color="#BF360C"
             stop-opacity=".02"
             id="stop22" />
        </radialGradient>
        <path
           id="XMLID_79_"
           class="st6"
           d="m 92.9,160.6 -17.1,-29.5 -4.2,7.2 z"
           inkscape:connector-curvature="0"
           style="fill:url(#XMLID_91_)" />
        <path
           id="XMLID_13_"
           class="st0"
           d="M 122.5,90.6 70.1,0 0,0 57.8,100 0,200 l 70.1,0 52.4,-90.6 c 3.3,-5.8 3.3,-13 0,-18.8 z"
           inkscape:connector-curvature="0"
           style="fill:none" />
        <radialGradient
           id="XMLID_92_"
           cx="255.222"
           cy="60.806"
           r="44.623001"
           gradientTransform="matrix(1.5625,0,0,-1.5625,-306.36,255.406)"
           gradientUnits="userSpaceOnUse">
          <stop
             offset="0"
             stop-color="#263238"
             stop-opacity=".2"
             id="stop27" />
          <stop
             offset="1"
             stop-color="#263238"
             stop-opacity=".02"
             id="stop29" />
        </radialGradient>
        <path
           id="XMLID_78_"
           class="st7"
           d="m 71.6,138.3 4.2,-7.2 -18,-31.1 -8.5,14.8 z"
           inkscape:connector-curvature="0"
           style="fill:url(#XMLID_92_)" />
        <path
           id="XMLID_14_"
           class="st0"
           d="M 122.5,90.6 70.1,0 0,0 57.8,100 0,200 l 70.1,0 52.4,-90.6 c 3.3,-5.8 3.3,-13 0,-18.8 z"
           inkscape:connector-curvature="0"
           style="fill:none" />
        <g
           id="XMLID_75_">
          <g
             id="XMLID_76_">
            <path
               id="XMLID_77_"
               class="st8"
               d="M 35.9,0 0,0 92.9,160.6 110.8,129.5 Z"
               inkscape:connector-curvature="0"
               style="fill:#4285f4" />
          </g>
        </g>
        <path
           id="XMLID_15_"
           class="st0"
           d="M 122.5,90.6 70.1,0 0,0 57.8,100 0,200 l 70.1,0 52.4,-90.6 c 3.3,-5.8 3.3,-13 0,-18.8 z"
           inkscape:connector-curvature="0"
           style="fill:none" />
        <path
           id="XMLID_35_"
           class="st9"
           d="m 122.5,109.4 c 3.4,-5.8 3.4,-13 0,-18.8 L 70.1,0 35.9,0 l 74.9,129.5 11.7,-20.1 z"
           inkscape:connector-curvature="0"
           style="fill:#db4437" />
        <path
           id="XMLID_16_"
           class="st0"
           d="M 122.5,90.6 70.1,0 0,0 57.8,100 0,200 l 70.1,0 52.4,-90.6 c 3.3,-5.8 3.3,-13 0,-18.8 z"
           inkscape:connector-curvature="0"
           style="fill:none" />
        <path
           id="XMLID_34_"
           class="st10"
           d="M 110.8,129.5 110.4,128.7 92.9,159 0.9,0 0,0 92.9,160.6 110.8,129.5 Z"
           inkscape:connector-curvature="0"
           style="opacity:0.2;fill:#1a237e;enable-background:new" />
        <path
           id="XMLID_17_"
           class="st0"
           d="M 122.5,90.6 70.1,0 0,0 57.8,100 0,200 l 70.1,0 52.4,-90.6 c 3.3,-5.8 3.3,-13 0,-18.8 z"
           inkscape:connector-curvature="0"
           style="fill:none" />
        <path
           id="XMLID_2_"
           class="st5"
           d="m 70.1,1.6 52.4,90.6 c 1.5,2.7 2.3,5.6 2.5,8.6 0.1,-3.5 -0.7,-7 -2.5,-10.2 L 70.1,0 0,0 l 0.9,1.6 69.2,0 z"
           inkscape:connector-curvature="0"
           style="opacity:0.2;fill:#ffffff;enable-background:new" />
        <path
           id="XMLID_18_"
           class="st0"
           d="M 122.5,90.6 70.1,0 0,0 57.8,100 0,200 l 70.1,0 52.4,-90.6 c 3.3,-5.8 3.3,-13 0,-18.8 z"
           inkscape:connector-curvature="0"
           style="fill:none" />
        <path
           id="XMLID_74_"
           class="st11"
           d="m 110.8,129.5 11.6,-20.1 c 1.8,-3.1 2.6,-6.7 2.5,-10.2 -0.1,3 -0.9,5.9 -2.5,8.6 l -12.1,20.9 0.5,0.8 z"
           inkscape:connector-curvature="0"
           style="opacity:0.2;fill:#3e2723;enable-background:new" />
        <path
           id="XMLID_19_"
           class="st0"
           d="M 122.5,90.6 70.1,0 0,0 57.8,100 0,200 l 70.1,0 52.4,-90.6 c 3.3,-5.8 3.3,-13 0,-18.8 z"
           inkscape:connector-curvature="0"
           style="fill:none" />
        <radialGradient
           id="XMLID_93_"
           cx="195.071"
           cy="162.46001"
           r="134.35001"
           gradientTransform="matrix(1.5625,0,0,-1.5625,-306.36,255.406)"
           gradientUnits="userSpaceOnUse">
          <stop
             offset="0"
             stop-color="#FFF"
             stop-opacity=".1"
             id="stop46" />
          <stop
             offset="1"
             stop-color="#FFF"
             stop-opacity="0"
             id="stop48" />
        </radialGradient>
        <path
           id="XMLID_73_"
           class="st12"
           d="M 122.5,90.6 70.1,0 0,0 57.8,100 0,200 l 70.1,0 52.4,-90.6 c 3.3,-5.8 3.3,-13 0,-18.8 z"
           inkscape:connector-curvature="0"
           style="fill:url(#XMLID_93_)" />
      </g>
    </g>
  </g>
  <g
     id="XMLID_6_">
    <path
       id="XMLID_3_"
       class="st13"
       d="m 359.9,104.4 c 0,22 -6.5,39.6 -19.6,52.7 -14.8,15.6 -34.1,23.4 -57.9,23.4 -22.8,0 -42.1,-7.9 -58.1,-23.7 -15.9,-15.8 -23.9,-35.4 -23.9,-58.7 0,-23.3 8,-42.9 23.9,-58.7 15.9,-15.8 35.3,-23.7 58.1,-23.7 11.3,0 22.1,2.2 32.4,6.6 10.3,4.4 18.5,10.3 24.7,17.6 L 325.6,53.8 C 315.1,41.2 300.7,35 282.3,35 265.7,35 251.3,40.8 239.2,52.5 227.1,64.2 221,79.3 221,98 c 0,18.7 6.1,33.8 18.2,45.5 12.1,11.7 26.5,17.5 43.1,17.5 17.6,0 32.3,-5.9 44.1,-17.6 7.6,-7.6 12,-18.3 13.2,-31.9 l -57.3,0 0,-19 76.4,0 c 0.8,4.1 1.2,8.1 1.2,11.9 z"
       inkscape:connector-curvature="0"
       style="fill:#767676" />
    <path
       id="XMLID_20_"
       class="st13"
       d="m 380.3,176.9 0,-157.8 48.2,0 c 24.2,0 43.6,7.3 58.2,21.9 14.5,14.6 21.8,33.6 21.8,57 0,23.4 -7.3,42.3 -21.8,57 -14.5,14.6 -33.9,21.9 -58.2,21.9 l -48.2,0 z m 20.3,-19.4 28,0 c 18.2,0 32.6,-5.2 43.3,-15.6 10.6,-10.4 16,-25 16,-43.8 0,-18.7 -5.3,-33.2 -16,-43.7 C 461.2,43.9 446.8,38.6 428.6,38.6 l -28,0 0,118.9 z"
       inkscape:connector-curvature="0"
       style="fill:#767676" />
    <path
       id="XMLID_23_"
       class="st13"
       d="m 681,104.4 c 0,22 -6.5,39.6 -19.6,52.7 -14.8,15.6 -34.1,23.4 -57.9,23.4 -22.8,0 -42.1,-7.9 -58.1,-23.7 -15.9,-15.8 -23.9,-35.4 -23.9,-58.7 0,-23.3 8,-42.9 23.9,-58.7 15.9,-15.8 35.3,-23.7 58.1,-23.7 11.3,0 22.1,2.2 32.4,6.6 10.3,4.4 18.5,10.3 24.7,17.6 L 646.7,53.8 C 636.2,41.2 621.8,35 603.4,35 c -16.6,0 -31,5.8 -43.1,17.5 -12.1,11.7 -18.2,26.8 -18.2,45.5 0,18.7 6.1,33.8 18.2,45.5 12.1,11.7 26.5,17.5 43.1,17.5 17.6,0 32.3,-5.9 44.1,-17.6 7.6,-7.6 12,-18.3 13.2,-31.9 l -57.3,0 0,-19 76.4,0 c 0.8,4.1 1.2,8.1 1.2,11.9 z"
       inkscape:connector-curvature="0"
       style="fill:#767676" />
    <text
       xml:space="preserve"
       style="font-style:normal;font-weight:normal;font-size:40px;line-height:125%;font-family:sans-serif;letter-spacing:0px;word-spacing:0px;fill:#767676;fill-opacity:1;stroke:none;stroke-width:1px;stroke-linecap:butt;stroke-linejoin:miter;stroke-opacity:1"
       x="742.14777"
       y="177.75"
       id="text4191"
       sodipodi:linespacing="125%"><tspan
         sodipodi:role="line"
         id="tspan4193"
         x="742.14777"
         y="177.75"
         style="font-style:normal;font-variant:normal;font-weight:normal;font-stretch:normal;font-size:222.5px;font-family:'Product Sans';-inkscape-font-specification:'Product Sans';fill:#767676;fill-opacity:1">Pilsen</tspan></text>
  </g>
</svg>
