<?xml version="1.0" encoding="utf-8"?>
<!-- Generator: Adobe Illustrator 15.1.0, SVG Export Plug-In . SVG Version: 6.00 Build 0)  -->
<!DOCTYPE svg PUBLIC "-//W3C//DTD SVG 1.1//EN" "http://www.w3.org/Graphics/SVG/1.1/DTD/svg11.dtd">
<svg version="1.1" id="Vrstva_1" xmlns="http://www.w3.org/2000/svg" xmlns:xlink="http://www.w3.org/1999/xlink" x="0px" y="0px"
	 width="700px" height="613.492px" viewBox="0 0 700 613.492" enable-background="new 0 0 700 613.492" xml:space="preserve">
<path d="M214.444,189.362V94.188c0-38.846-15.15-55.158-52.052-55.158c-26.804,0-47.788,15.146-58.274,38.838V57.896L70.715,77.178
	v112.185c0,4.268-1.622,6.989-5.051,6.989h-14.37v9.713h75.745v-9.713h-17.869c-3.646,0-5.051-1.945-5.051-6.989V120.99
	c1.55-41.954,20.978-69.532,50.889-69.532c23.694,0,26.028,16.702,26.028,49.723v88.182c0,4.268-1.7,6.989-5.053,6.989h-17.867
	v9.713h75.75v-9.713h-14.377C215.996,196.352,214.444,194.406,214.444,189.362z"/>
<g>
	<path d="M328.537,394.508c-3.491,0-3.537-1.563-3.537-6.606v-95.174c0-38.846-15.904-55.158-52.809-55.158
		c-26.802,0-48.166,15.146-58.648,38.839c-0.019,0.038-0.414,0.514-0.77,1.365c-3.751-28.114-19.126-40.204-50.878-40.204
		c-26.704,0-46.896,15.04-57.896,38.587c0-7.239,0-31.648,0-35.648H50v12h14.727c3.102,0,4.273,1.763,4.273,6.033v129.36
		c0,0.284,0,0.027,0-0.675v0.675c0,4.268-0.851,6.606-4.281,6.606H50v10h75v-10h-16.775c-3.645,0-4.225-1.563-4.225-6.606v-68.372
		c2-41.954,20.018-69.532,49.931-69.532c23.692,0,25.069,16.702,25.069,49.723v88.182c0,4.268-0.61,6.606-3.961,6.606H157v10h79v-10
		h-17.455c-3.494,0-4.545-1.563-4.545-6.606v-73.987c4-38.776,21.708-63.917,50.263-63.917c23.693,0,25.737,16.702,25.737,49.723
		v88.182c0,4.268-1.618,6.606-4.966,6.606H267v10h73v-10H328.537z"/>
	<path d="M553.46,189.804c0,10.118-8.201,18.325-18.326,18.325c-10.117,0-18.323-8.207-18.323-18.325
		c0-10.119,8.206-18.326,18.323-18.326C545.259,171.478,553.46,179.685,553.46,189.804z"/>
	<path d="M694.178,386.219c0,12.296-9.968,22.268-22.271,22.268c-12.293,0-22.263-9.972-22.263-22.268s9.97-22.27,22.263-22.27
		C684.21,363.949,694.178,373.923,694.178,386.219z"/>
	<path d="M341.141,362.65c0,25.163,14.113,40.529,38.064,41.953l20.971-12.126c-14.957-0.971-23.672-11.823-23.672-32.937
		c0-31.077,18.496-44.677,68.496-44.677v26.811c-2,11.656-3.399,21.845-8.244,29.994L479,347.452v-55.11
		c0-37.292-23.355-54.772-65.311-54.772c-38.842,0-63.144,15.146-63.144,36.512c0,10.486,5.71,18.261,16.976,18.261
		c8.549,0,15.098-4.279,15.098-13.215c0-6.602-3.527-8.537-3.527-14.753c0-8.165,5.959-16.319,29.653-16.319
		c25.245,0,36.255,9.318,36.255,33.797v22.526C372,304.378,341.141,323.028,341.141,362.65z"/>
	<path d="M521,258.541v64.182l35-19.288v-62.927h-54v12h14.679C519.793,253.508,521,254.271,521,258.541z"/>
	<path d="M594,188.714v91.327l34-19.285v-89.248h-53v9.828l14.35-0.782C592.461,181.719,594,184.439,594,188.714z"/>
</g>
<path d="M371.409,165.736c-8.261,15.254-24.746,29.893-50.377,29.893c-32.629-0.389-49.948-23.121-48.939-79.121H384v-8.501
	c0-45.756-28.378-68.977-69.167-68.977c-51.272,0-78.086,29.521-78.086,85.845c0,54.771,24.081,83.294,78.854,83.294
	c27.535,0,53.998-13.562,65.388-36.903L371.409,165.736z M314.814,49.816c27.564,0,36.128,19.906,36.128,47.303
	c0,10.186-6.655,9.389-12.201,9.389h-66.65C273.67,77.508,283.742,49.816,314.814,49.816z"/>
<path d="M480.366,182.001c-2.902,8.721-12.479,15.13-19.747,15.13c-12.037,0-15.619-5.44-15.619-25.253V53.508h17v-11h-17v-37
	h-11.49C425.356,40.585,417,42.047,388,42.047v11.461h22V168.77c0,27.969,10.584,39.622,37.003,39.622
	c23.631,0,36.288-7.722,41.37-21.627L480.366,182.001z"/>
<path d="M140.661,563.736c-8.26,15.254-24.746,29.893-50.377,29.893c-32.629-0.389-49.948-23.121-48.939-79.121H153v-8.5
	c0-45.756-28.252-68.977-69.04-68.977c-51.272,0-78.023,29.521-78.023,85.844c0,54.771,24.112,83.295,78.886,83.295
	c27.535,0,54.013-13.563,65.404-36.904L140.661,563.736z M84.066,447.816c27.564,0,36.128,19.906,36.128,47.303
	c0,10.186-6.655,9.389-12.201,9.389h-66.65C42.922,475.508,52.994,447.816,84.066,447.816z"/>
<path d="M171.805,448.508c3.492,0,5.195,1.794,5.195,6.838v95.174c0,38.846,15.075,55.158,51.977,55.158
	c25.84,0,46.192-14.08,57.023-36.319c0,9.105,0,30.149,0,33.149h54v-12h-14.727c-3.102,0-4.273-1.579-4.273-5.85V455.346
	c0-4.268,1.2-6.838,4.63-6.838H340v-10h-76v10h18.124c3.646,0,4.876,1.794,4.876,6.838v68.372c-1,41.954-21.02,69.532-50.931,69.532
	c-23.695,0-26.069-16.702-26.069-49.723v-88.182c0-4.268,1.958-6.838,5.312-6.838H233v-10h-76v10H171.805z"/>
</svg>
