<svg xmlns:rdf="http://www.w3.org/1999/02/22-rdf-syntax-ns#" xmlns="http://www.w3.org/2000/svg" xml:space="preserve" height="123.12" viewBox="0 0 480.625 123.125" width="480.62" version="1.1" xmlns:cc="http://creativecommons.org/ns#" xmlns:dc="http://purl.org/dc/elements/1.1/"><g transform="matrix(1.25 0 0 -1.25 0 123.12)"><g transform="scale(.1)"><path d="m654.98 401.16-21.629 15.973-90.167-128.44-130.1 90.508 19.633 18.629-111.8 111.8 74.535 74.531 21.625-15.641 90.172 128.44 130.43-91.832-19.297-18.641 110.47-110.46-73.868-74.871zm119.45 113.3 37.933 52.898-312.44 220.61-271.01-270.27 47.668-46.414-38.184-54.156 311.94-220.1 269.52 271.01-45.421 46.422" fill="#60c78e"/><g fill="#171717"><path d="m1116.1 425.32c-1.73-7.953-4.48-22.695-8.24-44.226-12.14-2.75-21.68-4.485-28.62-5.207-6.94-0.715-13.44-1.082-19.51-1.082-10.7 0-20.27 1.012-28.73 3.035-8.45 2.027-15.43 5.598-20.92 10.727-5.49 5.132-9.22 11.128-11.165 18-1.954 6.859-2.926 13.984-2.926 21.351 0 1.875 0.07 4.41 0.219 7.59 0.136 3.18 0.714 13.445 1.726 30.789l4.976 90.191h-31.206c0.718 8.672 1.375 22.618 1.949 41.844h32.657c0.86 8.383 1.73 22.617 2.58 42.707l25.64 4.988c5.35 1.012 15.7 3.395 31.06 7.157-1.04-19.512-1.63-37.797-1.79-54.852h55.12c-1.01-19.515-1.52-33.461-1.52-41.844h-55.29c-3.04-58.828-4.56-92.871-4.56-102.11 0-8.965 0.98-15.902 2.93-20.816 1.95-4.918 5.09-8.457 9.43-10.625 4.33-2.168 8.96-3.25 13.88-3.25 3.61 0 7.41 0.285 11.39 0.867 3.97 0.57 10.94 2.168 20.92 4.769"/><path d="m1117.3 280.49c-2.6 21.68-4.69 37.289-6.29 46.832 13.88-6.504 26.96-9.757 39.25-9.757 3.76 0 7.59 0.468 11.49 1.406 3.91 0.941 7.52 2.277 10.85 4.011 2.16 1.153 4.37 2.813 6.61 4.973 2.24 2.168 5.31 6.141 9.21 11.906 3.91 5.778 7.3 11.481 10.2 17.11 2.31 4.824 4.68 10.898 7.14 18.211l-45.1 131.81-32.95 93.512c15.17-0.297 26.08-0.441 32.73-0.441 7.66 0 17.7 0.144 30.14 0.441 3.03-12.004 5.85-22.414 8.46-31.227l20.61-68.089c6.36-20.965 10.93-36.719 13.67-47.274 1.74-6.933 3.76-16.113 6.08-27.531 4.33 13.152 8.08 23.851 11.26 32.09 5.63 15.031 13.5 35.125 23.61 60.281l21 51.824c3.76 9.246 7.58 19.227 11.48 29.926 13.01-0.297 22.92-0.441 29.72-0.441 6.22 0 16.63 0.144 31.24 0.441l-83.47-186.98-36.2-82.547c-5.07-10.692-9.91-18.996-14.53-24.918-3.76-5.055-7.88-9.391-12.36-13-4.33-3.465-8.96-6.356-13.88-8.664-6.21-2.895-12.93-5.203-20.16-6.938-8.23-1.73-16.55-2.594-24.93-2.594-4.77 0-11.42 0.426-19.94 1.297-8.53 0.868-16.85 2.317-24.94 4.336"/><path d="m1394.3 638.22c0.57 14.886 0.87 26.308 0.87 34.258v6.937c13.14-0.293 23.84-0.434 32.08-0.434 11.27 0 21.75 0.141 31.44 0.434-0.43-3.613-0.73-7.734-0.87-12.359l-1.08-28.836c-10.99 0.289-21.11 0.437-30.36 0.437s-19.94-0.148-32.08-0.437zm-11.88-258.22c2.2 21.68 3.74 39.82 4.62 54.414 1.47 23.133 2.75 49.797 3.86 80.008 1.1 30.203 1.87 58.894 2.31 86.074 14.08-0.297 24.64-0.441 31.68-0.441 6.47 0 16.95 0.144 31.46 0.441-1.96-25.152-3.53-49.148-4.71-71.984-1.19-22.84-2.06-49-2.62-78.481-0.55-29.488-0.83-52.832-0.83-70.031-13.18 0.289-23.74 0.43-31.7 0.43-7.52 0-18.87-0.141-34.07-0.43"/><path d="m1490 380c3.31 32.809 6.07 69.668 8.3 110.57 2.23 40.903 3.49 77.547 3.78 109.93 13.31-0.297 23.94-0.441 31.9-0.441 9.4 0 19.39 0.144 29.95 0.441l-2.41-36.863c4.48 6.359 8.42 11.418 11.82 15.176 3.4 3.761 7.73 7.441 13.01 11.062 5.28 3.605 10.91 6.504 16.91 8.672s12.72 3.898 20.17 5.203c7.44 1.301 15.21 1.949 23.31 1.949 12.87 0 25.19-1.629 36.97-4.879 11.79-3.254 21.29-8.422 28.52-15.504 7.23-7.078 11.99-14.816 14.31-23.199 2.31-8.383 3.47-17.269 3.47-26.664 0-3.898-0.22-10.117-0.65-18.644l-4.48-94.743c-0.57-13.16-0.92-27.179-1.07-42.062-11.43 0.289-21.21 0.43-29.31 0.43-11 0-22.08-0.141-33.22-0.43 1.16 12.574 2.61 34.504 4.35 65.797s2.61 51.996 2.61 62.121c0 11.414-1.8 20.594-5.41 27.531-3.61 6.942-9.21 12.215-16.79 15.824-7.58 3.618-15.78 5.422-24.58 5.422-8.68 0-16.76-1.664-24.27-4.984-7.51-3.324-14.01-8.168-19.5-14.527-5.78-6.504-10.25-14.528-13.43-24.063-3.32-10.121-5.77-26.816-7.36-50.082-1.46-20.676-2.62-48.352-3.49-83.039-11.15 0.289-21.21 0.43-30.19 0.43-9.12 0-20.19-0.141-33.22-0.43"/><path d="m1901.7 425.32c-1.72-7.953-4.47-22.695-8.22-44.226-12.14-2.75-21.68-4.485-28.64-5.207-6.93-0.715-13.43-1.082-19.5-1.082-10.7 0-20.27 1.012-28.73 3.035-8.45 2.027-15.43 5.598-20.92 10.727-5.49 5.132-9.22 11.128-11.16 18-1.95 6.859-2.93 13.984-2.93 21.351 0 1.875 0.07 4.41 0.22 7.59 0.13 3.18 0.72 13.445 1.72 30.789l4.98 90.191h-31.21c0.72 8.672 1.38 22.618 1.95 41.844h32.66c0.86 8.383 1.73 22.617 2.58 42.707l25.64 4.988c5.35 1.012 15.7 3.395 31.06 7.157-1.04-19.512-1.63-37.797-1.79-54.852h55.12c-1.01-19.515-1.51-33.461-1.51-41.844h-55.3c-3.04-58.828-4.56-92.871-4.56-102.11 0-8.965 0.98-15.902 2.92-20.816 1.96-4.918 5.11-8.457 9.44-10.625 4.34-2.168 8.96-3.25 13.88-3.25 3.61 0 7.42 0.285 11.39 0.867 3.98 0.57 10.95 2.168 20.91 4.769"/><path d="m1970.9 516.81 101.45-0.215c0 6.906-0.21 12.019-0.64 15.332-0.43 3.304-1.41 7.082-2.93 11.336-1.51 4.242-3.58 7.984-6.17 11.226-2.6 3.239-5.65 5.934-9.1 8.094-3.48 2.16-7.49 3.813-12.04 4.969-4.56 1.148-9.43 1.726-14.64 1.726-6.07 0-11.96-0.941-17.67-2.808-5.71-1.875-10.95-4.61-15.71-8.207-4.78-3.594-8.65-7.625-11.6-12.09-2.96-4.461-5.18-8.746-6.62-12.852-1.45-4.101-2.9-9.605-4.33-16.511zm140.05-87.59c-1.88-8.531-4.54-23.852-8.02-45.961-15.61-3.324-28.76-5.567-39.46-6.727-10.7-1.148-21.47-1.73-32.31-1.73-18.92 0-35.88 1.879-50.84 5.629-14.96 3.754-28.07 10.648-39.34 20.687-11.27 10.035-19.58 22.344-24.94 36.93-5.35 14.586-8.02 29.891-8.02 45.922 0 17.754 3.11 34.976 9.31 51.656 6.23 16.68 14.94 30.328 26.14 40.941 11.2 10.614 23.95 18.125 38.27 22.528 14.3 4.402 29.27 6.605 44.87 6.605 14.75 0 28.76-1.844 42.07-5.519 13.29-3.68 24.45-9.7 33.5-18.067 9.02-8.367 15.96-18.429 20.8-30.187s7.27-24.852 7.27-39.281c0-6.782-0.73-13.774-2.16-20.985l-158.93-0.215c-0.28-5.351-0.43-9.621-0.43-12.793 0-9.687 1.65-18.574 4.99-26.672 3.32-8.093 8.16-14.96 14.52-20.593 6.36-5.641 13.95-9.793 22.77-12.465 8.8-2.684 17.48-4.016 26.01-4.016 9.98 0 20.78 1.086 32.41 3.254s25.48 5.856 41.52 11.059"/><path d="m2153.5 380 6.27 102.98 1.73 59.832c0.3 12.293 0.43 24.645 0.43 37.078 0 2.168-0.13 9.032-0.43 20.602 13.44-0.297 23.35-0.441 29.71-0.441 7.37 0 17.13 0.144 29.28 0.441l-1.09-30.574c5.5 7.804 10.19 13.621 14.1 17.453 3.9 3.828 8.27 7.117 13.11 9.867 4.85 2.738 10.23 4.84 16.15 6.285 5.92 1.446 12.01 2.168 18.22 2.168 5.78 0 11.71-0.722 17.78-2.168 0-13.441 0.65-30.5 1.94-51.168-8.52 2.309-16.26 3.473-23.19 3.473-8.39 0-15.79-1.266-22.23-3.801-6.43-2.523-12.22-6.355-17.35-11.484-5.14-5.137-9.35-11.457-12.68-18.973-2.75-6.07-4.78-13.949-6.07-23.629-1.13-7.519-2.08-20.383-2.85-38.597-0.78-18.207-1.17-36.133-1.17-53.766 0-6.797 0.21-15.32 0.64-25.582-10.99 0.289-21.05 0.43-30.17 0.43-8.98 0-19.69-0.141-32.13-0.43"/><path d="m2315.2 380c3.3 32.809 6.06 69.668 8.29 110.57 2.22 40.903 3.48 77.547 3.77 109.93 13.32-0.297 23.95-0.441 31.91-0.441 9.4 0 19.38 0.144 29.95 0.441l-2.41-36.863c4.48 6.359 8.42 11.418 11.83 15.176 3.38 3.761 7.72 7.441 13 11.062 5.28 3.605 10.92 6.504 16.92 8.672 5.99 2.168 12.71 3.898 20.16 5.203 7.44 1.301 15.22 1.949 23.31 1.949 12.86 0 25.19-1.629 36.98-4.879 11.77-3.254 21.28-8.422 28.5-15.504 7.23-7.078 12-14.816 14.32-23.199 2.31-8.383 3.47-17.269 3.47-26.664 0-3.898-0.22-10.117-0.65-18.644l-4.48-94.743c-0.57-13.16-0.93-27.179-1.07-42.062-11.44 0.289-21.2 0.43-29.31 0.43-11.01 0-22.07-0.141-33.23-0.43 1.17 12.574 2.62 34.504 4.37 65.797 1.74 31.293 2.61 51.996 2.61 62.121 0 11.414-1.81 20.594-5.42 27.531-3.62 6.942-9.21 12.215-16.79 15.824-7.58 3.618-15.78 5.422-24.59 5.422-8.66 0-16.75-1.664-24.26-4.984-7.51-3.324-14.01-8.168-19.5-14.527-5.78-6.504-10.25-14.528-13.43-24.063-3.32-10.121-5.78-26.816-7.37-50.082-1.45-20.676-2.61-48.352-3.49-83.039-11.15 0.289-21.21 0.43-30.17 0.43-9.12 0-20.2-0.141-33.22-0.43"/><path d="m2648.4 516.81 101.46-0.215c0 6.906-0.21 12.019-0.64 15.332-0.44 3.304-1.42 7.082-2.94 11.336-1.51 4.242-3.57 7.984-6.17 11.226-2.61 3.239-5.64 5.934-9.11 8.094s-7.48 3.813-12.04 4.969c-4.55 1.148-9.42 1.726-14.62 1.726-6.08 0-11.97-0.941-17.67-2.808-5.71-1.875-10.96-4.61-15.72-8.207-4.77-3.594-8.64-7.625-11.6-12.09-2.96-4.461-5.17-8.746-6.62-12.852-1.44-4.101-2.89-9.605-4.33-16.511zm140.06-87.59c-1.88-8.531-4.55-23.852-8.03-45.961-15.61-3.324-28.76-5.567-39.45-6.727-10.71-1.148-21.47-1.73-32.31-1.73-18.93 0-35.88 1.879-50.85 5.629-14.95 3.754-28.06 10.648-39.34 20.687-11.27 10.035-19.58 22.344-24.94 36.93-5.35 14.586-8.01 29.891-8.01 45.922 0 17.754 3.1 34.976 9.31 51.656 6.22 16.68 14.93 30.328 26.13 40.941 11.2 10.614 23.96 18.125 38.27 22.528 14.3 4.402 29.27 6.605 44.88 6.605 14.74 0 28.76-1.844 42.05-5.519 13.3-3.68 24.46-9.7 33.51-18.067 9.03-8.367 15.96-18.429 20.81-30.187 4.83-11.758 7.26-24.852 7.26-39.281 0-6.782-0.72-13.774-2.16-20.985l-158.92-0.215c-0.3-5.351-0.44-9.621-0.44-12.793 0-9.687 1.66-18.574 4.98-26.672 3.33-8.093 8.16-14.96 14.53-20.593 6.36-5.641 13.96-9.793 22.77-12.465 8.81-2.684 17.49-4.016 26.01-4.016 9.97 0 20.78 1.086 32.42 3.254 11.62 2.168 25.47 5.856 41.52 11.059"/><path d="m2958.5 425.32c-1.73-7.953-4.49-22.695-8.24-44.226-12.14-2.75-21.69-4.485-28.62-5.207-6.94-0.715-13.45-1.082-19.51-1.082-10.7 0-20.27 1.012-28.73 3.035-8.46 2.027-15.43 5.598-20.93 10.727-5.49 5.132-9.21 11.128-11.15 18-1.96 6.859-2.94 13.984-2.94 21.351 0 1.875 0.08 4.41 0.22 7.59s0.73 13.445 1.73 30.789l4.97 90.191h-31.2c0.72 8.672 1.37 22.618 1.95 41.844h32.66c0.86 8.383 1.72 22.617 2.58 42.707l25.63 4.988c5.36 1.012 15.71 3.395 31.06 7.157-1.04-19.512-1.63-37.797-1.78-54.852h55.11c-1.01-19.515-1.51-33.461-1.51-41.844h-55.3c-3.03-58.828-4.56-92.871-4.56-102.11 0-8.965 0.99-15.902 2.93-20.816 1.95-4.918 5.1-8.457 9.43-10.625 4.34-2.168 8.97-3.25 13.88-3.25 3.62 0 7.41 0.285 11.39 0.867 3.97 0.57 10.95 2.168 20.93 4.769"/><path d="m2951.8 280.49c-2.6 21.68-4.69 37.289-6.28 46.832 13.87-6.504 26.95-9.757 39.25-9.757 3.75 0 7.58 0.468 11.48 1.406 3.91 0.941 7.52 2.277 10.85 4.011 2.17 1.153 4.37 2.813 6.61 4.973 2.24 2.168 5.31 6.141 9.21 11.906 3.9 5.778 7.31 11.481 10.2 17.11 2.3 4.824 4.68 10.898 7.13 18.211l-45.09 131.81-32.95 93.512c15.17-0.297 26.08-0.441 32.73-0.441 7.66 0 17.71 0.144 30.14 0.441 3.03-12.004 5.85-22.414 8.46-31.227l20.61-68.089c6.37-20.965 10.92-36.719 13.67-47.274 1.74-6.933 3.76-16.113 6.08-27.531 4.33 13.152 8.08 23.851 11.27 32.09 5.62 15.031 13.48 35.125 23.6 60.281l21 51.824c3.76 9.246 7.57 19.227 11.48 29.926 13.02-0.297 22.93-0.441 29.72-0.441 6.22 0 16.63 0.144 31.24 0.441l-83.47-186.98-36.21-82.547c-5.06-10.692-9.9-18.996-14.52-24.918-3.76-5.055-7.88-9.391-12.35-13-4.34-3.465-8.98-6.356-13.89-8.664-6.21-2.895-12.93-5.203-20.16-6.938-8.23-1.73-16.55-2.594-24.93-2.594-4.77 0-11.43 0.426-19.95 1.297-8.53 0.868-16.84 2.317-24.93 4.336"/><path d="m3158.2 380c0.58 10.406 1.37 29.844 2.38 58.32l32.96-0.433c2.88 0 12.36 0.14 28.39 0.433-0.71-10.551-1.29-21.176-1.73-31.875l-1.29-26.445-28.4 0.43c-1.17 0-11.94-0.141-32.31-0.43"/><path d="m3411.8 430.08c-0.74-5.922-1.81-12.644-3.26-20.16-1.45-7.52-2.96-16.84-4.56-27.969-20.67-4.769-41.04-7.152-61.13-7.152-11.71 0-22.99 1.082-33.83 3.25s-20.91 6.035-30.24 11.597c-9.33 5.567-17.53 12.907-24.61 22.008-7.08 9.106-12.39 20.125-15.93 33.063-3.55 12.933-5.31 26.265-5.31 40.004 0 18.211 2.92 35.699 8.78 52.465 5.85 16.761 14.41 30.464 25.69 41.082 11.27 10.625 23.81 17.855 37.62 21.687 13.8 3.82 29.16 5.742 46.06 5.742 9.4 0 19.09-0.543 29.06-1.629 9.98-1.082 21.75-3.289 35.34-6.609l3.25-47.481c-21.49 7.375-40.26 11.055-56.27 11.055-9.81 0-19.08-1.664-27.81-4.984-8.73-3.324-16.23-8.567-22.51-15.719s-10.74-15.43-13.42-24.824c-2.68-9.399-4-19.008-4-28.836 0-13.734 2.13-25.617 6.37-35.664 4.26-10.047 11.59-17.817 21.98-23.309 10.38-5.496 22.21-8.234 35.48-8.234 6.49 0 14.39 0.824 23.71 2.488 9.29 1.664 19.15 4.375 29.54 8.129"/><path d="m3428.8 380c0.58 14.16 1.02 30.137 1.3 47.91 5.63 5.641 9.31 9.543 11.04 11.711l105.9 119.68h-11.26c-19.2 0-36.05-0.215-50.55-0.649-14.52-0.433-28.71-1.086-42.55-1.953 1 13.875 1.51 28.473 1.51 43.801 25.15-0.297 48.71-0.441 70.68-0.441 39.75 0 73.5 0.144 101.25 0.441-0.58-6.074-1.37-22.918-2.38-50.52l-108.06-120.33-7.35-7.586c14.42-0.582 26.55-0.871 36.37-0.871 21.22 0 35.84 0.11 43.85 0.328 8 0.215 17.86 0.61 29.55 1.192-1.17-10.84-2.17-25.078-3.03-42.711-25.44 0.289-54.2 0.43-86.29 0.43-34.27 0-64.26-0.141-89.98-0.43"/></g></g></g></svg>
